<?xml version="1.0" encoding="utf-8"?>
<!-- Generator: Adobe Illustrator 26.3.1, SVG Export Plug-In . SVG Version: 6.00 Build 0)  -->
<svg version="1.1" id="Layer_1" xmlns="http://www.w3.org/2000/svg" xmlns:xlink="http://www.w3.org/1999/xlink" x="0px" y="0px"
	 viewBox="0 0 612 792" style="enable-background:new 0 0 612 792;" xml:space="preserve">
<style type="text/css">
	.st0{fill:none;}
	.st1{opacity:0.1;fill:#1C75BC;stroke:#2E3192;stroke-miterlimit:10;enable-background:new    ;}
	.st2{font-family:'ArialMT';}
	.st3{font-size:12px;}
	.st4{font-family:'Impact';}
	.st5{font-size:19px;}
	.st6{font-size:18px;}
	.st7{fill:#006838;}
	.st8{fill:#ED1C24;}
	.st9{fill:none;stroke:#000000;stroke-width:0.5;stroke-miterlimit:10;}
	.st10{fill:none;stroke:#2E3192;stroke-miterlimit:10;stroke-dasharray:1.0007,1.0007;}
	.st11{fill:none;stroke:#2E3192;stroke-width:0.75;stroke-miterlimit:10;}
	.st12{fill:none;stroke:#2E3192;stroke-miterlimit:10;stroke-dasharray:1.0045,1.0045;}
	.st13{fill:none;stroke:#2E3192;stroke-miterlimit:10;stroke-dasharray:0.9996,0.9996;}
	.st14{font-family:'CourierNewPS-BoldMT';}
	.st15{font-size:10px;}
	.st16{font-family:'CourierNewPS-ItalicMT';}
	.st17{fill:none;stroke:#2E3192;stroke-miterlimit:10;}
	.st18{fill:none;stroke:#D1D3D4;stroke-width:4;stroke-miterlimit:10;}
	.st19{fill:#D1D3D4;}
	.st20{fill:none;stroke:#D1D3D4;stroke-width:4;stroke-linecap:round;stroke-miterlimit:10;}
	.st21{font-family:'MyriadPro-Regular';}
</style>
<rect x="-0.6" y="550" class="st0" width="585.8" height="226.2"/>
<rect x="-2.9" y="293.3" class="st1" width="588" height="226.2"/>
<rect x="1.7" y="190.2" class="st1" width="583.5" height="81.4"/>
<rect x="1.7" y="117.9" class="st1" width="583.5" height="66.4"/>
<text transform="matrix(1 0 0 1 296.1472 77.5335)" class="st2 st3"> typeof() </text>
<text transform="matrix(1 0 0 1 130.6827 136.4925)" class="st4 st3">Logical </text>
<text transform="matrix(1 0 0 1 198.5735 137.4557)" class="st4 st3">Double </text>
<text transform="matrix(1 0 0 1 259.86 139.1346)" class="st4 st3">Integer</text>
<text transform="matrix(1 0 0 1 325.8277 140.4782)" class="st4 st3">Character</text>
<text transform="matrix(1 0 0 1 490.7216 138.7484)" class="st4 st3">List</text>
<text transform="matrix(1 0 0 1 6.6486 171.8804)" class="st2 st5">is.atomic()</text>
<text transform="matrix(1 0 0 1 7.6182 265.5845)" class="st2 st6">is.vector()</text>
<text transform="matrix(1 0 0 1 8.3623 381.5734)" class="st2 st6">is.matrix()</text>
<text transform="matrix(1 0 0 1 8.3623 398.2613)" class="st2 st6">is.array()</text>
<text transform="matrix(1 0 0 1 414.3805 139.0003)" class="st4 st3">NULL</text>
<g>
	<g>
		<path class="st7" d="M141.7,166.6c0.5,0.7,1.1,1.4,1.7,2.1c0.6,0.6,1.2,1.4,1.9,1.9c0.9,0.6,2,0.4,2.7-0.4c0.5-0.6,0.8-1.3,1.2-2
			c1.4-2.5,3-5,5.4-6.7c0.7-0.5,1-1.3,0.5-2.1c-0.4-0.6-1.4-1-2.1-0.5c-2.3,1.6-4.1,3.8-5.6,6.2c-0.3,0.5-0.6,1.1-1,1.6
			c-0.2,0.3-0.3,0.6-0.5,0.8c-0.1,0.1-0.2,0.3-0.2,0.4c-0.1,0.1-0.1,0.1,0,0.1c0.2-0.3,0.6-0.4,1.1-0.2c0,0,0.1,0,0.1,0.1
			c-0.1-0.1-0.2-0.2-0.3-0.3s-0.2-0.2-0.4-0.3c-0.3-0.2-0.5-0.5-0.8-0.8c-0.5-0.5-0.9-1.1-1.4-1.6c-0.5-0.6-1.3-1-2.1-0.5
			C141.6,164.9,141.2,165.9,141.7,166.6L141.7,166.6z"/>
	</g>
</g>
<g>
	<g>
		<path class="st7" d="M207.8,164.8c0.5,0.7,1.1,1.4,1.7,2.1c0.6,0.6,1.2,1.4,1.9,1.9c0.9,0.6,2,0.4,2.7-0.4c0.5-0.6,0.8-1.3,1.2-2
			c1.4-2.5,3-5,5.4-6.7c0.7-0.5,1-1.3,0.5-2.1c-0.4-0.6-1.4-1-2.1-0.5c-2.3,1.6-4.1,3.8-5.6,6.2c-0.3,0.5-0.6,1.1-1,1.6
			c-0.2,0.3-0.3,0.6-0.5,0.8c-0.1,0.1-0.2,0.3-0.2,0.4c-0.1,0.1-0.1,0.1,0,0.1c0.2-0.3,0.6-0.4,1.1-0.2c0,0,0.1,0,0.1,0.1
			c-0.1-0.1-0.2-0.2-0.3-0.3s-0.2-0.2-0.4-0.3c-0.3-0.2-0.5-0.5-0.8-0.8c-0.5-0.5-0.9-1.1-1.4-1.6c-0.5-0.6-1.3-1-2.1-0.5
			C207.7,163.1,207.3,164.1,207.8,164.8L207.8,164.8z"/>
	</g>
</g>
<g>
	<g>
		<path class="st7" d="M268.9,164.3c0.5,0.7,1.1,1.4,1.7,2.1c0.6,0.6,1.2,1.4,1.9,1.9c0.9,0.6,2,0.4,2.7-0.4c0.5-0.6,0.8-1.3,1.2-2
			c1.4-2.5,3-5,5.4-6.7c0.7-0.5,1-1.3,0.5-2.1c-0.4-0.6-1.4-1-2-0.5c-2.3,1.6-4.1,3.8-5.6,6.2c-0.3,0.5-0.6,1.1-1,1.6
			c-0.2,0.3-0.3,0.6-0.5,0.8c-0.1,0.1-0.2,0.3-0.2,0.4c-0.1,0.1-0.1,0.1,0,0.1c0.2-0.3,0.6-0.4,1.1-0.2c0,0,0.1,0,0.1,0.1
			c-0.1-0.1-0.2-0.2-0.3-0.3c-0.1-0.1-0.2-0.2-0.4-0.3c-0.3-0.2-0.5-0.5-0.8-0.8c-0.5-0.5-1-1.1-1.4-1.6c-0.5-0.6-1.3-1-2-0.5
			C268.8,162.6,268.4,163.6,268.9,164.3L268.9,164.3z"/>
	</g>
</g>
<g>
	<g>
		<path class="st7" d="M343.9,165.8c0.5,0.7,1.1,1.4,1.7,2.1c0.6,0.6,1.2,1.4,1.9,1.9c0.9,0.6,2,0.4,2.7-0.4c0.5-0.6,0.8-1.3,1.2-2
			c1.4-2.5,3-5,5.4-6.7c0.7-0.5,1-1.3,0.5-2.1c-0.4-0.6-1.4-1-2-0.5c-2.3,1.6-4.1,3.8-5.6,6.2c-0.3,0.5-0.6,1.1-1,1.6
			c-0.2,0.3-0.3,0.6-0.5,0.8c-0.1,0.1-0.2,0.3-0.2,0.4c-0.1,0.1-0.1,0.1,0,0.1c0.2-0.3,0.6-0.4,1.1-0.2c0,0,0.1,0,0.1,0.1
			c-0.1-0.1-0.2-0.2-0.3-0.3c-0.1-0.1-0.2-0.2-0.4-0.3c-0.3-0.2-0.5-0.5-0.8-0.8c-0.5-0.5-1-1.1-1.4-1.6c-0.5-0.6-1.3-1-2-0.5
			C343.8,164.1,343.4,165.1,343.9,165.8L343.9,165.8z"/>
	</g>
</g>
<g>
	<g>
		<path class="st7" d="M418.9,164.3c0.5,0.7,1.1,1.4,1.7,2.1c0.6,0.6,1.2,1.4,1.9,1.9c0.9,0.6,2,0.4,2.7-0.4c0.5-0.6,0.8-1.3,1.2-2
			c1.4-2.5,3-5,5.4-6.7c0.7-0.5,1-1.3,0.5-2.1c-0.4-0.6-1.4-1-2-0.5c-2.3,1.6-4.1,3.8-5.6,6.2c-0.3,0.5-0.6,1.1-1,1.6
			c-0.2,0.3-0.3,0.6-0.5,0.8c-0.1,0.1-0.2,0.3-0.2,0.4c-0.1,0.1-0.1,0.1,0,0.1c0.2-0.3,0.6-0.4,1.1-0.2c0,0,0.1,0,0.1,0.1
			c-0.1-0.1-0.2-0.2-0.3-0.3c-0.1-0.1-0.2-0.2-0.4-0.3c-0.3-0.2-0.5-0.5-0.8-0.8c-0.5-0.5-1-1.1-1.4-1.6c-0.5-0.6-1.3-1-2-0.5
			C418.8,162.6,418.4,163.6,418.9,164.3L418.9,164.3z"/>
	</g>
</g>
<g>
	<g>
		<path class="st8" d="M498.7,168.9c2.4-3.3,6-6.1,9.8-7.5c0.8-0.3,1.3-1,1-1.9c-0.2-0.7-1.1-1.3-1.9-1.1c-4.7,1.8-8.6,4.8-11.6,8.9
			c-0.5,0.7-0.1,1.7,0.5,2.1C497.4,169.9,498.2,169.5,498.7,168.9L498.7,168.9z"/>
	</g>
</g>
<g>
	<g>
		<path class="st8" d="M495.8,160c3.4,3.1,7.2,5.7,11.4,7.6c0.7,0.3,1.6,0.2,2-0.5c0.4-0.6,0.2-1.7-0.5-2.1c-4-1.8-7.6-4.2-10.8-7.1
			c-0.6-0.6-1.5-0.6-2.1,0C495.3,158.4,495.2,159.4,495.8,160L495.8,160z"/>
	</g>
</g>
<g>
	<g>
		<path class="st8" d="M138.5,492.4c2.4-3.3,6-6,9.8-7.5c0.8-0.3,1.3-1,1.1-1.9c-0.2-0.7-1.1-1.3-1.9-1c-4.7,1.8-8.6,4.8-11.6,8.9
			c-0.5,0.7-0.1,1.7,0.5,2C137.2,493.4,138,493,138.5,492.4L138.5,492.4z"/>
	</g>
</g>
<g>
	<g>
		<path class="st8" d="M135.6,483.5c3.4,3.1,7.2,5.7,11.4,7.6c0.7,0.3,1.6,0.2,2.1-0.5c0.4-0.6,0.2-1.7-0.5-2
			c-3.9-1.8-7.6-4.2-10.8-7.1c-0.6-0.5-1.5-0.6-2.1,0C135.1,481.9,135,482.9,135.6,483.5L135.6,483.5z"/>
	</g>
</g>
<g>
	<g>
		<path class="st8" d="M204.6,492c2.4-3.3,6-6,9.8-7.5c0.8-0.3,1.3-1,1.1-1.9c-0.2-0.7-1.1-1.3-1.9-1c-4.7,1.8-8.6,4.8-11.6,8.9
			c-0.5,0.7-0.1,1.7,0.5,2C203.3,493,204.1,492.6,204.6,492L204.6,492z"/>
	</g>
</g>
<g>
	<g>
		<path class="st8" d="M201.8,483.1c3.4,3.1,7.2,5.7,11.4,7.6c0.7,0.3,1.6,0.2,2.1-0.5c0.4-0.6,0.2-1.7-0.5-2
			c-3.9-1.8-7.6-4.2-10.8-7.1c-0.6-0.5-1.5-0.6-2.1,0C201.2,481.5,201.2,482.5,201.8,483.1L201.8,483.1z"/>
	</g>
</g>
<g>
	<g>
		<path class="st8" d="M266.4,491.6c2.4-3.3,6-6,9.8-7.5c0.8-0.3,1.3-1,1-1.9c-0.2-0.7-1.1-1.3-1.9-1c-4.7,1.8-8.6,4.8-11.6,8.9
			c-0.5,0.7-0.1,1.7,0.5,2C265.1,492.6,265.9,492.2,266.4,491.6L266.4,491.6z"/>
	</g>
</g>
<g>
	<g>
		<path class="st8" d="M263.5,482.7c3.4,3.1,7.2,5.7,11.4,7.6c0.7,0.3,1.6,0.2,2-0.5c0.4-0.6,0.2-1.7-0.5-2c-4-1.8-7.6-4.2-10.8-7.1
			c-0.6-0.5-1.5-0.6-2.1,0C263,481.1,263,482.1,263.5,482.7L263.5,482.7z"/>
	</g>
</g>
<g>
	<g>
		<path class="st8" d="M340.7,492.9c2.4-3.3,6-6,9.8-7.5c0.8-0.3,1.3-1,1-1.9c-0.2-0.7-1.1-1.3-1.9-1c-4.7,1.8-8.6,4.8-11.6,8.9
			c-0.5,0.7-0.1,1.7,0.5,2C339.4,493.9,340.2,493.6,340.7,492.9L340.7,492.9z"/>
	</g>
</g>
<g>
	<g>
		<path class="st8" d="M337.9,484c3.4,3.1,7.2,5.7,11.4,7.6c0.7,0.3,1.6,0.2,2-0.5c0.4-0.6,0.2-1.7-0.5-2c-4-1.8-7.6-4.2-10.8-7.1
			c-0.6-0.5-1.5-0.6-2.1,0C337.3,482.4,337.3,483.5,337.9,484L337.9,484z"/>
	</g>
</g>
<g>
	<g>
		<path class="st8" d="M418.9,491.5c2.4-3.3,6-6,9.8-7.5c0.8-0.3,1.3-1,1-1.9c-0.2-0.7-1.1-1.3-1.9-1c-4.7,1.8-8.6,4.8-11.6,8.9
			c-0.5,0.7-0.1,1.7,0.5,2C417.6,492.4,418.5,492.1,418.9,491.5L418.9,491.5z"/>
	</g>
</g>
<g>
	<g>
		<path class="st8" d="M416.1,482.5c3.4,3.1,7.2,5.7,11.4,7.6c0.7,0.3,1.6,0.2,2-0.5c0.4-0.6,0.2-1.7-0.5-2c-4-1.8-7.6-4.2-10.8-7.1
			c-0.6-0.5-1.5-0.6-2.1,0C415.5,481,415.5,482,416.1,482.5L416.1,482.5z"/>
	</g>
</g>
<g>
	<g>
		<path class="st8" d="M418.9,513.9c2.4-3.3,6-6,9.8-7.5c0.8-0.3,1.3-1,1-1.9c-0.2-0.7-1.1-1.3-1.9-1c-4.7,1.8-8.6,4.8-11.6,8.9
			c-0.5,0.7-0.1,1.7,0.5,2C417.6,514.8,418.5,514.5,418.9,513.9L418.9,513.9z"/>
	</g>
</g>
<g>
	<g>
		<path class="st8" d="M416.1,504.9c3.4,3.1,7.2,5.7,11.4,7.6c0.7,0.3,1.6,0.2,2-0.5c0.4-0.6,0.2-1.7-0.5-2c-4-1.8-7.6-4.2-10.8-7.1
			c-0.6-0.5-1.5-0.6-2.1,0C415.5,503.4,415.5,504.4,416.1,504.9L416.1,504.9z"/>
	</g>
</g>
<g>
	<g>
		<path class="st8" d="M493.1,492c2.4-3.3,6-6,9.8-7.5c0.8-0.3,1.3-1,1-1.9c-0.2-0.7-1.1-1.3-1.9-1c-4.7,1.8-8.6,4.8-11.6,8.9
			c-0.5,0.7-0.1,1.7,0.5,2C491.8,493,492.6,492.7,493.1,492L493.1,492z"/>
	</g>
</g>
<g>
	<g>
		<path class="st8" d="M490.3,483.1c3.4,3.1,7.2,5.7,11.4,7.6c0.7,0.3,1.6,0.2,2-0.5c0.4-0.6,0.2-1.7-0.5-2c-4-1.8-7.6-4.2-10.8-7.1
			c-0.6-0.5-1.5-0.6-2.1,0C489.7,481.5,489.7,482.6,490.3,483.1L490.3,483.1z"/>
	</g>
</g>
<rect x="126.4" y="124.2" class="st9" width="43.3" height="17.8"/>
<rect x="194.8" y="126" class="st9" width="43.3" height="17.8"/>
<polygon class="st9" points="298,144.1 255.2,144.1 255.3,124.2 298.1,124.2 "/>
<rect x="321.4" y="126" class="st9" width="58.5" height="20.5"/>
<rect x="409.4" y="126" class="st9" width="42.4" height="17.8"/>
<rect x="484.3" y="124.2" class="st9" width="32.5" height="19.3"/>
<text transform="matrix(1 0 0 1 129.8537 212.5429)" class="st4 st3">Logical </text>
<text transform="matrix(1 0 0 1 197.7446 213.5061)" class="st4 st3">Double </text>
<text transform="matrix(1 0 0 1 259.031 215.1849)" class="st4 st3">Integer</text>
<text transform="matrix(1 0 0 1 324.9987 216.5286)" class="st4 st3">Character</text>
<text transform="matrix(1 0 0 1 489.8926 214.7987)" class="st4 st3">List</text>
<text transform="matrix(1 0 0 1 413.5516 215.0507)" class="st4 st3">NULL</text>
<rect x="125.6" y="200.2" class="st9" width="43.3" height="17.8"/>
<rect x="194" y="202" class="st9" width="43.3" height="17.8"/>
<polygon class="st9" points="297.2,220.1 254.4,220.1 254.5,200.2 297.3,200.2 "/>
<rect x="320.5" y="202" class="st9" width="58.5" height="20.6"/>
<rect x="408.5" y="202" class="st9" width="42.4" height="17.8"/>
<rect x="483.5" y="200.2" class="st9" width="32.5" height="19.3"/>
<g>
	<path class="st10" d="M178.9,236.1c0,3.5-8.4,6.4-18.8,6.4c-25-0.3-25-12.4,0-12.7C170.4,229.7,178.9,232.6,178.9,236.1
		L178.9,236.1z"/>
</g>
<g>
	<g>
		<path d="M153,237.2V237c0.5-0.1,0.6-0.1,0.6-0.7v-1.5c0-0.6-0.2-1.1-0.8-1.1c-0.4,0-0.7,0.2-1,0.5v2.1c0,0.6,0.1,0.6,0.6,0.7v0.2
			h-1.9V237c0.6-0.1,0.6-0.1,0.6-0.7v-1.9c0-0.6-0.1-0.6-0.6-0.7v-0.2c0.4-0.1,0.9-0.2,1.3-0.4c0,0.2,0,0.5,0,0.7
			c0.2-0.1,0.4-0.3,0.6-0.4c0.2-0.2,0.5-0.3,0.8-0.3c0.7,0,1.2,0.5,1.2,1.4v1.7c0,0.6,0.1,0.6,0.6,0.7v0.2L153,237.2L153,237.2z"/>
		<path d="M158.3,237.3c-0.1,0-0.3-0.1-0.4-0.2c-0.1-0.1-0.2-0.2-0.2-0.4c-0.4,0.2-0.8,0.6-1.1,0.6c-0.6,0-1.1-0.5-1.1-1.1
			c0-0.4,0.2-0.7,0.7-0.9c0.6-0.2,1.2-0.4,1.4-0.6v-0.2c0-0.6-0.3-1-0.8-1c-0.2,0-0.3,0.1-0.4,0.2c-0.1,0.1-0.2,0.3-0.2,0.6
			c0,0.1-0.1,0.2-0.3,0.2s-0.4-0.2-0.4-0.4c0-0.1,0.1-0.2,0.3-0.4c0.3-0.2,0.8-0.5,1.3-0.6c0.3,0,0.6,0.1,0.8,0.2
			c0.3,0.3,0.5,0.6,0.5,1v1.7c0,0.4,0.1,0.5,0.3,0.5c0.1,0,0.2,0,0.3-0.1l0.1,0.2L158.3,237.3z M157.6,235c-0.2,0.1-0.6,0.3-0.8,0.4
			c-0.3,0.1-0.6,0.3-0.6,0.7c0,0.5,0.4,0.7,0.6,0.7c0.2,0,0.6-0.1,0.7-0.3C157.6,236,157.6,235.4,157.6,235z"/>
		<path d="M164.4,237.2V237c0.5-0.1,0.6-0.1,0.6-0.7v-1.5c0-0.6-0.2-1-0.8-1c-0.3,0-0.7,0.2-1,0.5c0,0.1,0,0.2,0,0.4v1.8
			c0,0.6,0.1,0.6,0.6,0.7v0.2h-1.9V237c0.6-0.1,0.6-0.1,0.6-0.7v-1.6c0-0.7-0.2-1-0.8-1c-0.4,0-0.7,0.2-1,0.5v2.1
			c0,0.6,0.1,0.6,0.6,0.7v0.2h-1.9V237c0.6-0.1,0.6-0.1,0.6-0.7v-1.9c0-0.6,0-0.6-0.5-0.7v-0.2c0.4-0.1,0.9-0.2,1.2-0.4
			c0,0.2,0,0.5,0,0.7c0.2-0.1,0.4-0.3,0.7-0.5c0.2-0.1,0.4-0.2,0.7-0.2c0.4,0,0.8,0.3,1,0.7c0.2-0.2,0.5-0.4,0.7-0.5
			s0.4-0.2,0.7-0.2c0.7,0,1.1,0.5,1.1,1.4v1.7c0,0.6,0.1,0.6,0.6,0.7v0.2L164.4,237.2L164.4,237.2z"/>
		<path d="M170.1,236.4c-0.6,0.7-1.2,0.9-1.5,0.9c-1.1,0-1.8-0.9-1.8-1.9c0-0.6,0.2-1.2,0.6-1.6c0.4-0.4,0.9-0.7,1.3-0.7
			c0.8,0,1.4,0.7,1.4,1.4c0,0.2,0,0.3-0.2,0.3s-1.3,0.1-2.4,0.1c0,1.2,0.7,1.7,1.4,1.7c0.4,0,0.7-0.1,1-0.5L170.1,236.4z
			 M168.6,233.5c-0.4,0-0.8,0.4-0.9,1.1c0.5,0,1,0,1.5,0c0.2,0,0.2,0,0.2-0.2C169.4,233.9,169.1,233.5,168.6,233.5z"/>
	</g>
</g>
<line class="st11" x1="141.2" y1="218.1" x2="155.6" y2="229.7"/>
<g>
	<path class="st10" d="M250.9,237.7c0,3.5-8.4,6.4-18.8,6.4c-25-0.3-25-12.4,0-12.7C242.5,231.4,250.9,234.2,250.9,237.7
		L250.9,237.7z"/>
</g>
<g>
	<g>
		<path d="M225.1,238.9v-0.2c0.5-0.1,0.6-0.1,0.6-0.7v-1.5c0-0.6-0.2-1.1-0.8-1.1c-0.4,0-0.7,0.2-1,0.5v2.1c0,0.6,0.1,0.6,0.6,0.7
			v0.2h-1.9v-0.2c0.6-0.1,0.6-0.1,0.6-0.7v-1.9c0-0.6-0.1-0.6-0.6-0.7v-0.2c0.4-0.1,0.9-0.2,1.3-0.4c0,0.2,0,0.5,0,0.7
			c0.2-0.1,0.4-0.3,0.6-0.4c0.2-0.2,0.5-0.3,0.8-0.3c0.7,0,1.2,0.5,1.2,1.4v1.7c0,0.6,0.1,0.6,0.6,0.7v0.2L225.1,238.9L225.1,238.9z
			"/>
		<path d="M230.4,239c-0.1,0-0.3-0.1-0.4-0.2c-0.1-0.1-0.2-0.2-0.2-0.4c-0.4,0.2-0.8,0.6-1.1,0.6c-0.6,0-1.1-0.5-1.1-1.1
			c0-0.4,0.2-0.7,0.7-0.9c0.6-0.2,1.2-0.4,1.4-0.6v-0.2c0-0.6-0.3-1-0.8-1c-0.2,0-0.3,0.1-0.4,0.2c-0.1,0.1-0.2,0.3-0.2,0.6
			c0,0.1-0.1,0.2-0.3,0.2s-0.4-0.2-0.4-0.4c0-0.1,0.1-0.2,0.3-0.4c0.3-0.2,0.8-0.5,1.3-0.6c0.3,0,0.6,0.1,0.8,0.2
			c0.3,0.3,0.5,0.6,0.5,1v1.7c0,0.4,0.1,0.5,0.3,0.5c0.1,0,0.2,0,0.3-0.1l0.1,0.2L230.4,239z M229.7,236.7c-0.2,0.1-0.6,0.3-0.8,0.4
			c-0.3,0.1-0.6,0.3-0.6,0.7c0,0.5,0.4,0.7,0.6,0.7c0.2,0,0.6-0.1,0.7-0.3C229.7,237.7,229.7,237.1,229.7,236.7z"/>
		<path d="M236.4,238.9v-0.2c0.5-0.1,0.6-0.1,0.6-0.7v-1.5c0-0.6-0.2-1-0.8-1c-0.3,0-0.7,0.2-1,0.5c0,0.1,0,0.2,0,0.4v1.8
			c0,0.6,0.1,0.6,0.6,0.7v0.2h-1.9v-0.2c0.6-0.1,0.6-0.1,0.6-0.7v-1.6c0-0.7-0.2-1-0.8-1c-0.4,0-0.7,0.2-1,0.5v2.1
			c0,0.6,0.1,0.6,0.6,0.7v0.2h-1.9v-0.2c0.6-0.1,0.6-0.1,0.6-0.7v-1.9c0-0.6,0-0.6-0.5-0.7v-0.2c0.4-0.1,0.9-0.2,1.2-0.4
			c0,0.2,0,0.5,0,0.7c0.2-0.1,0.4-0.3,0.7-0.5c0.2-0.1,0.4-0.2,0.7-0.2c0.4,0,0.8,0.3,1,0.7c0.2-0.2,0.5-0.4,0.7-0.5
			s0.4-0.2,0.7-0.2c0.7,0,1.1,0.5,1.1,1.4v1.7c0,0.6,0.1,0.6,0.6,0.7v0.2L236.4,238.9L236.4,238.9z"/>
		<path d="M242.1,238.1c-0.6,0.7-1.2,0.9-1.5,0.9c-1.1,0-1.8-0.9-1.8-1.9c0-0.6,0.2-1.2,0.6-1.6c0.4-0.4,0.9-0.7,1.3-0.7
			c0.8,0,1.4,0.7,1.4,1.4c0,0.2,0,0.3-0.2,0.3s-1.3,0.1-2.4,0.1c0,1.2,0.7,1.7,1.4,1.7c0.4,0,0.7-0.1,1-0.5L242.1,238.1z
			 M240.6,235.1c-0.4,0-0.8,0.4-0.9,1.1c0.5,0,1,0,1.5,0c0.2,0,0.2,0,0.2-0.2C241.4,235.6,241.1,235.1,240.6,235.1z"/>
	</g>
</g>
<line class="st11" x1="213.2" y1="219.7" x2="227.6" y2="231.4"/>
<g>
	<path class="st10" d="M316.1,238.3c0,3.5-8.4,6.4-18.8,6.4c-25-0.3-25-12.4,0-12.7C307.7,231.9,316.1,234.8,316.1,238.3
		L316.1,238.3z"/>
</g>
<g>
	<g>
		<path d="M290.2,239.4v-0.2c0.5-0.1,0.6-0.1,0.6-0.7V237c0-0.6-0.2-1.1-0.8-1.1c-0.4,0-0.7,0.2-1,0.5v2.1c0,0.6,0,0.6,0.6,0.7v0.2
			h-1.9v-0.2c0.6-0.1,0.6-0.1,0.6-0.7v-1.9c0-0.6-0.1-0.6-0.5-0.7v-0.2c0.4-0.1,0.9-0.2,1.3-0.4c0,0.2,0,0.5,0,0.7
			c0.2-0.1,0.4-0.3,0.6-0.4c0.2-0.2,0.5-0.3,0.8-0.3c0.7,0,1.2,0.5,1.2,1.4v1.7c0,0.6,0,0.6,0.6,0.7v0.2L290.2,239.4L290.2,239.4z"
			/>
		<path d="M295.5,239.5c-0.1,0-0.3-0.1-0.4-0.2c-0.1-0.1-0.2-0.2-0.2-0.4c-0.4,0.2-0.8,0.6-1.1,0.6c-0.6,0-1.1-0.5-1.1-1.1
			c0-0.4,0.2-0.7,0.7-0.9s1.2-0.4,1.4-0.6v-0.2c0-0.6-0.3-1-0.8-1c-0.2,0-0.3,0.1-0.4,0.2c-0.1,0.1-0.2,0.3-0.2,0.6
			c0,0.1-0.1,0.2-0.3,0.2c-0.2,0-0.4-0.2-0.4-0.4c0-0.1,0.1-0.2,0.3-0.4c0.3-0.2,0.8-0.5,1.3-0.6c0.3,0,0.5,0.1,0.8,0.2
			c0.3,0.3,0.5,0.6,0.5,1v1.7c0,0.4,0.1,0.5,0.3,0.5c0.1,0,0.2,0,0.3-0.1l0.1,0.2L295.5,239.5z M294.9,237.3
			c-0.2,0.1-0.6,0.3-0.8,0.4c-0.3,0.1-0.5,0.3-0.5,0.7c0,0.5,0.4,0.7,0.6,0.7s0.6-0.1,0.7-0.3C294.9,238.2,294.9,237.7,294.9,237.3z
			"/>
		<path d="M301.6,239.4v-0.2c0.5-0.1,0.6-0.1,0.6-0.7V237c0-0.6-0.2-1-0.8-1c-0.3,0-0.7,0.2-1,0.5c0,0.1,0,0.2,0,0.4v1.8
			c0,0.6,0.1,0.6,0.6,0.7v0.2h-1.9v-0.2c0.6-0.1,0.6-0.1,0.6-0.7V237c0-0.7-0.2-1-0.8-1c-0.4,0-0.7,0.2-1,0.5v2.1
			c0,0.6,0.1,0.6,0.6,0.7v0.2h-1.9v-0.2c0.6-0.1,0.6-0.1,0.6-0.7v-1.9c0-0.6,0-0.6-0.5-0.7v-0.2c0.4-0.1,0.9-0.2,1.2-0.4
			c0,0.2,0,0.5,0,0.7c0.2-0.1,0.4-0.3,0.7-0.5c0.2-0.1,0.4-0.2,0.7-0.2c0.4,0,0.8,0.3,1,0.7c0.2-0.2,0.5-0.4,0.7-0.5
			s0.5-0.2,0.7-0.2c0.7,0,1.1,0.5,1.1,1.4v1.7c0,0.6,0,0.6,0.6,0.7v0.2L301.6,239.4L301.6,239.4z"/>
		<path d="M307.3,238.7c-0.6,0.7-1.2,0.9-1.5,0.9c-1.1,0-1.8-0.9-1.8-1.9c0-0.6,0.2-1.2,0.6-1.6c0.4-0.4,0.9-0.7,1.3-0.7
			c0.8,0,1.4,0.7,1.4,1.4c0,0.2,0,0.3-0.2,0.3s-1.3,0.1-2.4,0.1c0,1.2,0.7,1.7,1.4,1.7c0.4,0,0.7-0.1,1-0.5L307.3,238.7z
			 M305.8,235.7c-0.4,0-0.8,0.4-1,1.1c0.5,0,1,0,1.5,0c0.2,0,0.2,0,0.2-0.2C306.6,236.1,306.3,235.7,305.8,235.7z"/>
	</g>
</g>
<line class="st11" x1="278.4" y1="220.3" x2="292.8" y2="231.9"/>
<g>
	<path class="st10" d="M382.7,240.6c0,3.5-8.4,6.4-18.8,6.4c-25-0.3-25-12.4,0-12.7C374.2,234.2,382.7,237.1,382.7,240.6
		L382.7,240.6z"/>
</g>
<g>
	<g>
		<path d="M356.8,241.7v-0.2c0.5-0.1,0.6-0.1,0.6-0.7v-1.5c0-0.6-0.2-1.1-0.8-1.1c-0.4,0-0.7,0.2-1,0.5v2.1c0,0.6,0,0.6,0.6,0.7v0.2
			h-1.9v-0.2c0.6-0.1,0.6-0.1,0.6-0.7v-1.9c0-0.6-0.1-0.6-0.5-0.7V238c0.4-0.1,0.9-0.2,1.3-0.4c0,0.2,0,0.5,0,0.7
			c0.2-0.1,0.4-0.3,0.6-0.4c0.2-0.2,0.5-0.3,0.8-0.3c0.7,0,1.2,0.5,1.2,1.4v1.7c0,0.6,0,0.6,0.6,0.7v0.2L356.8,241.7L356.8,241.7z"
			/>
		<path d="M362.1,241.8c-0.1,0-0.3-0.1-0.4-0.2c-0.1-0.1-0.2-0.2-0.2-0.4c-0.4,0.2-0.8,0.6-1.1,0.6c-0.6,0-1.1-0.5-1.1-1.1
			c0-0.4,0.2-0.7,0.7-0.9s1.2-0.4,1.4-0.6V239c0-0.6-0.3-1-0.8-1c-0.2,0-0.3,0.1-0.4,0.2c-0.1,0.1-0.2,0.3-0.2,0.6
			c0,0.1-0.1,0.2-0.3,0.2c-0.2,0-0.4-0.2-0.4-0.4c0-0.1,0.1-0.2,0.3-0.4c0.3-0.2,0.8-0.5,1.3-0.6c0.3,0,0.5,0.1,0.8,0.2
			c0.3,0.3,0.5,0.6,0.5,1v1.7c0,0.4,0.1,0.5,0.3,0.5c0.1,0,0.2,0,0.3-0.1l0.1,0.2L362.1,241.8z M361.5,239.5
			c-0.2,0.1-0.6,0.3-0.8,0.4c-0.3,0.1-0.5,0.3-0.5,0.7c0,0.5,0.4,0.7,0.6,0.7s0.6-0.1,0.7-0.3C361.5,240.5,361.5,239.9,361.5,239.5z
			"/>
		<path d="M368.2,241.7v-0.2c0.5-0.1,0.6-0.1,0.6-0.7v-1.5c0-0.6-0.2-1-0.8-1c-0.3,0-0.7,0.2-1,0.5c0,0.1,0,0.2,0,0.4v1.8
			c0,0.6,0.1,0.6,0.6,0.7v0.2h-1.9v-0.2c0.6-0.1,0.6-0.1,0.6-0.7v-1.6c0-0.7-0.2-1-0.8-1c-0.4,0-0.7,0.2-1,0.5v2.1
			c0,0.6,0.1,0.6,0.6,0.7v0.2h-1.9v-0.2c0.6-0.1,0.6-0.1,0.6-0.7v-1.9c0-0.6,0-0.6-0.5-0.7V238c0.4-0.1,0.9-0.2,1.2-0.4
			c0,0.2,0,0.5,0,0.7c0.2-0.1,0.4-0.3,0.7-0.5c0.2-0.1,0.4-0.2,0.7-0.2c0.4,0,0.8,0.3,1,0.7c0.2-0.2,0.5-0.4,0.7-0.5
			s0.5-0.2,0.7-0.2c0.7,0,1.1,0.5,1.1,1.4v1.7c0,0.6,0,0.6,0.6,0.7v0.2L368.2,241.7L368.2,241.7z"/>
		<path d="M373.9,240.9c-0.6,0.7-1.2,0.9-1.5,0.9c-1.1,0-1.8-0.9-1.8-1.9c0-0.6,0.2-1.2,0.6-1.6c0.4-0.4,0.9-0.7,1.3-0.7
			c0.8,0,1.4,0.7,1.4,1.4c0,0.2,0,0.3-0.2,0.3s-1.3,0.1-2.4,0.1c0,1.2,0.7,1.7,1.4,1.7c0.4,0,0.7-0.1,1-0.5L373.9,240.9z M372.4,238
			c-0.4,0-0.8,0.4-1,1.1c0.5,0,1,0,1.5,0c0.2,0,0.2,0,0.2-0.2C373.2,238.4,372.9,238,372.4,238z"/>
	</g>
</g>
<line class="st11" x1="345" y1="222.6" x2="359.4" y2="234.2"/>
<g>
	<path class="st10" d="M465.1,237.6c0,3.5-8.4,6.4-18.8,6.4c-25-0.3-25-12.4,0-12.7C456.6,231.3,465.1,234.1,465.1,237.6
		L465.1,237.6z"/>
</g>
<g>
	<g>
		<path d="M439.2,238.8v-0.2c0.5-0.1,0.6-0.1,0.6-0.7v-1.5c0-0.6-0.2-1.1-0.8-1.1c-0.4,0-0.7,0.2-1,0.5v2.1c0,0.6,0,0.6,0.6,0.7v0.2
			h-1.9v-0.2c0.6-0.1,0.6-0.1,0.6-0.7V236c0-0.6-0.1-0.6-0.5-0.7V235c0.4-0.1,0.9-0.2,1.3-0.4c0,0.2,0,0.5,0,0.7
			c0.2-0.1,0.4-0.3,0.6-0.4c0.2-0.2,0.5-0.3,0.8-0.3c0.7,0,1.2,0.5,1.2,1.4v1.7c0,0.6,0,0.6,0.6,0.7v0.2L439.2,238.8L439.2,238.8z"
			/>
		<path d="M444.5,238.9c-0.1,0-0.3-0.1-0.4-0.2c-0.1-0.1-0.2-0.2-0.2-0.4c-0.4,0.2-0.8,0.6-1.1,0.6c-0.6,0-1.1-0.5-1.1-1.1
			c0-0.4,0.2-0.7,0.7-0.9s1.2-0.4,1.4-0.6v-0.2c0-0.6-0.3-1-0.8-1c-0.2,0-0.3,0.1-0.4,0.2c-0.1,0.1-0.2,0.3-0.2,0.6
			c0,0.1-0.1,0.2-0.3,0.2c-0.2,0-0.4-0.2-0.4-0.4c0-0.1,0.1-0.2,0.3-0.4c0.3-0.2,0.8-0.5,1.3-0.6c0.3,0,0.5,0.1,0.8,0.2
			c0.3,0.3,0.5,0.6,0.5,1v1.7c0,0.4,0.1,0.5,0.3,0.5c0.1,0,0.2,0,0.3-0.1l0.1,0.2L444.5,238.9z M443.8,236.6
			c-0.2,0.1-0.6,0.3-0.8,0.4c-0.3,0.1-0.5,0.3-0.5,0.7c0,0.5,0.4,0.7,0.6,0.7s0.6-0.1,0.7-0.3C443.8,237.6,443.8,237,443.8,236.6z"
			/>
		<path d="M450.6,238.8v-0.2c0.5-0.1,0.6-0.1,0.6-0.7v-1.5c0-0.6-0.2-1-0.8-1c-0.3,0-0.7,0.2-1,0.5c0,0.1,0,0.2,0,0.4v1.8
			c0,0.6,0.1,0.6,0.6,0.7v0.2h-1.9v-0.2c0.6-0.1,0.6-0.1,0.6-0.7v-1.6c0-0.7-0.2-1-0.8-1c-0.4,0-0.7,0.2-1,0.5v2.1
			c0,0.6,0.1,0.6,0.6,0.7v0.2h-1.9v-0.2c0.6-0.1,0.6-0.1,0.6-0.7V236c0-0.6,0-0.6-0.5-0.7v-0.2c0.4-0.1,0.9-0.2,1.2-0.4
			c0,0.2,0,0.5,0,0.7c0.2-0.1,0.4-0.3,0.7-0.5c0.2-0.1,0.4-0.2,0.7-0.2c0.4,0,0.8,0.3,1,0.7c0.2-0.2,0.5-0.4,0.7-0.5
			s0.5-0.2,0.7-0.2c0.7,0,1.1,0.5,1.1,1.4v1.7c0,0.6,0,0.6,0.6,0.7v0.2L450.6,238.8L450.6,238.8z"/>
		<path d="M456.3,238c-0.6,0.7-1.2,0.9-1.5,0.9c-1.1,0-1.8-0.9-1.8-1.9c0-0.6,0.2-1.2,0.6-1.6c0.4-0.4,0.9-0.7,1.3-0.7
			c0.8,0,1.4,0.7,1.4,1.4c0,0.2,0,0.3-0.2,0.3s-1.3,0.1-2.4,0.1c0,1.2,0.7,1.7,1.4,1.7c0.4,0,0.7-0.1,1-0.5L456.3,238z M454.7,235.1
			c-0.4,0-0.8,0.4-1,1.1c0.5,0,1,0,1.5,0c0.2,0,0.2,0,0.2-0.2C455.6,235.5,455.2,235.1,454.7,235.1z"/>
	</g>
</g>
<line class="st11" x1="427.4" y1="219.6" x2="441.8" y2="231.3"/>
<g>
	<path class="st10" d="M536.8,237.6c0,3.5-8.4,6.4-18.8,6.4c-25-0.3-25-12.4,0-12.7C528.4,231.2,536.8,234.1,536.8,237.6
		L536.8,237.6z"/>
</g>
<g>
	<g>
		<path d="M511,238.7v-0.2c0.5-0.1,0.6-0.1,0.6-0.7v-1.5c0-0.6-0.2-1.1-0.8-1.1c-0.4,0-0.7,0.2-1,0.5v2.1c0,0.6,0,0.6,0.6,0.7v0.2
			h-1.9v-0.2c0.6-0.1,0.6-0.1,0.6-0.7v-1.9c0-0.6-0.1-0.6-0.5-0.7V235c0.4-0.1,0.9-0.2,1.3-0.4c0,0.2,0,0.5,0,0.7
			c0.2-0.1,0.4-0.3,0.6-0.4c0.2-0.2,0.5-0.3,0.8-0.3c0.7,0,1.2,0.5,1.2,1.4v1.7c0,0.6,0,0.6,0.6,0.7v0.2L511,238.7L511,238.7z"/>
		<path d="M516.2,238.9c-0.1,0-0.3-0.1-0.4-0.2c-0.1-0.1-0.2-0.2-0.2-0.4c-0.4,0.2-0.8,0.6-1.1,0.6c-0.6,0-1.1-0.5-1.1-1.1
			c0-0.4,0.2-0.7,0.7-0.9s1.2-0.4,1.4-0.6v-0.2c0-0.6-0.3-1-0.8-1c-0.2,0-0.3,0.1-0.4,0.2c-0.1,0.1-0.2,0.3-0.2,0.6
			c0,0.1-0.1,0.2-0.3,0.2s-0.4-0.2-0.4-0.4c0-0.1,0.1-0.2,0.3-0.4c0.3-0.2,0.8-0.5,1.3-0.6c0.3,0,0.5,0.1,0.8,0.2
			c0.3,0.3,0.5,0.6,0.5,1v1.7c0,0.4,0.2,0.5,0.3,0.5s0.2,0,0.3-0.1l0.1,0.2L516.2,238.9z M515.6,236.6c-0.2,0.1-0.6,0.3-0.8,0.4
			c-0.3,0.1-0.5,0.3-0.5,0.7c0,0.5,0.4,0.7,0.7,0.7c0.2,0,0.6-0.1,0.7-0.3C515.6,237.6,515.6,237,515.6,236.6z"/>
		<path d="M522.3,238.7v-0.2c0.5-0.1,0.6-0.1,0.6-0.7v-1.5c0-0.6-0.2-1-0.8-1c-0.3,0-0.7,0.2-1,0.5c0,0.1,0,0.2,0,0.4v1.8
			c0,0.6,0.1,0.6,0.6,0.7v0.2h-1.9v-0.2c0.6-0.1,0.6-0.1,0.6-0.7v-1.6c0-0.7-0.2-1-0.8-1c-0.4,0-0.7,0.2-1,0.5v2.1
			c0,0.6,0.1,0.6,0.6,0.7v0.2h-1.9v-0.2c0.6-0.1,0.7-0.1,0.7-0.7v-2c0-0.6,0-0.6-0.5-0.7V235c0.4-0.1,0.8-0.2,1.2-0.4
			c0,0.2,0,0.5,0,0.7c0.2-0.1,0.4-0.3,0.7-0.5c0.2-0.1,0.4-0.2,0.7-0.2c0.4,0,0.8,0.3,1,0.7c0.2-0.2,0.5-0.4,0.7-0.5
			s0.5-0.2,0.7-0.2c0.7,0,1.1,0.5,1.1,1.4v1.7c0,0.6,0,0.6,0.6,0.7v0.2L522.3,238.7L522.3,238.7z"/>
		<path d="M528,238c-0.6,0.7-1.2,0.9-1.5,0.9c-1.1,0-1.8-0.9-1.8-1.9c0-0.6,0.2-1.2,0.6-1.6c0.4-0.4,0.9-0.7,1.3-0.7
			c0.8,0,1.4,0.7,1.4,1.4c0,0.2,0,0.3-0.2,0.3s-1.3,0.1-2.4,0.1c0,1.2,0.7,1.7,1.3,1.7c0.4,0,0.7-0.1,1-0.5L528,238z M526.5,235
			c-0.4,0-0.8,0.4-1,1.1c0.5,0,1,0,1.5,0c0.2,0,0.2,0,0.2-0.2C527.3,235.5,527,235,526.5,235z"/>
	</g>
</g>
<line class="st11" x1="499.1" y1="219.6" x2="513.5" y2="231.2"/>
<text transform="matrix(1 0 0 1 133.4676 313.2787)" class="st4 st3">Logical </text>
<text transform="matrix(1 0 0 1 201.3584 314.2419)" class="st4 st3">Double </text>
<text transform="matrix(1 0 0 1 262.6449 315.9207)" class="st4 st3">Integer</text>
<text transform="matrix(1 0 0 1 328.6126 317.2644)" class="st4 st3">Character</text>
<text transform="matrix(1 0 0 1 493.5065 315.5345)" class="st4 st3">List</text>
<text transform="matrix(1 0 0 1 417.1654 315.7865)" class="st4 st3">NULL</text>
<rect x="129.2" y="301" class="st9" width="43.3" height="17.8"/>
<rect x="197.6" y="302.7" class="st9" width="43.3" height="17.8"/>
<polygon class="st9" points="300.8,320.8 258,320.8 258.1,301 300.9,301 "/>
<rect x="324.1" y="302.7" class="st9" width="58.5" height="20.5"/>
<rect x="412.1" y="302.7" class="st9" width="42.4" height="17.8"/>
<rect x="487.1" y="301" class="st9" width="32.5" height="19.3"/>
<g>
	<path class="st10" d="M182.5,336.8c0,3.5-8.4,6.4-18.8,6.4c-25-0.3-25-12.4,0-12.7C174.1,330.4,182.5,333.3,182.5,336.8
		L182.5,336.8z"/>
</g>
<g>
	<g>
		<path d="M154.5,339.2c-0.2,0-0.9,0.1-1.4,0.3c0-0.2,0-0.4,0-0.6c-0.2,0.1-0.4,0.2-0.6,0.3c-0.4,0.2-0.6,0.3-0.7,0.3
			c-0.7,0-1.7-0.7-1.7-2c0-1.2,1.1-2.2,2.3-2.2c0.1,0,0.4,0,0.6,0.1v-1.3c0-0.6-0.1-0.6-0.7-0.6v-0.2c0.4-0.1,1.1-0.2,1.4-0.3
			c0,0.3,0,0.7,0,1.1v4.3c0,0.5,0.1,0.5,0.4,0.5h0.3L154.5,339.2L154.5,339.2z M153.1,336.2c-0.2-0.3-0.6-0.5-0.9-0.5
			c-0.4,0-1.2,0.3-1.2,1.6c0,1.1,0.7,1.7,1.2,1.7c0.3,0,0.7-0.2,0.9-0.3V336.2L153.1,336.2z"/>
		<path d="M154.9,339.5v-0.2c0.6,0,0.6-0.1,0.6-0.7v-1.9c0-0.6,0-0.6-0.6-0.7v-0.2c0.5-0.1,0.9-0.2,1.3-0.4c0,0.4,0,0.8,0,1.1v2
			c0,0.6,0.1,0.7,0.6,0.7v0.2L154.9,339.5L154.9,339.5z M155.9,334.5c-0.2,0-0.5-0.2-0.5-0.5s0.2-0.5,0.5-0.5c0.2,0,0.5,0.2,0.5,0.5
			C156.3,334.3,156.1,334.5,155.9,334.5z"/>
		<path d="M162.3,339.5v-0.2c0.5,0,0.6-0.1,0.6-0.7V337c0-0.6-0.2-1-0.8-1c-0.3,0-0.7,0.2-1,0.5c0,0.1,0,0.2,0,0.4v1.8
			c0,0.6,0.1,0.6,0.6,0.7v0.2h-1.9v-0.2c0.6,0,0.6-0.1,0.6-0.7V337c0-0.7-0.2-1-0.8-1c-0.4,0-0.7,0.2-1,0.5v2.1
			c0,0.6,0.1,0.6,0.6,0.7v0.2h-1.9v-0.2c0.6,0,0.6-0.1,0.6-0.7v-1.9c0-0.6,0-0.6-0.5-0.7v-0.2c0.4-0.1,0.9-0.2,1.2-0.4
			c0,0.2,0,0.5,0,0.7c0.2-0.1,0.4-0.3,0.7-0.5c0.2-0.1,0.4-0.2,0.7-0.2c0.4,0,0.8,0.3,1,0.7c0.2-0.2,0.5-0.4,0.7-0.5
			s0.4-0.2,0.7-0.2c0.7,0,1.1,0.5,1.1,1.4v1.7c0,0.6,0.1,0.6,0.6,0.7v0.2L162.3,339.5L162.3,339.5z"/>
		<path d="M167.1,341.2c-1.3-1-2.1-2.5-2.1-4.2s0.8-3.2,2.1-4.2l0.2,0.2c-0.9,0.8-1.5,2.3-1.5,4c0,1.6,0.7,3.1,1.5,4L167.1,341.2z"
			/>
		<path d="M170.1,339.5H168v-0.2c0.6,0,0.6-0.1,0.6-0.7v-1.9c0-0.6,0-0.6-0.6-0.7v-0.2c0.4-0.1,0.9-0.2,1.3-0.4c0,0.3,0,0.7,0,1
			c0.3-0.5,0.7-1,1.1-1c0.3,0,0.5,0.2,0.5,0.4c0,0.2-0.1,0.4-0.3,0.5c-0.1,0-0.2,0-0.2,0c-0.1-0.1-0.2-0.2-0.4-0.2s-0.5,0.3-0.7,0.7
			v1.7c0,0.6,0,0.6,0.7,0.7L170.1,339.5L170.1,339.5z"/>
		<path d="M171.4,340.3c0.4-0.2,0.7-0.4,0.7-0.8c0-0.3-0.3-0.4-0.6-0.5c-0.1,0-0.1-0.1-0.1-0.3c0-0.2,0.2-0.5,0.5-0.5s0.8,0.3,0.8,1
			s-0.6,1.1-1.1,1.3L171.4,340.3z"/>
		<path d="M176.8,338.7c-0.4,0.5-1,0.9-1.5,0.9c-1.1,0-1.8-0.9-1.8-1.9c0-0.7,0.3-1.3,0.9-1.8c0.5-0.4,1-0.5,1.4-0.5
			s0.7,0.1,0.8,0.2s0.1,0.2,0.1,0.3c0,0.2-0.2,0.4-0.3,0.4c0,0-0.1,0-0.2-0.1c-0.3-0.2-0.6-0.4-0.9-0.4c-0.6,0-1.1,0.5-1.1,1.4
			c0,1.2,0.9,1.7,1.4,1.7c0.4,0,0.7-0.1,1.1-0.5L176.8,338.7z"/>
		<path d="M177.5,332.9c1.3,1,2.1,2.5,2.1,4.2s-0.8,3.2-2.1,4.2l-0.2-0.2c0.9-0.8,1.5-2.3,1.5-3.9s-0.6-3.1-1.5-4L177.5,332.9z"/>
	</g>
</g>
<g>
	<g>
		<path d="M227.1,341.1c-0.2,0-0.9,0.1-1.4,0.3c0-0.2,0-0.4,0-0.6c-0.2,0.1-0.4,0.2-0.6,0.3c-0.4,0.2-0.6,0.3-0.7,0.3
			c-0.7,0-1.7-0.7-1.7-2c0-1.2,1.1-2.2,2.3-2.2c0.1,0,0.4,0,0.6,0.1V336c0-0.6-0.1-0.6-0.7-0.6v-0.2c0.4-0.1,1.1-0.2,1.4-0.3
			c0,0.3,0,0.7,0,1.1v4.3c0,0.5,0.1,0.5,0.4,0.5h0.3L227.1,341.1L227.1,341.1z M225.8,338.1c-0.2-0.3-0.6-0.5-0.9-0.5
			c-0.4,0-1.2,0.3-1.2,1.6c0,1.1,0.7,1.7,1.2,1.7c0.3,0,0.7-0.2,0.9-0.3V338.1L225.8,338.1z"/>
		<path d="M227.6,341.3v-0.2c0.6,0,0.6-0.1,0.6-0.7v-1.9c0-0.6,0-0.6-0.6-0.7v-0.2c0.5-0.1,0.9-0.2,1.3-0.4c0,0.4,0,0.8,0,1.1v2
			c0,0.6,0.1,0.7,0.6,0.7v0.2L227.6,341.3L227.6,341.3z M228.5,336.4c-0.2,0-0.5-0.2-0.5-0.5s0.2-0.5,0.5-0.5c0.2,0,0.5,0.2,0.5,0.5
			C229,336.1,228.8,336.4,228.5,336.4z"/>
		<path d="M235,341.3v-0.2c0.5,0,0.6-0.1,0.6-0.7v-1.5c0-0.6-0.2-1-0.8-1c-0.3,0-0.7,0.2-1,0.5c0,0.1,0,0.2,0,0.4v1.8
			c0,0.6,0.1,0.6,0.6,0.7v0.2h-1.9v-0.2c0.6,0,0.6-0.1,0.6-0.7v-1.5c0-0.7-0.2-1-0.8-1c-0.4,0-0.7,0.2-1,0.5v2.1
			c0,0.6,0.1,0.6,0.6,0.7v0.2H230v-0.2c0.6,0,0.6-0.1,0.6-0.7v-1.9c0-0.6,0-0.6-0.5-0.7v-0.2c0.4-0.1,0.9-0.2,1.2-0.4
			c0,0.2,0,0.5,0,0.7c0.2-0.1,0.4-0.3,0.7-0.5c0.2-0.1,0.4-0.2,0.7-0.2c0.4,0,0.8,0.3,1,0.7c0.2-0.2,0.5-0.4,0.7-0.5
			s0.4-0.2,0.7-0.2c0.7,0,1.1,0.5,1.1,1.4v1.7c0,0.6,0.1,0.6,0.6,0.7v0.2L235,341.3L235,341.3z"/>
		<path d="M239.8,343c-1.3-1-2.1-2.5-2.1-4.2s0.8-3.2,2.1-4.2l0.2,0.2c-0.9,0.8-1.5,2.3-1.5,4c0,1.6,0.7,3.1,1.5,4L239.8,343z"/>
		<path d="M242.7,341.3h-2.1v-0.2c0.6,0,0.6-0.1,0.6-0.7v-1.9c0-0.6,0-0.6-0.6-0.7v-0.2c0.4-0.1,0.9-0.2,1.3-0.4c0,0.3,0,0.7,0,1
			c0.3-0.5,0.7-1,1.1-1c0.3,0,0.5,0.2,0.5,0.4c0,0.2-0.1,0.4-0.3,0.5c-0.1,0-0.2,0-0.2,0c-0.1-0.1-0.2-0.2-0.4-0.2s-0.5,0.3-0.7,0.7
			v1.7c0,0.6,0,0.6,0.7,0.7L242.7,341.3L242.7,341.3z"/>
		<path d="M244.1,342.1c0.4-0.2,0.7-0.4,0.7-0.8c0-0.3-0.3-0.4-0.6-0.5c-0.1,0-0.1-0.1-0.1-0.3c0-0.2,0.2-0.5,0.5-0.5s0.8,0.3,0.8,1
			s-0.6,1.1-1.1,1.3L244.1,342.1z"/>
		<path d="M249.4,340.5c-0.4,0.5-1,0.9-1.5,0.9c-1.1,0-1.8-0.9-1.8-1.9c0-0.7,0.3-1.3,0.9-1.8c0.5-0.4,1-0.5,1.4-0.5
			s0.7,0.1,0.8,0.2s0.1,0.2,0.1,0.3c0,0.2-0.2,0.4-0.3,0.4c0,0-0.1,0-0.2-0.1c-0.3-0.2-0.6-0.4-0.9-0.4c-0.6,0-1.1,0.5-1.1,1.4
			c0,1.2,0.9,1.7,1.4,1.7c0.4,0,0.7-0.1,1.1-0.5L249.4,340.5z"/>
		<path d="M250.1,334.7c1.3,1,2.1,2.5,2.1,4.2s-0.8,3.2-2.1,4.2l-0.2-0.2c0.9-0.8,1.5-2.3,1.5-3.9s-0.6-3.1-1.5-4L250.1,334.7z"/>
	</g>
</g>
<g>
	<g>
		<path d="M290.3,341.1c-0.2,0-0.9,0.1-1.4,0.3c0-0.2,0-0.4,0-0.6c-0.2,0.1-0.4,0.2-0.6,0.3c-0.4,0.2-0.6,0.3-0.7,0.3
			c-0.7,0-1.7-0.7-1.7-2c0-1.2,1.1-2.2,2.3-2.2c0.1,0,0.4,0,0.6,0.1V336c0-0.6-0.1-0.6-0.7-0.6v-0.2c0.5-0.1,1.1-0.2,1.4-0.3
			c0,0.3,0,0.7,0,1.1v4.3c0,0.5,0.1,0.5,0.4,0.5h0.3L290.3,341.1L290.3,341.1z M288.9,338.1c-0.2-0.3-0.6-0.5-1-0.5
			s-1.2,0.3-1.2,1.6c0,1.1,0.7,1.7,1.2,1.7c0.3,0,0.7-0.2,0.9-0.3L288.9,338.1L288.9,338.1z"/>
		<path d="M290.7,341.3v-0.2c0.6,0,0.6-0.1,0.6-0.7v-1.9c0-0.6,0-0.6-0.6-0.7v-0.2c0.5-0.1,0.9-0.2,1.3-0.4c0,0.4,0,0.8,0,1.1v2
			c0,0.6,0.1,0.7,0.6,0.7v0.2L290.7,341.3L290.7,341.3z M291.6,336.4c-0.2,0-0.5-0.2-0.5-0.5s0.2-0.5,0.5-0.5c0.2,0,0.5,0.2,0.5,0.5
			C292.1,336.1,291.9,336.4,291.6,336.4z"/>
		<path d="M298.1,341.3v-0.2c0.5,0,0.6-0.1,0.6-0.7v-1.5c0-0.6-0.2-1-0.8-1c-0.3,0-0.7,0.2-1,0.5c0,0.1,0,0.2,0,0.4v1.8
			c0,0.6,0.1,0.6,0.6,0.7v0.2h-1.9v-0.2c0.6,0,0.6-0.1,0.6-0.7v-1.5c0-0.7-0.2-1-0.8-1c-0.4,0-0.7,0.2-1,0.5v2.1
			c0,0.6,0.1,0.6,0.6,0.7v0.2h-1.9v-0.2c0.6,0,0.6-0.1,0.6-0.7v-1.9c0-0.6,0-0.6-0.5-0.7v-0.2c0.4-0.1,0.9-0.2,1.2-0.4
			c0,0.2,0,0.5,0,0.7c0.2-0.1,0.4-0.3,0.7-0.5c0.2-0.1,0.4-0.2,0.7-0.2c0.4,0,0.8,0.3,1,0.7c0.2-0.2,0.5-0.4,0.7-0.5
			s0.5-0.2,0.7-0.2c0.7,0,1.1,0.5,1.1,1.4v1.7c0,0.6,0,0.6,0.6,0.7v0.2L298.1,341.3L298.1,341.3z"/>
		<path d="M302.9,343c-1.3-1-2.1-2.5-2.1-4.2s0.8-3.2,2.1-4.2l0.2,0.2c-0.9,0.8-1.5,2.3-1.5,4c0,1.6,0.7,3.1,1.5,4L302.9,343z"/>
		<path d="M305.9,341.3h-2.1v-0.2c0.6,0,0.6-0.1,0.6-0.7v-1.9c0-0.6,0-0.6-0.6-0.7v-0.2c0.4-0.1,0.9-0.2,1.3-0.4c0,0.3,0,0.7,0,1
			c0.3-0.5,0.7-1,1.1-1c0.3,0,0.5,0.2,0.5,0.4c0,0.2-0.1,0.4-0.3,0.5c-0.1,0-0.2,0-0.2,0c-0.1-0.1-0.2-0.2-0.4-0.2
			c-0.2,0-0.5,0.3-0.7,0.7v1.7c0,0.6,0,0.6,0.7,0.7L305.9,341.3L305.9,341.3z"/>
		<path d="M307.2,342.1c0.4-0.2,0.7-0.4,0.7-0.8c0-0.3-0.3-0.4-0.6-0.5c0,0-0.1-0.1-0.1-0.3c0-0.2,0.2-0.5,0.5-0.5s0.8,0.3,0.8,1
			s-0.6,1.1-1.1,1.3L307.2,342.1z"/>
		<path d="M312.6,340.5c-0.4,0.5-1,0.9-1.5,0.9c-1.1,0-1.8-0.9-1.8-1.9c0-0.7,0.3-1.3,0.9-1.8c0.5-0.4,1-0.5,1.4-0.5
			s0.7,0.1,0.8,0.2c0.1,0.1,0.1,0.2,0.1,0.3c0,0.2-0.2,0.4-0.3,0.4c0,0-0.1,0-0.2-0.1c-0.3-0.2-0.6-0.4-0.9-0.4
			c-0.6,0-1.1,0.5-1.1,1.4c0,1.2,0.9,1.7,1.4,1.7c0.4,0,0.7-0.1,1.1-0.5L312.6,340.5z"/>
		<path d="M313.3,334.7c1.3,1,2.1,2.5,2.1,4.2s-0.8,3.2-2.1,4.2l-0.2-0.2c0.9-0.8,1.5-2.3,1.5-3.9s-0.6-3.1-1.5-4L313.3,334.7z"/>
	</g>
</g>
<g>
	<g>
		<path d="M356.9,344.6c-0.2,0-0.9,0.1-1.4,0.3c0-0.2,0-0.4,0-0.6c-0.2,0.1-0.4,0.2-0.6,0.3c-0.4,0.2-0.6,0.3-0.7,0.3
			c-0.7,0-1.7-0.7-1.7-2c0-1.2,1.1-2.2,2.3-2.2c0.1,0,0.4,0,0.6,0.1v-1.3c0-0.6-0.1-0.6-0.7-0.6v-0.2c0.5-0.1,1.1-0.2,1.4-0.3
			c0,0.3,0,0.7,0,1.1v4.3c0,0.5,0.1,0.5,0.4,0.5h0.3L356.9,344.6L356.9,344.6z M355.5,341.6c-0.2-0.3-0.6-0.5-1-0.5
			s-1.2,0.3-1.2,1.6c0,1.1,0.7,1.7,1.2,1.7c0.3,0,0.7-0.2,0.9-0.3L355.5,341.6L355.5,341.6z"/>
		<path d="M357.3,344.8v-0.2c0.6,0,0.6-0.1,0.6-0.7V342c0-0.6,0-0.6-0.6-0.7v-0.2c0.5-0.1,0.9-0.2,1.3-0.4c0,0.4,0,0.8,0,1.1v2
			c0,0.6,0.1,0.7,0.6,0.7v0.2L357.3,344.8L357.3,344.8z M358.2,339.9c-0.2,0-0.5-0.2-0.5-0.5s0.2-0.5,0.5-0.5c0.2,0,0.5,0.2,0.5,0.5
			C358.7,339.7,358.5,339.9,358.2,339.9z"/>
		<path d="M364.7,344.8v-0.2c0.5,0,0.6-0.1,0.6-0.7v-1.5c0-0.6-0.2-1-0.8-1c-0.3,0-0.7,0.2-1,0.5c0,0.1,0,0.2,0,0.4v1.8
			c0,0.6,0.1,0.6,0.6,0.7v0.2h-1.9v-0.2c0.6,0,0.6-0.1,0.6-0.7v-1.5c0-0.7-0.2-1-0.8-1c-0.4,0-0.7,0.2-1,0.5v2.1
			c0,0.6,0.1,0.6,0.6,0.7v0.2h-1.9v-0.2c0.6,0,0.6-0.1,0.6-0.7v-1.9c0-0.6,0-0.6-0.5-0.7v-0.2c0.4-0.1,0.9-0.2,1.2-0.4
			c0,0.2,0,0.5,0,0.7c0.2-0.1,0.4-0.3,0.7-0.5c0.2-0.1,0.4-0.2,0.7-0.2c0.4,0,0.8,0.3,1,0.7c0.2-0.2,0.5-0.4,0.7-0.5
			s0.5-0.2,0.7-0.2c0.7,0,1.1,0.5,1.1,1.4v1.7c0,0.6,0,0.6,0.6,0.7v0.2L364.7,344.8L364.7,344.8z"/>
		<path d="M369.5,346.6c-1.3-1-2.1-2.5-2.1-4.2s0.8-3.2,2.1-4.2l0.2,0.2c-0.9,0.8-1.5,2.3-1.5,4c0,1.6,0.7,3.1,1.5,4L369.5,346.6z"
			/>
		<path d="M372.4,344.8h-2.1v-0.2c0.6,0,0.6-0.1,0.6-0.7V342c0-0.6,0-0.6-0.6-0.7v-0.2c0.4-0.1,0.9-0.2,1.3-0.4c0,0.3,0,0.7,0,1
			c0.3-0.5,0.7-1,1.1-1c0.3,0,0.5,0.2,0.5,0.4c0,0.2-0.1,0.4-0.3,0.5c-0.1,0-0.2,0-0.2,0c-0.1-0.1-0.2-0.2-0.4-0.2
			c-0.2,0-0.5,0.3-0.7,0.7v1.7c0,0.6,0,0.6,0.7,0.7L372.4,344.8L372.4,344.8z"/>
		<path d="M373.8,345.6c0.4-0.2,0.7-0.4,0.7-0.8c0-0.3-0.3-0.4-0.6-0.5c0,0-0.1-0.1-0.1-0.3c0-0.2,0.2-0.5,0.5-0.5s0.8,0.3,0.8,1
			s-0.6,1.1-1.1,1.3L373.8,345.6z"/>
		<path d="M379.2,344c-0.4,0.5-1,0.9-1.5,0.9c-1.1,0-1.8-0.9-1.8-1.9c0-0.7,0.3-1.3,0.9-1.8c0.5-0.4,1-0.5,1.4-0.5s0.7,0.1,0.8,0.2
			c0.1,0.1,0.1,0.2,0.1,0.3c0,0.2-0.2,0.4-0.3,0.4c0,0-0.1,0-0.2-0.1c-0.3-0.2-0.6-0.4-0.9-0.4c-0.6,0-1.1,0.5-1.1,1.4
			c0,1.2,0.9,1.7,1.4,1.7c0.4,0,0.7-0.1,1.1-0.5L379.2,344z"/>
		<path d="M379.9,338.2c1.3,1,2.1,2.5,2.1,4.2s-0.8,3.2-2.1,4.2l-0.2-0.2c0.9-0.8,1.5-2.3,1.5-3.9s-0.6-3.1-1.5-4L379.9,338.2z"/>
	</g>
</g>
<g>
	<g>
		<path d="M439.8,341.1c-0.2,0-0.9,0.1-1.4,0.3c0-0.2,0-0.4,0-0.6c-0.2,0.1-0.4,0.2-0.6,0.3c-0.4,0.2-0.6,0.3-0.7,0.3
			c-0.7,0-1.7-0.7-1.7-2c0-1.2,1.1-2.2,2.3-2.2c0.1,0,0.4,0,0.6,0.1V336c0-0.6-0.1-0.6-0.7-0.6v-0.2c0.5-0.1,1.1-0.2,1.4-0.3
			c0,0.3,0,0.7,0,1.1v4.3c0,0.5,0.1,0.5,0.4,0.5h0.3L439.8,341.1L439.8,341.1z M438.5,338.1c-0.2-0.3-0.6-0.5-1-0.5
			s-1.2,0.3-1.2,1.6c0,1.1,0.7,1.7,1.2,1.7c0.3,0,0.7-0.2,0.9-0.3L438.5,338.1L438.5,338.1z"/>
		<path d="M440.3,341.3v-0.2c0.6,0,0.6-0.1,0.6-0.7v-1.9c0-0.6,0-0.6-0.6-0.7v-0.2c0.5-0.1,0.9-0.2,1.3-0.4c0,0.4,0,0.8,0,1.1v2
			c0,0.6,0.1,0.7,0.6,0.7v0.2L440.3,341.3L440.3,341.3z M441.2,336.4c-0.2,0-0.5-0.2-0.5-0.5s0.2-0.5,0.5-0.5c0.2,0,0.5,0.2,0.5,0.5
			C441.7,336.1,441.5,336.4,441.2,336.4z"/>
		<path d="M447.6,341.3v-0.2c0.5,0,0.6-0.1,0.6-0.7v-1.5c0-0.6-0.2-1-0.8-1c-0.3,0-0.7,0.2-1,0.5c0,0.1,0,0.2,0,0.4v1.8
			c0,0.6,0.1,0.6,0.6,0.7v0.2h-1.9v-0.2c0.6,0,0.6-0.1,0.6-0.7v-1.5c0-0.7-0.2-1-0.8-1c-0.4,0-0.7,0.2-1,0.5v2.1
			c0,0.6,0.1,0.6,0.6,0.7v0.2h-1.9v-0.2c0.6,0,0.6-0.1,0.6-0.7v-1.9c0-0.6,0-0.6-0.5-0.7v-0.2c0.4-0.1,0.9-0.2,1.2-0.4
			c0,0.2,0,0.5,0,0.7c0.2-0.1,0.4-0.3,0.7-0.5c0.2-0.1,0.4-0.2,0.7-0.2c0.4,0,0.8,0.3,1,0.7c0.2-0.2,0.5-0.4,0.7-0.5
			s0.5-0.2,0.7-0.2c0.7,0,1.1,0.5,1.1,1.4v1.7c0,0.6,0,0.6,0.6,0.7v0.2L447.6,341.3L447.6,341.3z"/>
		<path d="M452.5,343c-1.3-1-2.1-2.5-2.1-4.2s0.8-3.2,2.1-4.2l0.2,0.2c-0.9,0.8-1.5,2.3-1.5,4c0,1.6,0.7,3.1,1.5,4L452.5,343z"/>
		<path d="M455.4,341.3h-2.1v-0.2c0.6,0,0.6-0.1,0.6-0.7v-1.9c0-0.6,0-0.6-0.6-0.7v-0.2c0.4-0.1,0.9-0.2,1.3-0.4c0,0.3,0,0.7,0,1
			c0.3-0.5,0.7-1,1.1-1c0.3,0,0.5,0.2,0.5,0.4c0,0.2-0.1,0.4-0.3,0.5c-0.1,0-0.2,0-0.2,0c-0.1-0.1-0.2-0.2-0.4-0.2
			c-0.2,0-0.5,0.3-0.7,0.7v1.7c0,0.6,0,0.6,0.7,0.7L455.4,341.3L455.4,341.3z"/>
		<path d="M456.8,342.1c0.4-0.2,0.7-0.4,0.7-0.8c0-0.3-0.3-0.4-0.6-0.5c0,0-0.1-0.1-0.1-0.3c0-0.2,0.2-0.5,0.5-0.5s0.8,0.3,0.8,1
			s-0.6,1.1-1.1,1.3L456.8,342.1z"/>
		<path d="M462.1,340.5c-0.4,0.5-1,0.9-1.5,0.9c-1.1,0-1.8-0.9-1.8-1.9c0-0.7,0.3-1.3,0.9-1.8c0.5-0.4,1-0.5,1.4-0.5
			s0.7,0.1,0.8,0.2c0.1,0.1,0.1,0.2,0.1,0.3c0,0.2-0.2,0.4-0.3,0.4c0,0-0.1,0-0.2-0.1c-0.3-0.2-0.6-0.4-0.9-0.4
			c-0.6,0-1.1,0.5-1.1,1.4c0,1.2,0.9,1.7,1.4,1.7c0.4,0,0.7-0.1,1.1-0.5L462.1,340.5z"/>
		<path d="M462.9,334.7c1.3,1,2.1,2.5,2.1,4.2s-0.8,3.2-2.1,4.2l-0.2-0.2c0.9-0.8,1.5-2.3,1.5-3.9s-0.6-3.1-1.5-4L462.9,334.7z"/>
	</g>
</g>
<g>
	<g>
		<path d="M511,341.1c-0.2,0-0.9,0.1-1.4,0.3c0-0.2,0-0.4,0-0.6c-0.2,0.1-0.4,0.2-0.6,0.3c-0.4,0.2-0.6,0.3-0.7,0.3
			c-0.7,0-1.7-0.7-1.7-2c0-1.2,1.1-2.2,2.3-2.2c0.1,0,0.4,0,0.6,0.1V336c0-0.6-0.1-0.6-0.7-0.6v-0.2c0.5-0.1,1.1-0.2,1.4-0.3
			c0,0.3,0,0.7,0,1.1v4.3c0,0.5,0.1,0.5,0.4,0.5h0.3L511,341.1L511,341.1z M509.6,338.1c-0.2-0.3-0.6-0.5-1-0.5s-1.2,0.3-1.2,1.6
			c0,1.1,0.7,1.7,1.2,1.7c0.3,0,0.7-0.2,0.9-0.3L509.6,338.1L509.6,338.1z"/>
		<path d="M511.4,341.3v-0.2c0.6,0,0.6-0.1,0.6-0.7v-1.9c0-0.6,0-0.6-0.6-0.7v-0.2c0.5-0.1,0.9-0.2,1.3-0.4c0,0.4,0,0.8,0,1.1v2
			c0,0.6,0.1,0.7,0.7,0.7v0.2L511.4,341.3L511.4,341.3z M512.4,336.4c-0.2,0-0.5-0.2-0.5-0.5s0.2-0.5,0.5-0.5c0.2,0,0.5,0.2,0.5,0.5
			C512.8,336.1,512.6,336.4,512.4,336.4z"/>
		<path d="M518.8,341.3v-0.2c0.5,0,0.6-0.1,0.6-0.7v-1.5c0-0.6-0.2-1-0.8-1c-0.3,0-0.7,0.2-1,0.5c0,0.1,0,0.2,0,0.4v1.8
			c0,0.6,0.1,0.6,0.6,0.7v0.2h-1.9v-0.2c0.6,0,0.6-0.1,0.6-0.7v-1.5c0-0.7-0.2-1-0.8-1c-0.4,0-0.7,0.2-1,0.5v2.1
			c0,0.6,0.1,0.6,0.6,0.7v0.2h-1.9v-0.2c0.6,0,0.7-0.1,0.7-0.7v-1.9c0-0.6,0-0.6-0.5-0.7v-0.2c0.4-0.1,0.8-0.2,1.2-0.4
			c0,0.2,0,0.5,0,0.7c0.2-0.1,0.4-0.3,0.7-0.5c0.2-0.1,0.4-0.2,0.7-0.2c0.4,0,0.8,0.3,1,0.7c0.2-0.2,0.5-0.4,0.7-0.5
			s0.5-0.2,0.7-0.2c0.7,0,1.1,0.5,1.1,1.4v1.7c0,0.6,0,0.6,0.6,0.7v0.2L518.8,341.3L518.8,341.3z"/>
		<path d="M523.7,343c-1.3-1-2.1-2.5-2.1-4.2s0.8-3.2,2.1-4.2l0.2,0.2c-0.9,0.8-1.5,2.3-1.5,4c0,1.6,0.7,3.1,1.5,4L523.7,343z"/>
		<path d="M526.6,341.3h-2.1v-0.2c0.6,0,0.6-0.1,0.6-0.7v-1.9c0-0.6,0-0.6-0.6-0.7v-0.2c0.4-0.1,0.8-0.2,1.3-0.4c0,0.3,0,0.7,0,1
			c0.3-0.5,0.7-1,1.1-1c0.3,0,0.5,0.2,0.5,0.4c0,0.2-0.1,0.4-0.3,0.5c-0.1,0-0.2,0-0.2,0c-0.1-0.1-0.2-0.2-0.4-0.2s-0.5,0.3-0.7,0.7
			v1.7c0,0.6,0,0.6,0.7,0.7L526.6,341.3L526.6,341.3z"/>
		<path d="M528,342.1c0.4-0.2,0.7-0.4,0.7-0.8c0-0.3-0.3-0.4-0.6-0.5c0,0-0.1-0.1-0.1-0.3c0-0.2,0.2-0.5,0.5-0.5s0.8,0.3,0.8,1
			s-0.6,1.1-1.2,1.3L528,342.1z"/>
		<path d="M533.3,340.5c-0.4,0.5-1,0.9-1.5,0.9c-1.1,0-1.8-0.9-1.8-1.9c0-0.7,0.3-1.3,0.9-1.8c0.5-0.4,1-0.5,1.4-0.5
			s0.7,0.1,0.8,0.2s0.1,0.2,0.1,0.3c0,0.2-0.2,0.4-0.3,0.4c0,0-0.1,0-0.2-0.1c-0.3-0.2-0.6-0.4-0.9-0.4c-0.6,0-1.1,0.5-1.1,1.4
			c0,1.2,0.8,1.7,1.4,1.7c0.4,0,0.7-0.1,1.1-0.5L533.3,340.5z"/>
		<path d="M534,334.7c1.3,1,2.1,2.5,2.1,4.2s-0.8,3.2-2.1,4.2l-0.2-0.2c0.9-0.8,1.5-2.3,1.5-3.9s-0.6-3.1-1.5-4L534,334.7z"/>
	</g>
</g>
<line class="st11" x1="144.8" y1="318.8" x2="159.2" y2="330.4"/>
<g>
	<path class="st10" d="M254.5,338.5c0,3.5-8.4,6.4-18.8,6.4c-25-0.3-25-12.4,0-12.7C246.1,332.1,254.5,335,254.5,338.5L254.5,338.5z
		"/>
</g>
<line class="st11" x1="216.9" y1="320.5" x2="231.2" y2="332.1"/>
<g>
	<path class="st10" d="M319.7,339c0,3.5-8.4,6.4-18.8,6.4c-25-0.3-25-12.4,0-12.7C311.3,332.7,319.7,335.5,319.7,339L319.7,339z"/>
</g>
<line class="st11" x1="282" y1="321" x2="296.4" y2="332.7"/>
<g>
	<path class="st10" d="M386.3,341.3c0,3.5-8.4,6.4-18.8,6.4c-25-0.3-25-12.4,0-12.7C377.9,334.9,386.3,337.8,386.3,341.3
		L386.3,341.3z"/>
</g>
<line class="st11" x1="348.6" y1="323.3" x2="363" y2="334.9"/>
<g>
	<path class="st10" d="M468.7,338.4c0,3.5-8.4,6.4-18.8,6.4c-25-0.3-25-12.4,0-12.7C460.2,332,468.7,334.9,468.7,338.4L468.7,338.4z
		"/>
</g>
<line class="st11" x1="431" y1="320.4" x2="445.4" y2="332"/>
<g>
	<path class="st10" d="M540.4,338.4c0,3.5-8.4,6.4-18.8,6.4c-25-0.3-25-12.4,0-12.7C532,332,540.4,334.8,540.4,338.4L540.4,338.4z"
		/>
</g>
<line class="st11" x1="502.8" y1="320.3" x2="517.1" y2="332"/>
<g>
	<g>
		<path class="st7" d="M143.4,262.1c0.5,0.7,1.1,1.4,1.7,2.1c0.6,0.6,1.2,1.4,1.9,1.9c0.9,0.6,2,0.4,2.7-0.4c0.5-0.6,0.8-1.3,1.2-2
			c1.4-2.5,3-5,5.4-6.7c0.7-0.5,1-1.3,0.5-2.1c-0.4-0.6-1.4-1-2.1-0.5c-2.3,1.6-4.1,3.8-5.6,6.2c-0.3,0.5-0.6,1.1-1,1.6
			c-0.2,0.3-0.3,0.5-0.5,0.8c-0.1,0.1-0.2,0.3-0.2,0.5c-0.1,0.1-0.1,0.1,0,0.1c0.2-0.3,0.6-0.4,1.1-0.2c0,0,0.1,0,0.1,0.1
			c-0.1-0.1-0.2-0.2-0.3-0.3c-0.1-0.1-0.2-0.2-0.4-0.3c-0.3-0.2-0.5-0.5-0.8-0.8c-0.5-0.5-0.9-1.1-1.4-1.6c-0.5-0.6-1.3-1-2.1-0.5
			C143.3,260.5,142.9,261.5,143.4,262.1L143.4,262.1z"/>
	</g>
</g>
<g>
	<g>
		<path class="st7" d="M142.2,262.4c0.5,0.7,1.1,1.4,1.7,2.1c0.6,0.6,1.2,1.4,1.9,1.9c0.9,0.6,2,0.4,2.7-0.4c0.5-0.6,0.8-1.3,1.2-2
			c1.4-2.5,3-5,5.4-6.7c0.7-0.5,1-1.3,0.5-2.1c-0.4-0.6-1.4-1-2.1-0.5c-2.3,1.6-4.1,3.8-5.6,6.2c-0.3,0.5-0.6,1.1-1,1.6
			c-0.2,0.3-0.3,0.5-0.5,0.8c-0.1,0.1-0.2,0.3-0.2,0.5c-0.1,0.1-0.1,0.1,0,0.1c0.2-0.3,0.6-0.4,1.1-0.2c0,0,0.1,0,0.1,0.1
			c-0.1-0.1-0.2-0.2-0.3-0.3c-0.1-0.1-0.2-0.2-0.4-0.3c-0.3-0.2-0.5-0.5-0.8-0.8c-0.5-0.5-0.9-1.1-1.4-1.6c-0.5-0.6-1.3-1-2.1-0.5
			C142.1,260.7,141.8,261.7,142.2,262.4L142.2,262.4z"/>
	</g>
</g>
<g>
	<g>
		<path class="st7" d="M209.6,262.7c0.5,0.7,1.1,1.4,1.7,2.1c0.6,0.6,1.2,1.4,1.9,1.9c0.9,0.6,2,0.4,2.7-0.4c0.5-0.6,0.8-1.3,1.2-2
			c1.4-2.5,3-5,5.4-6.7c0.7-0.5,1-1.3,0.5-2.1c-0.4-0.6-1.4-1-2.1-0.5c-2.3,1.6-4.1,3.8-5.6,6.2c-0.3,0.5-0.6,1.1-1,1.6
			c-0.2,0.3-0.3,0.5-0.5,0.8c-0.1,0.1-0.2,0.3-0.2,0.5c-0.1,0.1-0.1,0.1,0,0.1c0.2-0.3,0.6-0.4,1.1-0.2c0,0,0.1,0,0.1,0.1
			c-0.1-0.1-0.2-0.2-0.3-0.3c-0.1-0.1-0.2-0.2-0.4-0.3c-0.3-0.2-0.5-0.5-0.8-0.8c-0.5-0.5-0.9-1.1-1.4-1.6c-0.5-0.6-1.3-1-2.1-0.5
			C209.5,261,209.1,262,209.6,262.7L209.6,262.7z"/>
	</g>
</g>
<g>
	<g>
		<path class="st7" d="M270.7,262.7c0.5,0.7,1.1,1.4,1.7,2.1c0.6,0.6,1.2,1.4,1.9,1.9c0.9,0.6,2,0.4,2.7-0.4c0.5-0.6,0.8-1.3,1.2-2
			c1.4-2.5,3-5,5.4-6.7c0.7-0.5,1-1.3,0.5-2.1c-0.4-0.6-1.4-1-2-0.5c-2.3,1.6-4.1,3.8-5.6,6.2c-0.3,0.5-0.6,1.1-1,1.6
			c-0.2,0.3-0.3,0.5-0.5,0.8c-0.1,0.1-0.2,0.3-0.2,0.5c-0.1,0.1-0.1,0.1,0,0.1c0.2-0.3,0.6-0.4,1.1-0.2c0,0,0.1,0,0.1,0.1
			c-0.1-0.1-0.2-0.2-0.3-0.3c-0.1-0.1-0.2-0.2-0.4-0.3c-0.3-0.2-0.5-0.5-0.8-0.8c-0.5-0.5-1-1.1-1.4-1.6c-0.5-0.6-1.3-1-2-0.5
			C270.6,261,270.2,262,270.7,262.7L270.7,262.7z"/>
	</g>
</g>
<g>
	<g>
		<path class="st7" d="M345.7,262.1c0.5,0.7,1.1,1.4,1.7,2.1c0.6,0.6,1.2,1.4,1.9,1.9c0.9,0.6,2,0.4,2.7-0.4c0.5-0.6,0.8-1.3,1.2-2
			c1.4-2.5,3-5,5.4-6.7c0.7-0.5,1-1.3,0.5-2.1c-0.4-0.6-1.4-1-2-0.5c-2.3,1.6-4.1,3.8-5.6,6.2c-0.3,0.5-0.6,1.1-1,1.6
			c-0.2,0.3-0.3,0.5-0.5,0.8c-0.1,0.1-0.2,0.3-0.2,0.5c-0.1,0.1-0.1,0.1,0,0.1c0.2-0.3,0.6-0.4,1.1-0.2c0,0,0.1,0,0.1,0.1
			c-0.1-0.1-0.2-0.2-0.3-0.3c-0.1-0.1-0.2-0.2-0.4-0.3c-0.3-0.2-0.5-0.5-0.8-0.8c-0.5-0.5-1-1.1-1.4-1.6c-0.5-0.6-1.3-1-2-0.5
			C345.6,260.5,345.2,261.5,345.7,262.1L345.7,262.1z"/>
	</g>
</g>
<g>
	<g>
		<path class="st7" d="M495.6,262.1c0.5,0.7,1.1,1.4,1.7,2.1c0.6,0.6,1.2,1.4,1.9,1.9c0.9,0.6,2,0.4,2.7-0.4c0.5-0.6,0.8-1.3,1.2-2
			c1.4-2.5,3-5,5.4-6.7c0.7-0.5,1-1.3,0.5-2.1c-0.4-0.6-1.4-1-2-0.5c-2.3,1.6-4.1,3.8-5.6,6.2c-0.3,0.5-0.6,1.1-1,1.6
			c-0.2,0.3-0.3,0.5-0.5,0.8c-0.1,0.1-0.2,0.3-0.2,0.5c-0.1,0.1-0.1,0.1,0,0.1c0.2-0.3,0.6-0.4,1.1-0.2c0,0,0.1,0,0.1,0.1
			c-0.1-0.1-0.2-0.2-0.3-0.3c-0.1-0.1-0.2-0.2-0.4-0.3c-0.3-0.2-0.5-0.5-0.8-0.8c-0.5-0.5-1-1.1-1.4-1.6c-0.5-0.6-1.3-1-2-0.5
			C495.5,260.5,495.1,261.5,495.6,262.1L495.6,262.1z"/>
	</g>
</g>
<g>
	<g>
		<path d="M275,58.4c-0.1,0-0.3,0-0.5,0c-2.3-0.1-3-0.6-3.5-1.3c-0.7-1-1.2-2.1-1.9-3.2c-0.3-0.5-0.5-0.6-1.1-0.6h-0.4v2.6
			c0,1.5,0.2,1.6,1.5,1.8v0.7h-5.5v-0.7c1.4-0.1,1.5-0.3,1.5-1.8V49c0-1.4-0.2-1.6-1.5-1.7v-0.7h5.2c1.6,0,2.5,0.2,3.3,0.7
			c0.7,0.5,1.2,1.3,1.2,2.4c0,1.6-1.1,2.5-2.2,2.9c0.3,0.5,1,1.7,1.5,2.5c0.6,1,1,1.5,1.4,1.9c0.4,0.5,0.6,0.6,1.1,0.8L275,58.4z
			 M268.1,52.5c0.8,0,1.4-0.1,1.8-0.5c0.6-0.5,0.9-1.2,0.9-2.1c0-1.9-1.1-2.6-2.1-2.6c-0.5,0-0.7,0.1-0.8,0.2
			c-0.1,0.1-0.2,0.3-0.2,0.7v4.3L268.1,52.5L268.1,52.5z"/>
		<path d="M280.2,54.8h-4.5l0.1-1.4h4.5L280.2,54.8z"/>
		<path d="M285.6,50.4c0.5-0.2,0.9-0.3,1.3-0.3c2.2,0,3.7,1.8,3.7,3.8c0,2.6-2.1,4.6-4.7,4.6c-1,0-2-0.2-3.2-0.7c0-0.4,0-0.9,0-1.4
			v-8.3c0-1-0.1-1.2-1.1-1.2v-0.6c0.9-0.1,2.5-0.3,3.4-0.6c0,0.6,0,1.3,0,1.9v3.1L285.6,50.4z M284.9,56.3c0,0.2,0,0.5,0.1,0.6
			c0.1,0.3,0.6,0.8,1.3,0.8c1,0,1.7-1.1,1.7-3.3c0-2.3-1.1-3.2-2.2-3.2c-0.4,0-0.6,0-0.8,0.1L284.9,56.3L284.9,56.3z"/>
		<path d="M297.8,58.5c-0.5,0-0.9-0.2-1.1-0.4s-0.4-0.5-0.5-0.7c-0.7,0.5-1.6,1-1.9,1c-1.5,0-2.5-1.2-2.5-2.3c0-1,0.4-1.4,1.4-1.8
			c1.1-0.4,2.5-0.8,2.9-1.2v-0.8c0-0.9-0.3-1.5-1.1-1.5c-0.3,0-0.6,0.1-0.7,0.4c-0.2,0.3-0.3,0.7-0.4,1.2s-0.4,0.6-0.8,0.6
			c-0.5,0-1.1-0.4-1.1-0.9c0-0.3,0.2-0.6,0.6-0.8c0.8-0.5,1.9-1.1,2.9-1.3c0.7,0,1.3,0.2,1.9,0.5c0.8,0.5,1,1.3,1,2.2v3.1
			c0,0.9,0.3,1.1,0.6,1.1c0.2,0,0.4,0,0.6-0.1l0.2,0.6L297.8,58.5z M296.1,53.9c-0.3,0.2-0.6,0.4-1,0.6c-0.6,0.3-0.9,0.6-0.9,1.2
			c0,1,0.7,1.4,1.1,1.4c0.2,0,0.5,0,0.8-0.3C296.1,56,296.1,54.8,296.1,53.9z"/>
		<path d="M305.6,52.6c-0.5-1.3-1.1-1.8-1.9-1.8c-0.5,0-1,0.4-1,1s0.5,1,1.4,1.4c1.5,0.7,2.5,1.3,2.5,2.7c0,1.8-1.7,2.7-3.3,2.7
			c-0.9,0-1.9-0.4-2.3-0.5c-0.1-0.4-0.2-1.7-0.3-2.3l0.6-0.1c0.4,1.1,1.1,2.2,2.3,2.2c0.7,0,1-0.4,1-0.9c0-0.6-0.3-1-1.4-1.5
			c-1.2-0.6-2.3-1.2-2.3-2.7c0-1.4,1.2-2.5,3.1-2.5c0.9,0,1.5,0.2,1.9,0.3c0,0.5,0.2,1.6,0.3,2.1L305.6,52.6z"/>
		<path d="M314.9,56.5c-1.1,1.6-2.5,2-3.3,2c-2.4,0-3.8-1.8-3.8-3.9c0-1.3,0.6-2.5,1.4-3.2c0.8-0.8,1.8-1.3,2.8-1.3
			c1.8,0,3,1.5,3,2.9c0,0.3,0,0.6-0.2,0.7c-0.3,0.1-2.9,0.2-4.6,0.3c0.1,1.9,1.1,2.9,2.4,2.9c0.7,0,1.4-0.2,2-0.8L314.9,56.5z
			 M311.6,50.8c-0.7,0-1.3,0.8-1.4,2.3c0.7,0,1.4,0,2.2,0c0.2,0,0.4,0,0.4-0.4C312.7,51.7,312.3,50.8,311.6,50.8z"/>
		<path d="M326.7,46.3c3.3,0,6,2.4,6,6c0,3.8-2.7,6.2-6.1,6.2c-3.6,0-6.2-2.6-6.2-6.1C320.4,49.3,322.6,46.3,326.7,46.3z
			 M326.5,47.1c-1.8,0-3.2,1.8-3.2,5c0,3,1.2,5.7,3.6,5.7c1.7,0,3-1.7,3-5C330,49.2,328.5,47.1,326.5,47.1z"/>
		<path d="M338,50.4c0.5-0.2,0.9-0.3,1.3-0.3c2.2,0,3.7,1.8,3.7,3.8c0,2.6-2.1,4.6-4.7,4.6c-1,0-2-0.2-3.2-0.7c0-0.4,0-0.9,0-1.4
			v-8.3c0-1-0.1-1.2-1.1-1.2v-0.6c0.9-0.1,2.5-0.3,3.4-0.6c0,0.6,0,1.3,0,1.9v3.1L338,50.4z M337.3,56.3c0,0.2,0,0.5,0.1,0.6
			c0.1,0.3,0.6,0.8,1.3,0.8c1,0,1.7-1.1,1.7-3.3c0-2.3-1.1-3.2-2.2-3.2c-0.4,0-0.6,0-0.8,0.1L337.3,56.3L337.3,56.3z"/>
		<path d="M344.2,50.7c1.1-0.1,2.2-0.4,3.4-0.7c0,0.8,0,1.5,0,2.3v3.6c0,1.4-0.1,2.1-0.5,2.9c-0.7,1.7-2.1,3.2-2.5,3.5
			c-0.3,0.2-0.4,0.2-0.6,0.2c-0.3,0-0.7-0.4-0.7-1c0-0.3,0.2-0.5,0.4-0.5c0.8,0,1.3-0.2,1.4-0.4s0.2-0.7,0.2-1.3
			c0-1,0.1-2.2,0.1-3.4v-3.3c0-1.3-0.1-1.3-1.1-1.5L344.2,50.7L344.2,50.7z M346.3,48.9c-0.7,0-1.3-0.6-1.3-1.3s0.6-1.3,1.3-1.3
			c0.7,0,1.3,0.5,1.3,1.3C347.6,48.3,347,48.9,346.3,48.9z"/>
		<path d="M356.6,56.5c-1.1,1.6-2.5,2-3.3,2c-2.4,0-3.8-1.8-3.8-3.9c0-1.3,0.6-2.5,1.4-3.2c0.8-0.8,1.8-1.3,2.8-1.3
			c1.8,0,3,1.5,3,2.9c0,0.3,0,0.6-0.2,0.7c-0.3,0.1-2.9,0.2-4.6,0.3c0.1,1.9,1.1,2.9,2.4,2.9c0.7,0,1.4-0.2,2-0.8L356.6,56.5z
			 M353.3,50.8c-0.7,0-1.3,0.8-1.4,2.3c0.7,0,1.4,0,2.2,0c0.2,0,0.4,0,0.4-0.4C354.4,51.7,354,50.8,353.3,50.8z"/>
		<path d="M364.9,56.5c-0.8,1.2-2,2-3.1,2c-2.5,0-3.9-1.9-3.9-3.9c0-1.3,0.7-2.6,1.8-3.4c1.2-0.9,2.3-1.1,3.1-1.1
			c0.7,0,1.3,0.2,1.6,0.4c0.2,0.2,0.3,0.4,0.3,0.7c0,0.5-0.5,1-0.8,1c-0.1,0-0.2,0-0.4-0.2c-0.8-0.7-1.4-0.9-1.9-0.9
			c-0.7,0-1.5,0.7-1.5,2.6c0,2.4,1.8,3.2,2.5,3.2s1.3-0.2,1.9-0.8L364.9,56.5z"/>
		<path d="M369.6,58.3c-0.3,0.1-0.6,0.2-0.7,0.2c-1.4,0-2.2-0.7-2.2-2.3v-5h-1.1l-0.1-0.2l0.5-0.7h0.7v-1.5c0.6-0.4,1.5-1,2.1-1.4
			l0.2,0.1c0,0.5,0,1.4,0,2.8h1.8c0.2,0.2,0.1,0.7-0.1,0.9H369v4.4c0,1.4,0.6,1.6,0.9,1.6s0.5,0,0.9-0.2l0.2,0.6L369.6,58.3z"/>
		<path d="M377,52.6c-0.5-1.3-1.1-1.8-1.9-1.8c-0.5,0-1,0.4-1,1s0.5,1,1.4,1.4c1.5,0.7,2.5,1.3,2.5,2.7c0,1.8-1.7,2.7-3.3,2.7
			c-0.9,0-1.9-0.4-2.3-0.5c-0.1-0.4-0.2-1.7-0.3-2.3l0.6-0.1c0.4,1.1,1.1,2.2,2.3,2.2c0.7,0,1-0.4,1-0.9c0-0.6-0.3-1-1.4-1.5
			c-1.2-0.6-2.3-1.2-2.3-2.7c0-1.4,1.2-2.5,3.1-2.5c0.9,0,1.5,0.2,1.9,0.3c0,0.5,0.2,1.6,0.3,2.1L377,52.6z"/>
	</g>
</g>
<text transform="matrix(1 0 0 1 129.8537 437.7957)" class="st4 st3">Logical </text>
<text transform="matrix(1 0 0 1 197.7446 438.759)" class="st4 st3">Double </text>
<text transform="matrix(1 0 0 1 259.031 440.4378)" class="st4 st3">Integer</text>
<text transform="matrix(1 0 0 1 324.9987 441.7814)" class="st4 st3">Character</text>
<text transform="matrix(1 0 0 1 489.8926 440.0516)" class="st4 st3">List</text>
<text transform="matrix(1 0 0 1 413.5516 440.3035)" class="st4 st3">NULL</text>
<rect x="125.6" y="425.5" class="st9" width="43.3" height="17.8"/>
<rect x="194" y="427.3" class="st9" width="43.3" height="17.8"/>
<polygon class="st9" points="297.2,445.4 254.4,445.4 254.5,425.5 297.3,425.5 "/>
<rect x="320.5" y="427.3" class="st9" width="58.5" height="20.5"/>
<rect x="408.5" y="427.3" class="st9" width="42.4" height="17.8"/>
<rect x="483.5" y="425.5" class="st9" width="32.5" height="19.3"/>
<g>
	<path class="st10" d="M169.9,460.7c0,3.5-8.4,6.4-18.8,6.4c-25-0.3-25-12.4,0-12.7C161.5,454.4,169.9,457.2,169.9,460.7
		L169.9,460.7z"/>
</g>
<g>
	<g>
		<path d="M140.5,462.2c-0.1,0-0.7,0.1-1.1,0.3c0-0.1,0-0.3,0-0.5c-0.1,0.1-0.3,0.2-0.4,0.2c-0.3,0.2-0.5,0.2-0.6,0.2
			c-0.6,0-1.3-0.6-1.3-1.5c0-1,0.9-1.7,1.8-1.7c0.1,0,0.3,0,0.5,0.1v-1c0-0.5-0.1-0.5-0.6-0.5v-0.2c0.4,0,0.8-0.1,1.1-0.2
			c0,0.3,0,0.6,0,0.9v3.4c0,0.4,0.1,0.4,0.3,0.4h0.2v0.1H140.5z M139.4,459.9c-0.2-0.2-0.5-0.4-0.7-0.4c-0.3,0-0.9,0.2-0.9,1.2
			c0,0.9,0.5,1.3,1,1.3c0.2,0,0.5-0.1,0.7-0.2L139.4,459.9L139.4,459.9z"/>
		<path d="M140.8,462.4v-0.2c0.4,0,0.5-0.1,0.5-0.5v-1.4c0-0.4,0-0.5-0.4-0.5v-0.2c0.4-0.1,0.7-0.1,1-0.3c0,0.3,0,0.6,0,0.9v1.5
			c0,0.5,0.1,0.5,0.5,0.5v0.2H140.8z M141.5,458.6c-0.2,0-0.4-0.2-0.4-0.4c0-0.2,0.2-0.4,0.4-0.4s0.4,0.2,0.4,0.4
			S141.7,458.6,141.5,458.6z"/>
		<path d="M146.5,462.4v-0.2c0.4,0,0.5-0.1,0.5-0.6v-1.2c0-0.5-0.2-0.8-0.6-0.8c-0.3,0-0.5,0.1-0.8,0.4c0,0.1,0,0.2,0,0.3v1.4
			c0,0.4,0.1,0.5,0.4,0.5v0.2h-1.5v-0.2c0.4,0,0.5-0.1,0.5-0.5v-1.2c0-0.5-0.2-0.8-0.6-0.8c-0.3,0-0.6,0.2-0.8,0.4v1.6
			c0,0.5,0.1,0.5,0.4,0.5v0.2h-1.5v-0.2c0.5,0,0.5-0.1,0.5-0.5v-1.5c0-0.5,0-0.5-0.4-0.5v-0.2c0.3,0,0.7-0.1,1-0.3
			c0,0.2,0,0.4,0,0.6c0.1-0.1,0.3-0.2,0.5-0.4c0.2-0.1,0.3-0.2,0.6-0.2s0.6,0.2,0.8,0.6c0.2-0.1,0.4-0.3,0.6-0.4
			c0.1-0.1,0.4-0.2,0.6-0.2c0.6,0,0.9,0.4,0.9,1.1v1.4c0,0.5,0,0.5,0.4,0.5v0.2L146.5,462.4L146.5,462.4z"/>
		<path d="M150.3,463.8c-1-0.7-1.6-2-1.6-3.3s0.6-2.5,1.6-3.2l0.1,0.2c-0.7,0.6-1.2,1.8-1.2,3.1c0,1.2,0.5,2.5,1.2,3.1L150.3,463.8z
			"/>
		<path d="M152.6,462.4H151v-0.2c0.4,0,0.5-0.1,0.5-0.5v-1.5c0-0.5,0-0.5-0.4-0.5v-0.2c0.3-0.1,0.7-0.1,1-0.3c0,0.2,0,0.5,0,0.8
			c0.2-0.4,0.5-0.8,0.9-0.8c0.3,0,0.4,0.2,0.4,0.3c0,0.2-0.1,0.3-0.2,0.4c-0.1,0-0.1,0-0.2,0c-0.1-0.1-0.2-0.2-0.3-0.2
			s-0.4,0.2-0.6,0.6v1.3c0,0.5,0,0.5,0.6,0.5L152.6,462.4L152.6,462.4z"/>
		<path d="M153.6,463c0.3-0.1,0.6-0.3,0.6-0.6c0-0.2-0.2-0.3-0.4-0.4c0,0-0.1-0.1-0.1-0.2c0-0.2,0.1-0.4,0.4-0.4
			c0.2,0,0.6,0.2,0.6,0.7s-0.5,0.9-0.9,1L153.6,463z"/>
		<path d="M157.8,461.8c-0.3,0.4-0.8,0.7-1.2,0.7c-0.9,0-1.4-0.7-1.4-1.5c0-0.5,0.2-1,0.7-1.4c0.4-0.3,0.8-0.4,1.1-0.4
			s0.6,0.1,0.6,0.2c0.1,0.1,0.1,0.1,0.1,0.2c0,0.2-0.2,0.3-0.2,0.3s-0.1,0-0.1-0.1c-0.2-0.2-0.5-0.3-0.7-0.3c-0.5,0-0.9,0.4-0.9,1.1
			c0,1,0.7,1.3,1.1,1.3c0.3,0,0.5-0.1,0.9-0.4L157.8,461.8z"/>
		<path d="M158.2,463c0.3-0.1,0.6-0.3,0.6-0.6c0-0.2-0.2-0.3-0.4-0.4c0,0-0.1-0.1-0.1-0.2c0-0.2,0.1-0.4,0.4-0.4
			c0.2,0,0.6,0.2,0.6,0.7s-0.5,0.9-0.9,1L158.2,463z"/>
		<path d="M162,462.5c-0.1,0-0.3-0.1-0.3-0.1c-0.1-0.1-0.1-0.2-0.2-0.3c-0.3,0.2-0.6,0.5-0.8,0.5c-0.5,0-0.9-0.4-0.9-0.9
			c0-0.3,0.2-0.6,0.6-0.7c0.4-0.1,0.9-0.3,1.1-0.5v-0.1c0-0.5-0.2-0.8-0.6-0.8c-0.2,0-0.3,0.1-0.3,0.2c-0.1,0.1-0.1,0.2-0.2,0.5
			c0,0.1-0.1,0.2-0.2,0.2c-0.1,0-0.3-0.1-0.3-0.3c0-0.1,0.1-0.2,0.2-0.3c0.2-0.1,0.6-0.4,1-0.5c0.2,0,0.4,0.1,0.6,0.2
			c0.2,0.2,0.4,0.5,0.4,0.8v1.4c0,0.3,0.1,0.4,0.2,0.4c0.1,0,0.2,0,0.2-0.1l0.1,0.2L162,462.5z M161.5,460.7
			c-0.1,0.1-0.5,0.2-0.6,0.3c-0.3,0.1-0.4,0.2-0.4,0.5c0,0.4,0.3,0.5,0.5,0.5s0.4-0.1,0.6-0.2C161.5,461.5,161.5,461.1,161.5,460.7z
			"/>
		<path d="M163.1,457.3c1,0.7,1.6,2,1.6,3.3s-0.6,2.5-1.6,3.2l-0.1-0.2c0.7-0.6,1.2-1.8,1.2-3.1c0-1.2-0.5-2.5-1.2-3.1L163.1,457.3z
			"/>
	</g>
</g>
<g>
	<g>
		<path d="M221.5,464.5c-0.1,0-0.7,0.1-1.1,0.3c0-0.1,0-0.3,0-0.5c-0.1,0.1-0.3,0.2-0.4,0.2c-0.3,0.2-0.5,0.2-0.6,0.2
			c-0.6,0-1.3-0.6-1.3-1.5c0-1,0.9-1.7,1.8-1.7c0.1,0,0.3,0,0.5,0.1v-1c0-0.5-0.1-0.5-0.6-0.5v-0.2c0.4,0,0.8-0.1,1.1-0.2
			c0,0.3,0,0.6,0,0.9v3.4c0,0.4,0.1,0.4,0.3,0.4h0.2v0.1H221.5z M220.4,462.1c-0.2-0.2-0.5-0.4-0.7-0.4c-0.3,0-0.9,0.2-0.9,1.2
			c0,0.9,0.5,1.3,1,1.3c0.2,0,0.5-0.1,0.7-0.2L220.4,462.1L220.4,462.1z"/>
		<path d="M221.8,464.7v-0.2c0.4,0,0.5-0.1,0.5-0.5v-1.4c0-0.4,0-0.5-0.4-0.5v-0.2c0.4-0.1,0.7-0.1,1-0.3c0,0.3,0,0.6,0,0.9v1.5
			c0,0.5,0.1,0.5,0.5,0.5v0.2H221.8z M222.5,460.8c-0.2,0-0.4-0.2-0.4-0.4c0-0.2,0.2-0.4,0.4-0.4s0.4,0.2,0.4,0.4
			C222.9,460.6,222.7,460.8,222.5,460.8z"/>
		<path d="M227.5,464.7v-0.2c0.4,0,0.5-0.1,0.5-0.6v-1.2c0-0.5-0.2-0.8-0.6-0.8c-0.3,0-0.5,0.1-0.8,0.4c0,0.1,0,0.2,0,0.3v1.4
			c0,0.4,0.1,0.5,0.4,0.5v0.2h-1.5v-0.2c0.4,0,0.5-0.1,0.5-0.5v-1.2c0-0.5-0.2-0.8-0.6-0.8c-0.3,0-0.6,0.2-0.8,0.4v1.6
			c0,0.5,0.1,0.5,0.4,0.5v0.2h-1.5v-0.2c0.5,0,0.5-0.1,0.5-0.5v-1.5c0-0.5,0-0.5-0.4-0.5v-0.2c0.3,0,0.7-0.1,1-0.3
			c0,0.2,0,0.4,0,0.6c0.1-0.1,0.3-0.2,0.5-0.4c0.2-0.1,0.3-0.2,0.6-0.2s0.6,0.2,0.8,0.6c0.2-0.1,0.4-0.3,0.6-0.4
			c0.1-0.1,0.4-0.2,0.6-0.2c0.6,0,0.9,0.4,0.9,1.1v1.4c0,0.5,0,0.5,0.4,0.5v0.2L227.5,464.7L227.5,464.7z"/>
		<path d="M231.3,466c-1-0.7-1.6-2-1.6-3.3s0.6-2.5,1.6-3.2l0.1,0.2c-0.7,0.6-1.2,1.8-1.2,3.1c0,1.2,0.5,2.5,1.2,3.1L231.3,466z"/>
		<path d="M233.6,464.7H232v-0.2c0.4,0,0.5-0.1,0.5-0.5v-1.5c0-0.5,0-0.5-0.4-0.5v-0.2c0.3-0.1,0.7-0.1,1-0.3c0,0.2,0,0.5,0,0.8
			c0.2-0.4,0.5-0.8,0.9-0.8c0.3,0,0.4,0.2,0.4,0.3c0,0.2-0.1,0.3-0.2,0.4c-0.1,0-0.1,0-0.2,0c-0.1-0.1-0.2-0.2-0.3-0.2
			s-0.4,0.2-0.6,0.6v1.3c0,0.5,0,0.5,0.6,0.5L233.6,464.7L233.6,464.7z"/>
		<path d="M234.6,465.3c0.3-0.1,0.6-0.3,0.6-0.6c0-0.2-0.2-0.3-0.4-0.4c0,0-0.1-0.1-0.1-0.2c0-0.2,0.1-0.4,0.4-0.4
			c0.2,0,0.6,0.2,0.6,0.7s-0.5,0.9-0.9,1L234.6,465.3z"/>
		<path d="M238.8,464c-0.3,0.4-0.8,0.7-1.2,0.7c-0.9,0-1.4-0.7-1.4-1.5c0-0.5,0.2-1,0.7-1.4c0.4-0.3,0.8-0.4,1.1-0.4
			s0.6,0.1,0.6,0.2c0.1,0.1,0.1,0.1,0.1,0.2c0,0.2-0.2,0.3-0.2,0.3s-0.1,0-0.1-0.1c-0.2-0.2-0.5-0.3-0.7-0.3c-0.5,0-0.9,0.4-0.9,1.1
			c0,1,0.7,1.3,1.1,1.3c0.3,0,0.5-0.1,0.9-0.4L238.8,464z"/>
		<path d="M239.2,465.3c0.3-0.1,0.6-0.3,0.6-0.6c0-0.2-0.2-0.3-0.4-0.4c0,0-0.1-0.1-0.1-0.2c0-0.2,0.1-0.4,0.4-0.4
			c0.2,0,0.6,0.2,0.6,0.7s-0.5,0.9-0.9,1L239.2,465.3z"/>
		<path d="M243,464.8c-0.1,0-0.3-0.1-0.3-0.1c-0.1-0.1-0.1-0.2-0.2-0.3c-0.3,0.2-0.6,0.5-0.8,0.5c-0.5,0-0.9-0.4-0.9-0.9
			c0-0.3,0.2-0.6,0.6-0.7c0.4-0.1,0.9-0.3,1.1-0.5v-0.1c0-0.5-0.2-0.8-0.6-0.8c-0.2,0-0.3,0.1-0.3,0.2c-0.1,0.1-0.1,0.2-0.2,0.5
			c0,0.1-0.1,0.2-0.2,0.2c-0.1,0-0.3-0.1-0.3-0.3c0-0.1,0.1-0.2,0.2-0.3c0.2-0.1,0.6-0.4,1-0.5c0.2,0,0.4,0.1,0.6,0.2
			c0.2,0.2,0.4,0.5,0.4,0.8v1.4c0,0.3,0.1,0.4,0.2,0.4c0.1,0,0.2,0,0.2-0.1l0.1,0.2L243,464.8z M242.5,463c-0.1,0.1-0.5,0.2-0.6,0.3
			c-0.3,0.1-0.4,0.2-0.4,0.5c0,0.4,0.3,0.5,0.5,0.5s0.4-0.1,0.6-0.2C242.5,463.7,242.5,463.3,242.5,463z"/>
		<path d="M244.1,459.5c1,0.7,1.6,2,1.6,3.3s-0.6,2.5-1.6,3.2l-0.1-0.2c0.7-0.6,1.2-1.8,1.2-3.1c0-1.2-0.5-2.5-1.2-3.1L244.1,459.5z
			"/>
	</g>
</g>
<g>
	<g>
		<path d="M286.5,465.6c-0.1,0-0.7,0.1-1.1,0.3c0-0.1,0-0.3,0-0.5c-0.1,0.1-0.3,0.2-0.4,0.2c-0.3,0.2-0.5,0.2-0.5,0.2
			c-0.6,0-1.3-0.6-1.3-1.5c0-1,0.9-1.7,1.8-1.7c0.1,0,0.3,0,0.5,0.1v-1c0-0.5,0-0.5-0.5-0.5V461c0.4,0,0.8-0.1,1.1-0.2
			c0,0.3,0,0.6,0,0.9v3.4c0,0.4,0,0.4,0.3,0.4h0.2L286.5,465.6L286.5,465.6z M285.4,463.3c-0.2-0.2-0.5-0.4-0.7-0.4
			c-0.3,0-0.9,0.2-0.9,1.2c0,0.9,0.5,1.3,1,1.3c0.2,0,0.5-0.1,0.7-0.2L285.4,463.3L285.4,463.3z"/>
		<path d="M286.8,465.8v-0.2c0.4,0,0.5-0.1,0.5-0.5v-1.4c0-0.4,0-0.5-0.4-0.5V463c0.4-0.1,0.7-0.1,1-0.3c0,0.3,0,0.6,0,0.9v1.5
			c0,0.5,0,0.5,0.5,0.5v0.2H286.8z M287.5,462c-0.2,0-0.4-0.2-0.4-0.4c0-0.2,0.2-0.4,0.4-0.4c0.2,0,0.4,0.2,0.4,0.4
			S287.7,462,287.5,462z"/>
		<path d="M292.5,465.8v-0.2c0.4,0,0.5-0.1,0.5-0.6v-1.2c0-0.5-0.2-0.8-0.6-0.8c-0.3,0-0.5,0.1-0.8,0.4c0,0.1,0,0.2,0,0.3v1.4
			c0,0.4,0.1,0.5,0.5,0.5v0.2h-1.5v-0.2c0.4,0,0.5-0.1,0.5-0.5v-1.2c0-0.5-0.2-0.8-0.6-0.8c-0.3,0-0.5,0.2-0.8,0.4v1.6
			c0,0.5,0,0.5,0.5,0.5v0.2h-1.5v-0.2c0.5,0,0.5-0.1,0.5-0.5v-1.5c0-0.5,0-0.5-0.4-0.5v-0.2c0.3,0,0.7-0.1,1-0.3c0,0.2,0,0.4,0,0.6
			c0.1-0.1,0.3-0.2,0.5-0.4c0.2-0.1,0.3-0.2,0.5-0.2c0.3,0,0.6,0.2,0.8,0.6c0.2-0.1,0.4-0.3,0.5-0.4s0.4-0.2,0.5-0.2
			c0.5,0,0.9,0.4,0.9,1.1v1.4c0,0.5,0,0.5,0.4,0.5v0.2L292.5,465.8L292.5,465.8z"/>
		<path d="M296.3,467.2c-1-0.7-1.6-2-1.6-3.3s0.6-2.5,1.6-3.2l0.1,0.2c-0.7,0.6-1.2,1.8-1.2,3.1c0,1.2,0.5,2.5,1.2,3.1L296.3,467.2z
			"/>
		<path d="M298.6,465.8H297v-0.2c0.4,0,0.5-0.1,0.5-0.5v-1.5c0-0.5,0-0.5-0.4-0.5v-0.2c0.3-0.1,0.7-0.1,1-0.3c0,0.2,0,0.5,0,0.8
			c0.2-0.4,0.5-0.8,0.9-0.8c0.3,0,0.4,0.2,0.4,0.3c0,0.2-0.1,0.3-0.2,0.4c-0.1,0-0.1,0-0.2,0c-0.1-0.1-0.2-0.2-0.3-0.2
			c-0.1,0-0.4,0.2-0.6,0.6v1.3c0,0.5,0,0.5,0.6,0.5L298.6,465.8L298.6,465.8z"/>
		<path d="M299.6,466.5c0.3-0.1,0.6-0.3,0.6-0.6c0-0.2-0.2-0.3-0.5-0.4c0,0-0.1-0.1-0.1-0.2c0-0.2,0.1-0.4,0.4-0.4
			c0.2,0,0.6,0.2,0.6,0.7s-0.5,0.9-0.9,1L299.6,466.5z"/>
		<path d="M303.8,465.2c-0.3,0.4-0.8,0.7-1.2,0.7c-0.9,0-1.4-0.7-1.4-1.5c0-0.5,0.2-1,0.7-1.4c0.4-0.3,0.8-0.4,1.1-0.4
			c0.3,0,0.5,0.1,0.6,0.2s0.1,0.1,0.1,0.2c0,0.2-0.2,0.3-0.2,0.3s-0.1,0-0.1-0.1c-0.2-0.2-0.5-0.3-0.7-0.3c-0.5,0-0.9,0.4-0.9,1.1
			c0,1,0.7,1.3,1.1,1.3c0.3,0,0.5-0.1,0.9-0.4V465.2z"/>
		<path d="M304.2,466.5c0.3-0.1,0.6-0.3,0.6-0.6c0-0.2-0.2-0.3-0.5-0.4c0,0-0.1-0.1-0.1-0.2c0-0.2,0.1-0.4,0.4-0.4
			c0.2,0,0.6,0.2,0.6,0.7s-0.5,0.9-0.9,1L304.2,466.5z"/>
		<path d="M308,465.9c-0.1,0-0.3-0.1-0.3-0.1c-0.1-0.1-0.1-0.2-0.2-0.3c-0.3,0.2-0.6,0.5-0.8,0.5c-0.5,0-0.9-0.4-0.9-0.9
			c0-0.3,0.2-0.6,0.6-0.7s1-0.3,1.1-0.5v-0.1c0-0.5-0.2-0.8-0.6-0.8c-0.2,0-0.3,0.1-0.3,0.2c-0.1,0.1-0.1,0.2-0.2,0.5
			c0,0.1-0.1,0.2-0.2,0.2s-0.3-0.1-0.3-0.3c0-0.1,0.1-0.2,0.2-0.3c0.2-0.1,0.6-0.4,1-0.5c0.2,0,0.4,0.1,0.6,0.2
			c0.2,0.2,0.4,0.5,0.4,0.8v1.4c0,0.3,0.1,0.4,0.2,0.4s0.2,0,0.2-0.1l0.1,0.2L308,465.9z M307.5,464.1c-0.1,0.1-0.5,0.2-0.6,0.3
			c-0.3,0.1-0.4,0.2-0.4,0.5c0,0.4,0.3,0.5,0.5,0.5s0.4-0.1,0.6-0.2C307.5,464.9,307.5,464.5,307.5,464.1z"/>
		<path d="M309.1,460.7c1,0.7,1.6,2,1.6,3.3s-0.6,2.5-1.6,3.2L309,467c0.7-0.6,1.2-1.8,1.2-3.1c0-1.2-0.5-2.5-1.2-3.1L309.1,460.7z"
			/>
	</g>
</g>
<g>
	<g>
		<path d="M355.3,467.4c-0.1,0-0.7,0.1-1.1,0.3c0-0.1,0-0.3,0-0.5c-0.1,0.1-0.3,0.2-0.4,0.2c-0.3,0.2-0.5,0.2-0.5,0.2
			c-0.6,0-1.3-0.6-1.3-1.5c0-1,0.9-1.7,1.8-1.7c0.1,0,0.3,0,0.5,0.1v-1c0-0.5,0-0.5-0.5-0.5v-0.2c0.4,0,0.8-0.1,1.1-0.2
			c0,0.3,0,0.6,0,0.9v3.4c0,0.4,0,0.4,0.3,0.4h0.2L355.3,467.4L355.3,467.4z M354.2,465c-0.2-0.2-0.5-0.4-0.7-0.4
			c-0.3,0-0.9,0.2-0.9,1.2c0,0.9,0.5,1.3,1,1.3c0.2,0,0.5-0.1,0.7-0.2L354.2,465L354.2,465z"/>
		<path d="M355.6,467.6v-0.2c0.4,0,0.5-0.1,0.5-0.5v-1.4c0-0.4,0-0.5-0.4-0.5v-0.2c0.4-0.1,0.7-0.1,1-0.3c0,0.3,0,0.6,0,0.9v1.5
			c0,0.5,0,0.5,0.5,0.5v0.2H355.6z M356.4,463.7c-0.2,0-0.4-0.2-0.4-0.4c0-0.2,0.2-0.4,0.4-0.4c0.2,0,0.4,0.2,0.4,0.4
			C356.7,463.5,356.6,463.7,356.4,463.7z"/>
		<path d="M361.4,467.6v-0.2c0.4,0,0.5-0.1,0.5-0.6v-1.2c0-0.5-0.2-0.8-0.6-0.8c-0.3,0-0.5,0.1-0.8,0.4c0,0.1,0,0.2,0,0.3v1.4
			c0,0.4,0.1,0.5,0.5,0.5v0.2h-1.5v-0.2c0.4,0,0.5-0.1,0.5-0.5v-1.2c0-0.5-0.2-0.8-0.6-0.8c-0.3,0-0.5,0.2-0.8,0.4v1.6
			c0,0.5,0,0.5,0.5,0.5v0.2h-1.5v-0.2c0.5,0,0.5-0.1,0.5-0.5v-1.5c0-0.5,0-0.5-0.4-0.5v-0.2c0.3,0,0.7-0.1,1-0.3c0,0.2,0,0.4,0,0.6
			c0.1-0.1,0.3-0.2,0.5-0.4c0.2-0.1,0.3-0.2,0.5-0.2c0.3,0,0.6,0.2,0.8,0.6c0.2-0.1,0.4-0.3,0.5-0.4s0.4-0.2,0.5-0.2
			c0.5,0,0.9,0.4,0.9,1.1v1.4c0,0.5,0,0.5,0.4,0.5v0.2L361.4,467.6L361.4,467.6z"/>
		<path d="M365.1,468.9c-1-0.7-1.6-2-1.6-3.3s0.6-2.5,1.6-3.2l0.1,0.2c-0.7,0.6-1.2,1.8-1.2,3.1c0,1.2,0.5,2.5,1.2,3.1L365.1,468.9z
			"/>
		<path d="M367.4,467.6h-1.6v-0.2c0.4,0,0.5-0.1,0.5-0.5v-1.5c0-0.5,0-0.5-0.4-0.5v-0.2c0.3-0.1,0.7-0.1,1-0.3c0,0.2,0,0.5,0,0.8
			c0.2-0.4,0.5-0.8,0.9-0.8c0.3,0,0.4,0.2,0.4,0.3c0,0.2-0.1,0.3-0.2,0.4c-0.1,0-0.1,0-0.2,0c-0.1-0.1-0.2-0.2-0.3-0.2
			c-0.1,0-0.4,0.2-0.6,0.6v1.3c0,0.5,0,0.5,0.6,0.5L367.4,467.6L367.4,467.6z"/>
		<path d="M368.5,468.2c0.3-0.1,0.6-0.3,0.6-0.6c0-0.2-0.2-0.3-0.5-0.4c0,0-0.1-0.1-0.1-0.2c0-0.2,0.1-0.4,0.4-0.4
			c0.2,0,0.6,0.2,0.6,0.7s-0.5,0.9-0.9,1L368.5,468.2z"/>
		<path d="M372.7,467c-0.3,0.4-0.8,0.7-1.2,0.7c-0.9,0-1.4-0.7-1.4-1.5c0-0.5,0.2-1,0.7-1.4c0.4-0.3,0.8-0.4,1.1-0.4
			c0.3,0,0.5,0.1,0.6,0.2s0.1,0.1,0.1,0.2c0,0.2-0.2,0.3-0.2,0.3s-0.1,0-0.1-0.1c-0.2-0.2-0.5-0.3-0.7-0.3c-0.5,0-0.9,0.4-0.9,1.1
			c0,1,0.7,1.3,1.1,1.3c0.3,0,0.5-0.1,0.9-0.4V467z"/>
		<path d="M373.1,468.2c0.3-0.1,0.6-0.3,0.6-0.6c0-0.2-0.2-0.3-0.5-0.4c0,0-0.1-0.1-0.1-0.2c0-0.2,0.1-0.4,0.4-0.4
			c0.2,0,0.6,0.2,0.6,0.7s-0.5,0.9-0.9,1L373.1,468.2z"/>
		<path d="M376.9,467.7c-0.1,0-0.3-0.1-0.3-0.1c-0.1-0.1-0.1-0.2-0.2-0.3c-0.3,0.2-0.6,0.5-0.8,0.5c-0.5,0-0.9-0.4-0.9-0.9
			c0-0.3,0.2-0.6,0.6-0.7s1-0.3,1.1-0.5v-0.1c0-0.5-0.2-0.8-0.6-0.8c-0.2,0-0.3,0.1-0.3,0.2c-0.1,0.1-0.1,0.2-0.2,0.5
			c0,0.1-0.1,0.2-0.2,0.2s-0.3-0.1-0.3-0.3c0-0.1,0.1-0.2,0.2-0.3c0.2-0.1,0.6-0.4,1-0.5c0.2,0,0.4,0.1,0.6,0.2
			c0.2,0.2,0.4,0.5,0.4,0.8v1.4c0,0.3,0.1,0.4,0.2,0.4s0.2,0,0.2-0.1l0.1,0.2L376.9,467.7z M376.4,465.9c-0.1,0.1-0.5,0.2-0.6,0.3
			c-0.3,0.1-0.4,0.2-0.4,0.5c0,0.4,0.3,0.5,0.5,0.5s0.4-0.1,0.6-0.2C376.4,466.6,376.4,466.2,376.4,465.9z"/>
		<path d="M377.9,462.4c1,0.7,1.6,2,1.6,3.3s-0.6,2.5-1.6,3.2l-0.1-0.2c0.7-0.6,1.2-1.8,1.2-3.1c0-1.2-0.5-2.5-1.2-3.1L377.9,462.4z
			"/>
	</g>
</g>
<g>
	<g>
		<path d="M436.7,464.5c-0.1,0-0.7,0.1-1.1,0.3c0-0.1,0-0.3,0-0.5c-0.1,0.1-0.3,0.2-0.4,0.2c-0.3,0.2-0.5,0.2-0.5,0.2
			c-0.6,0-1.3-0.6-1.3-1.5c0-1,0.9-1.7,1.8-1.7c0.1,0,0.3,0,0.5,0.1v-1c0-0.5,0-0.5-0.5-0.5v-0.2c0.4,0,0.8-0.1,1.1-0.2
			c0,0.3,0,0.6,0,0.9v3.4c0,0.4,0,0.4,0.3,0.4h0.2L436.7,464.5L436.7,464.5z M435.6,462.1c-0.2-0.2-0.5-0.4-0.7-0.4
			c-0.3,0-0.9,0.2-0.9,1.2c0,0.9,0.5,1.3,1,1.3c0.2,0,0.5-0.1,0.7-0.2L435.6,462.1L435.6,462.1z"/>
		<path d="M437,464.6v-0.2c0.4,0,0.5-0.1,0.5-0.5v-1.4c0-0.4,0-0.5-0.4-0.5v-0.2c0.4-0.1,0.7-0.1,1-0.3c0,0.3,0,0.6,0,0.9v1.5
			c0,0.5,0,0.5,0.5,0.5v0.2H437z M437.8,460.8c-0.2,0-0.4-0.2-0.4-0.4c0-0.2,0.2-0.4,0.4-0.4c0.2,0,0.4,0.2,0.4,0.4
			C438.1,460.6,438,460.8,437.8,460.8z"/>
		<path d="M442.8,464.6v-0.2c0.4,0,0.5-0.1,0.5-0.6v-1.2c0-0.5-0.2-0.8-0.6-0.8c-0.3,0-0.5,0.1-0.8,0.4c0,0.1,0,0.2,0,0.3v1.4
			c0,0.4,0.1,0.5,0.5,0.5v0.2h-1.5v-0.2c0.4,0,0.5-0.1,0.5-0.5v-1.2c0-0.5-0.2-0.8-0.6-0.8c-0.3,0-0.5,0.2-0.8,0.4v1.6
			c0,0.5,0,0.5,0.5,0.5v0.2H439v-0.2c0.5,0,0.5-0.1,0.5-0.5v-1.5c0-0.5,0-0.5-0.4-0.5v-0.2c0.3,0,0.7-0.1,1-0.3c0,0.2,0,0.4,0,0.6
			c0.1-0.1,0.3-0.2,0.5-0.4c0.2-0.1,0.3-0.2,0.5-0.2c0.3,0,0.6,0.2,0.8,0.6c0.2-0.1,0.4-0.3,0.5-0.4s0.4-0.2,0.5-0.2
			c0.5,0,0.9,0.4,0.9,1.1v1.4c0,0.5,0,0.5,0.4,0.5v0.2L442.8,464.6L442.8,464.6z"/>
		<path d="M446.5,466c-1-0.7-1.6-2-1.6-3.3s0.6-2.5,1.6-3.2l0.1,0.2c-0.7,0.6-1.2,1.8-1.2,3.1c0,1.2,0.5,2.5,1.2,3.1L446.5,466z"/>
		<path d="M448.8,464.6h-1.6v-0.2c0.4,0,0.5-0.1,0.5-0.5v-1.5c0-0.5,0-0.5-0.4-0.5v-0.2c0.3-0.1,0.7-0.1,1-0.3c0,0.2,0,0.5,0,0.8
			c0.2-0.4,0.5-0.8,0.9-0.8c0.3,0,0.4,0.2,0.4,0.3c0,0.2-0.1,0.3-0.2,0.4c-0.1,0-0.1,0-0.2,0c-0.1-0.1-0.2-0.2-0.3-0.2
			c-0.1,0-0.4,0.2-0.6,0.6v1.3c0,0.5,0,0.5,0.6,0.5L448.8,464.6L448.8,464.6z"/>
		<path d="M449.9,465.3c0.3-0.1,0.6-0.3,0.6-0.6c0-0.2-0.2-0.3-0.5-0.4c0,0-0.1-0.1-0.1-0.2c0-0.2,0.1-0.4,0.4-0.4
			c0.2,0,0.6,0.2,0.6,0.7s-0.5,0.9-0.9,1L449.9,465.3z"/>
		<path d="M454,464c-0.3,0.4-0.8,0.7-1.2,0.7c-0.9,0-1.4-0.7-1.4-1.5c0-0.5,0.2-1,0.7-1.4c0.4-0.3,0.8-0.4,1.1-0.4
			c0.3,0,0.5,0.1,0.6,0.2s0.1,0.1,0.1,0.2c0,0.2-0.2,0.3-0.2,0.3s-0.1,0-0.1-0.1c-0.2-0.2-0.5-0.3-0.7-0.3c-0.5,0-0.9,0.4-0.9,1.1
			c0,1,0.7,1.3,1.1,1.3c0.3,0,0.5-0.1,0.9-0.4V464z"/>
		<path d="M454.5,465.3c0.3-0.1,0.6-0.3,0.6-0.6c0-0.2-0.2-0.3-0.5-0.4c0,0-0.1-0.1-0.1-0.2c0-0.2,0.1-0.4,0.4-0.4
			c0.2,0,0.6,0.2,0.6,0.7s-0.5,0.9-0.9,1L454.5,465.3z"/>
		<path d="M458.2,464.7c-0.1,0-0.3-0.1-0.3-0.1c-0.1-0.1-0.1-0.2-0.2-0.3c-0.3,0.2-0.6,0.5-0.8,0.5c-0.5,0-0.9-0.4-0.9-0.9
			c0-0.3,0.2-0.6,0.6-0.7s1-0.3,1.1-0.5v-0.1c0-0.5-0.2-0.8-0.6-0.8c-0.2,0-0.3,0.1-0.3,0.2c-0.1,0.1-0.1,0.2-0.2,0.5
			c0,0.1-0.1,0.2-0.2,0.2s-0.3-0.1-0.3-0.3c0-0.1,0.1-0.2,0.2-0.3c0.2-0.1,0.6-0.4,1-0.5c0.2,0,0.4,0.1,0.6,0.2
			c0.2,0.2,0.4,0.5,0.4,0.8v1.4c0,0.3,0.1,0.4,0.2,0.4s0.2,0,0.2-0.1l0.1,0.2L458.2,464.7z M457.7,463c-0.1,0.1-0.5,0.2-0.6,0.3
			c-0.3,0.1-0.4,0.2-0.4,0.5c0,0.4,0.3,0.5,0.5,0.5s0.4-0.1,0.6-0.2C457.7,463.7,457.7,463.3,457.7,463z"/>
		<path d="M459.3,459.5c1,0.7,1.6,2,1.6,3.3s-0.6,2.5-1.6,3.2l-0.1-0.2c0.7-0.6,1.2-1.8,1.2-3.1c0-1.2-0.5-2.5-1.2-3.1L459.3,459.5z
			"/>
	</g>
</g>
<g>
	<g>
		<path d="M509,464.5c-0.1,0-0.7,0.1-1.1,0.3c0-0.1,0-0.3,0-0.5c-0.1,0.1-0.3,0.2-0.4,0.2c-0.3,0.2-0.5,0.2-0.5,0.2
			c-0.6,0-1.3-0.6-1.3-1.5c0-1,0.9-1.7,1.8-1.7c0.1,0,0.3,0,0.5,0.1v-1c0-0.5,0-0.5-0.5-0.5v-0.2c0.4,0,0.8-0.1,1.1-0.2
			c0,0.3,0,0.6,0,0.9v3.4c0,0.4,0,0.4,0.3,0.4h0.2L509,464.5L509,464.5z M507.9,462.1c-0.2-0.2-0.5-0.4-0.7-0.4
			c-0.3,0-0.9,0.2-0.9,1.2c0,0.9,0.5,1.3,1,1.3c0.2,0,0.5-0.1,0.7-0.2L507.9,462.1L507.9,462.1z"/>
		<path d="M509.3,464.7v-0.2c0.4,0,0.5-0.1,0.5-0.5v-1.4c0-0.4,0-0.5-0.4-0.5v-0.2c0.4-0.1,0.7-0.1,1-0.3c0,0.3,0,0.6,0,0.9v1.5
			c0,0.5,0,0.5,0.5,0.5v0.2H509.3z M510,460.8c-0.2,0-0.4-0.2-0.4-0.4c0-0.2,0.2-0.4,0.4-0.4c0.2,0,0.4,0.2,0.4,0.4
			C510.4,460.6,510.2,460.8,510,460.8z"/>
		<path d="M515,464.7v-0.2c0.4,0,0.5-0.1,0.5-0.6v-1.2c0-0.5-0.2-0.8-0.6-0.8c-0.3,0-0.5,0.1-0.8,0.4c0,0.1,0,0.2,0,0.3v1.4
			c0,0.4,0.1,0.5,0.5,0.5v0.2h-1.5v-0.2c0.4,0,0.5-0.1,0.5-0.5v-1.2c0-0.5-0.2-0.8-0.6-0.8c-0.3,0-0.5,0.2-0.8,0.4v1.6
			c0,0.5,0,0.5,0.5,0.5v0.2h-1.5v-0.2c0.5,0,0.5-0.1,0.5-0.5v-1.5c0-0.5,0-0.5-0.4-0.5v-0.2c0.3,0,0.7-0.1,1-0.3c0,0.2,0,0.4,0,0.6
			c0.2-0.1,0.3-0.2,0.5-0.4c0.2-0.1,0.3-0.2,0.5-0.2c0.3,0,0.6,0.2,0.8,0.6c0.2-0.1,0.4-0.3,0.5-0.4c0.2-0.1,0.3-0.2,0.5-0.2
			c0.5,0,0.9,0.4,0.9,1.1v1.4c0,0.5,0,0.5,0.4,0.5v0.2L515,464.7L515,464.7z"/>
		<path d="M518.8,466c-1-0.7-1.6-2-1.6-3.3s0.6-2.5,1.6-3.2l0.1,0.2c-0.7,0.6-1.2,1.8-1.2,3.1C517.7,464,518.2,465.3,518.8,466
			L518.8,466z"/>
		<path d="M521.1,464.7h-1.6v-0.2c0.4,0,0.5-0.1,0.5-0.5v-1.5c0-0.5,0-0.5-0.4-0.5v-0.2c0.3-0.1,0.7-0.1,1-0.3c0,0.2,0,0.5,0,0.8
			c0.2-0.4,0.5-0.8,0.9-0.8c0.3,0,0.4,0.2,0.4,0.3c0,0.2-0.1,0.3-0.2,0.4c-0.1,0-0.1,0-0.2,0c-0.1-0.1-0.2-0.2-0.3-0.2
			c-0.2,0-0.4,0.2-0.6,0.6v1.3c0,0.5,0,0.5,0.6,0.5L521.1,464.7L521.1,464.7z"/>
		<path d="M522.1,465.3c0.3-0.1,0.6-0.3,0.6-0.6c0-0.2-0.2-0.3-0.5-0.4c0,0-0.1-0.1-0.1-0.2c0-0.2,0.1-0.4,0.4-0.4
			c0.2,0,0.6,0.2,0.6,0.7s-0.5,0.9-0.9,1L522.1,465.3z"/>
		<path d="M526.3,464c-0.3,0.4-0.8,0.7-1.2,0.7c-0.9,0-1.4-0.7-1.4-1.5c0-0.5,0.2-1,0.7-1.4c0.4-0.3,0.8-0.4,1.1-0.4
			s0.5,0.1,0.7,0.2c0.1,0.1,0.1,0.1,0.1,0.2c0,0.2-0.2,0.3-0.2,0.3s-0.1,0-0.1-0.1c-0.2-0.2-0.5-0.3-0.7-0.3c-0.5,0-0.9,0.4-0.9,1.1
			c0,1,0.7,1.3,1.1,1.3c0.3,0,0.5-0.1,0.8-0.4L526.3,464z"/>
		<path d="M526.7,465.3c0.3-0.1,0.6-0.3,0.6-0.6c0-0.2-0.2-0.3-0.5-0.4c0,0-0.1-0.1-0.1-0.2c0-0.2,0.1-0.4,0.4-0.4
			c0.2,0,0.6,0.2,0.6,0.7s-0.5,0.9-0.9,1L526.7,465.3z"/>
		<path d="M530.5,464.8c-0.1,0-0.3-0.1-0.3-0.1c-0.1-0.1-0.1-0.2-0.2-0.3c-0.3,0.2-0.6,0.5-0.8,0.5c-0.5,0-0.8-0.4-0.8-0.9
			c0-0.3,0.2-0.6,0.6-0.7c0.4-0.1,1-0.3,1.1-0.5v-0.1c0-0.5-0.2-0.8-0.6-0.8c-0.2,0-0.3,0.1-0.3,0.2c-0.1,0.1-0.1,0.2-0.2,0.5
			c0,0.1-0.1,0.2-0.2,0.2c-0.1,0-0.3-0.1-0.3-0.3c0-0.1,0.1-0.2,0.2-0.3c0.2-0.1,0.6-0.4,1-0.5c0.2,0,0.4,0.1,0.6,0.2
			c0.2,0.2,0.4,0.5,0.4,0.8v1.4c0,0.3,0.1,0.4,0.2,0.4c0.1,0,0.2,0,0.2-0.1l0.1,0.2L530.5,464.8z M530,463c-0.2,0.1-0.5,0.2-0.7,0.3
			c-0.3,0.1-0.4,0.2-0.4,0.5c0,0.4,0.3,0.5,0.5,0.5s0.4-0.1,0.6-0.2C530,463.7,530,463.3,530,463z"/>
		<path d="M531.6,459.5c1,0.7,1.6,2,1.6,3.3s-0.6,2.5-1.6,3.2l-0.2-0.2c0.7-0.6,1.2-1.8,1.2-3.1c0-1.2-0.5-2.5-1.2-3.1L531.6,459.5z
			"/>
	</g>
</g>
<line class="st11" x1="141.2" y1="443.3" x2="155.6" y2="455"/>
<g>
	<path class="st10" d="M250.9,463c0,3.5-8.4,6.4-18.8,6.4c-25-0.3-25-12.4,0-12.7C242.5,456.6,250.9,459.5,250.9,463L250.9,463z"/>
</g>
<line class="st11" x1="213.2" y1="445" x2="227.6" y2="456.6"/>
<g>
	<path class="st10" d="M316.1,463.6c0,3.5-8.4,6.4-18.8,6.4c-25-0.3-25-12.4,0-12.7C307.7,457.2,316.1,460,316.1,463.6L316.1,463.6z
		"/>
</g>
<line class="st11" x1="278.4" y1="445.5" x2="292.8" y2="457.2"/>
<text transform="matrix(1 0 0 1 262.996 600.1157)" class="st4 st3">Integer</text>
<polygon class="st9" points="301.1,605 258.4,605 258.5,585.2 301.2,585.2 "/>
<g>
	<g>
		<path d="M290.6,624.8c-0.4,0.5-0.9,0.8-1.4,0.8c-1,0-1.6-0.8-1.6-1.7c0-0.6,0.3-1.2,0.8-1.6c0.4-0.3,0.9-0.5,1.2-0.5
			c0.4,0,0.6,0.1,0.7,0.2c0.1,0.1,0.1,0.1,0.1,0.2c0,0.2-0.2,0.4-0.3,0.4c0,0-0.1,0-0.1-0.1c-0.2-0.2-0.5-0.3-0.8-0.3
			c-0.5,0-1,0.5-1,1.3c0,1.1,0.8,1.5,1.2,1.5c0.3,0,0.6-0.1,1-0.4L290.6,624.8z"/>
		<path d="M290.9,625.5v-0.2c0.5,0,0.6-0.1,0.6-0.6v-3.8c0-0.5,0-0.5-0.5-0.6V620c0.4,0,0.9-0.2,1.2-0.3c0,0.4,0,0.8,0,1.1v3.8
			c0,0.5,0,0.6,0.6,0.6v0.2L290.9,625.5L290.9,625.5z"/>
		<path d="M295.7,625.6c-0.1,0-0.3-0.1-0.4-0.2c-0.1-0.1-0.1-0.2-0.2-0.4c-0.3,0.2-0.7,0.5-1,0.5c-0.6,0-1-0.5-1-1
			c0-0.4,0.2-0.7,0.7-0.8c0.5-0.2,1.1-0.4,1.3-0.5V623c0-0.6-0.3-0.9-0.7-0.9c-0.2,0-0.3,0.1-0.4,0.2c-0.1,0.1-0.1,0.3-0.2,0.5
			c0,0.1-0.1,0.2-0.2,0.2s-0.4-0.2-0.4-0.3s0.1-0.2,0.3-0.3c0.2-0.2,0.7-0.5,1.1-0.6c0.2,0,0.5,0.1,0.7,0.2c0.3,0.2,0.4,0.5,0.4,0.9
			v1.5c0,0.4,0.1,0.5,0.3,0.5c0.1,0,0.2,0,0.3-0.1l0.1,0.2L295.7,625.6z M295.1,623.6c-0.2,0.1-0.6,0.3-0.7,0.3
			c-0.3,0.1-0.5,0.3-0.5,0.6c0,0.4,0.3,0.6,0.6,0.6c0.2,0,0.5-0.1,0.7-0.3C295.1,624.5,295.1,624,295.1,623.6z"/>
		<path d="M298.8,622.9c-0.1-0.5-0.4-0.8-0.8-0.8c-0.3,0-0.5,0.2-0.5,0.5s0.2,0.5,0.7,0.7c0.7,0.3,1,0.6,1,1.1
			c0,0.7-0.7,1.1-1.3,1.1c-0.4,0-0.8-0.1-1-0.2c0-0.2-0.1-0.7-0.1-0.9h0.2c0.1,0.5,0.4,0.9,1,0.9c0.3,0,0.6-0.2,0.6-0.5
			c0-0.4-0.2-0.5-0.6-0.8c-0.6-0.3-1-0.5-1-1.1s0.5-1,1.2-1c0.3,0,0.6,0.1,0.8,0.1c0,0.2,0.1,0.7,0.1,0.9H298.8z"/>
		<path d="M301.8,622.9c-0.1-0.5-0.4-0.8-0.8-0.8c-0.3,0-0.5,0.2-0.5,0.5s0.2,0.5,0.7,0.7c0.7,0.3,1,0.6,1,1.1
			c0,0.7-0.7,1.1-1.3,1.1c-0.4,0-0.8-0.1-1-0.2c0-0.2-0.1-0.7-0.1-0.9h0.2c0.1,0.5,0.4,0.9,1,0.9c0.3,0,0.6-0.2,0.6-0.5
			c0-0.4-0.2-0.5-0.6-0.8c-0.6-0.3-1-0.5-1-1.1s0.5-1,1.2-1c0.3,0,0.6,0.1,0.8,0.1c0,0.2,0.1,0.7,0.1,0.9H301.8z"/>
		<path d="M304.8,627c-1.1-0.8-1.8-2.2-1.8-3.7s0.7-2.9,1.8-3.7l0.2,0.2c-0.8,0.7-1.3,2-1.3,3.5c0,1.4,0.6,2.8,1.3,3.5L304.8,627z"
			/>
		<path d="M306.1,622v-0.2c0-0.6,0.2-1.2,0.7-1.6c0.3-0.2,0.6-0.4,0.9-0.4s0.5,0.1,0.6,0.3c0.1,0.1,0.1,0.2,0,0.3
			c0,0.1-0.1,0.2-0.2,0.3s-0.1,0-0.2,0c-0.2-0.1-0.4-0.3-0.6-0.3c-0.6,0-0.6,0.8-0.6,1.4v0.4h0.9c0,0.1,0,0.3-0.1,0.3h-0.8v2.3
			c0,0.6,0.1,0.6,0.7,0.7v0.2h-1.9v-0.2c0.5,0,0.6-0.1,0.6-0.6v-2.4h-0.6v-0.1l0.2-0.2L306.1,622L306.1,622z"/>
		<path d="M310.5,625.6c-0.1,0-0.3-0.1-0.4-0.2c-0.1-0.1-0.1-0.2-0.2-0.4c-0.3,0.2-0.7,0.5-1,0.5c-0.6,0-1-0.5-1-1
			c0-0.4,0.2-0.7,0.7-0.8c0.5-0.2,1.1-0.4,1.3-0.5V623c0-0.6-0.3-0.9-0.7-0.9c-0.2,0-0.3,0.1-0.4,0.2c-0.1,0.1-0.1,0.3-0.2,0.5
			c0,0.1-0.1,0.2-0.2,0.2s-0.4-0.2-0.4-0.3s0.1-0.2,0.3-0.3c0.2-0.2,0.7-0.5,1.1-0.6c0.2,0,0.5,0.1,0.7,0.2c0.3,0.2,0.4,0.5,0.4,0.9
			v1.5c0,0.4,0.1,0.5,0.3,0.5c0.1,0,0.2,0,0.3-0.1l0.1,0.2L310.5,625.6z M309.9,623.6c-0.2,0.1-0.6,0.3-0.7,0.3
			c-0.3,0.1-0.5,0.3-0.5,0.6c0,0.4,0.3,0.6,0.6,0.6c0.2,0,0.5-0.1,0.7-0.3C309.9,624.5,309.9,624,309.9,623.6z"/>
		<path d="M314.5,624.8c-0.4,0.5-0.9,0.8-1.4,0.8c-1,0-1.6-0.8-1.6-1.7c0-0.6,0.3-1.2,0.8-1.6c0.4-0.3,0.9-0.5,1.2-0.5
			c0.4,0,0.6,0.1,0.7,0.2c0.1,0.1,0.1,0.1,0.1,0.2c0,0.2-0.2,0.4-0.3,0.4c0,0-0.1,0-0.1-0.1c-0.2-0.2-0.5-0.3-0.8-0.3
			c-0.5,0-1,0.5-1,1.3c0,1.1,0.8,1.5,1.2,1.5c0.3,0,0.6-0.1,1-0.4L314.5,624.8z"/>
		<path d="M316.5,625.5c-0.1,0.1-0.3,0.1-0.3,0.1c-0.5,0-0.8-0.3-0.8-1v-2.3h-0.5v-0.1l0.2-0.2h0.4v-0.7c0.1-0.2,0.4-0.4,0.5-0.5
			h0.1c0,0.3,0,0.8,0,1.2h0.9c0.1,0.1,0,0.3,0,0.3h-1v2c0,0.7,0.3,0.8,0.5,0.8s0.4-0.1,0.5-0.1l0.1,0.2L316.5,625.5z"/>
		<path d="M319.1,621.9c1,0,1.7,0.8,1.7,1.8c0,1.3-1,1.9-1.7,1.9c-1.1,0-1.8-0.9-1.8-1.8C317.4,622.5,318.4,621.9,319.1,621.9z
			 M319,622.2c-0.5,0-0.9,0.5-0.9,1.4c0,1,0.5,1.8,1.1,1.8c0.5,0,0.9-0.4,0.9-1.5C320.1,622.9,319.8,622.2,319,622.2z"/>
		<path d="M323.3,625.5h-1.8v-0.2c0.5,0,0.5-0.1,0.5-0.6V623c0-0.5,0-0.5-0.5-0.6v-0.2c0.4-0.1,0.8-0.2,1.1-0.3c0,0.3,0,0.6,0,0.9
			c0.3-0.4,0.6-0.9,1-0.9c0.3,0,0.5,0.2,0.5,0.4s-0.1,0.4-0.3,0.4c-0.1,0-0.1,0-0.2,0c-0.1-0.1-0.2-0.2-0.4-0.2
			c-0.2,0-0.5,0.2-0.6,0.7v1.5c0,0.5,0,0.6,0.7,0.6L323.3,625.5L323.3,625.5z"/>
		<path d="M324.6,619.6c1.1,0.8,1.8,2.2,1.8,3.7s-0.7,2.9-1.8,3.7l-0.2-0.2c0.8-0.7,1.3-2,1.3-3.5c0-1.4-0.6-2.8-1.3-3.5
			L324.6,619.6z"/>
	</g>
</g>
<g>
	<g>
		<path d="M294,633.8v-0.2c0.5,0,0.6-0.1,0.6-0.6v-3.8c0-0.5,0-0.5-0.5-0.6v-0.2c0.4,0,0.9-0.2,1.2-0.3c0,0.4,0,0.8,0,1.1v3.8
			c0,0.5,0,0.6,0.6,0.6v0.2H294L294,633.8z"/>
		<path d="M299.1,633.1c-0.5,0.6-1.1,0.8-1.3,0.8c-1,0-1.6-0.8-1.6-1.7c0-0.5,0.2-1,0.5-1.4s0.8-0.6,1.2-0.6c0.7,0,1.2,0.6,1.2,1.2
			c0,0.2,0,0.2-0.2,0.3c-0.2,0-1.2,0.1-2.1,0.1c0,1.1,0.6,1.5,1.2,1.5c0.3,0,0.6-0.1,0.9-0.4L299.1,633.1z M297.7,630.5
			c-0.4,0-0.7,0.3-0.8,1c0.5,0,0.9,0,1.4,0c0.1,0,0.2,0,0.2-0.2C298.5,630.9,298.2,630.5,297.7,630.5z"/>
		<path d="M303.1,630.5c-0.4,0-0.5,0.1-0.7,0.6c-0.3,0.6-0.7,1.7-1.1,2.8h-0.2c-0.3-0.9-0.7-1.9-1.1-2.8c-0.2-0.5-0.2-0.5-0.7-0.6
			v-0.2h1.6v0.2c-0.4,0-0.5,0.1-0.3,0.5c0.2,0.5,0.5,1.4,0.8,2c0.3-0.7,0.5-1.4,0.7-1.9c0.1-0.4,0.1-0.5-0.4-0.5v-0.2h1.5
			L303.1,630.5L303.1,630.5z"/>
		<path d="M306.2,633.1c-0.5,0.6-1.1,0.8-1.3,0.8c-1,0-1.6-0.8-1.6-1.7c0-0.5,0.2-1,0.5-1.4s0.8-0.6,1.2-0.6c0.7,0,1.2,0.6,1.2,1.2
			c0,0.2,0,0.2-0.2,0.3c-0.2,0-1.2,0.1-2.1,0.1c0,1.1,0.6,1.5,1.2,1.5c0.3,0,0.6-0.1,0.9-0.4L306.2,633.1z M304.8,630.5
			c-0.4,0-0.7,0.3-0.8,1c0.5,0,0.9,0,1.4,0c0.1,0,0.2,0,0.2-0.2C305.5,630.9,305.2,630.5,304.8,630.5z"/>
		<path d="M306.6,633.8v-0.2c0.5,0,0.6-0.1,0.6-0.6v-3.8c0-0.5,0-0.5-0.5-0.6v-0.2c0.4,0,0.9-0.2,1.2-0.3c0,0.4,0,0.8,0,1.1v3.8
			c0,0.5,0,0.6,0.6,0.6v0.2H306.6L306.6,633.8z"/>
		<path d="M310.9,631.2c-0.1-0.5-0.4-0.8-0.8-0.8c-0.3,0-0.5,0.2-0.5,0.5s0.2,0.5,0.7,0.7c0.7,0.3,1,0.6,1,1.1
			c0,0.7-0.7,1.1-1.3,1.1c-0.4,0-0.8-0.1-1-0.2c0-0.2-0.1-0.7-0.1-0.9h0.2c0.1,0.5,0.4,0.9,1,0.9c0.3,0,0.6-0.2,0.6-0.5
			c0-0.4-0.2-0.5-0.6-0.8c-0.6-0.3-1-0.5-1-1.1s0.5-1,1.2-1c0.3,0,0.6,0.1,0.8,0.1c0,0.2,0.1,0.7,0.1,0.9H310.9z"/>
		<path d="M313.9,635.3c-1.1-0.8-1.8-2.2-1.8-3.7s0.7-2.9,1.8-3.7l0.2,0.2c-0.8,0.7-1.3,2-1.3,3.5c0,1.4,0.6,2.8,1.3,3.5
			L313.9,635.3z"/>
		<path d="M315.3,633.9c-0.3,0-0.5-0.2-0.5-0.5s0.2-0.5,0.5-0.5s0.5,0.2,0.5,0.5S315.5,633.9,315.3,633.9z"/>
		<path d="M317,633.9c-0.3,0-0.5-0.2-0.5-0.5s0.2-0.5,0.5-0.5s0.5,0.2,0.5,0.5S317.3,633.9,317,633.9z"/>
		<path d="M318.7,633.9c-0.3,0-0.5-0.2-0.5-0.5s0.2-0.5,0.5-0.5s0.5,0.2,0.5,0.5S319,633.9,318.7,633.9z"/>
		<path d="M320,627.9c1.1,0.8,1.8,2.2,1.8,3.7s-0.7,2.9-1.8,3.7l-0.2-0.2c0.8-0.7,1.3-2,1.3-3.5c0-1.4-0.6-2.8-1.3-3.5L320,627.9z"
			/>
	</g>
</g>
<g>
	<path class="st12" d="M333.9,627.9c0,6.6-11.5,12-25.8,12c-34.2-0.7-34.2-23.4,0-24C322.4,615.9,333.9,621.2,333.9,627.9
		L333.9,627.9z"/>
</g>
<line class="st11" x1="282.4" y1="605.2" x2="296.8" y2="616.9"/>
<g>
	<path class="st10" d="M382.7,465.8c0,3.5-8.4,6.4-18.8,6.4c-25-0.3-25-12.4,0-12.7C374.2,459.5,382.7,462.3,382.7,465.8
		L382.7,465.8z"/>
</g>
<line class="st11" x1="345" y1="447.8" x2="359.4" y2="459.5"/>
<g>
	<path class="st10" d="M465.1,462.9c0,3.5-8.4,6.4-18.8,6.4c-25-0.3-25-12.4,0-12.7C456.6,456.5,465.1,459.4,465.1,462.9
		L465.1,462.9z"/>
</g>
<line class="st11" x1="427.4" y1="444.9" x2="441.8" y2="456.5"/>
<g>
	<path class="st10" d="M536.8,462.9c0,3.5-8.4,6.4-18.8,6.4c-25-0.3-25-12.4,0-12.7C528.4,456.5,536.8,459.4,536.8,462.9
		L536.8,462.9z"/>
</g>
<line class="st11" x1="499.1" y1="444.9" x2="513.5" y2="456.5"/>
<text transform="matrix(1 0 0 1 490.5065 694.3691)" class="st4 st3">List</text>
<rect x="484.1" y="679.8" class="st9" width="32.5" height="19.3"/>
<g>
	<g>
		<path d="M508.8,718.3c-0.3,0.4-0.8,0.7-1.2,0.7c-0.9,0-1.4-0.7-1.4-1.5c0-0.5,0.2-1,0.7-1.4c0.4-0.3,0.8-0.4,1.1-0.4
			c0.3,0,0.5,0.1,0.6,0.2c0.1,0.1,0.1,0.1,0.1,0.2c0,0.2-0.2,0.3-0.2,0.3s-0.1,0-0.1-0.1c-0.2-0.2-0.5-0.3-0.7-0.3
			c-0.5,0-0.9,0.4-0.9,1.1c0,1,0.7,1.3,1.1,1.3c0.3,0,0.5-0.1,0.9-0.4V718.3z"/>
		<path d="M509,719v-0.2c0.5,0,0.5-0.1,0.5-0.5V715c0-0.4,0-0.5-0.5-0.5v-0.2c0.4,0,0.8-0.2,1-0.2c0,0.3,0,0.7,0,1v3.3
			c0,0.5,0,0.5,0.5,0.5v0.2L509,719L509,719z"/>
		<path d="M513.2,719.1c-0.1,0-0.3-0.1-0.3-0.1c-0.1-0.1-0.1-0.2-0.2-0.3c-0.3,0.2-0.6,0.5-0.8,0.5c-0.5,0-0.9-0.4-0.9-0.9
			c0-0.3,0.2-0.6,0.6-0.7c0.4-0.2,1-0.3,1.1-0.5V717c0-0.5-0.2-0.8-0.6-0.8c-0.2,0-0.3,0.1-0.3,0.2c-0.1,0.1-0.1,0.2-0.2,0.5
			c0,0.1-0.1,0.2-0.2,0.2s-0.3-0.1-0.3-0.3c0-0.1,0.1-0.2,0.2-0.3c0.2-0.2,0.6-0.4,1-0.5c0.2,0,0.4,0.1,0.6,0.2
			c0.2,0.2,0.4,0.5,0.4,0.8v1.3c0,0.3,0.1,0.4,0.2,0.4c0.1,0,0.2,0,0.2-0.1l0.1,0.2L513.2,719.1z M512.7,717.3
			c-0.2,0.1-0.5,0.2-0.7,0.3c-0.3,0.1-0.4,0.2-0.4,0.5c0,0.4,0.3,0.5,0.5,0.5c0.2,0,0.4-0.1,0.6-0.2
			C512.7,718.1,512.7,717.6,512.7,717.3z"/>
		<path d="M515.9,716.7c-0.1-0.4-0.3-0.7-0.7-0.7c-0.2,0-0.4,0.2-0.4,0.5s0.2,0.4,0.6,0.6c0.6,0.3,0.9,0.5,0.9,1c0,0.6-0.6,1-1.1,1
			c-0.4,0-0.7-0.1-0.8-0.2c0-0.2-0.1-0.6-0.1-0.8h0.2c0.1,0.5,0.4,0.8,0.9,0.8c0.3,0,0.5-0.2,0.5-0.5s-0.2-0.5-0.6-0.7
			c-0.5-0.2-0.9-0.5-0.9-1s0.4-0.9,1.1-0.9c0.3,0,0.5,0.1,0.7,0.1c0,0.2,0.1,0.6,0.1,0.8L515.9,716.7z"/>
		<path d="M518.5,716.7c-0.1-0.4-0.3-0.7-0.7-0.7c-0.2,0-0.4,0.2-0.4,0.5s0.2,0.4,0.6,0.6c0.6,0.3,0.9,0.5,0.9,1c0,0.6-0.6,1-1.1,1
			c-0.4,0-0.7-0.1-0.8-0.2c0-0.2-0.1-0.6-0.1-0.8h0.2c0.1,0.5,0.4,0.8,0.9,0.8c0.3,0,0.5-0.2,0.5-0.5s-0.2-0.5-0.6-0.7
			c-0.5-0.2-0.9-0.5-0.9-1s0.4-0.9,1.1-0.9c0.3,0,0.5,0.1,0.7,0.1c0,0.2,0.1,0.6,0.1,0.8L518.5,716.7z"/>
		<path d="M521.2,720.3c-1-0.7-1.6-2-1.6-3.3s0.6-2.5,1.6-3.2l0.1,0.2c-0.7,0.7-1.2,1.8-1.2,3.1c0,1.2,0.5,2.5,1.2,3.1L521.2,720.3z
			"/>
		<path d="M525.3,718.8c-0.2,0-0.7,0.1-1.1,0.3c0-0.2,0-0.3,0-0.5c-0.1,0.1-0.3,0.2-0.4,0.2c-0.3,0.2-0.5,0.2-0.5,0.2
			c-0.6,0-1.3-0.6-1.3-1.5c0-1,0.8-1.7,1.8-1.7c0.1,0,0.3,0,0.5,0.1v-1c0-0.5,0-0.5-0.5-0.5v-0.2c0.3,0,0.8-0.2,1.1-0.2
			c0,0.3,0,0.6,0,0.8v3.4c0,0.4,0,0.4,0.3,0.4h0.2L525.3,718.8L525.3,718.8z M524.2,716.5c-0.2-0.2-0.5-0.4-0.7-0.4
			c-0.3,0-0.9,0.2-0.9,1.2c0,0.8,0.5,1.3,1,1.3c0.2,0,0.5-0.1,0.7-0.2L524.2,716.5L524.2,716.5z"/>
		<path d="M527.9,719.1c-0.1,0-0.3-0.1-0.3-0.1c-0.1-0.1-0.1-0.2-0.2-0.3c-0.3,0.2-0.6,0.5-0.8,0.5c-0.5,0-0.8-0.4-0.8-0.9
			c0-0.3,0.2-0.6,0.6-0.7c0.4-0.2,1-0.3,1.1-0.5V717c0-0.5-0.2-0.8-0.6-0.8c-0.2,0-0.3,0.1-0.3,0.2c-0.1,0.1-0.1,0.2-0.2,0.5
			c0,0.1-0.1,0.2-0.2,0.2c-0.1,0-0.3-0.1-0.3-0.3c0-0.1,0.1-0.2,0.2-0.3c0.2-0.2,0.6-0.4,1-0.5c0.2,0,0.4,0.1,0.6,0.2
			c0.2,0.2,0.4,0.5,0.4,0.8v1.3c0,0.3,0.1,0.4,0.2,0.4c0.1,0,0.2,0,0.2-0.1l0.1,0.2L527.9,719.1z M527.4,717.3
			c-0.2,0.1-0.5,0.2-0.7,0.3c-0.3,0.1-0.4,0.2-0.4,0.5c0,0.4,0.3,0.5,0.5,0.5s0.4-0.1,0.6-0.2C527.4,718.1,527.4,717.6,527.4,717.3z
			"/>
		<path d="M530.1,719c-0.1,0.1-0.2,0.1-0.3,0.1c-0.5,0-0.7-0.3-0.7-0.8v-2h-0.5v-0.1l0.2-0.2h0.3v-0.6c0.1-0.1,0.3-0.3,0.5-0.5h0.1
			c0,0.3,0,0.7,0,1h0.8c0.1,0.1,0,0.2,0,0.3h-0.8v1.8c0,0.6,0.2,0.7,0.4,0.7s0.3-0.1,0.4-0.1l0.1,0.2L530.1,719z"/>
		<path d="M533.1,719.1c-0.1,0-0.3-0.1-0.3-0.1c-0.1-0.1-0.1-0.2-0.2-0.3c-0.3,0.2-0.6,0.5-0.8,0.5c-0.5,0-0.8-0.4-0.8-0.9
			c0-0.3,0.2-0.6,0.6-0.7c0.4-0.2,1-0.3,1.1-0.5V717c0-0.5-0.2-0.8-0.6-0.8c-0.2,0-0.3,0.1-0.3,0.2c-0.1,0.1-0.1,0.2-0.2,0.5
			c0,0.1-0.1,0.2-0.2,0.2c-0.1,0-0.3-0.1-0.3-0.3c0-0.1,0.1-0.2,0.2-0.3c0.2-0.2,0.6-0.4,1-0.5c0.2,0,0.4,0.1,0.6,0.2
			c0.2,0.2,0.4,0.5,0.4,0.8v1.3c0,0.3,0.1,0.4,0.2,0.4c0.1,0,0.2,0,0.2-0.1l0.1,0.2L533.1,719.1z M532.6,717.3
			c-0.2,0.1-0.5,0.2-0.7,0.3c-0.3,0.1-0.4,0.2-0.4,0.5c0,0.4,0.3,0.5,0.5,0.5s0.4-0.1,0.6-0.2C532.6,718.1,532.6,717.6,532.6,717.3z
			"/>
		<path d="M534.5,719.1c-0.2,0-0.4-0.2-0.4-0.5c0-0.2,0.2-0.5,0.4-0.5s0.4,0.2,0.4,0.5C535,718.9,534.8,719.1,534.5,719.1z"/>
		<path d="M536,715.9v-0.2c0-0.5,0.2-1,0.6-1.4c0.2-0.2,0.5-0.3,0.8-0.4c0.2,0,0.5,0.1,0.6,0.2c0.1,0.1,0.1,0.2,0,0.2
			c0,0.1-0.1,0.2-0.2,0.2c-0.1,0-0.1,0-0.2,0c-0.1-0.1-0.3-0.3-0.6-0.3c-0.5,0-0.5,0.7-0.5,1.2v0.3h0.7c0,0.1,0,0.2-0.1,0.3h-0.7v2
			c0,0.5,0.1,0.5,0.6,0.6v0.2h-1.7v-0.2c0.4,0,0.5-0.1,0.5-0.5V716h-0.5v-0.1l0.2-0.2L536,715.9L536,715.9z"/>
		<path d="M539.2,719h-1.6v-0.2c0.4,0,0.5-0.1,0.5-0.5v-1.5c0-0.5,0-0.5-0.4-0.5v-0.2c0.3-0.1,0.7-0.1,1-0.3c0,0.2,0,0.5,0,0.8
			c0.2-0.4,0.5-0.8,0.9-0.8c0.3,0,0.4,0.2,0.4,0.3c0,0.2-0.1,0.3-0.2,0.4c-0.1,0-0.1,0-0.2,0c-0.1-0.1-0.2-0.2-0.3-0.2
			c-0.2,0-0.4,0.2-0.6,0.6v1.3c0,0.5,0,0.5,0.6,0.5L539.2,719L539.2,719z"/>
		<path d="M542.4,719.1c-0.1,0-0.3-0.1-0.3-0.1c-0.1-0.1-0.1-0.2-0.2-0.3c-0.3,0.2-0.6,0.5-0.8,0.5c-0.5,0-0.8-0.4-0.8-0.9
			c0-0.3,0.2-0.6,0.6-0.7c0.4-0.2,1-0.3,1.1-0.5V717c0-0.5-0.2-0.8-0.6-0.8c-0.2,0-0.3,0.1-0.3,0.2c-0.1,0.1-0.1,0.2-0.2,0.5
			c0,0.1-0.1,0.2-0.2,0.2c-0.1,0-0.3-0.1-0.3-0.3c0-0.1,0.1-0.2,0.2-0.3c0.2-0.2,0.6-0.4,1-0.5c0.2,0,0.4,0.1,0.6,0.2
			c0.2,0.2,0.4,0.5,0.4,0.8v1.3c0,0.3,0.1,0.4,0.2,0.4c0.1,0,0.2,0,0.2-0.1l0.1,0.2L542.4,719.1z M541.9,717.3
			c-0.2,0.1-0.5,0.2-0.7,0.3c-0.3,0.1-0.4,0.2-0.4,0.5c0,0.4,0.3,0.5,0.5,0.5s0.4-0.1,0.6-0.2C541.9,718.1,541.9,717.6,541.9,717.3z
			"/>
		<path d="M547.1,719v-0.2c0.4,0,0.5-0.1,0.5-0.6V717c0-0.5-0.2-0.8-0.6-0.8c-0.3,0-0.5,0.2-0.8,0.4c0,0.1,0,0.2,0,0.3v1.4
			c0,0.4,0.1,0.5,0.5,0.5v0.2h-1.5v-0.2c0.4,0,0.5-0.1,0.5-0.5V717c0-0.5-0.2-0.8-0.6-0.8c-0.3,0-0.5,0.2-0.8,0.4v1.7
			c0,0.5,0,0.5,0.5,0.5v0.2h-1.5v-0.2c0.5,0,0.5-0.1,0.5-0.5v-1.5c0-0.5,0-0.5-0.4-0.5v-0.2c0.3,0,0.7-0.1,1-0.3c0,0.2,0,0.4,0,0.6
			c0.2-0.1,0.3-0.2,0.5-0.4c0.2-0.1,0.3-0.2,0.5-0.2c0.3,0,0.6,0.2,0.8,0.6c0.2-0.2,0.4-0.3,0.5-0.4c0.2-0.1,0.3-0.2,0.5-0.2
			c0.5,0,0.9,0.4,0.9,1.1v1.3c0,0.5,0,0.5,0.4,0.5v0.2L547.1,719L547.1,719z"/>
		<path d="M551.6,718.4c-0.5,0.6-0.9,0.7-1.2,0.7c-0.9,0-1.4-0.7-1.4-1.5c0-0.5,0.2-0.9,0.5-1.2s0.7-0.5,1-0.5
			c0.6,0,1.1,0.5,1.1,1.1c0,0.1,0,0.2-0.1,0.2s-1,0.1-1.9,0.1c0,0.9,0.5,1.3,1,1.3c0.3,0,0.5-0.1,0.8-0.4L551.6,718.4z M550.4,716.1
			c-0.3,0-0.6,0.3-0.7,0.9c0.4,0,0.8,0,1.2,0c0.1,0,0.2,0,0.2-0.1C551,716.4,550.8,716.1,550.4,716.1z"/>
		<path d="M552.2,713.8c1,0.7,1.6,2,1.6,3.3s-0.6,2.5-1.6,3.2l-0.2-0.2c0.7-0.6,1.2-1.8,1.2-3.1c0-1.2-0.5-2.5-1.2-3.1L552.2,713.8z
			"/>
	</g>
</g>
<g>
	<path class="st13" d="M562.6,718.3c-0.8,9.8-62.1,9.8-62.8,0C500.5,708.5,561.8,708.5,562.6,718.3L562.6,718.3z"/>
</g>
<line class="st11" x1="499.8" y1="699.2" x2="514.1" y2="710.8"/>
<g>
	<g>
		<path class="st7" d="M141,379.8c0.5,0.7,1.1,1.4,1.7,2.1c0.6,0.6,1.2,1.4,1.9,1.9c0.9,0.6,2,0.4,2.7-0.4c0.5-0.6,0.8-1.3,1.2-2
			c1.4-2.5,3-5,5.4-6.7c0.7-0.5,1-1.3,0.5-2c-0.4-0.6-1.4-1-2.1-0.5c-2.3,1.6-4.1,3.8-5.6,6.2c-0.3,0.5-0.6,1.1-1,1.6
			c-0.2,0.3-0.3,0.5-0.5,0.8c-0.1,0.1-0.2,0.3-0.2,0.5c-0.1,0.1-0.1,0.1,0,0.1c0.2-0.3,0.6-0.4,1.1-0.2c0,0,0.1,0,0.1,0.1
			c-0.1-0.1-0.2-0.2-0.3-0.3c-0.1-0.1-0.2-0.2-0.4-0.3c-0.3-0.2-0.5-0.5-0.8-0.8c-0.5-0.5-0.9-1.1-1.4-1.6c-0.5-0.6-1.3-1-2.1-0.5
			C140.9,378.1,140.5,379.1,141,379.8L141,379.8z"/>
	</g>
</g>
<g>
	<g>
		<path class="st7" d="M139.8,380.1c0.5,0.7,1.1,1.4,1.7,2.1c0.6,0.6,1.2,1.4,1.9,1.9c0.9,0.6,2,0.4,2.7-0.4c0.5-0.6,0.8-1.3,1.2-2
			c1.4-2.5,3-5,5.4-6.7c0.7-0.5,1-1.3,0.5-2c-0.4-0.6-1.4-1-2.1-0.5c-2.3,1.6-4.1,3.8-5.6,6.2c-0.3,0.5-0.6,1.1-1,1.6
			c-0.2,0.3-0.3,0.5-0.5,0.8c-0.1,0.1-0.2,0.3-0.2,0.5c-0.1,0.1-0.1,0.1,0,0.1c0.2-0.3,0.6-0.4,1.1-0.2c0,0,0.1,0,0.1,0.1
			c-0.1-0.1-0.2-0.2-0.3-0.3c-0.1-0.1-0.2-0.2-0.4-0.3c-0.3-0.2-0.5-0.5-0.8-0.8c-0.5-0.5-0.9-1.1-1.4-1.6c-0.5-0.6-1.3-1-2.1-0.5
			C139.7,378.4,139.3,379.4,139.8,380.1L139.8,380.1z"/>
	</g>
</g>
<g>
	<g>
		<path class="st7" d="M207.1,380.3c0.5,0.7,1.1,1.4,1.7,2.1c0.6,0.6,1.2,1.4,1.9,1.9c0.9,0.6,2,0.4,2.7-0.4c0.5-0.6,0.8-1.3,1.2-2
			c1.4-2.5,3-5,5.4-6.7c0.7-0.5,1-1.3,0.5-2c-0.4-0.6-1.4-1-2.1-0.5c-2.3,1.6-4.1,3.8-5.6,6.2c-0.3,0.5-0.6,1.1-1,1.6
			c-0.2,0.3-0.3,0.5-0.5,0.8c-0.1,0.1-0.2,0.3-0.2,0.5c-0.1,0.1-0.1,0.1,0,0.1c0.2-0.3,0.6-0.4,1.1-0.2c0,0,0.1,0,0.1,0.1
			c-0.1-0.1-0.2-0.2-0.3-0.3c-0.1-0.1-0.2-0.2-0.4-0.3c-0.3-0.2-0.5-0.5-0.8-0.8c-0.5-0.5-0.9-1.1-1.4-1.6c-0.5-0.6-1.3-1-2.1-0.5
			C207,378.7,206.6,379.7,207.1,380.3L207.1,380.3z"/>
	</g>
</g>
<g>
	<g>
		<path class="st7" d="M268.2,380.3c0.5,0.7,1.1,1.4,1.7,2.1c0.6,0.6,1.2,1.4,1.9,1.9c0.9,0.6,2,0.4,2.7-0.4c0.5-0.6,0.8-1.3,1.2-2
			c1.4-2.5,3-5,5.4-6.7c0.7-0.5,1-1.3,0.5-2c-0.4-0.6-1.4-1-2-0.5c-2.3,1.6-4.1,3.8-5.6,6.2c-0.3,0.5-0.6,1.1-1,1.6
			c-0.2,0.3-0.3,0.5-0.5,0.8c-0.1,0.1-0.2,0.3-0.2,0.5c-0.1,0.1-0.1,0.1,0,0.1c0.2-0.3,0.6-0.4,1.1-0.2c0,0,0.1,0,0.1,0.1
			c-0.1-0.1-0.2-0.2-0.3-0.3c-0.1-0.1-0.2-0.2-0.4-0.3c-0.3-0.2-0.5-0.5-0.8-0.8c-0.5-0.5-1-1.1-1.4-1.6c-0.5-0.6-1.3-1-2-0.5
			C268.1,378.7,267.7,379.7,268.2,380.3L268.2,380.3z"/>
	</g>
</g>
<g>
	<g>
		<path class="st7" d="M343.2,379.8c0.5,0.7,1.1,1.4,1.7,2.1c0.6,0.6,1.2,1.4,1.9,1.9c0.9,0.6,2,0.4,2.7-0.4c0.5-0.6,0.8-1.3,1.2-2
			c1.4-2.5,3-5,5.4-6.7c0.7-0.5,1-1.3,0.5-2c-0.4-0.6-1.4-1-2-0.5c-2.3,1.6-4.1,3.8-5.6,6.2c-0.3,0.5-0.6,1.1-1,1.6
			c-0.2,0.3-0.3,0.5-0.5,0.8c-0.1,0.1-0.2,0.3-0.2,0.5c-0.1,0.1-0.1,0.1,0,0.1c0.2-0.3,0.6-0.4,1.1-0.2c0,0,0.1,0,0.1,0.1
			c-0.1-0.1-0.2-0.2-0.3-0.3c-0.1-0.1-0.2-0.2-0.4-0.3c-0.3-0.2-0.5-0.5-0.8-0.8c-0.5-0.5-1-1.1-1.4-1.6c-0.5-0.6-1.3-1-2-0.5
			C343.1,378.1,342.7,379.1,343.2,379.8L343.2,379.8z"/>
	</g>
</g>
<g>
	<g>
		<path class="st7" d="M493.1,379.8c0.5,0.7,1.1,1.4,1.7,2.1c0.6,0.6,1.2,1.4,1.9,1.9c0.9,0.6,2,0.4,2.7-0.4c0.5-0.6,0.8-1.3,1.2-2
			c1.4-2.5,3-5,5.4-6.7c0.7-0.5,1-1.3,0.5-2c-0.4-0.6-1.4-1-2-0.5c-2.3,1.6-4.1,3.8-5.6,6.2c-0.3,0.5-0.6,1.1-1,1.6
			c-0.2,0.3-0.3,0.5-0.5,0.8c-0.1,0.1-0.2,0.3-0.2,0.5c-0.1,0.1-0.1,0.1,0,0.1c0.2-0.3,0.6-0.4,1.1-0.2c0,0,0.1,0,0.1,0.1
			c-0.1-0.1-0.2-0.2-0.3-0.3c-0.1-0.1-0.2-0.2-0.4-0.3c-0.3-0.2-0.5-0.5-0.8-0.8c-0.5-0.5-1-1.1-1.4-1.6c-0.5-0.6-1.3-1-2-0.5
			C493,378.1,492.7,379.1,493.1,379.8L493.1,379.8z"/>
	</g>
</g>
<g>
	<g>
		<path class="st7" d="M138.5,396.9c0.5,0.7,1.1,1.4,1.7,2.1c0.6,0.6,1.2,1.4,1.9,1.9c0.9,0.6,2,0.4,2.7-0.4c0.5-0.6,0.8-1.3,1.2-2
			c1.4-2.5,3-5,5.4-6.7c0.7-0.5,1-1.3,0.5-2c-0.4-0.6-1.4-1-2.1-0.5c-2.3,1.6-4.1,3.8-5.6,6.2c-0.3,0.5-0.6,1.1-1,1.6
			c-0.2,0.3-0.3,0.5-0.5,0.8c-0.1,0.1-0.2,0.3-0.2,0.5c-0.1,0.1-0.1,0.1,0,0.1c0.2-0.3,0.6-0.4,1.1-0.2c0,0,0.1,0,0.1,0.1
			c-0.1-0.1-0.2-0.2-0.3-0.3c-0.1-0.1-0.2-0.2-0.4-0.3c-0.3-0.2-0.5-0.5-0.8-0.8c-0.5-0.5-0.9-1.1-1.4-1.6c-0.5-0.6-1.3-1-2.1-0.5
			C138.4,395.2,138,396.2,138.5,396.9L138.5,396.9z"/>
	</g>
</g>
<g>
	<g>
		<path class="st7" d="M137.3,397.1c0.5,0.7,1.1,1.4,1.7,2.1c0.6,0.6,1.2,1.4,1.9,1.9c0.9,0.6,2,0.4,2.7-0.4c0.5-0.6,0.8-1.3,1.2-2
			c1.4-2.5,3-5,5.4-6.7c0.7-0.5,1-1.3,0.5-2c-0.4-0.6-1.4-1-2.1-0.5c-2.3,1.6-4.1,3.8-5.6,6.2c-0.3,0.5-0.6,1.1-1,1.6
			c-0.2,0.3-0.3,0.5-0.5,0.8c-0.1,0.1-0.2,0.3-0.2,0.5c-0.1,0.1-0.1,0.1,0,0.1c0.2-0.3,0.6-0.4,1.1-0.2c0,0,0.1,0,0.1,0.1
			c-0.1-0.1-0.2-0.2-0.3-0.3c-0.1-0.1-0.2-0.2-0.4-0.3c-0.3-0.2-0.5-0.5-0.8-0.8c-0.5-0.5-0.9-1.1-1.4-1.6c-0.5-0.6-1.3-1-2.1-0.5
			C137.2,395.4,136.9,396.5,137.3,397.1L137.3,397.1z"/>
	</g>
</g>
<g>
	<g>
		<path class="st7" d="M204.7,397.4c0.5,0.7,1.1,1.4,1.7,2.1c0.6,0.6,1.2,1.4,1.9,1.9c0.9,0.6,2,0.4,2.7-0.4c0.5-0.6,0.8-1.3,1.2-2
			c1.4-2.5,3-5,5.4-6.7c0.7-0.5,1-1.3,0.5-2c-0.4-0.6-1.4-1-2.1-0.5c-2.3,1.6-4.1,3.8-5.6,6.2c-0.3,0.5-0.6,1.1-1,1.6
			c-0.2,0.3-0.3,0.5-0.5,0.8c-0.1,0.1-0.2,0.3-0.2,0.5c-0.1,0.1-0.1,0.1,0,0.1c0.2-0.3,0.6-0.4,1.1-0.2c0,0,0.1,0,0.1,0.1
			c-0.1-0.1-0.2-0.2-0.3-0.3c-0.1-0.1-0.2-0.2-0.4-0.3c-0.3-0.2-0.5-0.5-0.8-0.8c-0.5-0.5-0.9-1.1-1.4-1.6c-0.5-0.6-1.3-1-2.1-0.5
			C204.6,395.7,204.2,396.7,204.7,397.4L204.7,397.4z"/>
	</g>
</g>
<g>
	<g>
		<path class="st7" d="M265.8,397.4c0.6,0.8,1.2,1.5,1.8,2.3c0.6,0.6,1.2,1.4,2,1.8c1.1,0.6,2.3,0,2.9-1c0.1-0.1,0.1-0.2,0.2-0.4
			c0.4-0.7,0.8-1.4,1.3-2.1c0.3-0.5,0.7-1,1-1.5c0.2-0.2,0.4-0.5,0.5-0.7c0.1-0.1,0.2-0.2,0.2-0.3c0,0,0.2-0.3,0.1-0.1
			c-0.1,0.1,0.1-0.1,0.1-0.1c0.5-0.6,0.9-1.1,1.4-1.6c0.2-0.2,0.5-0.5,0.8-0.7c0.1-0.1,0.2-0.2,0.3-0.3c0,0,0.2-0.2,0.1-0.1
			c-0.2,0.1,0.1-0.1,0.1-0.1c0.7-0.5,1-1.3,0.5-2c-0.4-0.6-1.4-1-2-0.5c-2,1.4-3.5,3.4-4.9,5.4c-0.8,1.2-1.7,2.5-2.4,3.8
			c0,0,0,0,0,0.1c0,0.2,0-0.1,0,0c0.4,0,0.7-0.1,1.1-0.1c0.1,0.1,0.1,0.1,0,0c-0.2-0.4-0.7-0.7-1-1c-0.6-0.6-1.2-1.3-1.7-2
			c-0.5-0.6-1.3-1-2-0.5C265.7,395.7,265.3,396.7,265.8,397.4L265.8,397.4z"/>
	</g>
</g>
<g>
	<g>
		<path class="st7" d="M340.8,396.9c0.5,0.7,1.1,1.4,1.7,2.1c0.6,0.6,1.2,1.4,1.9,1.9c0.9,0.6,2,0.4,2.7-0.4c0.5-0.6,0.8-1.3,1.2-2
			c1.4-2.5,3-5,5.4-6.7c0.7-0.5,1-1.3,0.5-2c-0.4-0.6-1.4-1-2-0.5c-2.3,1.6-4.1,3.8-5.6,6.2c-0.3,0.5-0.6,1.1-1,1.6
			c-0.2,0.3-0.3,0.5-0.5,0.8c-0.1,0.1-0.2,0.3-0.2,0.5c-0.1,0.1-0.1,0.1,0,0.1c0.2-0.3,0.6-0.4,1.1-0.2c0,0,0.1,0,0.1,0.1
			c-0.1-0.1-0.2-0.2-0.3-0.3c-0.1-0.1-0.2-0.2-0.4-0.3c-0.3-0.2-0.5-0.5-0.8-0.8c-0.5-0.5-1-1.1-1.4-1.6c-0.5-0.6-1.3-1-2-0.5
			C340.6,395.2,340.3,396.2,340.8,396.9L340.8,396.9z"/>
	</g>
</g>
<g>
	<g>
		<path class="st7" d="M490.7,396.9c0.5,0.7,1.1,1.4,1.7,2.1c0.6,0.6,1.2,1.4,1.9,1.9c0.9,0.6,2,0.4,2.7-0.4c0.5-0.6,0.8-1.3,1.2-2
			c1.4-2.5,3-5,5.4-6.7c0.7-0.5,1-1.3,0.5-2c-0.4-0.6-1.4-1-2-0.5c-2.3,1.6-4.1,3.8-5.6,6.2c-0.3,0.5-0.6,1.1-1,1.6
			c-0.2,0.3-0.3,0.5-0.5,0.8c-0.1,0.1-0.2,0.3-0.2,0.5c-0.1,0.1-0.1,0.1,0,0.1c0.2-0.3,0.6-0.4,1.1-0.2c0,0,0.1,0,0.1,0.1
			c-0.1-0.1-0.2-0.2-0.3-0.3c-0.1-0.1-0.2-0.2-0.4-0.3c-0.3-0.2-0.5-0.5-0.8-0.8c-0.5-0.5-1-1.1-1.4-1.6c-0.5-0.6-1.3-1-2-0.5
			C490.6,395.2,490.2,396.2,490.7,396.9L490.7,396.9z"/>
	</g>
</g>
<g>
	<g>
		<path class="st7" d="M135.7,509.4c0.5,0.7,1.1,1.4,1.7,2.1c0.6,0.7,1.2,1.4,1.9,1.9c0.9,0.6,2,0.4,2.7-0.4c0.5-0.6,0.8-1.3,1.2-2
			c1.4-2.5,3-5,5.4-6.7c0.7-0.5,1-1.3,0.5-2c-0.4-0.6-1.4-1-2.1-0.5c-2.3,1.6-4.1,3.8-5.6,6.2c-0.3,0.5-0.6,1.1-1,1.6
			c-0.2,0.3-0.3,0.5-0.5,0.8c-0.1,0.1-0.2,0.3-0.2,0.5c-0.1,0.1-0.1,0.1,0,0.1c0.2-0.3,0.6-0.4,1.1-0.2c0,0,0.1,0,0.1,0.1
			c-0.1-0.1-0.2-0.2-0.3-0.3c-0.1-0.1-0.2-0.2-0.4-0.3c-0.3-0.2-0.5-0.5-0.8-0.8c-0.5-0.5-0.9-1.1-1.4-1.6c-0.5-0.6-1.3-1-2.1-0.5
			C135.6,507.7,135.2,508.7,135.7,509.4L135.7,509.4z"/>
	</g>
</g>
<g>
	<g>
		<path class="st7" d="M134.5,509.6c0.5,0.7,1.1,1.4,1.7,2.1c0.6,0.7,1.2,1.4,1.9,1.9c0.9,0.6,2,0.4,2.7-0.4c0.5-0.6,0.8-1.3,1.2-2
			c1.4-2.5,3-5,5.4-6.7c0.7-0.5,1-1.3,0.5-2c-0.4-0.6-1.4-1-2.1-0.5c-2.3,1.6-4.1,3.8-5.6,6.2c-0.3,0.5-0.6,1.1-1,1.6
			c-0.2,0.3-0.3,0.5-0.5,0.8c-0.1,0.1-0.2,0.3-0.2,0.5c-0.1,0.1-0.1,0.1,0,0.1c0.2-0.3,0.6-0.4,1.1-0.2c0,0,0.1,0,0.1,0.1
			c-0.1-0.1-0.2-0.2-0.3-0.3c-0.1-0.1-0.2-0.2-0.4-0.3c-0.3-0.2-0.5-0.5-0.8-0.8c-0.5-0.5-0.9-1.1-1.4-1.6c-0.5-0.6-1.3-1-2.1-0.5
			C134.4,508,134.1,509,134.5,509.6L134.5,509.6z"/>
	</g>
</g>
<g>
	<g>
		<path class="st7" d="M201.9,509.9c0.5,0.7,1.1,1.4,1.7,2.1c0.6,0.7,1.2,1.4,1.9,1.9c0.9,0.6,2,0.4,2.7-0.4c0.5-0.6,0.8-1.3,1.2-2
			c1.4-2.5,3-5,5.4-6.7c0.7-0.5,1-1.3,0.5-2c-0.4-0.6-1.4-1-2.1-0.5c-2.3,1.6-4.1,3.8-5.6,6.2c-0.3,0.5-0.6,1.1-1,1.6
			c-0.2,0.3-0.3,0.5-0.5,0.8c-0.1,0.1-0.2,0.3-0.2,0.5c-0.1,0.1-0.1,0.1,0,0.1c0.2-0.3,0.6-0.4,1.1-0.2c0,0,0.1,0,0.1,0.1
			c-0.1-0.1-0.2-0.2-0.3-0.3c-0.1-0.1-0.2-0.2-0.4-0.3c-0.3-0.2-0.5-0.5-0.8-0.8c-0.5-0.5-0.9-1.1-1.4-1.6c-0.5-0.6-1.3-1-2.1-0.5
			C201.8,508.2,201.4,509.2,201.9,509.9L201.9,509.9z"/>
	</g>
</g>
<g>
	<g>
		<path class="st7" d="M263,509.9c0.6,0.8,1.2,1.5,1.8,2.3c0.6,0.6,1.2,1.4,2,1.8c1.1,0.6,2.3,0,2.9-1c0.1-0.1,0.1-0.2,0.2-0.4
			c0.4-0.7,0.8-1.4,1.3-2.1c0.3-0.5,0.7-1,1-1.5c0.2-0.2,0.4-0.5,0.5-0.7c0.1-0.1,0.2-0.2,0.2-0.3c0,0,0.2-0.3,0.1-0.1
			c-0.1,0.1,0.1-0.1,0.1-0.1c0.5-0.6,0.9-1.1,1.4-1.6c0.2-0.2,0.5-0.5,0.8-0.7c0.1-0.1,0.2-0.2,0.3-0.3c0,0,0.2-0.2,0.1-0.1
			c-0.2,0.1,0.1-0.1,0.1-0.1c0.7-0.5,1-1.3,0.5-2c-0.4-0.6-1.4-1-2-0.5c-2,1.4-3.5,3.4-4.9,5.4c-0.8,1.2-1.7,2.5-2.4,3.8
			c0,0,0,0,0,0.1c0,0.2,0-0.1,0,0c0.4,0,0.7-0.1,1.1-0.1c0.1,0.1,0.1,0.1,0,0c-0.2-0.4-0.7-0.7-1-1c-0.6-0.6-1.2-1.3-1.7-2
			c-0.5-0.6-1.3-1-2-0.5C262.9,508.2,262.5,509.2,263,509.9L263,509.9z"/>
	</g>
</g>
<g>
	<g>
		<path class="st7" d="M338,509.4c0.5,0.7,1.1,1.4,1.7,2.1s1.2,1.4,1.9,1.9c0.9,0.6,2,0.4,2.7-0.4c0.5-0.6,0.8-1.3,1.2-2
			c1.4-2.5,3-5,5.4-6.7c0.7-0.5,1-1.3,0.5-2c-0.4-0.6-1.4-1-2-0.5c-2.3,1.6-4.1,3.8-5.6,6.2c-0.3,0.5-0.6,1.1-1,1.6
			c-0.2,0.3-0.3,0.5-0.5,0.8c-0.1,0.1-0.2,0.3-0.2,0.5c-0.1,0.1-0.1,0.1,0,0.1c0.2-0.3,0.6-0.4,1.1-0.2c0,0,0.1,0,0.1,0.1
			c-0.1-0.1-0.2-0.2-0.3-0.3c-0.1-0.1-0.2-0.2-0.4-0.3c-0.3-0.2-0.5-0.5-0.8-0.8c-0.5-0.5-1-1.1-1.4-1.6c-0.5-0.6-1.3-1-2-0.5
			C337.9,507.7,337.5,508.7,338,509.4L338,509.4z"/>
	</g>
</g>
<g>
	<g>
		<path class="st7" d="M487.9,509.4c0.5,0.7,1.1,1.4,1.7,2.1s1.2,1.4,1.9,1.9c0.9,0.6,2,0.4,2.7-0.4c0.5-0.6,0.8-1.3,1.2-2
			c1.4-2.5,3-5,5.4-6.7c0.7-0.5,1-1.3,0.5-2c-0.4-0.6-1.4-1-2-0.5c-2.3,1.6-4.1,3.8-5.6,6.2c-0.3,0.5-0.6,1.1-1,1.6
			c-0.2,0.3-0.3,0.5-0.5,0.8c-0.1,0.1-0.2,0.3-0.2,0.5c-0.1,0.1-0.1,0.1,0,0.1c0.2-0.3,0.6-0.4,1.1-0.2c0,0,0.1,0,0.1,0.1
			c-0.1-0.1-0.2-0.2-0.3-0.3c-0.1-0.1-0.2-0.2-0.4-0.3c-0.3-0.2-0.5-0.5-0.8-0.8c-0.5-0.5-1-1.1-1.4-1.6c-0.5-0.6-1.3-1-2-0.5
			C487.8,507.7,487.4,508.7,487.9,509.4L487.9,509.4z"/>
	</g>
</g>
<text transform="matrix(1 0 0 1 9.5206 491.2513)" class="st2 st6">is.matrix()</text>
<text transform="matrix(1 0 0 1 263.1367 661.0025)" class="st2 st3">is.factor() </text>
<text transform="matrix(1 0 0 1 9.5206 510.9392)" class="st2 st6">is.array()</text>
<g>
	<g>
		<path class="st7" d="M328.8,657c0.5,0.7,1.1,1.4,1.7,2.1c0.6,0.7,1.2,1.4,1.9,1.9c0.9,0.6,2,0.4,2.7-0.4c0.5-0.6,0.8-1.3,1.2-2
			c1.4-2.5,3-5,5.4-6.7c0.7-0.5,1-1.3,0.5-2c-0.4-0.7-1.4-1-2-0.5c-2.3,1.6-4.1,3.8-5.6,6.2c-0.3,0.5-0.6,1.1-1,1.7
			c-0.2,0.3-0.3,0.5-0.5,0.8c-0.1,0.2-0.2,0.3-0.2,0.5c-0.1,0.1-0.1,0.2,0,0.1c0.2-0.3,0.6-0.4,1.1-0.2c0,0,0.1,0,0.1,0.1
			c-0.1-0.1-0.2-0.2-0.3-0.3c-0.1-0.1-0.2-0.2-0.4-0.3c-0.3-0.2-0.5-0.5-0.8-0.8c-0.5-0.5-1-1.1-1.4-1.7c-0.5-0.7-1.3-1-2-0.5
			C328.6,655.4,328.3,656.4,328.8,657L328.8,657z"/>
	</g>
</g>
<text transform="matrix(1 0 0 1 471.1859 748.0769)" class="st2 st3">is.data.frame() </text>
<g>
	<g>
		<path class="st7" d="M550.2,745.2c0.5,0.7,1.1,1.4,1.7,2.1c0.6,0.7,1.2,1.4,1.9,1.9c0.9,0.6,2,0.4,2.7-0.4c0.5-0.6,0.8-1.3,1.2-2
			c1.4-2.5,3-5,5.4-6.7c0.7-0.5,1-1.3,0.5-2c-0.4-0.7-1.4-1-2-0.5c-2.3,1.6-4.1,3.8-5.6,6.2c-0.3,0.5-0.7,1.1-1,1.7
			c-0.2,0.3-0.3,0.5-0.5,0.8c-0.1,0.2-0.2,0.3-0.2,0.5c-0.1,0.1-0.1,0.2,0,0.1c0.2-0.3,0.6-0.4,1.1-0.2c0,0,0.1,0,0.1,0.1
			c-0.1-0.1-0.2-0.2-0.3-0.3s-0.2-0.2-0.3-0.3c-0.3-0.2-0.5-0.5-0.8-0.8c-0.5-0.5-1-1.1-1.4-1.7c-0.5-0.7-1.3-1-2-0.5
			C550.1,743.5,549.7,744.6,550.2,745.2L550.2,745.2z"/>
	</g>
</g>
<rect x="8.4" y="192.6" class="st0" width="111" height="67.1"/>
<text transform="matrix(1 0 0 1 8.3624 198.9262)" class="st14 st15">Attributes affects </text>
<text transform="matrix(1 0 0 1 8.3624 210.9262)" class="st14 st15">further behavious.</text>
<text transform="matrix(1 0 0 1 8.3624 222.9262)" class="st14 st15">A vector can have </text>
<text transform="matrix(1 0 0 1 8.3624 234.9262)" class="st14 st15">just name as a </text>
<text transform="matrix(1 0 0 1 8.3624 246.9262)" class="st14 st15">attribute.</text>
<rect x="5.9" y="296.3" class="st0" width="118.8" height="113"/>
<text transform="matrix(1 0 0 1 5.8654 302.6014)" class="st14 st15">Attribute dim </text>
<text transform="matrix(1 0 0 1 5.8654 314.6014)" class="st14 st15">determines if it a </text>
<text transform="matrix(1 0 0 1 5.8654 326.6014)" class="st14 st15">matrix or array. If </text>
<text transform="matrix(1 0 0 1 5.8654 338.6014)" class="st14 st15">it has more than 2 </text>
<text transform="matrix(1 0 0 1 5.8654 350.6014)" class="st14 st15">dimensions it is </text>
<text transform="matrix(1 0 0 1 5.8654 362.6014)" class="st14 st15">array.   </text>
<rect x="9.5" y="557.6" class="st0" width="237.4" height="43.8"/>
<text transform="matrix(1 0 0 1 9.4721 563.8997)" class="st14 st15">Attribute class makes it a S3 </text>
<text transform="matrix(1 0 0 1 9.4721 575.8997)" class="st14 st15">object.    </text>
<rect x="11.4" y="592" class="st0" width="89.6" height="62.6"/>
<text transform="matrix(1 0 0 1 11.3941 598.2803)" class="st16 st15">Example:</text>
<text transform="matrix(1 0 0 1 60.2041 598.2803)" class="st14 st15"> </text>
<text transform="matrix(1 0 0 1 11.3941 610.2803)" class="st14 st15">class(factor) </text>
<text transform="matrix(1 0 0 1 11.3941 622.2803)" class="st14 st15">makes interger </text>
<text transform="matrix(1 0 0 1 11.3941 634.2803)" class="st14 st15">a factor    </text>
<rect x="12.2" y="694.3" class="st0" width="137" height="64.4"/>
<text transform="matrix(1 0 0 1 12.1578 700.4158)" class="st16 st15">Example: </text>
<text transform="matrix(1 0 0 1 12.1578 712.4158)" class="st14 st15">class(data.frame) </text>
<text transform="matrix(1 0 0 1 12.1578 724.4158)" class="st14 st15">makes list with all </text>
<text transform="matrix(1 0 0 1 12.1578 736.4158)" class="st14 st15">items having equal </text>
<text transform="matrix(1 0 0 1 12.1578 748.4158)" class="st14 st15">length a dataframe.    </text>
<rect x="250.2" y="585.1" class="st17" width="91.8" height="57.9"/>
<rect x="480.5" y="679.8" class="st17" width="88" height="54"/>
<g>
	<g>
		<line class="st18" x1="279" y1="513.3" x2="279" y2="560.5"/>
		<g>
			<path class="st19" d="M279,572.9c-2.1-5.8-5.8-13-9.7-17.4l9.7,3.5l9.7-3.5C284.8,559.9,281.1,567.1,279,572.9z"/>
		</g>
	</g>
</g>
<g>
	<g>
		<line class="st18" x1="142.8" y1="94.2" x2="143.1" y2="116.7"/>
		<g>
			<path class="st19" d="M143.2,124.9c-1.5-3.8-4-8.6-6.6-11.5l6.5,2.3l6.4-2.4C146.9,116.2,144.5,121.1,143.2,124.9z"/>
		</g>
	</g>
</g>
<line class="st20" x1="498.8" y1="94" x2="142.8" y2="94.2"/>
<g>
	<g>
		<line class="st18" x1="216.6" y1="93.7" x2="216.9" y2="116.2"/>
		<g>
			<path class="st19" d="M217,124.4c-1.5-3.8-4-8.6-6.6-11.5l6.5,2.3l6.4-2.4C220.7,115.7,218.3,120.6,217,124.4z"/>
		</g>
	</g>
</g>
<g>
	<g>
		<line class="st18" x1="276.1" y1="94.2" x2="276.4" y2="116.7"/>
		<g>
			<path class="st19" d="M276.5,124.9c-1.5-3.8-4-8.6-6.6-11.5l6.5,2.3l6.4-2.4C280.3,116.2,277.9,121.1,276.5,124.9z"/>
		</g>
	</g>
</g>
<g>
	<g>
		<line class="st18" x1="343.9" y1="94.2" x2="344.1" y2="116.7"/>
		<g>
			<path class="st19" d="M344.2,124.9c-1.5-3.8-4-8.6-6.6-11.5l6.5,2.3l6.4-2.4C348,116.2,345.6,121.1,344.2,124.9z"/>
		</g>
	</g>
</g>
<line class="st18" x1="316" y1="80.8" x2="316.2" y2="95.4"/>
<g>
	<g>
		<line class="st18" x1="427.4" y1="94.7" x2="427.6" y2="117.2"/>
		<g>
			<path class="st19" d="M427.7,125.5c-1.5-3.8-4-8.6-6.6-11.5l6.5,2.3l6.4-2.4C431.5,116.8,429.1,121.6,427.7,125.5z"/>
		</g>
	</g>
</g>
<g>
	<g>
		<line class="st18" x1="498.1" y1="94.2" x2="498.4" y2="116.7"/>
		<g>
			<path class="st19" d="M498.5,124.9c-1.5-3.8-4-8.6-6.6-11.5l6.5,2.3l6.4-2.4C502.3,116.2,499.9,121.1,498.5,124.9z"/>
		</g>
	</g>
</g>
<g>
	<g>
		<line class="st18" x1="505" y1="507.2" x2="505" y2="664.8"/>
		<g>
			<path class="st19" d="M505,677.1c-2.1-5.8-5.8-13-9.7-17.4l9.7,3.5l9.7-3.5C510.8,664.1,507.1,671.3,505,677.1z"/>
		</g>
	</g>
</g>
<g>
	<g>
		<path class="st8" d="M417.2,264.1c2.4-3.3,6-6,9.8-7.5c0.8-0.3,1.3-1,1-1.9c-0.2-0.7-1.1-1.3-1.9-1.1c-4.7,1.8-8.6,4.8-11.6,8.9
			c-0.5,0.7-0.1,1.7,0.5,2C415.9,265,416.7,264.7,417.2,264.1L417.2,264.1z"/>
	</g>
</g>
<g>
	<g>
		<path class="st8" d="M415.3,255.2c3.4,3.1,7.2,5.7,11.4,7.6c0.7,0.3,1.6,0.2,2-0.5c0.4-0.6,0.2-1.7-0.5-2c-4-1.8-7.6-4.2-10.8-7.1
			c-0.6-0.6-1.5-0.6-2.1,0C414.8,253.6,414.7,254.6,415.3,255.2L415.3,255.2z"/>
	</g>
</g>
<g>
	<g>
		<path class="st8" d="M421.3,383.2c2.4-3.3,6-6.1,9.8-7.5c0.8-0.3,1.3-1,1-1.9c-0.2-0.7-1.1-1.3-1.9-1c-4.7,1.8-8.6,4.8-11.6,8.9
			c-0.5,0.7-0.1,1.7,0.5,2.1C420,384.2,420.8,383.9,421.3,383.2L421.3,383.2z"/>
	</g>
</g>
<g>
	<g>
		<path class="st8" d="M420.4,374.3c3.4,3.1,7.2,5.7,11.4,7.6c0.7,0.3,1.6,0.2,2-0.5c0.4-0.6,0.2-1.7-0.5-2.1
			c-4-1.8-7.6-4.2-10.8-7.1c-0.6-0.5-1.5-0.6-2.1,0C419.8,372.7,419.8,373.7,420.4,374.3L420.4,374.3z"/>
	</g>
</g>
<g>
	<g>
		<path class="st8" d="M422.6,402.5c2.4-3.3,6-6.1,9.8-7.5c0.8-0.3,1.3-1,1-1.9c-0.2-0.7-1.1-1.3-1.9-1c-4.7,1.8-8.6,4.8-11.6,8.9
			c-0.5,0.7-0.1,1.7,0.5,2.1C421.3,403.5,422.1,403.2,422.6,402.5L422.6,402.5z"/>
	</g>
</g>
<g>
	<g>
		<path class="st8" d="M419.7,393.6c3.4,3.1,7.2,5.7,11.4,7.6c0.7,0.3,1.6,0.2,2-0.5c0.4-0.6,0.2-1.7-0.5-2.1
			c-4-1.8-7.6-4.2-10.8-7.1c-0.6-0.5-1.5-0.6-2.1,0C419.2,392.1,419.1,393.1,419.7,393.6L419.7,393.6z"/>
	</g>
</g>
<text transform="matrix(1 0 0 1 504.1572 783.6553)" class="st21 st3"> Data churn by AK</text>
</svg>
