<?xml version="1.0" encoding="utf-8"?>
<!-- Generator: Adobe Illustrator 26.3.1, SVG Export Plug-In . SVG Version: 6.00 Build 0)  -->
<svg version="1.1" id="Layer_1" xmlns="http://www.w3.org/2000/svg" xmlns:xlink="http://www.w3.org/1999/xlink" x="0px" y="0px"
	 viewBox="0 0 281.98 237.74" style="enable-background:new 0 0 281.98 237.74;" xml:space="preserve">
<style type="text/css">
	.st0{fill:none;}
	.st1{fill:none;stroke:#A7A9AC;stroke-width:1.3906;stroke-miterlimit:10;}
	.st2{fill:none;stroke:#000000;stroke-width:2.3318;stroke-miterlimit:10;}
	.st3{fill:none;stroke:#000000;stroke-width:1.3906;stroke-miterlimit:10;}
	.st4{fill:none;stroke:#71D0F1;stroke-width:1.7539;stroke-miterlimit:10;}
	.st5{fill:none;stroke:#DE1D3B;stroke-width:1.7539;stroke-miterlimit:10;}
	.st6{fill:none;stroke:#393392;stroke-width:1.7539;stroke-miterlimit:10;}
	.st7{fill:none;stroke:#2DB34A;stroke-width:1.7539;stroke-miterlimit:10;}
	.st8{fill:#FFFFFF;stroke:#000000;stroke-miterlimit:10;}
	.st9{opacity:0.48;fill:url(#SVGID_1_);stroke:#000000;stroke-width:1.938;stroke-miterlimit:10;enable-background:new    ;}
	.st10{opacity:0.92;}
	.st11{fill:#FFFFFF;stroke:#000000;stroke-width:1.7539;stroke-miterlimit:10;}
	
		.st12{fill:url(#SVGID_00000006667042696657862810000018080529829655269768_);stroke:#000000;stroke-width:1.7539;stroke-miterlimit:10;}
	.st13{fill:none;stroke:#000000;stroke-width:1.938;stroke-miterlimit:10;}
	.st14{fill:#F9F9FA;}
	
		.st15{opacity:0.48;fill:url(#SVGID_00000073679523906529002850000011048277171926624939_);stroke:#000000;stroke-width:1.938;stroke-miterlimit:10;enable-background:new    ;}
	.st16{font-family:'ArialMT';}
	.st17{font-size:24.293px;}
	
		.st18{fill:url(#SVGID_00000125569287252973480970000010718891884980232381_);stroke:#000000;stroke-width:1.7539;stroke-miterlimit:10;}
	.st19{font-size:18.2458px;}
</style>
<pattern  x="-297.77" y="237.74" width="225.85" height="226.9" patternUnits="userSpaceOnUse" id="SVGID_0000005136723025354156762" viewBox="138.3 -450.02 225.85 226.9" style="overflow:visible;">
	<g>
		<rect x="138.3" y="-450.02" class="st0" width="225.85" height="226.9"/>
		<g>
			<rect x="138.3" y="-450.02" class="st0" width="225.85" height="226.9"/>
			<g>
				<rect x="138.3" y="-450.02" class="st0" width="225.85" height="226.9"/>
				<g>
					<polyline class="st1" points="410.17,-174.7 403.45,-79.3 400.23,-222.1 398.91,-148.28 394.58,-181.81 393.32,-87.31 
						388.8,-208.47 385.18,-115.98 381.47,-195.78 379.21,-77.67 377.82,-203.71 374.59,-115.14 370.13,-241.23 369.35,-54.18 
						366.12,-195.99 366.18,-20.75 362.38,-248.23 361.23,-136.01 359.24,-165.57 358.61,-118.32 355.51,-167.59 356.16,-87.84 
											"/>
				</g>
				<g>
					<polyline class="st1" points="339.33,-170.84 330.93,-75.58 330.23,-218.42 327.6,-144.63 323.87,-178.24 320.95,-83.78 
						318.56,-205.01 313.31,-112.6 311,-192.45 306.67,-74.4 307.5,-200.44 302.71,-111.96 300.47,-238.1 296.39,-51.1 
						295.66,-192.95 292.63,-17.73 292.85,-245.24 289.72,-133.06 288.24,-162.66 286.78,-115.43 284.55,-164.75 283.79,-85 					
						"/>
					<polyline class="st1" points="246.32,-168.87 237.91,-73.61 237.21,-216.45 234.59,-142.66 230.85,-176.27 227.93,-81.81 
						225.54,-203.04 220.29,-110.63 217.99,-190.48 213.65,-72.43 214.48,-198.48 209.69,-109.99 207.46,-236.13 203.38,-49.13 
						202.65,-190.98 199.61,-15.76 199.83,-243.28 196.7,-131.1 195.23,-160.69 193.77,-113.46 191.54,-162.78 190.78,-83.03 					
						"/>
					<polyline class="st1" points="184.32,-174.7 177.59,-79.3 174.38,-222.1 173.06,-148.28 168.73,-181.81 167.47,-87.31 
						162.94,-208.47 159.32,-115.98 155.61,-195.78 153.36,-77.67 151.97,-203.71 148.74,-115.14 144.28,-241.23 143.5,-54.18 
						140.27,-195.99 140.32,-20.75 136.53,-248.23 135.38,-136.01 133.38,-165.57 132.75,-118.32 129.66,-167.59 130.3,-87.84 					
						"/>
					<polyline class="st2" points="301.02,-153.84 282.73,-58.9 272.77,-202.04 269.53,-128.27 257.15,-162.16 254.22,-67.71 
						240.72,-189.29 231.15,-97.02 220.19,-177.16 214.62,-59.15 209.89,-185.37 201.4,-97.01 188.05,-223.51 187.06,-36.41 
						177.06,-178.56 178.35,-3.2 166.22,-231.12 163.71,-118.92 157.91,-148.66 156.45,-101.43 147.43,-150.97 149.75,-71.11 					
						"/>
					<polyline class="st2" points="380.61,-151.87 362.33,-56.93 352.36,-200.07 349.12,-126.3 336.74,-160.19 333.82,-65.74 
						320.31,-187.32 310.74,-95.05 299.79,-175.19 294.21,-57.18 289.49,-183.4 280.99,-95.04 267.64,-221.54 266.65,-34.44 
						256.66,-176.6 257.94,-1.24 245.81,-229.15 243.3,-116.95 237.5,-146.69 236.04,-99.46 227.02,-149 229.34,-69.14 					"/>
					<polyline class="st3" points="384.4,-153.12 376,-57.86 375.3,-200.7 372.67,-126.91 368.94,-160.52 366.01,-66.06 
						363.62,-187.29 358.38,-94.88 356.07,-174.73 351.74,-56.68 352.57,-182.72 347.78,-94.24 345.54,-220.38 341.46,-33.38 
						340.73,-175.23 337.7,-0.01 337.92,-227.52 334.79,-115.34 333.31,-144.94 331.85,-97.71 329.62,-147.03 328.86,-67.28 					
						"/>
				</g>
				<g>
					<polyline class="st2" points="154.76,-151.87 136.47,-56.93 126.51,-200.07 123.27,-126.3 110.88,-160.19 107.96,-65.74 
						94.46,-187.32 84.88,-95.05 73.93,-175.19 68.36,-57.18 63.63,-183.4 55.14,-95.04 41.79,-221.54 40.79,-34.44 30.8,-176.6 
						32.09,-1.24 19.96,-229.15 17.44,-116.95 11.65,-146.69 10.19,-99.46 1.17,-149 3.49,-69.14 					"/>
					<polyline class="st3" points="158.55,-153.12 150.14,-57.86 149.45,-200.7 146.82,-126.91 143.08,-160.52 140.16,-66.06 
						137.77,-187.29 132.52,-94.88 130.22,-174.73 125.88,-56.68 126.71,-182.72 121.93,-94.24 119.69,-220.38 115.61,-33.38 
						114.88,-175.23 111.85,-0.01 112.06,-227.52 108.93,-115.34 107.46,-144.94 106,-97.71 103.77,-147.03 103.01,-67.28 					"/>
				</g>
				<g>
					<polyline class="st1" points="410.17,-401.6 403.45,-306.19 400.23,-448.99 398.91,-375.17 394.58,-408.71 393.32,-314.21 
						388.8,-435.37 385.18,-342.88 381.47,-422.68 379.21,-304.56 377.82,-430.6 374.59,-342.04 370.13,-468.12 369.35,-281.07 
						366.12,-422.89 366.18,-247.64 362.38,-475.12 361.23,-362.9 359.24,-392.47 358.61,-345.22 355.51,-394.49 356.16,-314.73 
											"/>
					<polyline class="st1" points="343.91,-272.27 352.01,-367.56 353.16,-224.73 355.55,-298.52 359.4,-264.92 362.02,-359.39 
						364.79,-238.17 369.75,-330.6 372.31,-250.76 376.27,-368.82 375.84,-242.77 380.34,-331.28 382.98,-205.14 386.47,-392.16 
						387.65,-250.31 390.13,-425.53 390.63,-198.02 393.4,-310.21 394.97,-280.62 396.28,-327.86 398.67,-278.54 399.18,-358.3 
											"/>
				</g>
				<g>
					<polyline class="st1" points="339.33,-397.74 330.93,-302.48 330.23,-445.31 327.6,-371.53 323.87,-405.14 320.95,-310.68 
						318.56,-431.91 313.31,-339.49 311,-419.35 306.67,-301.3 307.5,-427.34 302.71,-338.85 300.47,-465 296.39,-277.99 
						295.66,-419.85 292.63,-244.63 292.85,-472.14 289.72,-359.96 288.24,-389.56 286.78,-342.33 284.55,-391.65 283.79,-311.89 
											"/>
					<polyline class="st1" points="246.32,-395.77 237.91,-300.51 237.21,-443.35 234.59,-369.56 230.85,-403.17 227.93,-308.71 
						225.54,-429.94 220.29,-337.52 217.99,-417.38 213.65,-299.33 214.48,-425.37 209.69,-336.89 207.46,-463.03 203.38,-276.03 
						202.65,-417.88 199.61,-242.66 199.83,-470.17 196.7,-357.99 195.23,-387.59 193.77,-340.36 191.54,-389.68 190.78,-309.92 
											"/>
					<polyline class="st1" points="175.98,-276.14 186.32,-371.2 184.12,-228.38 188.24,-302.09 191.3,-268.41 196.14,-362.79 
						196.07,-241.54 203.19,-333.82 203.87,-253.93 210.6,-371.86 207.22,-245.86 213.8,-334.23 213.47,-208.07 221.35,-394.94 
						219.2,-253.1 225.78,-428.22 220.95,-200.76 226.36,-312.85 227.23,-283.23 229.65,-330.42 230.88,-281.06 233.26,-360.78 
											"/>
					<polyline class="st1" points="281.47,-286.97 291.8,-382.03 289.61,-239.21 293.73,-312.92 296.78,-279.24 301.62,-373.62 
						301.55,-252.37 308.67,-344.65 309.36,-264.76 316.08,-382.69 312.7,-256.69 319.28,-345.06 318.96,-218.89 326.83,-405.77 
						324.68,-263.93 331.27,-439.05 326.44,-211.59 331.84,-323.68 332.71,-294.06 335.13,-341.25 336.36,-291.89 338.74,-371.61 
											"/>
					<polyline class="st1" points="318.87,-284.02 329.2,-379.08 327,-236.26 331.12,-309.97 334.18,-276.29 339.02,-370.66 
						338.95,-249.41 346.07,-341.69 346.75,-261.81 353.48,-379.74 350.1,-253.74 356.68,-342.11 356.35,-215.94 364.23,-402.82 
						362.08,-260.98 368.67,-436.1 363.83,-208.64 369.24,-320.73 370.11,-291.1 372.53,-338.29 373.76,-288.94 376.14,-368.66 
											"/>
					<polyline class="st1" points="184.32,-401.6 177.59,-306.19 174.38,-448.99 173.06,-375.17 168.73,-408.71 167.47,-314.21 
						162.94,-435.37 159.32,-342.88 155.61,-422.68 153.36,-304.56 151.97,-430.6 148.74,-342.04 144.28,-468.12 143.5,-281.07 
						140.27,-422.89 140.32,-247.64 136.53,-475.12 135.38,-362.9 133.38,-392.47 132.75,-345.22 129.66,-394.49 130.3,-314.73 
											"/>
					<polyline class="st1" points="118.05,-272.27 126.16,-367.56 127.31,-224.73 129.7,-298.52 133.54,-264.92 136.17,-359.39 
						138.94,-238.17 143.9,-330.6 146.45,-250.76 150.42,-368.82 149.98,-242.77 154.49,-331.28 157.13,-205.14 160.62,-392.16 
						161.79,-250.31 164.27,-425.53 164.78,-198.02 167.55,-310.21 169.12,-280.62 170.43,-327.86 172.81,-278.54 173.32,-358.3 
											"/>
					<polyline class="st2" points="160.75,-292.69 176.1,-388.18 190.48,-245.44 191.44,-319.27 204.86,-285.8 204.86,-380.3 
						222.12,-259.22 228.84,-351.76 242.26,-272.02 244.18,-390.15 252.81,-264.14 258.56,-352.74 275.82,-226.73 271.03,-413.77 
						285.41,-272.02 278.7,-447.25 297.88,-219.84 296.92,-332.07 303.63,-302.53 303.63,-349.79 314.18,-300.56 309.39,-380.3 
											"/>
					<polyline class="st2" points="294.31,-362.03 276.02,-267.09 266.06,-410.23 262.82,-336.47 250.43,-370.36 247.51,-275.9 
						234,-397.49 224.43,-305.21 213.48,-385.35 207.91,-267.34 203.18,-393.57 194.69,-305.2 181.34,-431.71 180.34,-244.6 
						170.35,-386.76 171.64,-211.4 159.51,-439.31 156.99,-327.11 151.2,-356.85 149.74,-309.62 140.72,-359.16 143.04,-279.31 
											"/>
					<polyline class="st2" points="301.02,-380.74 282.73,-285.79 272.77,-428.93 269.53,-355.17 257.15,-389.06 254.22,-294.6 
						240.72,-416.19 231.15,-323.92 220.19,-404.06 214.62,-286.05 209.89,-412.27 201.4,-323.9 188.05,-450.41 187.06,-263.31 
						177.06,-405.46 178.35,-230.1 166.22,-458.02 163.71,-345.82 157.91,-375.55 156.45,-328.33 147.43,-377.87 149.75,-298.01 
											"/>
					<polyline class="st2" points="356.64,-360.06 338.35,-265.12 328.39,-408.26 325.15,-334.5 312.77,-368.39 309.84,-273.93 
						296.34,-395.52 286.76,-303.25 275.81,-383.38 270.24,-265.37 265.51,-391.6 257.02,-303.23 243.67,-429.74 242.67,-242.63 
						232.68,-384.79 233.97,-209.43 221.84,-437.34 219.32,-325.14 213.53,-354.88 212.07,-307.65 203.05,-357.19 205.37,-277.34 
											"/>
					<polyline class="st2" points="380.61,-378.77 362.33,-283.83 352.36,-426.97 349.12,-353.2 336.74,-387.09 333.82,-292.63 
						320.31,-414.22 310.74,-321.95 299.79,-402.09 294.21,-284.08 289.49,-410.3 280.99,-321.94 267.64,-448.44 266.65,-261.34 
						256.66,-403.49 257.94,-228.13 245.81,-456.05 243.3,-343.85 237.5,-373.59 236.04,-326.36 227.02,-375.9 229.34,-296.04 					
						"/>
					<polyline class="st3" points="384.4,-380.02 376,-284.76 375.3,-427.59 372.67,-353.81 368.94,-387.42 366.01,-292.96 
						363.62,-414.19 358.38,-321.77 356.07,-401.63 351.74,-283.58 352.57,-409.62 347.78,-321.13 345.54,-447.28 341.46,-260.27 
						340.73,-402.13 337.7,-226.91 337.92,-454.42 334.79,-342.24 333.31,-371.84 331.85,-324.61 329.62,-373.93 328.86,-294.17 
											"/>
				</g>
				<g>
					<polyline class="st1" points="93.01,-284.02 103.35,-379.08 101.15,-236.26 105.27,-309.97 108.32,-276.29 113.16,-370.66 
						113.09,-249.41 120.21,-341.69 120.9,-261.81 127.63,-379.74 124.24,-253.74 130.82,-342.11 130.5,-215.94 138.37,-402.82 
						136.23,-260.98 142.81,-436.1 137.98,-208.64 143.39,-320.73 144.26,-291.1 146.68,-338.29 147.9,-288.94 150.28,-368.66 					
						"/>
					<polyline class="st2" points="154.76,-378.77 136.47,-283.83 126.51,-426.97 123.27,-353.2 110.88,-387.09 107.96,-292.63 
						94.46,-414.22 84.88,-321.95 73.93,-402.09 68.36,-284.08 63.63,-410.3 55.14,-321.94 41.79,-448.44 40.79,-261.34 
						30.8,-403.49 32.09,-228.13 19.96,-456.05 17.44,-343.85 11.65,-373.59 10.19,-326.36 1.17,-375.9 3.49,-296.04 					"/>
					<polyline class="st3" points="158.55,-380.02 150.14,-284.76 149.45,-427.59 146.82,-353.81 143.08,-387.42 140.16,-292.96 
						137.77,-414.19 132.52,-321.77 130.22,-401.63 125.88,-283.58 126.71,-409.62 121.93,-321.13 119.69,-447.28 115.61,-260.27 
						114.88,-402.13 111.85,-226.91 112.06,-454.42 108.93,-342.24 107.46,-371.84 106,-324.61 103.77,-373.93 103.01,-294.17 					
						"/>
				</g>
				<g>
					<polyline class="st1" points="343.91,-499.17 352.01,-594.46 353.16,-451.62 355.55,-525.42 359.4,-491.82 362.02,-586.29 
						364.79,-465.07 369.75,-557.5 372.31,-477.65 376.27,-595.72 375.84,-469.67 380.34,-558.17 382.98,-432.04 386.47,-619.06 
						387.65,-477.2 390.13,-652.43 390.63,-424.92 393.4,-537.11 394.97,-507.52 396.28,-554.75 398.67,-505.44 399.18,-585.2 					
						"/>
				</g>
				<g>
					<polyline class="st1" points="175.98,-503.04 186.32,-598.1 184.12,-455.28 188.24,-528.99 191.3,-495.31 196.14,-589.69 
						196.07,-468.44 203.19,-560.72 203.87,-480.83 210.6,-598.76 207.22,-472.76 213.8,-561.13 213.47,-434.96 221.35,-621.84 
						219.2,-480 225.78,-655.12 220.95,-427.66 226.36,-539.75 227.23,-510.13 229.65,-557.31 230.88,-507.96 233.26,-587.68 					
						"/>
					<polyline class="st1" points="281.47,-513.87 291.8,-608.93 289.61,-466.11 293.73,-539.82 296.78,-506.14 301.62,-600.51 
						301.55,-479.26 308.67,-571.54 309.36,-491.66 316.08,-609.59 312.7,-483.59 319.28,-571.96 318.96,-445.79 326.83,-632.67 
						324.68,-490.83 331.27,-665.95 326.44,-438.49 331.84,-550.58 332.71,-520.96 335.13,-568.14 336.36,-518.79 338.74,-598.51 
											"/>
					<polyline class="st1" points="318.87,-510.91 329.2,-605.98 327,-463.16 331.12,-536.87 334.18,-503.19 339.02,-597.56 
						338.95,-476.31 346.07,-568.59 346.75,-488.7 353.48,-606.64 350.1,-480.64 356.68,-569 356.35,-442.84 364.23,-629.72 
						362.08,-487.88 368.67,-662.99 363.83,-435.53 369.24,-547.62 370.11,-518 372.53,-565.19 373.76,-515.83 376.14,-595.56 					
						"/>
					<polyline class="st1" points="118.05,-499.17 126.16,-594.46 127.31,-451.62 129.7,-525.42 133.54,-491.82 136.17,-586.29 
						138.94,-465.07 143.9,-557.5 146.45,-477.65 150.42,-595.72 149.98,-469.67 154.49,-558.17 157.13,-432.04 160.62,-619.06 
						161.79,-477.2 164.27,-652.43 164.78,-424.92 167.55,-537.11 169.12,-507.52 170.43,-554.75 172.81,-505.44 173.32,-585.2 
											"/>
					<polyline class="st2" points="160.75,-519.59 176.1,-615.08 190.48,-472.33 191.44,-546.17 204.86,-512.7 204.86,-607.2 
						222.12,-486.12 228.84,-578.65 242.26,-498.91 244.18,-617.05 252.81,-491.04 258.56,-579.64 275.82,-453.63 271.03,-640.67 
						285.41,-498.91 278.7,-674.14 297.88,-446.74 296.92,-558.96 303.63,-529.43 303.63,-576.68 314.18,-527.46 309.39,-607.2 
											"/>
					<polyline class="st2" points="294.31,-588.93 276.02,-493.99 266.06,-637.13 262.82,-563.36 250.43,-597.25 247.51,-502.8 
						234,-624.38 224.43,-532.11 213.48,-612.25 207.91,-494.24 203.18,-620.46 194.69,-532.1 181.34,-658.6 180.34,-471.5 
						170.35,-613.66 171.64,-438.3 159.51,-666.21 156.99,-554.01 151.2,-583.75 149.74,-536.52 140.72,-586.06 143.04,-506.2 					
						"/>
					<polyline class="st2" points="356.64,-586.96 338.35,-492.02 328.39,-635.16 325.15,-561.39 312.77,-595.29 309.84,-500.83 
						296.34,-622.42 286.76,-530.14 275.81,-610.28 270.24,-492.27 265.51,-618.5 257.02,-530.13 243.67,-656.64 242.67,-469.53 
						232.68,-611.69 233.97,-436.33 221.84,-664.24 219.32,-552.04 213.53,-581.78 212.07,-534.55 203.05,-584.09 205.37,-504.23 
											"/>
				</g>
				<g>
					<polyline class="st1" points="93.01,-510.91 103.35,-605.98 101.15,-463.16 105.27,-536.87 108.32,-503.19 113.16,-597.56 
						113.09,-476.31 120.21,-568.59 120.9,-488.7 127.63,-606.64 124.24,-480.64 130.82,-569 130.5,-442.84 138.37,-629.72 
						136.23,-487.88 142.81,-662.99 137.98,-435.53 143.39,-547.62 144.26,-518 146.68,-565.19 147.9,-515.83 150.28,-595.56 					
						"/>
				</g>
			</g>
		</g>
	</g>
</pattern>
<pattern  x="-297.77" y="237.74" width="257.46" height="109.35" patternUnits="userSpaceOnUse" id="SVGID_0000005640089201167950610" viewBox="257.38 -183.94 257.46 109.35" style="overflow:visible;">
	<g>
		<rect x="257.38" y="-183.94" class="st0" width="257.46" height="109.35"/>
		<g>
			<rect x="257.38" y="-183.94" class="st0" width="257.46" height="109.35"/>
			<g>
				<rect x="257.38" y="-183.94" class="st0" width="257.46" height="109.35"/>
				<g>
					<path class="st4" d="M513.23-75.09c10.9,27.41,29.04,63.76,52.32,64.14c33.57,0.55,50.83-74.08,82.71-71.73
						c30.33,2.24,37.49,71.53,65.83,73.42c20.18,1.35,39.77-32.24,55.7-70.05"/>
					<path class="st5" d="M514.04-88.95c10.9,27.41,29.04,63.76,52.32,64.14c33.57,0.55,50.83-74.08,82.71-71.73
						c30.33,2.24,37.49,71.53,65.83,73.42c20.18,1.35,39.77-32.24,55.7-70.05"/>
					<path class="st6" d="M513.2-77.97c10.9,27.41,29.04,63.76,52.32,64.14c33.57,0.55,50.83-74.08,82.71-71.73
						c30.33,2.24,37.49,71.53,65.83,73.42c20.18,1.35,39.77-32.24,55.7-70.05"/>
				</g>
				<g>
					<path class="st4" d="M259.1-66.75C270-39.34,288.14-3,311.43-2.61c33.57,0.55,50.83-74.08,82.71-71.73
						c30.33,2.24,37.49,71.53,65.83,73.42c20.18,1.35,39.77-32.24,55.7-70.05"/>
					<path class="st4" d="M255.77-75.09c10.9,27.41,29.04,63.76,52.32,64.14c33.57,0.55,50.83-74.08,82.71-71.73
						c30.33,2.24,37.49,71.53,65.83,73.42c20.18,1.35,39.77-32.24,55.7-70.05"/>
					<path class="st5" d="M256.58-88.95c10.9,27.41,29.04,63.76,52.32,64.14c33.57,0.55,50.83-74.08,82.71-71.73
						c30.33,2.24,37.49,71.53,65.83,73.42c20.18,1.35,39.77-32.24,55.7-70.05"/>
					<path class="st4" d="M258.27-113.42c10.9,27.41,29.04,63.76,52.32,64.14c33.57,0.55,50.83-74.08,82.71-71.73
						c30.33,2.24,37.49,71.53,65.83,73.42c20.18,1.35,39.77-32.24,55.7-70.05"/>
					<path class="st6" d="M255.74-77.97c10.9,27.41,29.04,63.76,52.32,64.14c33.57,0.55,50.83-74.08,82.71-71.73
						c30.33,2.24,37.49,71.53,65.83,73.42c20.18,1.35,39.77-32.24,55.7-70.05"/>
				</g>
				<g>
					<path class="st4" d="M1.65-66.75C12.55-39.34,30.68-3,53.97-2.61c33.57,0.55,50.83-74.08,82.71-71.73
						c30.33,2.24,37.49,71.53,65.83,73.42c20.18,1.35,39.77-32.24,55.7-70.05"/>
					<path class="st4" d="M0.81-113.42c10.9,27.41,29.04,63.76,52.33,64.14c33.57,0.55,50.83-74.08,82.71-71.73
						c30.33,2.24,37.49,71.53,65.83,73.42c20.18,1.35,39.77-32.24,55.7-70.05"/>
				</g>
				<g>
					<path class="st5" d="M514.87-151.63c10.9,27.41,29.04,63.76,52.32,64.14c33.57,0.55,50.83-74.08,82.71-71.73
						c30.33,2.24,37.49,71.53,65.83,73.42c20.18,1.35,39.77-32.24,55.7-70.05"/>
					<path class="st6" d="M514.03-140.65c10.9,27.41,29.04,63.76,52.32,64.14c33.57,0.55,50.83-74.08,82.71-71.73
						c30.33,2.24,37.49,71.53,65.83,73.42c20.18,1.35,39.77-32.24,55.7-70.05"/>
					<path class="st5" d="M513.21-109.13c10.9,27.41,29.04,63.76,52.32,64.14c33.57,0.55,50.83-74.08,82.71-71.73
						c30.33,2.24,37.49,71.53,65.83,73.42c20.18,1.35,39.77-32.24,55.7-70.05"/>
					<path class="st4" d="M514.89-133.6c10.9,27.41,29.04,63.76,52.32,64.14c33.57,0.55,50.83-74.08,82.71-71.73
						c30.33,2.24,37.49,71.53,65.83,73.42c20.18,1.35,39.77-32.24,55.7-70.05"/>
					<path class="st6" d="M512.36-98.15c10.9,27.41,29.04,63.76,52.32,64.14c33.57,0.55,50.83-74.08,82.71-71.73
						c30.33,2.24,37.49,71.53,65.83,73.42c20.18,1.35,39.77-32.24,55.7-70.05"/>
					<path class="st5" d="M510.71-97.46c10.9,27.41,29.04,63.76,52.32,64.14c33.57,0.55,50.83-74.08,82.71-71.73
						c30.33,2.24,37.49,71.53,65.83,73.42c20.18,1.35,39.77-32.24,55.7-70.05"/>
					<path class="st4" d="M512.39-121.93c10.9,27.41,29.04,63.76,52.32,64.14c33.57,0.55,50.83-74.08,82.71-71.73
						c30.33,2.24,37.49,71.53,65.83,73.42c20.18,1.35,39.77-32.24,55.7-70.05"/>
					<path class="st6" d="M509.86-86.49c10.9,27.41,29.04,63.76,52.32,64.14c33.57,0.55,50.83-74.08,82.71-71.73
						c30.33,2.24,37.49,71.53,65.83,73.42c20.18,1.35,39.77-32.24,55.7-70.05"/>
					<path class="st5" d="M511.54-159.96c10.9,27.41,29.04,63.76,52.32,64.14c33.57,0.55,50.83-74.08,82.71-71.73
						c30.33,2.24,37.49,71.53,65.83,73.42c20.18,1.35,39.77-32.24,55.7-70.05"/>
					<path class="st4" d="M513.23-184.43c10.9,27.41,29.04,63.76,52.32,64.14c33.57,0.55,50.83-74.08,82.71-71.73
						c30.33,2.24,37.49,71.53,65.83,73.42c20.18,1.35,39.77-32.24,55.7-70.05"/>
					<path class="st6" d="M510.7-148.99c10.9,27.41,29.04,63.76,52.32,64.14c33.57,0.55,50.83-74.08,82.71-71.73
						c30.33,2.24,37.49,71.53,65.83,73.42c20.18,1.35,39.77-32.24,55.7-70.05"/>
					<path class="st5" d="M513.21-124.13c10.9,27.41,29.04,63.76,52.32,64.14c33.57,0.55,50.83-74.08,82.71-71.73
						c30.33,2.24,37.49,71.53,65.83,73.42c20.18,1.35,39.77-32.24,55.7-70.05"/>
					<path class="st7" d="M514.89-135.1c10.9,27.41,29.04,63.76,52.32,64.14c33.57,0.55,50.83-74.08,82.71-71.73
						c30.33,2.24,37.49,71.53,65.83,73.42c20.18,1.35,39.77-32.24,55.7-70.05"/>
					<path class="st6" d="M512.36-113.15c10.9,27.41,29.04,63.76,52.32,64.14c33.57,0.55,50.83-74.08,82.71-71.73
						c30.33,2.24,37.49,71.53,65.83,73.42c20.18,1.35,39.77-32.24,55.7-70.05"/>
					<path class="st5" d="M511.54-81.63c10.9,27.41,29.04,63.76,52.32,64.14c33.57,0.55,50.83-74.08,82.71-71.73
						c30.33,2.24,37.49,71.53,65.83,73.42c20.18,1.35,39.77-32.24,55.7-70.05"/>
					<path class="st4" d="M513.23-106.1c10.9,27.41,29.04,63.76,52.32,64.14c33.57,0.55,50.83-74.08,82.71-71.73
						c30.33,2.24,37.49,71.53,65.83,73.42c20.18,1.35,39.77-32.24,55.7-70.05"/>
					<path class="st6" d="M510.7-70.65c10.9,27.41,29.04,63.76,52.32,64.14c33.57,0.55,50.83-74.08,82.71-71.73
						c30.33,2.23,37.49,71.52,65.82,73.41c20.18,1.35,39.77-32.24,55.7-70.05"/>
					<path class="st5" d="M509.04-69.96c10.9,27.41,29.04,63.76,52.32,64.14c33.57,0.55,50.83-74.08,82.71-71.73
						c30.33,2.24,37.49,71.53,65.83,73.42c20.18,1.35,39.77-32.24,55.7-70.05"/>
					<path class="st4" d="M510.73-94.43c10.9,27.41,29.04,63.76,52.32,64.14c33.57,0.55,50.83-74.08,82.71-71.73
						c30.33,2.24,37.49,71.53,65.83,73.42c20.18,1.35,39.77-32.24,55.7-70.05"/>
					<path class="st5" d="M509.87-132.46c10.9,27.41,29.04,63.76,52.32,64.14c33.57,0.55,50.83-74.08,82.71-71.73
						c30.33,2.24,37.49,71.53,65.83,73.42c20.18,1.35,39.77-32.24,55.7-70.05"/>
					<path class="st6" d="M509.03-121.49c10.9,27.41,29.04,63.76,52.32,64.14c33.57,0.55,50.83-74.08,82.71-71.73
						c30.33,2.24,37.49,71.53,65.83,73.42c20.18,1.35,39.77-32.24,55.7-70.05"/>
					<path class="st5" d="M514.04-198.29c10.9,27.41,29.04,63.76,52.32,64.14c33.57,0.55,50.83-74.08,82.71-71.73
						c30.33,2.24,37.49,71.53,65.83,73.42c20.18,1.35,39.77-32.24,55.7-70.05"/>
					<path class="st6" d="M513.2-187.32c10.9,27.41,29.04,63.76,52.32,64.14c33.57,0.55,50.83-74.08,82.71-71.73
						c30.33,2.24,37.49,71.53,65.83,73.42c20.18,1.35,39.77-32.24,55.7-70.05"/>
				</g>
				<g>
					<path class="st5" d="M257.42-151.63c10.9,27.41,29.04,63.76,52.32,64.14c33.57,0.55,50.83-74.08,82.71-71.73
						c30.33,2.24,37.49,71.53,65.83,73.42c20.18,1.35,39.77-32.24,55.7-70.05"/>
					<path class="st7" d="M259.1-162.6c10.9,27.41,29.04,63.76,52.32,64.14c33.57,0.55,50.83-74.08,82.71-71.73
						c30.33,2.24,37.49,71.53,65.83,73.42c20.18,1.35,39.77-32.24,55.7-70.05"/>
					<path class="st4" d="M259.1-176.1c10.9,27.41,29.04,63.76,52.32,64.14c33.57,0.55,50.83-74.08,82.71-71.73
						c30.33,2.24,37.49,71.53,65.83,73.42c20.18,1.35,39.77-32.24,55.7-70.05"/>
					<path class="st6" d="M256.57-140.65c10.9,27.41,29.04,63.76,52.32,64.14c33.57,0.55,50.83-74.08,82.71-71.73
						c30.33,2.24,37.49,71.53,65.83,73.42c20.18,1.35,39.77-32.24,55.7-70.05"/>
					<path class="st5" d="M255.75-109.13c10.9,27.41,29.04,63.76,52.32,64.14c33.57,0.55,50.83-74.08,82.71-71.73
						c30.33,2.24,37.49,71.53,65.83,73.42c20.18,1.35,39.77-32.24,55.7-70.05"/>
					<path class="st4" d="M257.44-133.6c10.9,27.41,29.04,63.76,52.32,64.14c33.57,0.55,50.83-74.08,82.71-71.73
						c30.33,2.24,37.49,71.53,65.83,73.42c20.18,1.35,39.77-32.24,55.7-70.05"/>
					<path class="st6" d="M254.91-98.15c10.9,27.41,29.04,63.76,52.32,64.14c33.57,0.55,50.83-74.08,82.71-71.73
						c30.33,2.24,37.49,71.53,65.83,73.42c20.18,1.35,39.77-32.24,55.7-70.05"/>
					<path class="st5" d="M253.25-97.46c10.9,27.41,29.04,63.76,52.32,64.14c33.57,0.55,50.83-74.08,82.71-71.73
						c30.33,2.24,37.49,71.53,65.83,73.42c20.18,1.35,39.77-32.24,55.7-70.05"/>
					<path class="st4" d="M254.94-121.93c10.9,27.41,29.04,63.76,52.32,64.14c33.57,0.55,50.83-74.08,82.71-71.73
						c30.33,2.24,37.49,71.53,65.83,73.42c20.18,1.35,39.77-32.24,55.7-70.05"/>
					<path class="st6" d="M252.41-86.49c10.9,27.41,29.04,63.76,52.32,64.14c33.57,0.55,50.83-74.08,82.71-71.73
						c30.33,2.24,37.49,71.53,65.83,73.42c20.18,1.35,39.77-32.24,55.7-70.05"/>
					<path class="st5" d="M254.08-159.96c10.9,27.41,29.04,63.76,52.32,64.14c33.57,0.55,50.83-74.08,82.71-71.73
						c30.33,2.24,37.49,71.53,65.83,73.42c20.18,1.35,39.77-32.24,55.7-70.05"/>
					<path class="st4" d="M255.77-184.43c10.9,27.41,29.04,63.76,52.32,64.14c33.57,0.55,50.83-74.08,82.71-71.73
						c30.33,2.24,37.49,71.53,65.83,73.42c20.18,1.35,39.77-32.24,55.7-70.05"/>
					<path class="st6" d="M253.24-148.99c10.9,27.41,29.04,63.76,52.32,64.14c33.57,0.55,50.83-74.08,82.71-71.73
						c30.33,2.24,37.49,71.53,65.83,73.42c20.18,1.35,39.77-32.24,55.7-70.05"/>
					<path class="st5" d="M255.75-124.13c10.9,27.41,29.04,63.76,52.32,64.14c33.57,0.55,50.83-74.08,82.71-71.73
						c30.33,2.24,37.49,71.53,65.83,73.42c20.18,1.35,39.77-32.24,55.7-70.05"/>
					<path class="st7" d="M257.44-135.1c10.9,27.41,29.04,63.76,52.32,64.14c33.57,0.55,50.83-74.08,82.71-71.73
						c30.33,2.24,37.49,71.53,65.83,73.42c20.18,1.35,39.77-32.24,55.7-70.05"/>
					<path class="st6" d="M254.91-113.15c10.9,27.41,29.04,63.76,52.32,64.14c33.57,0.55,50.83-74.08,82.71-71.73
						c30.33,2.24,37.49,71.53,65.83,73.42c20.18,1.35,39.77-32.24,55.7-70.05"/>
					<path class="st5" d="M254.08-81.63c10.9,27.41,29.04,63.76,52.32,64.14c33.57,0.55,50.83-74.08,82.71-71.73
						c30.33,2.24,37.49,71.53,65.83,73.42c20.18,1.35,39.77-32.24,55.7-70.05"/>
					<path class="st4" d="M255.77-106.1c10.9,27.41,29.04,63.76,52.32,64.14c33.57,0.55,50.83-74.08,82.71-71.73
						c30.33,2.24,37.49,71.53,65.83,73.42c20.18,1.35,39.77-32.24,55.7-70.05"/>
					<path class="st6" d="M253.24-70.65c10.9,27.41,29.04,63.76,52.32,64.14c33.57,0.55,50.83-74.08,82.71-71.73
						c30.33,2.23,37.49,71.52,65.82,73.41c20.18,1.35,39.77-32.24,55.7-70.05"/>
					<path class="st5" d="M251.58-69.96c10.9,27.41,29.04,63.76,52.32,64.14c33.57,0.55,50.83-74.08,82.71-71.73
						c30.33,2.24,37.49,71.53,65.83,73.42c20.18,1.35,39.77-32.24,55.7-70.05"/>
					<path class="st4" d="M253.27-94.43c10.9,27.41,29.04,63.76,52.32,64.14c33.57,0.55,50.83-74.08,82.71-71.73
						c30.33,2.24,37.49,71.53,65.83,73.42c20.18,1.35,39.77-32.24,55.7-70.05"/>
					<path class="st5" d="M252.42-132.46c10.9,27.41,29.04,63.76,52.32,64.14c33.57,0.55,50.83-74.08,82.71-71.73
						c30.33,2.24,37.49,71.53,65.83,73.42c20.18,1.35,39.77-32.24,55.7-70.05"/>
					<path class="st6" d="M251.57-121.49c10.9,27.41,29.04,63.76,52.32,64.14c33.57,0.55,50.83-74.08,82.71-71.73
						c30.33,2.24,37.49,71.53,65.83,73.42c20.18,1.35,39.77-32.24,55.7-70.05"/>
					<path class="st5" d="M256.58-198.29c10.9,27.41,29.04,63.76,52.32,64.14c33.57,0.55,50.83-74.08,82.71-71.73
						c30.33,2.24,37.49,71.53,65.83,73.42c20.18,1.35,39.77-32.24,55.7-70.05"/>
					<path class="st4" d="M258.27-222.77c10.9,27.41,29.04,63.76,52.32,64.14c33.57,0.55,50.83-74.08,82.71-71.73
						c30.33,2.24,37.49,71.53,65.83,73.42c20.18,1.35,39.77-32.24,55.7-70.05"/>
					<path class="st6" d="M255.74-187.32c10.9,27.41,29.04,63.76,52.32,64.14c33.57,0.55,50.83-74.08,82.71-71.73
						c30.33,2.24,37.49,71.53,65.83,73.42c20.18,1.35,39.77-32.24,55.7-70.05"/>
				</g>
				<g>
					<path class="st7" d="M1.65-162.6c10.9,27.41,29.04,63.76,52.32,64.14c33.57,0.55,50.83-74.08,82.71-71.73
						c30.33,2.24,37.49,71.53,65.83,73.42c20.18,1.35,39.77-32.24,55.7-70.05"/>
					<path class="st4" d="M1.65-176.1c10.9,27.41,29.04,63.76,52.32,64.14c33.57,0.55,50.83-74.08,82.71-71.73
						c30.33,2.24,37.49,71.53,65.83,73.42c20.18,1.35,39.77-32.24,55.7-70.05"/>
					<path class="st4" d="M0.81-222.77c10.9,27.41,29.04,63.76,52.32,64.14c33.57,0.55,50.83-74.08,82.71-71.73
						c30.33,2.24,37.49,71.53,65.83,73.42c20.18,1.35,39.77-32.24,55.7-70.05"/>
				</g>
				<g>
					<path class="st6" d="M514.03-250c10.9,27.41,29.04,63.76,52.32,64.14c33.57,0.55,50.83-74.08,82.71-71.73
						c30.33,2.24,37.49,71.53,65.83,73.42c20.18,1.35,39.77-32.24,55.7-70.05"/>
					<path class="st5" d="M513.21-218.47c10.9,27.41,29.04,63.76,52.32,64.14c33.57,0.55,50.83-74.08,82.71-71.73
						c30.33,2.24,37.49,71.53,65.83,73.42c20.18,1.35,39.77-32.24,55.7-70.05"/>
					<path class="st4" d="M514.89-242.95c10.9,27.41,29.04,63.76,52.32,64.14c33.57,0.55,50.83-74.08,82.71-71.73
						c30.33,2.24,37.49,71.53,65.83,73.42c20.18,1.35,39.77-32.24,55.7-70.05"/>
					<path class="st6" d="M512.36-207.5c10.9,27.41,29.04,63.76,52.32,64.14c33.57,0.55,50.83-74.08,82.71-71.73
						c30.33,2.24,37.49,71.53,65.83,73.42c20.18,1.35,39.77-32.24,55.7-70.05"/>
					<path class="st5" d="M510.71-206.8c10.9,27.41,29.04,63.76,52.32,64.14c33.57,0.55,50.83-74.08,82.71-71.73
						c30.33,2.24,37.49,71.53,65.83,73.42c20.18,1.35,39.77-32.24,55.7-70.05"/>
					<path class="st4" d="M512.39-231.28c10.9,27.41,29.04,63.76,52.32,64.14c33.57,0.55,50.83-74.08,82.71-71.73
						c30.33,2.24,37.49,71.53,65.83,73.42c20.18,1.35,39.77-32.24,55.7-70.05"/>
					<path class="st6" d="M509.86-195.83c10.9,27.41,29.04,63.76,52.32,64.14c33.57,0.55,50.83-74.08,82.71-71.73
						c30.33,2.24,37.49,71.53,65.83,73.42c20.18,1.35,39.77-32.24,55.7-70.05"/>
					<path class="st5" d="M513.21-233.47c10.9,27.41,29.04,63.76,52.32,64.14c33.57,0.55,50.83-74.08,82.71-71.73
						c30.33,2.24,37.49,71.53,65.83,73.42c20.18,1.35,39.77-32.24,55.7-70.05"/>
					<path class="st7" d="M514.89-244.44c10.9,27.41,29.04,63.76,52.32,64.14c33.57,0.55,50.83-74.08,82.71-71.73
						c30.33,2.24,37.49,71.53,65.83,73.42c20.18,1.35,39.77-32.24,55.7-70.05"/>
					<path class="st6" d="M512.36-222.5c10.9,27.41,29.04,63.76,52.32,64.14c33.57,0.55,50.83-74.08,82.71-71.73
						c30.33,2.24,37.49,71.53,65.83,73.42c20.18,1.35,39.77-32.24,55.7-70.05"/>
					<path class="st5" d="M511.54-190.97c10.9,27.41,29.04,63.76,52.32,64.14c33.57,0.55,50.83-74.08,82.71-71.73
						c30.33,2.24,37.49,71.53,65.83,73.42c20.18,1.35,39.77-32.24,55.7-70.05"/>
					<path class="st4" d="M513.23-215.45c10.9,27.41,29.04,63.76,52.32,64.14c33.57,0.55,50.83-74.08,82.71-71.73
						c30.33,2.24,37.49,71.53,65.83,73.42c20.18,1.35,39.77-32.24,55.7-70.05"/>
					<path class="st6" d="M510.7-180c10.9,27.41,29.04,63.76,52.32,64.14c33.57,0.55,50.83-74.08,82.71-71.73
						c30.33,2.24,37.49,71.53,65.83,73.42c20.18,1.35,39.77-32.24,55.7-70.05"/>
					<path class="st5" d="M509.04-179.3c10.9,27.41,29.04,63.76,52.32,64.14c33.57,0.55,50.83-74.08,82.71-71.73
						c30.33,2.24,37.49,71.53,65.83,73.42c20.18,1.35,39.77-32.24,55.7-70.05"/>
					<path class="st4" d="M510.73-203.78c10.9,27.41,29.04,63.76,52.32,64.14c33.57,0.55,50.83-74.08,82.71-71.73
						c30.33,2.24,37.49,71.53,65.83,73.42c20.18,1.35,39.77-32.24,55.7-70.05"/>
					<path class="st5" d="M509.87-241.8c10.9,27.41,29.04,63.76,52.32,64.14c33.57,0.55,50.83-74.08,82.71-71.73
						c30.33,2.24,37.49,71.53,65.83,73.42c20.18,1.35,39.77-32.24,55.7-70.05"/>
					<path class="st6" d="M509.03-230.83c10.9,27.41,29.04,63.76,52.32,64.14c33.57,0.55,50.83-74.08,82.71-71.73
						c30.33,2.24,37.49,71.53,65.83,73.42c20.18,1.35,39.77-32.24,55.7-70.05"/>
				</g>
				<g>
					<path class="st6" d="M256.57-250c10.9,27.41,29.04,63.76,52.32,64.14c33.57,0.55,50.83-74.08,82.71-71.73
						c30.33,2.24,37.49,71.53,65.83,73.42c20.18,1.35,39.77-32.24,55.7-70.05"/>
					<path class="st5" d="M255.75-218.47c10.9,27.41,29.04,63.76,52.32,64.14c33.57,0.55,50.83-74.08,82.71-71.73
						c30.33,2.24,37.49,71.53,65.83,73.42c20.18,1.35,39.77-32.24,55.7-70.05"/>
					<path class="st4" d="M257.44-242.95c10.9,27.41,29.04,63.76,52.32,64.14c33.57,0.55,50.83-74.08,82.71-71.73
						c30.33,2.24,37.49,71.53,65.83,73.42c20.18,1.35,39.77-32.24,55.7-70.05"/>
					<path class="st6" d="M254.91-207.5c10.9,27.41,29.04,63.76,52.32,64.14c33.57,0.55,50.83-74.08,82.71-71.73
						c30.33,2.24,37.49,71.53,65.83,73.42c20.18,1.35,39.77-32.24,55.7-70.05"/>
					<path class="st5" d="M253.25-206.8c10.9,27.41,29.04,63.76,52.32,64.14c33.57,0.55,50.83-74.08,82.71-71.73
						c30.33,2.24,37.49,71.53,65.83,73.42c20.18,1.35,39.77-32.24,55.7-70.05"/>
					<path class="st4" d="M254.94-231.28c10.9,27.41,29.04,63.76,52.32,64.14c33.57,0.55,50.83-74.08,82.71-71.73
						c30.33,2.24,37.49,71.53,65.83,73.42c20.18,1.35,39.77-32.24,55.7-70.05"/>
					<path class="st6" d="M252.41-195.83c10.9,27.41,29.04,63.76,52.32,64.14c33.57,0.55,50.83-74.08,82.71-71.73
						c30.33,2.24,37.49,71.53,65.83,73.42c20.18,1.35,39.77-32.24,55.7-70.05"/>
					<path class="st5" d="M255.75-233.47c10.9,27.41,29.04,63.76,52.32,64.14c33.57,0.55,50.83-74.08,82.71-71.73
						c30.33,2.24,37.49,71.53,65.83,73.42c20.18,1.35,39.77-32.24,55.7-70.05"/>
					<path class="st7" d="M257.44-244.44c10.9,27.41,29.04,63.76,52.32,64.14c33.57,0.55,50.83-74.08,82.71-71.73
						c30.33,2.24,37.49,71.53,65.83,73.42c20.18,1.35,39.77-32.24,55.7-70.05"/>
					<path class="st6" d="M254.91-222.5c10.9,27.41,29.04,63.76,52.32,64.14c33.57,0.55,50.83-74.08,82.71-71.73
						c30.33,2.24,37.49,71.53,65.83,73.42c20.18,1.35,39.77-32.24,55.7-70.05"/>
					<path class="st5" d="M254.08-190.97c10.9,27.41,29.04,63.76,52.32,64.14c33.57,0.55,50.83-74.08,82.71-71.73
						c30.33,2.24,37.49,71.53,65.83,73.42c20.18,1.35,39.77-32.24,55.7-70.05"/>
					<path class="st4" d="M255.77-215.45c10.9,27.41,29.04,63.76,52.32,64.14c33.57,0.55,50.83-74.08,82.71-71.73
						c30.33,2.24,37.49,71.53,65.83,73.42c20.18,1.35,39.77-32.24,55.7-70.05"/>
					<path class="st6" d="M253.24-180c10.9,27.41,29.04,63.76,52.32,64.14c33.57,0.55,50.83-74.08,82.71-71.73
						c30.33,2.24,37.49,71.53,65.83,73.42c20.18,1.35,39.77-32.24,55.7-70.05"/>
					<path class="st5" d="M251.58-179.3c10.9,27.41,29.04,63.76,52.32,64.14c33.57,0.55,50.83-74.08,82.71-71.73
						c30.33,2.24,37.49,71.53,65.83,73.42c20.18,1.35,39.77-32.24,55.7-70.05"/>
					<path class="st4" d="M253.27-203.78c10.9,27.41,29.04,63.76,52.32,64.14c33.57,0.55,50.83-74.08,82.71-71.73
						c30.33,2.24,37.49,71.53,65.83,73.42c20.18,1.35,39.77-32.24,55.7-70.05"/>
					<path class="st5" d="M252.42-241.8c10.9,27.41,29.04,63.76,52.32,64.14c33.57,0.55,50.83-74.08,82.71-71.73
						c30.33,2.24,37.49,71.53,65.83,73.42c20.18,1.35,39.77-32.24,55.7-70.05"/>
					<path class="st6" d="M251.57-230.83c10.9,27.41,29.04,63.76,52.32,64.14c33.57,0.55,50.83-74.08,82.71-71.73
						c30.33,2.24,37.49,71.53,65.83,73.42c20.18,1.35,39.77-32.24,55.7-70.05"/>
				</g>
			</g>
		</g>
	</g>
</pattern>
<pattern  x="-297.77" y="237.74" width="225.85" height="226.9" patternUnits="userSpaceOnUse" id="SVGID_0000010253959482076754940" viewBox="138.3 -450.02 225.85 226.9" style="overflow:visible;">
	<g>
		<rect x="138.3" y="-450.02" class="st0" width="225.85" height="226.9"/>
		<g>
			<rect x="138.3" y="-450.02" class="st0" width="225.85" height="226.9"/>
			<g>
				<rect x="138.3" y="-450.02" class="st0" width="225.85" height="226.9"/>
				<g>
					<polyline class="st1" points="410.17,-174.7 403.45,-79.3 400.23,-222.1 398.91,-148.28 394.58,-181.81 393.32,-87.31 
						388.8,-208.47 385.18,-115.98 381.47,-195.78 379.21,-77.67 377.82,-203.71 374.59,-115.14 370.13,-241.23 369.35,-54.18 
						366.12,-195.99 366.18,-20.75 362.38,-248.23 361.23,-136.01 359.24,-165.57 358.61,-118.32 355.51,-167.59 356.16,-87.84 
											"/>
				</g>
				<g>
					<polyline class="st1" points="339.33,-170.84 330.93,-75.58 330.23,-218.42 327.6,-144.63 323.87,-178.24 320.95,-83.78 
						318.56,-205.01 313.31,-112.6 311,-192.45 306.67,-74.4 307.5,-200.44 302.71,-111.96 300.47,-238.1 296.39,-51.1 
						295.66,-192.95 292.63,-17.73 292.85,-245.24 289.72,-133.06 288.24,-162.66 286.78,-115.43 284.55,-164.75 283.79,-85 					
						"/>
					<polyline class="st1" points="246.32,-168.87 237.91,-73.61 237.21,-216.45 234.59,-142.66 230.85,-176.27 227.93,-81.81 
						225.54,-203.04 220.29,-110.63 217.99,-190.48 213.65,-72.43 214.48,-198.48 209.69,-109.99 207.46,-236.13 203.38,-49.13 
						202.65,-190.98 199.61,-15.76 199.83,-243.28 196.7,-131.1 195.23,-160.69 193.77,-113.46 191.54,-162.78 190.78,-83.03 					
						"/>
					<polyline class="st1" points="184.32,-174.7 177.59,-79.3 174.38,-222.1 173.06,-148.28 168.73,-181.81 167.47,-87.31 
						162.94,-208.47 159.32,-115.98 155.61,-195.78 153.36,-77.67 151.97,-203.71 148.74,-115.14 144.28,-241.23 143.5,-54.18 
						140.27,-195.99 140.32,-20.75 136.53,-248.23 135.38,-136.01 133.38,-165.57 132.75,-118.32 129.66,-167.59 130.3,-87.84 					
						"/>
					<polyline class="st2" points="301.02,-153.84 282.73,-58.9 272.77,-202.04 269.53,-128.27 257.15,-162.16 254.22,-67.71 
						240.72,-189.29 231.15,-97.02 220.19,-177.16 214.62,-59.15 209.89,-185.37 201.4,-97.01 188.05,-223.51 187.06,-36.41 
						177.06,-178.56 178.35,-3.2 166.22,-231.12 163.71,-118.92 157.91,-148.66 156.45,-101.43 147.43,-150.97 149.75,-71.11 					
						"/>
					<polyline class="st2" points="380.61,-151.87 362.33,-56.93 352.36,-200.07 349.12,-126.3 336.74,-160.19 333.82,-65.74 
						320.31,-187.32 310.74,-95.05 299.79,-175.19 294.21,-57.18 289.49,-183.4 280.99,-95.04 267.64,-221.54 266.65,-34.44 
						256.66,-176.6 257.94,-1.24 245.81,-229.15 243.3,-116.95 237.5,-146.69 236.04,-99.46 227.02,-149 229.34,-69.14 					"/>
					<polyline class="st3" points="384.4,-153.12 376,-57.86 375.3,-200.7 372.67,-126.91 368.94,-160.52 366.01,-66.06 
						363.62,-187.29 358.38,-94.88 356.07,-174.73 351.74,-56.68 352.57,-182.72 347.78,-94.24 345.54,-220.38 341.46,-33.38 
						340.73,-175.23 337.7,-0.01 337.92,-227.52 334.79,-115.34 333.31,-144.94 331.85,-97.71 329.62,-147.03 328.86,-67.28 					
						"/>
				</g>
				<g>
					<polyline class="st2" points="154.76,-151.87 136.47,-56.93 126.51,-200.07 123.27,-126.3 110.88,-160.19 107.96,-65.74 
						94.46,-187.32 84.88,-95.05 73.93,-175.19 68.36,-57.18 63.63,-183.4 55.14,-95.04 41.79,-221.54 40.79,-34.44 30.8,-176.6 
						32.09,-1.24 19.96,-229.15 17.44,-116.95 11.65,-146.69 10.19,-99.46 1.17,-149 3.49,-69.14 					"/>
					<polyline class="st3" points="158.55,-153.12 150.14,-57.86 149.45,-200.7 146.82,-126.91 143.08,-160.52 140.16,-66.06 
						137.77,-187.29 132.52,-94.88 130.22,-174.73 125.88,-56.68 126.71,-182.72 121.93,-94.24 119.69,-220.38 115.61,-33.38 
						114.88,-175.23 111.85,-0.01 112.06,-227.52 108.93,-115.34 107.46,-144.94 106,-97.71 103.77,-147.03 103.01,-67.28 					"/>
				</g>
				<g>
					<polyline class="st1" points="410.17,-401.6 403.45,-306.19 400.23,-448.99 398.91,-375.17 394.58,-408.71 393.32,-314.21 
						388.8,-435.37 385.18,-342.88 381.47,-422.68 379.21,-304.56 377.82,-430.6 374.59,-342.04 370.13,-468.12 369.35,-281.07 
						366.12,-422.89 366.18,-247.64 362.38,-475.12 361.23,-362.9 359.24,-392.47 358.61,-345.22 355.51,-394.49 356.16,-314.73 
											"/>
					<polyline class="st1" points="343.91,-272.27 352.01,-367.56 353.16,-224.73 355.55,-298.52 359.4,-264.92 362.02,-359.39 
						364.79,-238.17 369.75,-330.6 372.31,-250.76 376.27,-368.82 375.84,-242.77 380.34,-331.28 382.98,-205.14 386.47,-392.16 
						387.65,-250.31 390.13,-425.53 390.63,-198.02 393.4,-310.21 394.97,-280.62 396.28,-327.86 398.67,-278.54 399.18,-358.3 
											"/>
				</g>
				<g>
					<polyline class="st1" points="339.33,-397.74 330.93,-302.48 330.23,-445.31 327.6,-371.53 323.87,-405.14 320.95,-310.68 
						318.56,-431.91 313.31,-339.49 311,-419.35 306.67,-301.3 307.5,-427.34 302.71,-338.85 300.47,-465 296.39,-277.99 
						295.66,-419.85 292.63,-244.63 292.85,-472.14 289.72,-359.96 288.24,-389.56 286.78,-342.33 284.55,-391.65 283.79,-311.89 
											"/>
					<polyline class="st1" points="246.32,-395.77 237.91,-300.51 237.21,-443.35 234.59,-369.56 230.85,-403.17 227.93,-308.71 
						225.54,-429.94 220.29,-337.52 217.99,-417.38 213.65,-299.33 214.48,-425.37 209.69,-336.89 207.46,-463.03 203.38,-276.03 
						202.65,-417.88 199.61,-242.66 199.83,-470.17 196.7,-357.99 195.23,-387.59 193.77,-340.36 191.54,-389.68 190.78,-309.92 
											"/>
					<polyline class="st1" points="175.98,-276.14 186.32,-371.2 184.12,-228.38 188.24,-302.09 191.3,-268.41 196.14,-362.79 
						196.07,-241.54 203.19,-333.82 203.87,-253.93 210.6,-371.86 207.22,-245.86 213.8,-334.23 213.47,-208.07 221.35,-394.94 
						219.2,-253.1 225.78,-428.22 220.95,-200.76 226.36,-312.85 227.23,-283.23 229.65,-330.42 230.88,-281.06 233.26,-360.78 
											"/>
					<polyline class="st1" points="281.47,-286.97 291.8,-382.03 289.61,-239.21 293.73,-312.92 296.78,-279.24 301.62,-373.62 
						301.55,-252.37 308.67,-344.65 309.36,-264.76 316.08,-382.69 312.7,-256.69 319.28,-345.06 318.96,-218.89 326.83,-405.77 
						324.68,-263.93 331.27,-439.05 326.44,-211.59 331.84,-323.68 332.71,-294.06 335.13,-341.25 336.36,-291.89 338.74,-371.61 
											"/>
					<polyline class="st1" points="318.87,-284.02 329.2,-379.08 327,-236.26 331.12,-309.97 334.18,-276.29 339.02,-370.66 
						338.95,-249.41 346.07,-341.69 346.75,-261.81 353.48,-379.74 350.1,-253.74 356.68,-342.11 356.35,-215.94 364.23,-402.82 
						362.08,-260.98 368.67,-436.1 363.83,-208.64 369.24,-320.73 370.11,-291.1 372.53,-338.29 373.76,-288.94 376.14,-368.66 
											"/>
					<polyline class="st1" points="184.32,-401.6 177.59,-306.19 174.38,-448.99 173.06,-375.17 168.73,-408.71 167.47,-314.21 
						162.94,-435.37 159.32,-342.88 155.61,-422.68 153.36,-304.56 151.97,-430.6 148.74,-342.04 144.28,-468.12 143.5,-281.07 
						140.27,-422.89 140.32,-247.64 136.53,-475.12 135.38,-362.9 133.38,-392.47 132.75,-345.22 129.66,-394.49 130.3,-314.73 
											"/>
					<polyline class="st1" points="118.05,-272.27 126.16,-367.56 127.31,-224.73 129.7,-298.52 133.54,-264.92 136.17,-359.39 
						138.94,-238.17 143.9,-330.6 146.45,-250.76 150.42,-368.82 149.98,-242.77 154.49,-331.28 157.13,-205.14 160.62,-392.16 
						161.79,-250.31 164.27,-425.53 164.78,-198.02 167.55,-310.21 169.12,-280.62 170.43,-327.86 172.81,-278.54 173.32,-358.3 
											"/>
					<polyline class="st2" points="160.75,-292.69 176.1,-388.18 190.48,-245.44 191.44,-319.27 204.86,-285.8 204.86,-380.3 
						222.12,-259.22 228.84,-351.76 242.26,-272.02 244.18,-390.15 252.81,-264.14 258.56,-352.74 275.82,-226.73 271.03,-413.77 
						285.41,-272.02 278.7,-447.25 297.88,-219.84 296.92,-332.07 303.63,-302.53 303.63,-349.79 314.18,-300.56 309.39,-380.3 
											"/>
					<polyline class="st2" points="294.31,-362.03 276.02,-267.09 266.06,-410.23 262.82,-336.47 250.43,-370.36 247.51,-275.9 
						234,-397.49 224.43,-305.21 213.48,-385.35 207.91,-267.34 203.18,-393.57 194.69,-305.2 181.34,-431.71 180.34,-244.6 
						170.35,-386.76 171.64,-211.4 159.51,-439.31 156.99,-327.11 151.2,-356.85 149.74,-309.62 140.72,-359.16 143.04,-279.31 
											"/>
					<polyline class="st2" points="301.02,-380.74 282.73,-285.79 272.77,-428.93 269.53,-355.17 257.15,-389.06 254.22,-294.6 
						240.72,-416.19 231.15,-323.92 220.19,-404.06 214.62,-286.05 209.89,-412.27 201.4,-323.9 188.05,-450.41 187.06,-263.31 
						177.06,-405.46 178.35,-230.1 166.22,-458.02 163.71,-345.82 157.91,-375.55 156.45,-328.33 147.43,-377.87 149.75,-298.01 
											"/>
					<polyline class="st2" points="356.64,-360.06 338.35,-265.12 328.39,-408.26 325.15,-334.5 312.77,-368.39 309.84,-273.93 
						296.34,-395.52 286.76,-303.25 275.81,-383.38 270.24,-265.37 265.51,-391.6 257.02,-303.23 243.67,-429.74 242.67,-242.63 
						232.68,-384.79 233.97,-209.43 221.84,-437.34 219.32,-325.14 213.53,-354.88 212.07,-307.65 203.05,-357.19 205.37,-277.34 
											"/>
					<polyline class="st2" points="380.61,-378.77 362.33,-283.83 352.36,-426.97 349.12,-353.2 336.74,-387.09 333.82,-292.63 
						320.31,-414.22 310.74,-321.95 299.79,-402.09 294.21,-284.08 289.49,-410.3 280.99,-321.94 267.64,-448.44 266.65,-261.34 
						256.66,-403.49 257.94,-228.13 245.81,-456.05 243.3,-343.85 237.5,-373.59 236.04,-326.36 227.02,-375.9 229.34,-296.04 					
						"/>
					<polyline class="st3" points="384.4,-380.02 376,-284.76 375.3,-427.59 372.67,-353.81 368.94,-387.42 366.01,-292.96 
						363.62,-414.19 358.38,-321.77 356.07,-401.63 351.74,-283.58 352.57,-409.62 347.78,-321.13 345.54,-447.28 341.46,-260.27 
						340.73,-402.13 337.7,-226.91 337.92,-454.42 334.79,-342.24 333.31,-371.84 331.85,-324.61 329.62,-373.93 328.86,-294.17 
											"/>
				</g>
				<g>
					<polyline class="st1" points="93.01,-284.02 103.35,-379.08 101.15,-236.26 105.27,-309.97 108.32,-276.29 113.16,-370.66 
						113.09,-249.41 120.21,-341.69 120.9,-261.81 127.63,-379.74 124.24,-253.74 130.82,-342.11 130.5,-215.94 138.37,-402.82 
						136.23,-260.98 142.81,-436.1 137.98,-208.64 143.39,-320.73 144.26,-291.1 146.68,-338.29 147.9,-288.94 150.28,-368.66 					
						"/>
					<polyline class="st2" points="154.76,-378.77 136.47,-283.83 126.51,-426.97 123.27,-353.2 110.88,-387.09 107.96,-292.63 
						94.46,-414.22 84.88,-321.95 73.93,-402.09 68.36,-284.08 63.63,-410.3 55.14,-321.94 41.79,-448.44 40.79,-261.34 
						30.8,-403.49 32.09,-228.13 19.96,-456.05 17.44,-343.85 11.65,-373.59 10.19,-326.36 1.17,-375.9 3.49,-296.04 					"/>
					<polyline class="st3" points="158.55,-380.02 150.14,-284.76 149.45,-427.59 146.82,-353.81 143.08,-387.42 140.16,-292.96 
						137.77,-414.19 132.52,-321.77 130.22,-401.63 125.88,-283.58 126.71,-409.62 121.93,-321.13 119.69,-447.28 115.61,-260.27 
						114.88,-402.13 111.85,-226.91 112.06,-454.42 108.93,-342.24 107.46,-371.84 106,-324.61 103.77,-373.93 103.01,-294.17 					
						"/>
				</g>
				<g>
					<polyline class="st1" points="343.91,-499.17 352.01,-594.46 353.16,-451.62 355.55,-525.42 359.4,-491.82 362.02,-586.29 
						364.79,-465.07 369.75,-557.5 372.31,-477.65 376.27,-595.72 375.84,-469.67 380.34,-558.17 382.98,-432.04 386.47,-619.06 
						387.65,-477.2 390.13,-652.43 390.63,-424.92 393.4,-537.11 394.97,-507.52 396.28,-554.75 398.67,-505.44 399.18,-585.2 					
						"/>
				</g>
				<g>
					<polyline class="st1" points="175.98,-503.04 186.32,-598.1 184.12,-455.28 188.24,-528.99 191.3,-495.31 196.14,-589.69 
						196.07,-468.44 203.19,-560.72 203.87,-480.83 210.6,-598.76 207.22,-472.76 213.8,-561.13 213.47,-434.96 221.35,-621.84 
						219.2,-480 225.78,-655.12 220.95,-427.66 226.36,-539.75 227.23,-510.13 229.65,-557.31 230.88,-507.96 233.26,-587.68 					
						"/>
					<polyline class="st1" points="281.47,-513.87 291.8,-608.93 289.61,-466.11 293.73,-539.82 296.78,-506.14 301.62,-600.51 
						301.55,-479.26 308.67,-571.54 309.36,-491.66 316.08,-609.59 312.7,-483.59 319.28,-571.96 318.96,-445.79 326.83,-632.67 
						324.68,-490.83 331.27,-665.95 326.44,-438.49 331.84,-550.58 332.71,-520.96 335.13,-568.14 336.36,-518.79 338.74,-598.51 
											"/>
					<polyline class="st1" points="318.87,-510.91 329.2,-605.98 327,-463.16 331.12,-536.87 334.18,-503.19 339.02,-597.56 
						338.95,-476.31 346.07,-568.59 346.75,-488.7 353.48,-606.64 350.1,-480.64 356.68,-569 356.35,-442.84 364.23,-629.72 
						362.08,-487.88 368.67,-662.99 363.83,-435.53 369.24,-547.62 370.11,-518 372.53,-565.19 373.76,-515.83 376.14,-595.56 					
						"/>
					<polyline class="st1" points="118.05,-499.17 126.16,-594.46 127.31,-451.62 129.7,-525.42 133.54,-491.82 136.17,-586.29 
						138.94,-465.07 143.9,-557.5 146.45,-477.65 150.42,-595.72 149.98,-469.67 154.49,-558.17 157.13,-432.04 160.62,-619.06 
						161.79,-477.2 164.27,-652.43 164.78,-424.92 167.55,-537.11 169.12,-507.52 170.43,-554.75 172.81,-505.44 173.32,-585.2 
											"/>
					<polyline class="st2" points="160.75,-519.59 176.1,-615.08 190.48,-472.33 191.44,-546.17 204.86,-512.7 204.86,-607.2 
						222.12,-486.12 228.84,-578.65 242.26,-498.91 244.18,-617.05 252.81,-491.04 258.56,-579.64 275.82,-453.63 271.03,-640.67 
						285.41,-498.91 278.7,-674.14 297.88,-446.74 296.92,-558.96 303.63,-529.43 303.63,-576.68 314.18,-527.46 309.39,-607.2 
											"/>
					<polyline class="st2" points="294.31,-588.93 276.02,-493.99 266.06,-637.13 262.82,-563.36 250.43,-597.25 247.51,-502.8 
						234,-624.38 224.43,-532.11 213.48,-612.25 207.91,-494.24 203.18,-620.46 194.69,-532.1 181.34,-658.6 180.34,-471.5 
						170.35,-613.66 171.64,-438.3 159.51,-666.21 156.99,-554.01 151.2,-583.75 149.74,-536.52 140.72,-586.06 143.04,-506.2 					
						"/>
					<polyline class="st2" points="356.64,-586.96 338.35,-492.02 328.39,-635.16 325.15,-561.39 312.77,-595.29 309.84,-500.83 
						296.34,-622.42 286.76,-530.14 275.81,-610.28 270.24,-492.27 265.51,-618.5 257.02,-530.13 243.67,-656.64 242.67,-469.53 
						232.68,-611.69 233.97,-436.33 221.84,-664.24 219.32,-552.04 213.53,-581.78 212.07,-534.55 203.05,-584.09 205.37,-504.23 
											"/>
				</g>
				<g>
					<polyline class="st1" points="93.01,-510.91 103.35,-605.98 101.15,-463.16 105.27,-536.87 108.32,-503.19 113.16,-597.56 
						113.09,-476.31 120.21,-568.59 120.9,-488.7 127.63,-606.64 124.24,-480.64 130.82,-569 130.5,-442.84 138.37,-629.72 
						136.23,-487.88 142.81,-662.99 137.98,-435.53 143.39,-547.62 144.26,-518 146.68,-565.19 147.9,-515.83 150.28,-595.56 					
						"/>
				</g>
			</g>
		</g>
	</g>
</pattern>
<pattern  x="-297.77" y="237.74" width="257.46" height="109.35" patternUnits="userSpaceOnUse" id="SVGID_0000010323088793183788968" viewBox="257.38 -183.94 257.46 109.35" style="overflow:visible;">
	<g>
		<rect x="257.38" y="-183.94" class="st0" width="257.46" height="109.35"/>
		<g>
			<rect x="257.38" y="-183.94" class="st0" width="257.46" height="109.35"/>
			<g>
				<rect x="257.38" y="-183.94" class="st0" width="257.46" height="109.35"/>
				<g>
					<path class="st4" d="M513.23-75.09c10.9,27.41,29.04,63.76,52.32,64.14c33.57,0.55,50.83-74.08,82.71-71.73
						c30.33,2.24,37.49,71.53,65.83,73.42c20.18,1.35,39.77-32.24,55.7-70.05"/>
					<path class="st5" d="M514.04-88.95c10.9,27.41,29.04,63.76,52.32,64.14c33.57,0.55,50.83-74.08,82.71-71.73
						c30.33,2.24,37.49,71.53,65.83,73.42c20.18,1.35,39.77-32.24,55.7-70.05"/>
					<path class="st6" d="M513.2-77.97c10.9,27.41,29.04,63.76,52.32,64.14c33.57,0.55,50.83-74.08,82.71-71.73
						c30.33,2.24,37.49,71.53,65.83,73.42c20.18,1.35,39.77-32.24,55.7-70.05"/>
				</g>
				<g>
					<path class="st4" d="M259.1-66.75C270-39.34,288.14-3,311.43-2.61c33.57,0.55,50.83-74.08,82.71-71.73
						c30.33,2.24,37.49,71.53,65.83,73.42c20.18,1.35,39.77-32.24,55.7-70.05"/>
					<path class="st4" d="M255.77-75.09c10.9,27.41,29.04,63.76,52.32,64.14c33.57,0.55,50.83-74.08,82.71-71.73
						c30.33,2.24,37.49,71.53,65.83,73.42c20.18,1.35,39.77-32.24,55.7-70.05"/>
					<path class="st5" d="M256.58-88.95c10.9,27.41,29.04,63.76,52.32,64.14c33.57,0.55,50.83-74.08,82.71-71.73
						c30.33,2.24,37.49,71.53,65.83,73.42c20.18,1.35,39.77-32.24,55.7-70.05"/>
					<path class="st4" d="M258.27-113.42c10.9,27.41,29.04,63.76,52.32,64.14c33.57,0.55,50.83-74.08,82.71-71.73
						c30.33,2.24,37.49,71.53,65.83,73.42c20.18,1.35,39.77-32.24,55.7-70.05"/>
					<path class="st6" d="M255.74-77.97c10.9,27.41,29.04,63.76,52.32,64.14c33.57,0.55,50.83-74.08,82.71-71.73
						c30.33,2.24,37.49,71.53,65.83,73.42c20.18,1.35,39.77-32.24,55.7-70.05"/>
				</g>
				<g>
					<path class="st4" d="M1.65-66.75C12.55-39.34,30.68-3,53.97-2.61c33.57,0.55,50.83-74.08,82.71-71.73
						c30.33,2.24,37.49,71.53,65.83,73.42c20.18,1.35,39.77-32.24,55.7-70.05"/>
					<path class="st4" d="M0.81-113.42c10.9,27.41,29.04,63.76,52.33,64.14c33.57,0.55,50.83-74.08,82.71-71.73
						c30.33,2.24,37.49,71.53,65.83,73.42c20.18,1.35,39.77-32.24,55.7-70.05"/>
				</g>
				<g>
					<path class="st5" d="M514.87-151.63c10.9,27.41,29.04,63.76,52.32,64.14c33.57,0.55,50.83-74.08,82.71-71.73
						c30.33,2.24,37.49,71.53,65.83,73.42c20.18,1.35,39.77-32.24,55.7-70.05"/>
					<path class="st6" d="M514.03-140.65c10.9,27.41,29.04,63.76,52.32,64.14c33.57,0.55,50.83-74.08,82.71-71.73
						c30.33,2.24,37.49,71.53,65.83,73.42c20.18,1.35,39.77-32.24,55.7-70.05"/>
					<path class="st5" d="M513.21-109.13c10.9,27.41,29.04,63.76,52.32,64.14c33.57,0.55,50.83-74.08,82.71-71.73
						c30.33,2.24,37.49,71.53,65.83,73.42c20.18,1.35,39.77-32.24,55.7-70.05"/>
					<path class="st4" d="M514.89-133.6c10.9,27.41,29.04,63.76,52.32,64.14c33.57,0.55,50.83-74.08,82.71-71.73
						c30.33,2.24,37.49,71.53,65.83,73.42c20.18,1.35,39.77-32.24,55.7-70.05"/>
					<path class="st6" d="M512.36-98.15c10.9,27.41,29.04,63.76,52.32,64.14c33.57,0.55,50.83-74.08,82.71-71.73
						c30.33,2.24,37.49,71.53,65.83,73.42c20.18,1.35,39.77-32.24,55.7-70.05"/>
					<path class="st5" d="M510.71-97.46c10.9,27.41,29.04,63.76,52.32,64.14c33.57,0.55,50.83-74.08,82.71-71.73
						c30.33,2.24,37.49,71.53,65.83,73.42c20.18,1.35,39.77-32.24,55.7-70.05"/>
					<path class="st4" d="M512.39-121.93c10.9,27.41,29.04,63.76,52.32,64.14c33.57,0.55,50.83-74.08,82.71-71.73
						c30.33,2.24,37.49,71.53,65.83,73.42c20.18,1.35,39.77-32.24,55.7-70.05"/>
					<path class="st6" d="M509.86-86.49c10.9,27.41,29.04,63.76,52.32,64.14c33.57,0.55,50.83-74.08,82.71-71.73
						c30.33,2.24,37.49,71.53,65.83,73.42c20.18,1.35,39.77-32.24,55.7-70.05"/>
					<path class="st5" d="M511.54-159.96c10.9,27.41,29.04,63.76,52.32,64.14c33.57,0.55,50.83-74.08,82.71-71.73
						c30.33,2.24,37.49,71.53,65.83,73.42c20.18,1.35,39.77-32.24,55.7-70.05"/>
					<path class="st4" d="M513.23-184.43c10.9,27.41,29.04,63.76,52.32,64.14c33.57,0.55,50.83-74.08,82.71-71.73
						c30.33,2.24,37.49,71.53,65.83,73.42c20.18,1.35,39.77-32.24,55.7-70.05"/>
					<path class="st6" d="M510.7-148.99c10.9,27.41,29.04,63.76,52.32,64.14c33.57,0.55,50.83-74.08,82.71-71.73
						c30.33,2.24,37.49,71.53,65.83,73.42c20.18,1.35,39.77-32.24,55.7-70.05"/>
					<path class="st5" d="M513.21-124.13c10.9,27.41,29.04,63.76,52.32,64.14c33.57,0.55,50.83-74.08,82.71-71.73
						c30.33,2.24,37.49,71.53,65.83,73.42c20.18,1.35,39.77-32.24,55.7-70.05"/>
					<path class="st7" d="M514.89-135.1c10.9,27.41,29.04,63.76,52.32,64.14c33.57,0.55,50.83-74.08,82.71-71.73
						c30.33,2.24,37.49,71.53,65.83,73.42c20.18,1.35,39.77-32.24,55.7-70.05"/>
					<path class="st6" d="M512.36-113.15c10.9,27.41,29.04,63.76,52.32,64.14c33.57,0.55,50.83-74.08,82.71-71.73
						c30.33,2.24,37.49,71.53,65.83,73.42c20.18,1.35,39.77-32.24,55.7-70.05"/>
					<path class="st5" d="M511.54-81.63c10.9,27.41,29.04,63.76,52.32,64.14c33.57,0.55,50.83-74.08,82.71-71.73
						c30.33,2.24,37.49,71.53,65.83,73.42c20.18,1.35,39.77-32.24,55.7-70.05"/>
					<path class="st4" d="M513.23-106.1c10.9,27.41,29.04,63.76,52.32,64.14c33.57,0.55,50.83-74.08,82.71-71.73
						c30.33,2.24,37.49,71.53,65.83,73.42c20.18,1.35,39.77-32.24,55.7-70.05"/>
					<path class="st6" d="M510.7-70.65c10.9,27.41,29.04,63.76,52.32,64.14c33.57,0.55,50.83-74.08,82.71-71.73
						c30.33,2.23,37.49,71.52,65.82,73.41c20.18,1.35,39.77-32.24,55.7-70.05"/>
					<path class="st5" d="M509.04-69.96c10.9,27.41,29.04,63.76,52.32,64.14c33.57,0.55,50.83-74.08,82.71-71.73
						c30.33,2.24,37.49,71.53,65.83,73.42c20.18,1.35,39.77-32.24,55.7-70.05"/>
					<path class="st4" d="M510.73-94.43c10.9,27.41,29.04,63.76,52.32,64.14c33.57,0.55,50.83-74.08,82.71-71.73
						c30.33,2.24,37.49,71.53,65.83,73.42c20.18,1.35,39.77-32.24,55.7-70.05"/>
					<path class="st5" d="M509.87-132.46c10.9,27.41,29.04,63.76,52.32,64.14c33.57,0.55,50.83-74.08,82.71-71.73
						c30.33,2.24,37.49,71.53,65.83,73.42c20.18,1.35,39.77-32.24,55.7-70.05"/>
					<path class="st6" d="M509.03-121.49c10.9,27.41,29.04,63.76,52.32,64.14c33.57,0.55,50.83-74.08,82.71-71.73
						c30.33,2.24,37.49,71.53,65.83,73.42c20.18,1.35,39.77-32.24,55.7-70.05"/>
					<path class="st5" d="M514.04-198.29c10.9,27.41,29.04,63.76,52.32,64.14c33.57,0.55,50.83-74.08,82.71-71.73
						c30.33,2.24,37.49,71.53,65.83,73.42c20.18,1.35,39.77-32.24,55.7-70.05"/>
					<path class="st6" d="M513.2-187.32c10.9,27.41,29.04,63.76,52.32,64.14c33.57,0.55,50.83-74.08,82.71-71.73
						c30.33,2.24,37.49,71.53,65.83,73.42c20.18,1.35,39.77-32.24,55.7-70.05"/>
				</g>
				<g>
					<path class="st5" d="M257.42-151.63c10.9,27.41,29.04,63.76,52.32,64.14c33.57,0.55,50.83-74.08,82.71-71.73
						c30.33,2.24,37.49,71.53,65.83,73.42c20.18,1.35,39.77-32.24,55.7-70.05"/>
					<path class="st7" d="M259.1-162.6c10.9,27.41,29.04,63.76,52.32,64.14c33.57,0.55,50.83-74.08,82.71-71.73
						c30.33,2.24,37.49,71.53,65.83,73.42c20.18,1.35,39.77-32.24,55.7-70.05"/>
					<path class="st4" d="M259.1-176.1c10.9,27.41,29.04,63.76,52.32,64.14c33.57,0.55,50.83-74.08,82.71-71.73
						c30.33,2.24,37.49,71.53,65.83,73.42c20.18,1.35,39.77-32.24,55.7-70.05"/>
					<path class="st6" d="M256.57-140.65c10.9,27.41,29.04,63.76,52.32,64.14c33.57,0.55,50.83-74.08,82.71-71.73
						c30.33,2.24,37.49,71.53,65.83,73.42c20.18,1.35,39.77-32.24,55.7-70.05"/>
					<path class="st5" d="M255.75-109.13c10.9,27.41,29.04,63.76,52.32,64.14c33.57,0.55,50.83-74.08,82.71-71.73
						c30.33,2.24,37.49,71.53,65.83,73.42c20.18,1.35,39.77-32.24,55.7-70.05"/>
					<path class="st4" d="M257.44-133.6c10.9,27.41,29.04,63.76,52.32,64.14c33.57,0.55,50.83-74.08,82.71-71.73
						c30.33,2.24,37.49,71.53,65.83,73.42c20.18,1.35,39.77-32.24,55.7-70.05"/>
					<path class="st6" d="M254.91-98.15c10.9,27.41,29.04,63.76,52.32,64.14c33.57,0.55,50.83-74.08,82.71-71.73
						c30.33,2.24,37.49,71.53,65.83,73.42c20.18,1.35,39.77-32.24,55.7-70.05"/>
					<path class="st5" d="M253.25-97.46c10.9,27.41,29.04,63.76,52.32,64.14c33.57,0.55,50.83-74.08,82.71-71.73
						c30.33,2.24,37.49,71.53,65.83,73.42c20.18,1.35,39.77-32.24,55.7-70.05"/>
					<path class="st4" d="M254.94-121.93c10.9,27.41,29.04,63.76,52.32,64.14c33.57,0.55,50.83-74.08,82.71-71.73
						c30.33,2.24,37.49,71.53,65.83,73.42c20.18,1.35,39.77-32.24,55.7-70.05"/>
					<path class="st6" d="M252.41-86.49c10.9,27.41,29.04,63.76,52.32,64.14c33.57,0.55,50.83-74.08,82.71-71.73
						c30.33,2.24,37.49,71.53,65.83,73.42c20.18,1.35,39.77-32.24,55.7-70.05"/>
					<path class="st5" d="M254.08-159.96c10.9,27.41,29.04,63.76,52.32,64.14c33.57,0.55,50.83-74.08,82.71-71.73
						c30.33,2.24,37.49,71.53,65.83,73.42c20.18,1.35,39.77-32.24,55.7-70.05"/>
					<path class="st4" d="M255.77-184.43c10.9,27.41,29.04,63.76,52.32,64.14c33.57,0.55,50.83-74.08,82.71-71.73
						c30.33,2.24,37.49,71.53,65.83,73.42c20.18,1.35,39.77-32.24,55.7-70.05"/>
					<path class="st6" d="M253.24-148.99c10.9,27.41,29.04,63.76,52.32,64.14c33.57,0.55,50.83-74.08,82.71-71.73
						c30.33,2.24,37.49,71.53,65.83,73.42c20.18,1.35,39.77-32.24,55.7-70.05"/>
					<path class="st5" d="M255.75-124.13c10.9,27.41,29.04,63.76,52.32,64.14c33.57,0.55,50.83-74.08,82.71-71.73
						c30.33,2.24,37.49,71.53,65.83,73.42c20.18,1.35,39.77-32.24,55.7-70.05"/>
					<path class="st7" d="M257.44-135.1c10.9,27.41,29.04,63.76,52.32,64.14c33.57,0.55,50.83-74.08,82.71-71.73
						c30.33,2.24,37.49,71.53,65.83,73.42c20.18,1.35,39.77-32.24,55.7-70.05"/>
					<path class="st6" d="M254.91-113.15c10.9,27.41,29.04,63.76,52.32,64.14c33.57,0.55,50.83-74.08,82.71-71.73
						c30.33,2.24,37.49,71.53,65.83,73.42c20.18,1.35,39.77-32.24,55.7-70.05"/>
					<path class="st5" d="M254.08-81.63c10.9,27.41,29.04,63.76,52.32,64.14c33.57,0.55,50.83-74.08,82.71-71.73
						c30.33,2.24,37.49,71.53,65.83,73.42c20.18,1.35,39.77-32.24,55.7-70.05"/>
					<path class="st4" d="M255.77-106.1c10.9,27.41,29.04,63.76,52.32,64.14c33.57,0.55,50.83-74.08,82.71-71.73
						c30.33,2.24,37.49,71.53,65.83,73.42c20.18,1.35,39.77-32.24,55.7-70.05"/>
					<path class="st6" d="M253.24-70.65c10.9,27.41,29.04,63.76,52.32,64.14c33.57,0.55,50.83-74.08,82.71-71.73
						c30.33,2.23,37.49,71.52,65.82,73.41c20.18,1.35,39.77-32.24,55.7-70.05"/>
					<path class="st5" d="M251.58-69.96c10.9,27.41,29.04,63.76,52.32,64.14c33.57,0.55,50.83-74.08,82.71-71.73
						c30.33,2.24,37.49,71.53,65.83,73.42c20.18,1.35,39.77-32.24,55.7-70.05"/>
					<path class="st4" d="M253.27-94.43c10.9,27.41,29.04,63.76,52.32,64.14c33.57,0.55,50.83-74.08,82.71-71.73
						c30.33,2.24,37.49,71.53,65.83,73.42c20.18,1.35,39.77-32.24,55.7-70.05"/>
					<path class="st5" d="M252.42-132.46c10.9,27.41,29.04,63.76,52.32,64.14c33.57,0.55,50.83-74.08,82.71-71.73
						c30.33,2.24,37.49,71.53,65.83,73.42c20.18,1.35,39.77-32.24,55.7-70.05"/>
					<path class="st6" d="M251.57-121.49c10.9,27.41,29.04,63.76,52.32,64.14c33.57,0.55,50.83-74.08,82.71-71.73
						c30.33,2.24,37.49,71.53,65.83,73.42c20.18,1.35,39.77-32.24,55.7-70.05"/>
					<path class="st5" d="M256.58-198.29c10.9,27.41,29.04,63.76,52.32,64.14c33.57,0.55,50.83-74.08,82.71-71.73
						c30.33,2.24,37.49,71.53,65.83,73.42c20.18,1.35,39.77-32.24,55.7-70.05"/>
					<path class="st4" d="M258.27-222.77c10.9,27.41,29.04,63.76,52.32,64.14c33.57,0.55,50.83-74.08,82.71-71.73
						c30.33,2.24,37.49,71.53,65.83,73.42c20.18,1.35,39.77-32.24,55.7-70.05"/>
					<path class="st6" d="M255.74-187.32c10.9,27.41,29.04,63.76,52.32,64.14c33.57,0.55,50.83-74.08,82.71-71.73
						c30.33,2.24,37.49,71.53,65.83,73.42c20.18,1.35,39.77-32.24,55.7-70.05"/>
				</g>
				<g>
					<path class="st7" d="M1.65-162.6c10.9,27.41,29.04,63.76,52.32,64.14c33.57,0.55,50.83-74.08,82.71-71.73
						c30.33,2.24,37.49,71.53,65.83,73.42c20.18,1.35,39.77-32.24,55.7-70.05"/>
					<path class="st4" d="M1.65-176.1c10.9,27.41,29.04,63.76,52.32,64.14c33.57,0.55,50.83-74.08,82.71-71.73
						c30.33,2.24,37.49,71.53,65.83,73.42c20.18,1.35,39.77-32.24,55.7-70.05"/>
					<path class="st4" d="M0.81-222.77c10.9,27.41,29.04,63.76,52.32,64.14c33.57,0.55,50.83-74.08,82.71-71.73
						c30.33,2.24,37.49,71.53,65.83,73.42c20.18,1.35,39.77-32.24,55.7-70.05"/>
				</g>
				<g>
					<path class="st6" d="M514.03-250c10.9,27.41,29.04,63.76,52.32,64.14c33.57,0.55,50.83-74.08,82.71-71.73
						c30.33,2.24,37.49,71.53,65.83,73.42c20.18,1.35,39.77-32.24,55.7-70.05"/>
					<path class="st5" d="M513.21-218.47c10.9,27.41,29.04,63.76,52.32,64.14c33.57,0.55,50.83-74.08,82.71-71.73
						c30.33,2.24,37.49,71.53,65.83,73.42c20.18,1.35,39.77-32.24,55.7-70.05"/>
					<path class="st4" d="M514.89-242.95c10.9,27.41,29.04,63.76,52.32,64.14c33.57,0.55,50.83-74.08,82.71-71.73
						c30.33,2.24,37.49,71.53,65.83,73.42c20.18,1.35,39.77-32.24,55.7-70.05"/>
					<path class="st6" d="M512.36-207.5c10.9,27.41,29.04,63.76,52.32,64.14c33.57,0.55,50.83-74.08,82.71-71.73
						c30.33,2.24,37.49,71.53,65.83,73.42c20.18,1.35,39.77-32.24,55.7-70.05"/>
					<path class="st5" d="M510.71-206.8c10.9,27.41,29.04,63.76,52.32,64.14c33.57,0.55,50.83-74.08,82.71-71.73
						c30.33,2.24,37.49,71.53,65.83,73.42c20.18,1.35,39.77-32.24,55.7-70.05"/>
					<path class="st4" d="M512.39-231.28c10.9,27.41,29.04,63.76,52.32,64.14c33.57,0.55,50.83-74.08,82.71-71.73
						c30.33,2.24,37.49,71.53,65.83,73.42c20.18,1.35,39.77-32.24,55.7-70.05"/>
					<path class="st6" d="M509.86-195.83c10.9,27.41,29.04,63.76,52.32,64.14c33.57,0.55,50.83-74.08,82.71-71.73
						c30.33,2.24,37.49,71.53,65.83,73.42c20.18,1.35,39.77-32.24,55.7-70.05"/>
					<path class="st5" d="M513.21-233.47c10.9,27.41,29.04,63.76,52.32,64.14c33.57,0.55,50.83-74.08,82.71-71.73
						c30.33,2.24,37.49,71.53,65.83,73.42c20.18,1.35,39.77-32.24,55.7-70.05"/>
					<path class="st7" d="M514.89-244.44c10.9,27.41,29.04,63.76,52.32,64.14c33.57,0.55,50.83-74.08,82.71-71.73
						c30.33,2.24,37.49,71.53,65.83,73.42c20.18,1.35,39.77-32.24,55.7-70.05"/>
					<path class="st6" d="M512.36-222.5c10.9,27.41,29.04,63.76,52.32,64.14c33.57,0.55,50.83-74.08,82.71-71.73
						c30.33,2.24,37.49,71.53,65.83,73.42c20.18,1.35,39.77-32.24,55.7-70.05"/>
					<path class="st5" d="M511.54-190.97c10.9,27.41,29.04,63.76,52.32,64.14c33.57,0.55,50.83-74.08,82.71-71.73
						c30.33,2.24,37.49,71.53,65.83,73.42c20.18,1.35,39.77-32.24,55.7-70.05"/>
					<path class="st4" d="M513.23-215.45c10.9,27.41,29.04,63.76,52.32,64.14c33.57,0.55,50.83-74.08,82.71-71.73
						c30.33,2.24,37.49,71.53,65.83,73.42c20.18,1.35,39.77-32.24,55.7-70.05"/>
					<path class="st6" d="M510.7-180c10.9,27.41,29.04,63.76,52.32,64.14c33.57,0.55,50.83-74.08,82.71-71.73
						c30.33,2.24,37.49,71.53,65.83,73.42c20.18,1.35,39.77-32.24,55.7-70.05"/>
					<path class="st5" d="M509.04-179.3c10.9,27.41,29.04,63.76,52.32,64.14c33.57,0.55,50.83-74.08,82.71-71.73
						c30.33,2.24,37.49,71.53,65.83,73.42c20.18,1.35,39.77-32.24,55.7-70.05"/>
					<path class="st4" d="M510.73-203.78c10.9,27.41,29.04,63.76,52.32,64.14c33.57,0.55,50.83-74.08,82.71-71.73
						c30.33,2.24,37.49,71.53,65.83,73.42c20.18,1.35,39.77-32.24,55.7-70.05"/>
					<path class="st5" d="M509.87-241.8c10.9,27.41,29.04,63.76,52.32,64.14c33.57,0.55,50.83-74.08,82.71-71.73
						c30.33,2.24,37.49,71.53,65.83,73.42c20.18,1.35,39.77-32.24,55.7-70.05"/>
					<path class="st6" d="M509.03-230.83c10.9,27.41,29.04,63.76,52.32,64.14c33.57,0.55,50.83-74.08,82.71-71.73
						c30.33,2.24,37.49,71.53,65.83,73.42c20.18,1.35,39.77-32.24,55.7-70.05"/>
				</g>
				<g>
					<path class="st6" d="M256.57-250c10.9,27.41,29.04,63.76,52.32,64.14c33.57,0.55,50.83-74.08,82.71-71.73
						c30.33,2.24,37.49,71.53,65.83,73.42c20.18,1.35,39.77-32.24,55.7-70.05"/>
					<path class="st5" d="M255.75-218.47c10.9,27.41,29.04,63.76,52.32,64.14c33.57,0.55,50.83-74.08,82.71-71.73
						c30.33,2.24,37.49,71.53,65.83,73.42c20.18,1.35,39.77-32.24,55.7-70.05"/>
					<path class="st4" d="M257.44-242.95c10.9,27.41,29.04,63.76,52.32,64.14c33.57,0.55,50.83-74.08,82.71-71.73
						c30.33,2.24,37.49,71.53,65.83,73.42c20.18,1.35,39.77-32.24,55.7-70.05"/>
					<path class="st6" d="M254.91-207.5c10.9,27.41,29.04,63.76,52.32,64.14c33.57,0.55,50.83-74.08,82.71-71.73
						c30.33,2.24,37.49,71.53,65.83,73.42c20.18,1.35,39.77-32.24,55.7-70.05"/>
					<path class="st5" d="M253.25-206.8c10.9,27.41,29.04,63.76,52.32,64.14c33.57,0.55,50.83-74.08,82.71-71.73
						c30.33,2.24,37.49,71.53,65.83,73.42c20.18,1.35,39.77-32.24,55.7-70.05"/>
					<path class="st4" d="M254.94-231.28c10.9,27.41,29.04,63.76,52.32,64.14c33.57,0.55,50.83-74.08,82.71-71.73
						c30.33,2.24,37.49,71.53,65.83,73.42c20.18,1.35,39.77-32.24,55.7-70.05"/>
					<path class="st6" d="M252.41-195.83c10.9,27.41,29.04,63.76,52.32,64.14c33.57,0.55,50.83-74.08,82.71-71.73
						c30.33,2.24,37.49,71.53,65.83,73.42c20.18,1.35,39.77-32.24,55.7-70.05"/>
					<path class="st5" d="M255.75-233.47c10.9,27.41,29.04,63.76,52.32,64.14c33.57,0.55,50.83-74.08,82.71-71.73
						c30.33,2.24,37.49,71.53,65.83,73.42c20.18,1.35,39.77-32.24,55.7-70.05"/>
					<path class="st7" d="M257.44-244.44c10.9,27.41,29.04,63.76,52.32,64.14c33.57,0.55,50.83-74.08,82.71-71.73
						c30.33,2.24,37.49,71.53,65.83,73.42c20.18,1.35,39.77-32.24,55.7-70.05"/>
					<path class="st6" d="M254.91-222.5c10.9,27.41,29.04,63.76,52.32,64.14c33.57,0.55,50.83-74.08,82.71-71.73
						c30.33,2.24,37.49,71.53,65.83,73.42c20.18,1.35,39.77-32.24,55.7-70.05"/>
					<path class="st5" d="M254.08-190.97c10.9,27.41,29.04,63.76,52.32,64.14c33.57,0.55,50.83-74.08,82.71-71.73
						c30.33,2.24,37.49,71.53,65.83,73.42c20.18,1.35,39.77-32.24,55.7-70.05"/>
					<path class="st4" d="M255.77-215.45c10.9,27.41,29.04,63.76,52.32,64.14c33.57,0.55,50.83-74.08,82.71-71.73
						c30.33,2.24,37.49,71.53,65.83,73.42c20.18,1.35,39.77-32.24,55.7-70.05"/>
					<path class="st6" d="M253.24-180c10.9,27.41,29.04,63.76,52.32,64.14c33.57,0.55,50.83-74.08,82.71-71.73
						c30.33,2.24,37.49,71.53,65.83,73.42c20.18,1.35,39.77-32.24,55.7-70.05"/>
					<path class="st5" d="M251.58-179.3c10.9,27.41,29.04,63.76,52.32,64.14c33.57,0.55,50.83-74.08,82.71-71.73
						c30.33,2.24,37.49,71.53,65.83,73.42c20.18,1.35,39.77-32.24,55.7-70.05"/>
					<path class="st4" d="M253.27-203.78c10.9,27.41,29.04,63.76,52.32,64.14c33.57,0.55,50.83-74.08,82.71-71.73
						c30.33,2.24,37.49,71.53,65.83,73.42c20.18,1.35,39.77-32.24,55.7-70.05"/>
					<path class="st5" d="M252.42-241.8c10.9,27.41,29.04,63.76,52.32,64.14c33.57,0.55,50.83-74.08,82.71-71.73
						c30.33,2.24,37.49,71.53,65.83,73.42c20.18,1.35,39.77-32.24,55.7-70.05"/>
					<path class="st6" d="M251.57-230.83c10.9,27.41,29.04,63.76,52.32,64.14c33.57,0.55,50.83-74.08,82.71-71.73
						c30.33,2.24,37.49,71.53,65.83,73.42c20.18,1.35,39.77-32.24,55.7-70.05"/>
				</g>
			</g>
		</g>
	</g>
</pattern>
<g id="Layer_1_00000012473527780683728560000018020099935242090630_">
	<rect x="-262.27" y="316" class="st8" width="609.43" height="270.35"/>
</g>
<pattern  id="SVGID_1_" xlink:href="#SVGID_0000005136723025354156762" patternTransform="matrix(0.0734 0 0 0.1512 -21551.7324 -4347.6499)">
</pattern>
<rect x="-291.53" y="27.76" class="st9" width="280.04" height="170.95"/>
<text transform="matrix(1 0 0 1 -169.9371 229.6045)" class="st16 st17">TSS</text>
<g class="st10">
	<ellipse class="st11" cx="-172.4" cy="114.27" rx="51.44" ry="50.34"/>
	
		<pattern  id="SVGID_00000147210905301335894810000002229338800355649727_" xlink:href="#SVGID_0000005640089201167950610" patternTransform="matrix(0.0667 0 0 0.1403 -21620.2422 -4482.3169)"  class="st10">
	</pattern>
	
		<ellipse style="fill:url(#SVGID_00000147210905301335894810000002229338800355649727_);stroke:#000000;stroke-width:1.7539;stroke-miterlimit:10;" cx="-172.4" cy="113.22" rx="51.44" ry="50.34"/>
</g>
<rect x="-291.53" y="27.76" class="st13" width="280.04" height="170.95"/>
<path class="st14" d="M-35.99,69.03h-33.04c-9.16,0-16.59-7.43-16.59-16.59l0,0c0-9.16,7.43-16.59,16.59-16.59h33.04
	c9.16,0,16.59,7.43,16.59,16.59l0,0C-19.4,61.6-26.82,69.03-35.99,69.03z"/>
<path class="st14" d="M-154.64,152.25h-33.04c-9.16,0-16.59-7.43-16.59-16.59l0,0c0-9.16,7.43-16.59,16.59-16.59h33.04
	c9.16,0,16.59,7.43,16.59,16.59l0,0C-138.05,144.82-145.48,152.25-154.64,152.25z"/>
<text transform="matrix(1 0 0 1 -73.7266 61.7225)" class="st16 st17">SSW</text>
<text transform="matrix(1 0 0 1 -189.8926 144.947)" class="st16 st17">SSB</text>
<pattern  id="SVGID_00000155846166331532146070000005515193070294368163_" xlink:href="#SVGID_0000010253959482076754940" patternTransform="matrix(0.0734 0 0 0.1512 -21524.543 -4351.0508)">
</pattern>
<rect x="0.97" y="27.76" style="opacity:0.48;fill:url(#SVGID_00000155846166331532146070000005515193070294368163_);stroke:#000000;stroke-width:1.938;stroke-miterlimit:10;enable-background:new    ;" width="280.04" height="170.95"/>
<text transform="matrix(1 0 0 1 118.1487 229.8528)" class="st16 st17">TSS</text>
<g class="st10">
	<ellipse class="st11" cx="123.51" cy="114.53" rx="97.5" ry="79.18"/>
	
		<pattern  id="SVGID_00000110444411164229837790000015954088871427883403_" xlink:href="#SVGID_0000010323088793183788968" patternTransform="matrix(0.1265 0 0 0.2207 -20274.3594 -2491.8252)"  class="st10">
	</pattern>
	
		<ellipse style="fill:url(#SVGID_00000110444411164229837790000015954088871427883403_);stroke:#000000;stroke-width:1.7539;stroke-miterlimit:10;" cx="123.51" cy="112.89" rx="97.5" ry="79.18"/>
</g>
<rect x="0.97" y="27.76" class="st13" width="280.04" height="170.95"/>
<path class="st14" d="M256.51,69.03h-33.04c-9.16,0-16.59-7.43-16.59-16.59l0,0c0-9.16,7.43-16.59,16.59-16.59h33.04
	c9.16,0,16.59,7.43,16.59,16.59l0,0C273.1,61.6,265.68,69.03,256.51,69.03z"/>
<path class="st14" d="M137.86,152.25h-33.04c-9.16,0-16.59-7.43-16.59-16.59l0,0c0-9.16,7.43-16.59,16.59-16.59h33.04
	c9.16,0,16.59,7.43,16.59,16.59l0,0C154.45,144.82,147.02,152.25,137.86,152.25z"/>
<text transform="matrix(1 0 0 1 218.7734 61.7225)" class="st16 st17">SSW</text>
<text transform="matrix(1 0 0 1 102.6074 144.947)" class="st16 st17">SSB</text>
<text transform="matrix(1 0 0 1 -289.2974 19.5499)" class="st16 st19">Factor with a less effect </text>
<text transform="matrix(1 0 0 1 -290.0516 -15.0753)" class="st16" style="font-size:23.4137px;">Relationship between sum of squares in One way ANOVA </text>
<text transform="matrix(1 0 0 1 2.4988 15.6572)" class="st16 st19">Factor with a large effect  </text>
</svg>
