<?xml version="1.0" encoding="utf-8"?>
<!-- Generator: Adobe Illustrator 26.3.1, SVG Export Plug-In . SVG Version: 6.00 Build 0)  -->
<svg version="1.1" xmlns="http://www.w3.org/2000/svg" xmlns:xlink="http://www.w3.org/1999/xlink" x="0px" y="0px"
	 viewBox="0 0 612.46 278.24" style="enable-background:new 0 0 612.46 278.24;" xml:space="preserve">
<style type="text/css">
	.st0{fill:none;}
	.st1{fill:none;stroke:#71D0F1;stroke-width:1.7539;stroke-miterlimit:10;}
	.st2{fill:none;stroke:#DE1D3B;stroke-width:1.7539;stroke-miterlimit:10;}
	.st3{fill:none;stroke:#393392;stroke-width:1.7539;stroke-miterlimit:10;}
	.st4{fill:none;stroke:#2DB34A;stroke-width:1.7539;stroke-miterlimit:10;}
	.st5{fill:none;stroke:#A7A9AC;stroke-width:1.3906;stroke-miterlimit:10;}
	.st6{fill:none;stroke:#000000;stroke-width:2.3318;stroke-miterlimit:10;}
	.st7{fill:none;stroke:#000000;stroke-width:1.3906;stroke-miterlimit:10;}
	.st8{fill:#FFFFFF;stroke:#000000;stroke-miterlimit:10;}
	
		.st9{opacity:0.48;fill:url(#SVGID_00000182486333480145927340000011462892276017805999_);stroke:#000000;stroke-width:1.938;stroke-miterlimit:10;enable-background:new    ;}
	.st10{font-family:'ArialMT';}
	.st11{font-size:24.293px;}
	.st12{opacity:0.92;}
	.st13{fill:#FFFFFF;stroke:#000000;stroke-width:1.7539;stroke-miterlimit:10;}
	
		.st14{fill:url(#SVGID_00000004517033333492822610000007492823840336214177_);stroke:#000000;stroke-width:1.7539;stroke-miterlimit:10;}
	.st15{fill:none;stroke:#000000;stroke-width:1.938;stroke-miterlimit:10;}
	.st16{fill:#F9F9FA;}
	
		.st17{opacity:0.48;fill:url(#SVGID_00000097469249419751859190000002075127789439397515_);stroke:#000000;stroke-width:1.938;stroke-miterlimit:10;enable-background:new    ;}
	
		.st18{fill:url(#SVGID_00000096055994425595696940000010032796837378574271_);stroke:#000000;stroke-width:1.7539;stroke-miterlimit:10;}
	.st19{font-size:18.2458px;}
	.st20{font-size:23.4137px;}
</style>
<pattern  x="2.5" y="272.36" width="257.46" height="109.35" patternUnits="userSpaceOnUse" id="SVGID_0000000742074596073275444" viewBox="257.38 -183.93 257.46 109.35" style="overflow:visible;">
	<g>
		<rect x="257.38" y="-183.93" class="st0" width="257.46" height="109.35"/>
		<g>
			<rect x="257.38" y="-183.93" class="st0" width="257.46" height="109.35"/>
			<g>
				<path class="st1" d="M513.23-183.43c10.9-27.41,29.04-63.76,52.32-64.14c33.57-0.55,50.83,74.08,82.71,71.73
					c30.33-2.24,37.49-71.53,65.83-73.42c20.18-1.35,39.77,32.24,55.7,70.05"/>
				<path class="st2" d="M514.04-169.57c10.9-27.41,29.04-63.76,52.32-64.14c33.57-0.55,50.83,74.08,82.71,71.73
					c30.33-2.24,37.49-71.53,65.83-73.42c20.18-1.35,39.77,32.24,55.7,70.05"/>
				<path class="st3" d="M513.2-180.55c10.9-27.41,29.04-63.76,52.32-64.14c33.57-0.55,50.83,74.08,82.71,71.73
					c30.33-2.24,37.49-71.53,65.83-73.42c20.18-1.35,39.77,32.24,55.7,70.05"/>
			</g>
			<g>
				<path class="st1" d="M259.1-191.77c10.9-27.41,29.04-63.75,52.33-64.14c33.57-0.55,50.83,74.08,82.71,71.73
					c30.33-2.24,37.49-71.53,65.83-73.42c20.18-1.35,39.77,32.24,55.7,70.05"/>
				<path class="st1" d="M255.77-183.43c10.9-27.41,29.04-63.76,52.32-64.14c33.57-0.55,50.83,74.08,82.71,71.73
					c30.33-2.24,37.49-71.53,65.83-73.42c20.18-1.35,39.77,32.24,55.7,70.05"/>
				<path class="st2" d="M256.58-169.57c10.9-27.41,29.04-63.76,52.32-64.14c33.57-0.55,50.83,74.08,82.71,71.73
					c30.33-2.24,37.49-71.53,65.83-73.42c20.18-1.35,39.77,32.24,55.7,70.05"/>
				<path class="st1" d="M258.27-145.1c10.9-27.41,29.04-63.76,52.32-64.14c33.57-0.55,50.83,74.08,82.71,71.73
					c30.33-2.24,37.49-71.53,65.83-73.42c20.18-1.35,39.77,32.24,55.7,70.05"/>
				<path class="st3" d="M255.74-180.55c10.9-27.41,29.04-63.76,52.32-64.14c33.57-0.55,50.83,74.08,82.71,71.73
					c30.33-2.24,37.49-71.53,65.83-73.42c20.18-1.35,39.77,32.24,55.7,70.05"/>
			</g>
			<g>
				<path class="st1" d="M1.65-191.77c10.9-27.41,29.03-63.75,52.32-64.14c33.57-0.55,50.83,74.08,82.71,71.73
					c30.33-2.24,37.49-71.53,65.83-73.42c20.18-1.35,39.77,32.24,55.7,70.05"/>
				<path class="st1" d="M0.81-145.1c10.9-27.41,29.04-63.76,52.33-64.14c33.57-0.55,50.83,74.08,82.71,71.73
					c30.33-2.24,37.49-71.53,65.83-73.42c20.18-1.35,39.77,32.24,55.7,70.05"/>
			</g>
			<g>
				<path class="st2" d="M514.87-106.89c10.9-27.41,29.04-63.76,52.32-64.14c33.57-0.55,50.83,74.08,82.71,71.73
					c30.33-2.24,37.49-71.53,65.83-73.42c20.18-1.35,39.77,32.24,55.7,70.05"/>
				<path class="st3" d="M514.03-117.87c10.9-27.41,29.04-63.76,52.32-64.14c33.57-0.55,50.83,74.08,82.71,71.73
					c30.33-2.24,37.49-71.53,65.83-73.42c20.18-1.35,39.77,32.24,55.7,70.05"/>
				<path class="st2" d="M513.21-149.39c10.9-27.41,29.04-63.76,52.32-64.14c33.57-0.55,50.83,74.08,82.71,71.73
					c30.33-2.24,37.49-71.53,65.83-73.42c20.18-1.35,39.77,32.24,55.7,70.05"/>
				<path class="st1" d="M514.89-124.92c10.9-27.41,29.04-63.76,52.32-64.14c33.57-0.55,50.83,74.08,82.71,71.73
					c30.33-2.24,37.49-71.53,65.83-73.42c20.18-1.35,39.77,32.24,55.7,70.05"/>
				<path class="st3" d="M512.36-160.37c10.9-27.41,29.04-63.76,52.32-64.14c33.57-0.55,50.83,74.08,82.71,71.73
					c30.33-2.24,37.49-71.53,65.83-73.42c20.18-1.35,39.77,32.24,55.7,70.05"/>
				<path class="st2" d="M510.71-161.06c10.9-27.41,29.04-63.76,52.32-64.14c33.57-0.55,50.83,74.08,82.71,71.73
					c30.33-2.24,37.49-71.53,65.83-73.42c20.18-1.35,39.77,32.24,55.7,70.05"/>
				<path class="st1" d="M512.39-136.59c10.9-27.41,29.04-63.76,52.32-64.14c33.57-0.55,50.83,74.08,82.71,71.73
					c30.33-2.24,37.49-71.53,65.83-73.42c20.18-1.35,39.77,32.24,55.7,70.05"/>
				<path class="st3" d="M509.86-172.03c10.9-27.41,29.04-63.76,52.32-64.14c33.57-0.55,50.83,74.08,82.71,71.73
					c30.33-2.24,37.49-71.53,65.83-73.42c20.18-1.35,39.77,32.24,55.7,70.05"/>
				<path class="st2" d="M511.54-98.56c10.9-27.41,29.04-63.76,52.32-64.14c33.57-0.55,50.83,74.08,82.71,71.73
					c30.33-2.24,37.49-71.53,65.83-73.42c20.18-1.35,39.77,32.24,55.7,70.05"/>
				<path class="st1" d="M513.23-74.09c10.9-27.41,29.04-63.76,52.32-64.14c33.57-0.55,50.83,74.08,82.71,71.73
					c30.33-2.24,37.49-71.53,65.83-73.42c20.18-1.35,39.77,32.24,55.7,70.05"/>
				<path class="st3" d="M510.7-109.53c10.9-27.41,29.04-63.76,52.32-64.14c33.57-0.55,50.83,74.08,82.71,71.73
					c30.33-2.24,37.49-71.53,65.83-73.42c20.18-1.35,39.77,32.24,55.7,70.05"/>
				<path class="st2" d="M513.21-134.39c10.9-27.41,29.04-63.76,52.32-64.14c33.57-0.55,50.83,74.08,82.71,71.73
					c30.33-2.24,37.49-71.53,65.83-73.42c20.18-1.35,39.77,32.24,55.7,70.05"/>
				<path class="st4" d="M514.89-123.42c10.9-27.41,29.04-63.76,52.32-64.14c33.57-0.55,50.83,74.08,82.71,71.73
					c30.33-2.24,37.49-71.53,65.83-73.42c20.18-1.35,39.77,32.24,55.7,70.05"/>
				<path class="st3" d="M512.36-145.37c10.9-27.41,29.04-63.76,52.32-64.14c33.57-0.55,50.83,74.08,82.71,71.73
					c30.33-2.24,37.49-71.53,65.83-73.42c20.18-1.35,39.77,32.24,55.7,70.05"/>
				<path class="st2" d="M511.54-176.89c10.9-27.41,29.04-63.76,52.32-64.14c33.57-0.55,50.83,74.08,82.71,71.73
					c30.33-2.24,37.49-71.53,65.83-73.42c20.18-1.35,39.77,32.24,55.7,70.05"/>
				<path class="st1" d="M513.23-152.42c10.9-27.41,29.04-63.76,52.32-64.14c33.57-0.55,50.83,74.08,82.71,71.73
					c30.33-2.24,37.49-71.53,65.83-73.42c20.18-1.35,39.77,32.24,55.7,70.05"/>
				<path class="st3" d="M510.7-187.87c10.9-27.41,29.04-63.76,52.32-64.14c33.57-0.55,50.83,74.08,82.71,71.73
					c30.33-2.23,37.49-71.52,65.82-73.41c20.18-1.35,39.77,32.24,55.7,70.05"/>
				<path class="st2" d="M509.04-188.56c10.9-27.41,29.04-63.76,52.32-64.14c33.57-0.55,50.83,74.08,82.71,71.73
					c30.33-2.24,37.49-71.53,65.83-73.42c20.18-1.35,39.77,32.24,55.7,70.05"/>
				<path class="st1" d="M510.73-164.09c10.9-27.41,29.04-63.76,52.32-64.14c33.57-0.55,50.83,74.08,82.71,71.73
					c30.33-2.24,37.49-71.53,65.83-73.42c20.18-1.35,39.77,32.24,55.7,70.05"/>
				<path class="st2" d="M509.87-126.06c10.9-27.41,29.04-63.76,52.32-64.14c33.57-0.55,50.83,74.08,82.71,71.73
					c30.33-2.24,37.49-71.53,65.83-73.42c20.18-1.35,39.77,32.24,55.7,70.05"/>
				<path class="st3" d="M509.03-137.03c10.9-27.41,29.04-63.76,52.32-64.14c33.57-0.55,50.83,74.08,82.71,71.73
					c30.33-2.24,37.49-71.53,65.83-73.42c20.18-1.35,39.77,32.24,55.7,70.05"/>
				<path class="st2" d="M514.04-60.23c10.9-27.41,29.04-63.76,52.32-64.14c33.57-0.55,50.83,74.08,82.71,71.73
					c30.33-2.24,37.49-71.53,65.83-73.42c20.18-1.35,39.77,32.24,55.7,70.05"/>
				<path class="st3" d="M513.2-71.2c10.9-27.41,29.04-63.76,52.32-64.14c33.57-0.55,50.83,74.08,82.71,71.73
					c30.33-2.24,37.49-71.53,65.83-73.42c20.18-1.35,39.77,32.24,55.7,70.05"/>
			</g>
			<g>
				<path class="st2" d="M257.42-106.89c10.9-27.41,29.04-63.76,52.32-64.14c33.57-0.55,50.83,74.08,82.71,71.73
					c30.33-2.24,37.49-71.53,65.83-73.42c20.18-1.35,39.77,32.24,55.7,70.05"/>
				<path class="st4" d="M259.1-95.92c10.9-27.41,29.04-63.76,52.32-64.14c33.57-0.55,50.83,74.08,82.71,71.73
					c30.33-2.24,37.49-71.53,65.83-73.42c20.18-1.35,39.77,32.24,55.7,70.05"/>
				<path class="st1" d="M259.1-82.42c10.9-27.41,29.04-63.76,52.32-64.14c33.57-0.55,50.83,74.08,82.71,71.73
					c30.33-2.24,37.49-71.53,65.83-73.42c20.18-1.35,39.77,32.24,55.7,70.05"/>
				<path class="st3" d="M256.57-117.87c10.9-27.41,29.04-63.76,52.32-64.14c33.57-0.55,50.83,74.08,82.71,71.73
					c30.33-2.24,37.49-71.53,65.83-73.42c20.18-1.35,39.77,32.24,55.7,70.05"/>
				<path class="st2" d="M255.75-149.39c10.9-27.41,29.04-63.76,52.32-64.14c33.57-0.55,50.83,74.08,82.71,71.73
					c30.33-2.24,37.49-71.53,65.83-73.42c20.18-1.35,39.77,32.24,55.7,70.05"/>
				<path class="st1" d="M257.44-124.92c10.9-27.41,29.04-63.76,52.32-64.14c33.57-0.55,50.83,74.08,82.71,71.73
					c30.33-2.24,37.49-71.53,65.83-73.42c20.18-1.35,39.77,32.24,55.7,70.05"/>
				<path class="st3" d="M254.91-160.37c10.9-27.41,29.04-63.76,52.32-64.14c33.57-0.55,50.83,74.08,82.71,71.73
					c30.33-2.24,37.49-71.53,65.83-73.42c20.18-1.35,39.77,32.24,55.7,70.05"/>
				<path class="st2" d="M253.25-161.06c10.9-27.41,29.04-63.76,52.32-64.14c33.57-0.55,50.83,74.08,82.71,71.73
					c30.33-2.24,37.49-71.53,65.83-73.42c20.18-1.35,39.77,32.24,55.7,70.05"/>
				<path class="st1" d="M254.94-136.59c10.9-27.41,29.04-63.76,52.32-64.14c33.57-0.55,50.83,74.08,82.71,71.73
					c30.33-2.24,37.49-71.53,65.83-73.42c20.18-1.35,39.77,32.24,55.7,70.05"/>
				<path class="st3" d="M252.41-172.03c10.9-27.41,29.04-63.76,52.32-64.14c33.57-0.55,50.83,74.08,82.71,71.73
					c30.33-2.24,37.49-71.53,65.83-73.42c20.18-1.35,39.77,32.24,55.7,70.05"/>
				<path class="st2" d="M254.08-98.56c10.9-27.41,29.04-63.76,52.32-64.14c33.57-0.55,50.83,74.08,82.71,71.73
					c30.33-2.24,37.49-71.53,65.83-73.42c20.18-1.35,39.77,32.24,55.7,70.05"/>
				<path class="st1" d="M255.77-74.09c10.9-27.41,29.04-63.76,52.32-64.14c33.57-0.55,50.83,74.08,82.71,71.73
					c30.33-2.24,37.49-71.53,65.83-73.42c20.18-1.35,39.77,32.24,55.7,70.05"/>
				<path class="st3" d="M253.24-109.53c10.9-27.41,29.04-63.76,52.32-64.14c33.57-0.55,50.83,74.08,82.71,71.73
					c30.33-2.24,37.49-71.53,65.83-73.42c20.18-1.35,39.77,32.24,55.7,70.05"/>
				<path class="st2" d="M255.75-134.39c10.9-27.41,29.04-63.76,52.32-64.14c33.57-0.55,50.83,74.08,82.71,71.73
					c30.33-2.24,37.49-71.53,65.83-73.42c20.18-1.35,39.77,32.24,55.7,70.05"/>
				<path class="st4" d="M257.44-123.42c10.9-27.41,29.04-63.76,52.32-64.14c33.57-0.55,50.83,74.08,82.71,71.73
					c30.33-2.24,37.49-71.53,65.83-73.42c20.18-1.35,39.77,32.24,55.7,70.05"/>
				<path class="st3" d="M254.91-145.37c10.9-27.41,29.04-63.76,52.32-64.14c33.57-0.55,50.83,74.08,82.71,71.73
					c30.33-2.24,37.49-71.53,65.83-73.42c20.18-1.35,39.77,32.24,55.7,70.05"/>
				<path class="st2" d="M254.08-176.89c10.9-27.41,29.04-63.76,52.32-64.14c33.57-0.55,50.83,74.08,82.71,71.73
					c30.33-2.24,37.49-71.53,65.83-73.42c20.18-1.35,39.77,32.24,55.7,70.05"/>
				<path class="st1" d="M255.77-152.42c10.9-27.41,29.04-63.76,52.32-64.14c33.57-0.55,50.83,74.08,82.71,71.73
					c30.33-2.24,37.49-71.53,65.83-73.42c20.18-1.35,39.77,32.24,55.7,70.05"/>
				<path class="st3" d="M253.24-187.87c10.9-27.41,29.04-63.76,52.32-64.14c33.57-0.55,50.83,74.08,82.71,71.73
					c30.33-2.23,37.49-71.52,65.82-73.41c20.18-1.35,39.77,32.24,55.7,70.05"/>
				<path class="st2" d="M251.58-188.56c10.9-27.41,29.04-63.76,52.32-64.14c33.57-0.55,50.83,74.08,82.71,71.73
					c30.33-2.24,37.49-71.53,65.83-73.42c20.18-1.35,39.77,32.24,55.7,70.05"/>
				<path class="st1" d="M253.27-164.09c10.9-27.41,29.04-63.76,52.32-64.14c33.57-0.55,50.83,74.08,82.71,71.73
					c30.33-2.24,37.49-71.53,65.83-73.42c20.18-1.35,39.77,32.24,55.7,70.05"/>
				<path class="st2" d="M252.42-126.06c10.9-27.41,29.04-63.76,52.32-64.14c33.57-0.55,50.83,74.08,82.71,71.73
					c30.33-2.24,37.49-71.53,65.83-73.42c20.18-1.35,39.77,32.24,55.7,70.05"/>
				<path class="st3" d="M251.57-137.03c10.9-27.41,29.04-63.76,52.32-64.14c33.57-0.55,50.83,74.08,82.71,71.73
					c30.33-2.24,37.49-71.53,65.83-73.42c20.18-1.35,39.77,32.24,55.7,70.05"/>
				<path class="st2" d="M256.58-60.23c10.9-27.41,29.04-63.76,52.32-64.14c33.57-0.55,50.83,74.08,82.71,71.73
					c30.33-2.24,37.49-71.53,65.83-73.42c20.18-1.35,39.77,32.24,55.7,70.05"/>
				<path class="st1" d="M258.27-35.75c10.9-27.41,29.04-63.76,52.32-64.14c33.57-0.55,50.83,74.08,82.71,71.73
					c30.33-2.24,37.49-71.53,65.83-73.42c20.18-1.35,39.77,32.24,55.7,70.05"/>
				<path class="st3" d="M255.74-71.2c10.9-27.41,29.04-63.76,52.32-64.14c33.57-0.55,50.83,74.08,82.71,71.73
					c30.33-2.24,37.49-71.53,65.83-73.42c20.18-1.35,39.77,32.24,55.7,70.05"/>
			</g>
			<g>
				<path class="st4" d="M1.65-95.92c10.9-27.41,29.04-63.76,52.32-64.14c33.57-0.55,50.83,74.08,82.71,71.73
					c30.33-2.24,37.49-71.53,65.83-73.42c20.18-1.35,39.77,32.24,55.7,70.05"/>
				<path class="st1" d="M1.65-82.42c10.9-27.41,29.04-63.76,52.32-64.14c33.57-0.55,50.83,74.08,82.71,71.73
					c30.33-2.24,37.49-71.53,65.83-73.42c20.18-1.35,39.77,32.24,55.7,70.05"/>
				<path class="st1" d="M0.81-35.75c10.9-27.41,29.04-63.76,52.32-64.14c33.57-0.55,50.83,74.08,82.71,71.73
					c30.33-2.24,37.49-71.53,65.83-73.42c20.18-1.35,39.77,32.24,55.7,70.05"/>
			</g>
			<g>
				<path class="st3" d="M514.03-8.52c10.9-27.41,29.04-63.76,52.32-64.14c33.57-0.55,50.83,74.08,82.71,71.73
					c30.33-2.24,37.49-71.53,65.83-73.42c20.18-1.35,39.77,32.24,55.7,70.05"/>
				<path class="st2" d="M513.21-40.05c10.9-27.41,29.04-63.76,52.32-64.14c33.57-0.55,50.83,74.08,82.71,71.73
					c30.33-2.24,37.49-71.53,65.83-73.42c20.18-1.35,39.77,32.24,55.7,70.05"/>
				<path class="st1" d="M514.89-15.57c10.9-27.41,29.04-63.76,52.32-64.14c33.57-0.55,50.83,74.08,82.71,71.73
					c30.33-2.24,37.49-71.53,65.83-73.42c20.18-1.35,39.77,32.24,55.7,70.05"/>
				<path class="st3" d="M512.36-51.02c10.9-27.41,29.04-63.76,52.32-64.14c33.57-0.55,50.83,74.08,82.71,71.73
					c30.33-2.24,37.49-71.53,65.83-73.42c20.18-1.35,39.77,32.24,55.7,70.05"/>
				<path class="st2" d="M510.71-51.72c10.9-27.41,29.04-63.76,52.32-64.14c33.57-0.55,50.83,74.08,82.71,71.73
					c30.33-2.24,37.49-71.53,65.83-73.42c20.18-1.35,39.77,32.24,55.7,70.05"/>
				<path class="st1" d="M512.39-27.24c10.9-27.41,29.04-63.76,52.32-64.14c33.57-0.55,50.83,74.08,82.71,71.73
					c30.33-2.24,37.49-71.53,65.83-73.42c20.18-1.35,39.77,32.24,55.7,70.05"/>
				<path class="st3" d="M509.86-62.69c10.9-27.41,29.04-63.76,52.32-64.14c33.57-0.55,50.83,74.08,82.71,71.73
					c30.33-2.24,37.49-71.53,65.83-73.42c20.18-1.35,39.77,32.24,55.7,70.05"/>
				<path class="st2" d="M513.21-25.05c10.9-27.41,29.04-63.76,52.32-64.14c33.57-0.55,50.83,74.08,82.71,71.73
					c30.33-2.24,37.49-71.53,65.83-73.42c20.18-1.35,39.77,32.24,55.7,70.05"/>
				<path class="st4" d="M514.89-14.08c10.9-27.41,29.04-63.76,52.32-64.14c33.57-0.55,50.83,74.08,82.71,71.73
					c30.33-2.24,37.49-71.53,65.83-73.42c20.18-1.35,39.77,32.24,55.7,70.05"/>
				<path class="st3" d="M512.36-36.02c10.9-27.41,29.04-63.76,52.32-64.14c33.57-0.55,50.83,74.08,82.71,71.73
					c30.33-2.24,37.49-71.53,65.83-73.42c20.18-1.35,39.77,32.24,55.7,70.05"/>
				<path class="st2" d="M511.54-67.55c10.9-27.41,29.04-63.76,52.32-64.14c33.57-0.55,50.83,74.08,82.71,71.73
					c30.33-2.24,37.49-71.53,65.83-73.42c20.18-1.35,39.77,32.24,55.7,70.05"/>
				<path class="st1" d="M513.23-43.07c10.9-27.41,29.04-63.76,52.32-64.14c33.57-0.55,50.83,74.08,82.71,71.73
					c30.33-2.24,37.49-71.53,65.83-73.42c20.18-1.35,39.77,32.24,55.7,70.05"/>
				<path class="st3" d="M510.7-78.52c10.9-27.41,29.04-63.76,52.32-64.14c33.57-0.55,50.83,74.08,82.71,71.73
					c30.33-2.24,37.49-71.53,65.83-73.42c20.18-1.35,39.77,32.24,55.7,70.05"/>
				<path class="st2" d="M509.04-79.22c10.9-27.41,29.04-63.76,52.32-64.14c33.57-0.55,50.83,74.08,82.71,71.73
					c30.33-2.24,37.49-71.53,65.83-73.42c20.18-1.35,39.77,32.24,55.7,70.05"/>
				<path class="st1" d="M510.73-54.74c10.9-27.41,29.04-63.76,52.32-64.14c33.57-0.55,50.83,74.08,82.71,71.73
					c30.33-2.24,37.49-71.53,65.83-73.42c20.18-1.35,39.77,32.24,55.7,70.05"/>
				<path class="st2" d="M509.87-16.72c10.9-27.41,29.04-63.76,52.32-64.14c33.57-0.55,50.83,74.08,82.71,71.73
					c30.33-2.24,37.49-71.53,65.83-73.42c20.18-1.35,39.77,32.24,55.7,70.05"/>
				<path class="st3" d="M509.03-27.69c10.9-27.41,29.04-63.76,52.32-64.14c33.57-0.55,50.83,74.08,82.71,71.73
					c30.33-2.24,37.49-71.53,65.83-73.42c20.18-1.35,39.77,32.24,55.7,70.05"/>
			</g>
			<g>
				<path class="st3" d="M256.57-8.52c10.9-27.41,29.04-63.76,52.32-64.14c33.57-0.55,50.83,74.08,82.71,71.73
					c30.33-2.24,37.49-71.53,65.83-73.42c20.18-1.35,39.77,32.24,55.7,70.05"/>
				<path class="st2" d="M255.75-40.05c10.9-27.41,29.04-63.76,52.32-64.14c33.57-0.55,50.83,74.08,82.71,71.73
					c30.33-2.24,37.49-71.53,65.83-73.42c20.18-1.35,39.77,32.24,55.7,70.05"/>
				<path class="st1" d="M257.44-15.57c10.9-27.41,29.04-63.76,52.32-64.14c33.57-0.55,50.83,74.08,82.71,71.73
					c30.33-2.24,37.49-71.53,65.83-73.42c20.18-1.35,39.77,32.24,55.7,70.05"/>
				<path class="st3" d="M254.91-51.02c10.9-27.41,29.04-63.76,52.32-64.14c33.57-0.55,50.83,74.08,82.71,71.73
					c30.33-2.24,37.49-71.53,65.83-73.42c20.18-1.35,39.77,32.24,55.7,70.05"/>
				<path class="st2" d="M253.25-51.72c10.9-27.41,29.04-63.76,52.32-64.14c33.57-0.55,50.83,74.08,82.71,71.73
					c30.33-2.24,37.49-71.53,65.83-73.42c20.18-1.35,39.77,32.24,55.7,70.05"/>
				<path class="st1" d="M254.94-27.24c10.9-27.41,29.04-63.76,52.32-64.14c33.57-0.55,50.83,74.08,82.71,71.73
					c30.33-2.24,37.49-71.53,65.83-73.42c20.18-1.35,39.77,32.24,55.7,70.05"/>
				<path class="st3" d="M252.41-62.69c10.9-27.41,29.04-63.76,52.32-64.14c33.57-0.55,50.83,74.08,82.71,71.73
					c30.33-2.24,37.49-71.53,65.83-73.42c20.18-1.35,39.77,32.24,55.7,70.05"/>
				<path class="st2" d="M255.75-25.05c10.9-27.41,29.04-63.76,52.32-64.14c33.57-0.55,50.83,74.08,82.71,71.73
					c30.33-2.24,37.49-71.53,65.83-73.42c20.18-1.35,39.77,32.24,55.7,70.05"/>
				<path class="st4" d="M257.44-14.08c10.9-27.41,29.04-63.76,52.32-64.14c33.57-0.55,50.83,74.08,82.71,71.73
					c30.33-2.24,37.49-71.53,65.83-73.42c20.18-1.35,39.77,32.24,55.7,70.05"/>
				<path class="st3" d="M254.91-36.02c10.9-27.41,29.04-63.76,52.32-64.14c33.57-0.55,50.83,74.08,82.71,71.73
					c30.33-2.24,37.49-71.53,65.83-73.42c20.18-1.35,39.77,32.24,55.7,70.05"/>
				<path class="st2" d="M254.08-67.55c10.9-27.41,29.04-63.76,52.32-64.14c33.57-0.55,50.83,74.08,82.71,71.73
					c30.33-2.24,37.49-71.53,65.83-73.42c20.18-1.35,39.77,32.24,55.7,70.05"/>
				<path class="st1" d="M255.77-43.07c10.9-27.41,29.04-63.76,52.32-64.14c33.57-0.55,50.83,74.08,82.71,71.73
					c30.33-2.24,37.49-71.53,65.83-73.42c20.18-1.35,39.77,32.24,55.7,70.05"/>
				<path class="st3" d="M253.24-78.52c10.9-27.41,29.04-63.76,52.32-64.14c33.57-0.55,50.83,74.08,82.71,71.73
					c30.33-2.24,37.49-71.53,65.83-73.42c20.18-1.35,39.77,32.24,55.7,70.05"/>
				<path class="st2" d="M251.58-79.22c10.9-27.41,29.04-63.76,52.32-64.14c33.57-0.55,50.83,74.08,82.71,71.73
					c30.33-2.24,37.49-71.53,65.83-73.42c20.18-1.35,39.77,32.24,55.7,70.05"/>
				<path class="st1" d="M253.27-54.74c10.9-27.41,29.04-63.76,52.32-64.14c33.57-0.55,50.83,74.08,82.71,71.73
					c30.33-2.24,37.49-71.53,65.83-73.42c20.18-1.35,39.77,32.24,55.7,70.05"/>
				<path class="st2" d="M252.42-16.72c10.9-27.41,29.04-63.76,52.32-64.14c33.57-0.55,50.83,74.08,82.71,71.73
					c30.33-2.24,37.49-71.53,65.83-73.42c20.18-1.35,39.77,32.24,55.7,70.05"/>
				<path class="st3" d="M251.57-27.69c10.9-27.41,29.04-63.76,52.32-64.14c33.57-0.55,50.83,74.08,82.71,71.73
					c30.33-2.24,37.49-71.53,65.83-73.42c20.18-1.35,39.77,32.24,55.7,70.05"/>
			</g>
		</g>
	</g>
</pattern>
<pattern  x="2.5" y="272.36" width="225.85" height="226.9" patternUnits="userSpaceOnUse" id="SVGID_0000011479577108992985911" viewBox="138.3 -451.12 225.85 226.9" style="overflow:visible;">
	<g>
		<rect x="138.3" y="-451.12" class="st0" width="225.85" height="226.9"/>
		<g>
			<rect x="138.3" y="-451.12" class="st0" width="225.85" height="226.9"/>
			<g>
				<polyline class="st5" points="410.17,-499.54 403.45,-594.94 400.23,-452.14 398.91,-525.96 394.58,-492.43 393.32,-586.93 
					388.8,-465.77 385.18,-558.26 381.47,-478.46 379.21,-596.57 377.82,-470.53 374.59,-559.1 370.13,-433.01 369.35,-620.06 
					366.12,-478.25 366.18,-653.49 362.38,-426.01 361.23,-538.23 359.24,-508.67 358.61,-555.92 355.51,-506.65 356.16,-586.4 				
					"/>
			</g>
			<g>
				<polyline class="st5" points="339.33,-503.4 330.93,-598.66 330.23,-455.82 327.6,-529.61 323.87,-496 320.95,-590.46 
					318.56,-469.23 313.31,-561.64 311,-481.79 306.67,-599.84 307.5,-473.8 302.71,-562.28 300.47,-436.14 296.39,-623.14 
					295.66,-481.29 292.63,-656.51 292.85,-429 289.72,-541.18 288.24,-511.58 286.78,-558.81 284.55,-509.49 283.79,-589.24 				
					"/>
				<polyline class="st5" points="246.32,-505.37 237.91,-600.63 237.21,-457.79 234.59,-531.58 230.85,-497.97 227.93,-592.43 
					225.54,-471.2 220.29,-563.61 217.99,-483.76 213.65,-601.81 214.48,-475.76 209.69,-564.25 207.46,-438.11 203.38,-625.11 
					202.65,-483.26 199.61,-658.48 199.83,-430.96 196.7,-543.14 195.23,-513.55 193.77,-560.78 191.54,-511.46 190.78,-591.21 				
					"/>
				<polyline class="st5" points="184.32,-499.54 177.59,-594.94 174.38,-452.14 173.06,-525.96 168.73,-492.43 167.47,-586.93 
					162.94,-465.77 159.32,-558.26 155.61,-478.46 153.36,-596.57 151.97,-470.53 148.74,-559.1 144.28,-433.01 143.5,-620.06 
					140.27,-478.25 140.32,-653.49 136.53,-426.01 135.38,-538.23 133.38,-508.67 132.75,-555.92 129.66,-506.65 130.3,-586.4 				
					"/>
				<polyline class="st6" points="301.02,-520.4 282.73,-615.34 272.77,-472.2 269.53,-545.97 257.15,-512.08 254.22,-606.53 
					240.72,-484.95 231.15,-577.22 220.19,-497.08 214.62,-615.09 209.89,-488.87 201.4,-577.23 188.05,-450.73 187.06,-637.83 
					177.06,-495.68 178.35,-671.04 166.22,-443.12 163.71,-555.32 157.91,-525.58 156.45,-572.81 147.43,-523.27 149.75,-603.13 
									"/>
				<polyline class="st6" points="380.61,-522.37 362.33,-617.31 352.36,-474.17 349.12,-547.94 336.74,-514.05 333.82,-608.5 
					320.31,-486.92 310.74,-579.19 299.79,-499.05 294.21,-617.06 289.49,-490.84 280.99,-579.2 267.64,-452.7 266.65,-639.8 
					256.66,-497.64 257.94,-673 245.81,-445.09 243.3,-557.29 237.5,-527.55 236.04,-574.78 227.02,-525.24 229.34,-605.1 				"/>
				<polyline class="st7" points="384.4,-521.12 376,-616.38 375.3,-473.54 372.67,-547.33 368.94,-513.72 366.01,-608.18 
					363.62,-486.95 358.38,-579.36 356.07,-499.51 351.74,-617.56 352.57,-491.52 347.78,-580 345.54,-453.86 341.46,-640.86 
					340.73,-499.01 337.7,-674.23 337.92,-446.72 334.79,-558.9 333.31,-529.3 331.85,-576.53 329.62,-527.21 328.86,-606.96 				
					"/>
			</g>
			<g>
				<polyline class="st6" points="154.76,-522.37 136.47,-617.31 126.51,-474.17 123.27,-547.94 110.88,-514.05 107.96,-608.5 
					94.46,-486.92 84.88,-579.19 73.93,-499.05 68.36,-617.06 63.63,-490.84 55.14,-579.2 41.79,-452.7 40.79,-639.8 30.8,-497.64 
					32.09,-673 19.96,-445.09 17.44,-557.29 11.65,-527.55 10.19,-574.78 1.17,-525.24 3.49,-605.1 				"/>
				<polyline class="st7" points="158.55,-521.12 150.14,-616.38 149.45,-473.54 146.82,-547.33 143.08,-513.72 140.16,-608.18 
					137.77,-486.95 132.52,-579.36 130.22,-499.51 125.88,-617.56 126.71,-491.52 121.93,-580 119.69,-453.86 115.61,-640.86 
					114.88,-499.01 111.85,-674.23 112.06,-446.72 108.93,-558.9 107.46,-529.3 106,-576.53 103.77,-527.21 103.01,-606.96 				"/>
			</g>
			<g>
				<polyline class="st5" points="410.17,-272.64 403.45,-368.05 400.23,-225.25 398.91,-299.07 394.58,-265.53 393.32,-360.03 
					388.8,-238.87 385.18,-331.36 381.47,-251.56 379.21,-369.68 377.82,-243.64 374.59,-332.2 370.13,-206.12 369.35,-393.17 
					366.12,-251.35 366.18,-426.6 362.38,-199.12 361.23,-311.34 359.24,-281.77 358.61,-329.02 355.51,-279.75 356.16,-359.51 				
					"/>
				<polyline class="st5" points="343.91,-401.97 352.01,-306.68 353.16,-449.51 355.55,-375.72 359.4,-409.32 362.02,-314.85 
					364.79,-436.07 369.75,-343.64 372.31,-423.48 376.27,-305.42 375.84,-431.47 380.34,-342.96 382.98,-469.1 386.47,-282.08 
					387.65,-423.93 390.13,-248.71 390.63,-476.22 393.4,-364.03 394.97,-393.62 396.28,-346.38 398.67,-395.7 399.18,-315.94 				
					"/>
			</g>
			<g>
				<polyline class="st5" points="339.33,-276.5 330.93,-371.76 330.23,-228.93 327.6,-302.71 323.87,-269.1 320.95,-363.56 
					318.56,-242.33 313.31,-334.75 311,-254.89 306.67,-372.94 307.5,-246.9 302.71,-335.39 300.47,-209.24 296.39,-396.25 
					295.66,-254.39 292.63,-429.61 292.85,-202.1 289.72,-314.28 288.24,-284.68 286.78,-331.91 284.55,-282.59 283.79,-362.35 				
					"/>
				<polyline class="st5" points="246.32,-278.47 237.91,-373.73 237.21,-230.89 234.59,-304.68 230.85,-271.07 227.93,-365.53 
					225.54,-244.3 220.29,-336.72 217.99,-256.86 213.65,-374.91 214.48,-248.87 209.69,-337.35 207.46,-211.21 203.38,-398.21 
					202.65,-256.36 199.61,-431.58 199.83,-204.07 196.7,-316.25 195.23,-286.65 193.77,-333.88 191.54,-284.56 190.78,-364.32 				
					"/>
				<polyline class="st5" points="175.98,-398.1 186.32,-303.04 184.12,-445.86 188.24,-372.15 191.3,-405.83 196.14,-311.45 
					196.07,-432.7 203.19,-340.42 203.87,-420.31 210.6,-302.38 207.22,-428.38 213.8,-340.01 213.47,-466.17 221.35,-279.3 
					219.2,-421.14 225.78,-246.02 220.95,-473.48 226.36,-361.39 227.23,-391.01 229.65,-343.82 230.88,-393.18 233.26,-313.46 				
					"/>
				<polyline class="st5" points="281.47,-387.27 291.8,-292.21 289.61,-435.03 293.73,-361.32 296.78,-395 301.62,-300.62 
					301.55,-421.87 308.67,-329.59 309.36,-409.48 316.08,-291.55 312.7,-417.55 319.28,-329.18 318.96,-455.35 326.83,-268.47 
					324.68,-410.31 331.27,-235.19 326.44,-462.65 331.84,-350.56 332.71,-380.18 335.13,-332.99 336.36,-382.35 338.74,-302.63 
									"/>
				<polyline class="st5" points="318.87,-390.22 329.2,-295.16 327,-437.98 331.12,-364.27 334.18,-397.95 339.02,-303.58 
					338.95,-424.83 346.07,-332.55 346.75,-412.43 353.48,-294.5 350.1,-420.5 356.68,-332.13 356.35,-458.3 364.23,-271.42 
					362.08,-413.26 368.67,-238.14 363.83,-465.6 369.24,-353.51 370.11,-383.14 372.53,-335.95 373.76,-385.3 376.14,-305.58 				
					"/>
				<polyline class="st5" points="184.32,-272.64 177.59,-368.05 174.38,-225.25 173.06,-299.07 168.73,-265.53 167.47,-360.03 
					162.94,-238.87 159.32,-331.36 155.61,-251.56 153.36,-369.68 151.97,-243.64 148.74,-332.2 144.28,-206.12 143.5,-393.17 
					140.27,-251.35 140.32,-426.6 136.53,-199.12 135.38,-311.34 133.38,-281.77 132.75,-329.02 129.66,-279.75 130.3,-359.51 				
					"/>
				<polyline class="st5" points="118.05,-401.97 126.16,-306.68 127.31,-449.51 129.7,-375.72 133.54,-409.32 136.17,-314.85 
					138.94,-436.07 143.9,-343.64 146.45,-423.48 150.42,-305.42 149.98,-431.47 154.49,-342.96 157.13,-469.1 160.62,-282.08 
					161.79,-423.93 164.27,-248.71 164.78,-476.22 167.55,-364.03 169.12,-393.62 170.43,-346.38 172.81,-395.7 173.32,-315.94 				
					"/>
				<polyline class="st6" points="160.75,-381.55 176.1,-286.06 190.48,-428.8 191.44,-354.97 204.86,-388.44 204.86,-293.94 
					222.12,-415.02 228.84,-322.48 242.26,-402.22 244.18,-284.09 252.81,-410.1 258.56,-321.5 275.82,-447.51 271.03,-260.47 
					285.41,-402.22 278.7,-226.99 297.88,-454.4 296.92,-342.17 303.63,-371.71 303.63,-324.45 314.18,-373.68 309.39,-293.94 				
					"/>
				<polyline class="st6" points="294.31,-312.21 276.02,-407.15 266.06,-264.01 262.82,-337.77 250.43,-303.88 247.51,-398.34 
					234,-276.75 224.43,-369.03 213.48,-288.89 207.91,-406.9 203.18,-280.67 194.69,-369.04 181.34,-242.53 180.34,-429.64 
					170.35,-287.48 171.64,-462.84 159.51,-234.93 156.99,-347.13 151.2,-317.39 149.74,-364.62 140.72,-315.08 143.04,-394.93 				
					"/>
				<polyline class="st6" points="301.02,-293.5 282.73,-388.45 272.77,-245.31 269.53,-319.07 257.15,-285.18 254.22,-379.64 
					240.72,-258.05 231.15,-350.32 220.19,-270.18 214.62,-388.19 209.89,-261.97 201.4,-350.34 188.05,-223.83 187.06,-410.93 
					177.06,-268.78 178.35,-444.14 166.22,-216.22 163.71,-328.42 157.91,-298.69 156.45,-345.91 147.43,-296.37 149.75,-376.23 
									"/>
				<polyline class="st6" points="356.64,-314.18 338.35,-409.12 328.39,-265.98 325.15,-339.74 312.77,-305.85 309.84,-400.31 
					296.34,-278.72 286.76,-370.99 275.81,-290.86 270.24,-408.87 265.51,-282.64 257.02,-371.01 243.67,-244.5 242.67,-431.61 
					232.68,-289.45 233.97,-464.81 221.84,-236.9 219.32,-349.1 213.53,-319.36 212.07,-366.59 203.05,-317.05 205.37,-396.9 				
					"/>
				<polyline class="st6" points="380.61,-295.47 362.33,-390.41 352.36,-247.27 349.12,-321.04 336.74,-287.15 333.82,-381.61 
					320.31,-260.02 310.74,-352.29 299.79,-272.15 294.21,-390.16 289.49,-263.94 280.99,-352.3 267.64,-225.8 266.65,-412.9 
					256.66,-270.75 257.94,-446.11 245.81,-218.19 243.3,-330.39 237.5,-300.65 236.04,-347.88 227.02,-298.34 229.34,-378.2 				
					"/>
				<polyline class="st7" points="384.4,-294.22 376,-389.48 375.3,-246.65 372.67,-320.43 368.94,-286.82 366.01,-381.28 
					363.62,-260.05 358.38,-352.47 356.07,-272.61 351.74,-390.66 352.57,-264.62 347.78,-353.11 345.54,-226.96 341.46,-413.97 
					340.73,-272.11 337.7,-447.33 337.92,-219.82 334.79,-332 333.31,-302.4 331.85,-349.63 329.62,-300.31 328.86,-380.07 				"/>
			</g>
			<g>
				<polyline class="st5" points="93.01,-390.22 103.35,-295.16 101.15,-437.98 105.27,-364.27 108.32,-397.95 113.16,-303.58 
					113.09,-424.83 120.21,-332.55 120.9,-412.43 127.63,-294.5 124.24,-420.5 130.82,-332.13 130.5,-458.3 138.37,-271.42 
					136.23,-413.26 142.81,-238.14 137.98,-465.6 143.39,-353.51 144.26,-383.14 146.68,-335.95 147.9,-385.3 150.28,-305.58 				
					"/>
				<polyline class="st6" points="154.76,-295.47 136.47,-390.41 126.51,-247.27 123.27,-321.04 110.88,-287.15 107.96,-381.61 
					94.46,-260.02 84.88,-352.29 73.93,-272.15 68.36,-390.16 63.63,-263.94 55.14,-352.3 41.79,-225.8 40.79,-412.9 30.8,-270.75 
					32.09,-446.11 19.96,-218.19 17.44,-330.39 11.65,-300.65 10.19,-347.88 1.17,-298.34 3.49,-378.2 				"/>
				<polyline class="st7" points="158.55,-294.22 150.14,-389.48 149.45,-246.65 146.82,-320.43 143.08,-286.82 140.16,-381.28 
					137.77,-260.05 132.52,-352.47 130.22,-272.61 125.88,-390.66 126.71,-264.62 121.93,-353.11 119.69,-226.96 115.61,-413.97 
					114.88,-272.11 111.85,-447.33 112.06,-219.82 108.93,-332 107.46,-302.4 106,-349.63 103.77,-300.31 103.01,-380.07 				"/>
			</g>
			<g>
				<polyline class="st5" points="343.91,-175.07 352.01,-79.78 353.16,-222.62 355.55,-148.82 359.4,-182.42 362.02,-87.95 
					364.79,-209.17 369.75,-116.74 372.31,-196.59 376.27,-78.52 375.84,-204.57 380.34,-116.07 382.98,-242.2 386.47,-55.18 
					387.65,-197.04 390.13,-21.81 390.63,-249.32 393.4,-137.13 394.97,-166.72 396.28,-119.49 398.67,-168.8 399.18,-89.04 				"/>
			</g>
			<g>
				<polyline class="st5" points="175.98,-171.2 186.32,-76.14 184.12,-218.96 188.24,-145.25 191.3,-178.93 196.14,-84.55 
					196.07,-205.8 203.19,-113.52 203.87,-193.41 210.6,-75.48 207.22,-201.48 213.8,-113.11 213.47,-239.28 221.35,-52.4 
					219.2,-194.24 225.78,-19.12 220.95,-246.58 226.36,-134.49 227.23,-164.11 229.65,-116.93 230.88,-166.28 233.26,-86.56 				
					"/>
				<polyline class="st5" points="281.47,-160.37 291.8,-65.31 289.61,-208.13 293.73,-134.42 296.78,-168.1 301.62,-73.73 
					301.55,-194.98 308.67,-102.7 309.36,-182.58 316.08,-64.65 312.7,-190.65 319.28,-102.28 318.96,-228.45 326.83,-41.57 
					324.68,-183.41 331.27,-8.29 326.44,-235.75 331.84,-123.66 332.71,-153.28 335.13,-106.1 336.36,-155.45 338.74,-75.73 				"/>
				<polyline class="st5" points="318.87,-163.33 329.2,-68.26 327,-211.08 331.12,-137.37 334.18,-171.05 339.02,-76.68 
					338.95,-197.93 346.07,-105.65 346.75,-185.54 353.48,-67.6 350.1,-193.6 356.68,-105.24 356.35,-231.4 364.23,-44.52 
					362.08,-186.36 368.67,-11.25 363.83,-238.71 369.24,-126.62 370.11,-156.24 372.53,-109.05 373.76,-158.41 376.14,-78.68 				
					"/>
				<polyline class="st5" points="118.05,-175.07 126.16,-79.78 127.31,-222.62 129.7,-148.82 133.54,-182.42 136.17,-87.95 
					138.94,-209.17 143.9,-116.74 146.45,-196.59 150.42,-78.52 149.98,-204.57 154.49,-116.07 157.13,-242.2 160.62,-55.18 
					161.79,-197.04 164.27,-21.81 164.78,-249.32 167.55,-137.13 169.12,-166.72 170.43,-119.49 172.81,-168.8 173.32,-89.04 				
					"/>
				<polyline class="st6" points="160.75,-154.65 176.1,-59.16 190.48,-201.91 191.44,-128.07 204.86,-161.54 204.86,-67.04 
					222.12,-188.12 228.84,-95.59 242.26,-175.33 244.18,-57.19 252.81,-183.2 258.56,-94.6 275.82,-220.61 271.03,-33.57 
					285.41,-175.33 278.7,-0.1 297.88,-227.5 296.92,-115.28 303.63,-144.81 303.63,-97.56 314.18,-146.78 309.39,-67.04 				"/>
				<polyline class="st6" points="294.31,-85.31 276.02,-180.25 266.06,-37.11 262.82,-110.88 250.43,-76.99 247.51,-171.44 
					234,-49.86 224.43,-142.13 213.48,-61.99 207.91,-180 203.18,-53.78 194.69,-142.14 181.34,-15.64 180.34,-202.74 
					170.35,-60.58 171.64,-235.94 159.51,-8.03 156.99,-120.23 151.2,-90.49 149.74,-137.72 140.72,-88.18 143.04,-168.04 				"/>
				<polyline class="st6" points="356.64,-87.28 338.35,-182.22 328.39,-39.08 325.15,-112.85 312.77,-78.95 309.84,-173.41 
					296.34,-51.82 286.76,-144.1 275.81,-63.96 270.24,-181.97 265.51,-55.74 257.02,-144.11 243.67,-17.6 242.67,-204.71 
					232.68,-62.55 233.97,-237.91 221.84,-10 219.32,-122.2 213.53,-92.46 212.07,-139.69 203.05,-90.15 205.37,-170.01 				"/>
			</g>
			<g>
				<polyline class="st5" points="93.01,-163.33 103.35,-68.26 101.15,-211.08 105.27,-137.37 108.32,-171.05 113.16,-76.68 
					113.09,-197.93 120.21,-105.65 120.9,-185.54 127.63,-67.6 124.24,-193.6 130.82,-105.24 130.5,-231.4 138.37,-44.52 
					136.23,-186.36 142.81,-11.25 137.98,-238.71 143.39,-126.62 144.26,-156.24 146.68,-109.05 147.9,-158.41 150.28,-78.68 				
					"/>
			</g>
		</g>
	</g>
</pattern>
<pattern  x="2.5" y="272.36" width="225.85" height="226.9" patternUnits="userSpaceOnUse" id="SVGID_1_" viewBox="138.3 -451.12 225.85 226.9" style="overflow:visible;">
	<g>
		<rect x="138.3" y="-451.12" class="st0" width="225.85" height="226.9"/>
		<g>
			<rect x="138.3" y="-451.12" class="st0" width="225.85" height="226.9"/>
			<g>
				<polyline class="st5" points="410.17,-499.54 403.45,-594.94 400.23,-452.14 398.91,-525.96 394.58,-492.43 393.32,-586.93 
					388.8,-465.77 385.18,-558.26 381.47,-478.46 379.21,-596.57 377.82,-470.53 374.59,-559.1 370.13,-433.01 369.35,-620.06 
					366.12,-478.25 366.18,-653.49 362.38,-426.01 361.23,-538.23 359.24,-508.67 358.61,-555.92 355.51,-506.65 356.16,-586.4 				
					"/>
			</g>
			<g>
				<polyline class="st5" points="339.33,-503.4 330.93,-598.66 330.23,-455.82 327.6,-529.61 323.87,-496 320.95,-590.46 
					318.56,-469.23 313.31,-561.64 311,-481.79 306.67,-599.84 307.5,-473.8 302.71,-562.28 300.47,-436.14 296.39,-623.14 
					295.66,-481.29 292.63,-656.51 292.85,-429 289.72,-541.18 288.24,-511.58 286.78,-558.81 284.55,-509.49 283.79,-589.24 				
					"/>
				<polyline class="st5" points="246.32,-505.37 237.91,-600.63 237.21,-457.79 234.59,-531.58 230.85,-497.97 227.93,-592.43 
					225.54,-471.2 220.29,-563.61 217.99,-483.76 213.65,-601.81 214.48,-475.76 209.69,-564.25 207.46,-438.11 203.38,-625.11 
					202.65,-483.26 199.61,-658.48 199.83,-430.96 196.7,-543.14 195.23,-513.55 193.77,-560.78 191.54,-511.46 190.78,-591.21 				
					"/>
				<polyline class="st5" points="184.32,-499.54 177.59,-594.94 174.38,-452.14 173.06,-525.96 168.73,-492.43 167.47,-586.93 
					162.94,-465.77 159.32,-558.26 155.61,-478.46 153.36,-596.57 151.97,-470.53 148.74,-559.1 144.28,-433.01 143.5,-620.06 
					140.27,-478.25 140.32,-653.49 136.53,-426.01 135.38,-538.23 133.38,-508.67 132.75,-555.92 129.66,-506.65 130.3,-586.4 				
					"/>
				<polyline class="st6" points="301.02,-520.4 282.73,-615.34 272.77,-472.2 269.53,-545.97 257.15,-512.08 254.22,-606.53 
					240.72,-484.95 231.15,-577.22 220.19,-497.08 214.62,-615.09 209.89,-488.87 201.4,-577.23 188.05,-450.73 187.06,-637.83 
					177.06,-495.68 178.35,-671.04 166.22,-443.12 163.71,-555.32 157.91,-525.58 156.45,-572.81 147.43,-523.27 149.75,-603.13 
									"/>
				<polyline class="st6" points="380.61,-522.37 362.33,-617.31 352.36,-474.17 349.12,-547.94 336.74,-514.05 333.82,-608.5 
					320.31,-486.92 310.74,-579.19 299.79,-499.05 294.21,-617.06 289.49,-490.84 280.99,-579.2 267.64,-452.7 266.65,-639.8 
					256.66,-497.64 257.94,-673 245.81,-445.09 243.3,-557.29 237.5,-527.55 236.04,-574.78 227.02,-525.24 229.34,-605.1 				"/>
				<polyline class="st7" points="384.4,-521.12 376,-616.38 375.3,-473.54 372.67,-547.33 368.94,-513.72 366.01,-608.18 
					363.62,-486.95 358.38,-579.36 356.07,-499.51 351.74,-617.56 352.57,-491.52 347.78,-580 345.54,-453.86 341.46,-640.86 
					340.73,-499.01 337.7,-674.23 337.92,-446.72 334.79,-558.9 333.31,-529.3 331.85,-576.53 329.62,-527.21 328.86,-606.96 				
					"/>
			</g>
			<g>
				<polyline class="st6" points="154.76,-522.37 136.47,-617.31 126.51,-474.17 123.27,-547.94 110.88,-514.05 107.96,-608.5 
					94.46,-486.92 84.88,-579.19 73.93,-499.05 68.36,-617.06 63.63,-490.84 55.14,-579.2 41.79,-452.7 40.79,-639.8 30.8,-497.64 
					32.09,-673 19.96,-445.09 17.44,-557.29 11.65,-527.55 10.19,-574.78 1.17,-525.24 3.49,-605.1 				"/>
				<polyline class="st7" points="158.55,-521.12 150.14,-616.38 149.45,-473.54 146.82,-547.33 143.08,-513.72 140.16,-608.18 
					137.77,-486.95 132.52,-579.36 130.22,-499.51 125.88,-617.56 126.71,-491.52 121.93,-580 119.69,-453.86 115.61,-640.86 
					114.88,-499.01 111.85,-674.23 112.06,-446.72 108.93,-558.9 107.46,-529.3 106,-576.53 103.77,-527.21 103.01,-606.96 				"/>
			</g>
			<g>
				<polyline class="st5" points="410.17,-272.64 403.45,-368.05 400.23,-225.25 398.91,-299.07 394.58,-265.53 393.32,-360.03 
					388.8,-238.87 385.18,-331.36 381.47,-251.56 379.21,-369.68 377.82,-243.64 374.59,-332.2 370.13,-206.12 369.35,-393.17 
					366.12,-251.35 366.18,-426.6 362.38,-199.12 361.23,-311.34 359.24,-281.77 358.61,-329.02 355.51,-279.75 356.16,-359.51 				
					"/>
				<polyline class="st5" points="343.91,-401.97 352.01,-306.68 353.16,-449.51 355.55,-375.72 359.4,-409.32 362.02,-314.85 
					364.79,-436.07 369.75,-343.64 372.31,-423.48 376.27,-305.42 375.84,-431.47 380.34,-342.96 382.98,-469.1 386.47,-282.08 
					387.65,-423.93 390.13,-248.71 390.63,-476.22 393.4,-364.03 394.97,-393.62 396.28,-346.38 398.67,-395.7 399.18,-315.94 				
					"/>
			</g>
			<g>
				<polyline class="st5" points="339.33,-276.5 330.93,-371.76 330.23,-228.93 327.6,-302.71 323.87,-269.1 320.95,-363.56 
					318.56,-242.33 313.31,-334.75 311,-254.89 306.67,-372.94 307.5,-246.9 302.71,-335.39 300.47,-209.24 296.39,-396.25 
					295.66,-254.39 292.63,-429.61 292.85,-202.1 289.72,-314.28 288.24,-284.68 286.78,-331.91 284.55,-282.59 283.79,-362.35 				
					"/>
				<polyline class="st5" points="246.32,-278.47 237.91,-373.73 237.21,-230.89 234.59,-304.68 230.85,-271.07 227.93,-365.53 
					225.54,-244.3 220.29,-336.72 217.99,-256.86 213.65,-374.91 214.48,-248.87 209.69,-337.35 207.46,-211.21 203.38,-398.21 
					202.65,-256.36 199.61,-431.58 199.83,-204.07 196.7,-316.25 195.23,-286.65 193.77,-333.88 191.54,-284.56 190.78,-364.32 				
					"/>
				<polyline class="st5" points="175.98,-398.1 186.32,-303.04 184.12,-445.86 188.24,-372.15 191.3,-405.83 196.14,-311.45 
					196.07,-432.7 203.19,-340.42 203.87,-420.31 210.6,-302.38 207.22,-428.38 213.8,-340.01 213.47,-466.17 221.35,-279.3 
					219.2,-421.14 225.78,-246.02 220.95,-473.48 226.36,-361.39 227.23,-391.01 229.65,-343.82 230.88,-393.18 233.26,-313.46 				
					"/>
				<polyline class="st5" points="281.47,-387.27 291.8,-292.21 289.61,-435.03 293.73,-361.32 296.78,-395 301.62,-300.62 
					301.55,-421.87 308.67,-329.59 309.36,-409.48 316.08,-291.55 312.7,-417.55 319.28,-329.18 318.96,-455.35 326.83,-268.47 
					324.68,-410.31 331.27,-235.19 326.44,-462.65 331.84,-350.56 332.71,-380.18 335.13,-332.99 336.36,-382.35 338.74,-302.63 
									"/>
				<polyline class="st5" points="318.87,-390.22 329.2,-295.16 327,-437.98 331.12,-364.27 334.18,-397.95 339.02,-303.58 
					338.95,-424.83 346.07,-332.55 346.75,-412.43 353.48,-294.5 350.1,-420.5 356.68,-332.13 356.35,-458.3 364.23,-271.42 
					362.08,-413.26 368.67,-238.14 363.83,-465.6 369.24,-353.51 370.11,-383.14 372.53,-335.95 373.76,-385.3 376.14,-305.58 				
					"/>
				<polyline class="st5" points="184.32,-272.64 177.59,-368.05 174.38,-225.25 173.06,-299.07 168.73,-265.53 167.47,-360.03 
					162.94,-238.87 159.32,-331.36 155.61,-251.56 153.36,-369.68 151.97,-243.64 148.74,-332.2 144.28,-206.12 143.5,-393.17 
					140.27,-251.35 140.32,-426.6 136.53,-199.12 135.38,-311.34 133.38,-281.77 132.75,-329.02 129.66,-279.75 130.3,-359.51 				
					"/>
				<polyline class="st5" points="118.05,-401.97 126.16,-306.68 127.31,-449.51 129.7,-375.72 133.54,-409.32 136.17,-314.85 
					138.94,-436.07 143.9,-343.64 146.45,-423.48 150.42,-305.42 149.98,-431.47 154.49,-342.96 157.13,-469.1 160.62,-282.08 
					161.79,-423.93 164.27,-248.71 164.78,-476.22 167.55,-364.03 169.12,-393.62 170.43,-346.38 172.81,-395.7 173.32,-315.94 				
					"/>
				<polyline class="st6" points="160.75,-381.55 176.1,-286.06 190.48,-428.8 191.44,-354.97 204.86,-388.44 204.86,-293.94 
					222.12,-415.02 228.84,-322.48 242.26,-402.22 244.18,-284.09 252.81,-410.1 258.56,-321.5 275.82,-447.51 271.03,-260.47 
					285.41,-402.22 278.7,-226.99 297.88,-454.4 296.92,-342.17 303.63,-371.71 303.63,-324.45 314.18,-373.68 309.39,-293.94 				
					"/>
				<polyline class="st6" points="294.31,-312.21 276.02,-407.15 266.06,-264.01 262.82,-337.77 250.43,-303.88 247.51,-398.34 
					234,-276.75 224.43,-369.03 213.48,-288.89 207.91,-406.9 203.18,-280.67 194.69,-369.04 181.34,-242.53 180.34,-429.64 
					170.35,-287.48 171.64,-462.84 159.51,-234.93 156.99,-347.13 151.2,-317.39 149.74,-364.62 140.72,-315.08 143.04,-394.93 				
					"/>
				<polyline class="st6" points="301.02,-293.5 282.73,-388.45 272.77,-245.31 269.53,-319.07 257.15,-285.18 254.22,-379.64 
					240.72,-258.05 231.15,-350.32 220.19,-270.18 214.62,-388.19 209.89,-261.97 201.4,-350.34 188.05,-223.83 187.06,-410.93 
					177.06,-268.78 178.35,-444.14 166.22,-216.22 163.71,-328.42 157.91,-298.69 156.45,-345.91 147.43,-296.37 149.75,-376.23 
									"/>
				<polyline class="st6" points="356.64,-314.18 338.35,-409.12 328.39,-265.98 325.15,-339.74 312.77,-305.85 309.84,-400.31 
					296.34,-278.72 286.76,-370.99 275.81,-290.86 270.24,-408.87 265.51,-282.64 257.02,-371.01 243.67,-244.5 242.67,-431.61 
					232.68,-289.45 233.97,-464.81 221.84,-236.9 219.32,-349.1 213.53,-319.36 212.07,-366.59 203.05,-317.05 205.37,-396.9 				
					"/>
				<polyline class="st6" points="380.61,-295.47 362.33,-390.41 352.36,-247.27 349.12,-321.04 336.74,-287.15 333.82,-381.61 
					320.31,-260.02 310.74,-352.29 299.79,-272.15 294.21,-390.16 289.49,-263.94 280.99,-352.3 267.64,-225.8 266.65,-412.9 
					256.66,-270.75 257.94,-446.11 245.81,-218.19 243.3,-330.39 237.5,-300.65 236.04,-347.88 227.02,-298.34 229.34,-378.2 				
					"/>
				<polyline class="st7" points="384.4,-294.22 376,-389.48 375.3,-246.65 372.67,-320.43 368.94,-286.82 366.01,-381.28 
					363.62,-260.05 358.38,-352.47 356.07,-272.61 351.74,-390.66 352.57,-264.62 347.78,-353.11 345.54,-226.96 341.46,-413.97 
					340.73,-272.11 337.7,-447.33 337.92,-219.82 334.79,-332 333.31,-302.4 331.85,-349.63 329.62,-300.31 328.86,-380.07 				"/>
			</g>
			<g>
				<polyline class="st5" points="93.01,-390.22 103.35,-295.16 101.15,-437.98 105.27,-364.27 108.32,-397.95 113.16,-303.58 
					113.09,-424.83 120.21,-332.55 120.9,-412.43 127.63,-294.5 124.24,-420.5 130.82,-332.13 130.5,-458.3 138.37,-271.42 
					136.23,-413.26 142.81,-238.14 137.98,-465.6 143.39,-353.51 144.26,-383.14 146.68,-335.95 147.9,-385.3 150.28,-305.58 				
					"/>
				<polyline class="st6" points="154.76,-295.47 136.47,-390.41 126.51,-247.27 123.27,-321.04 110.88,-287.15 107.96,-381.61 
					94.46,-260.02 84.88,-352.29 73.93,-272.15 68.36,-390.16 63.63,-263.94 55.14,-352.3 41.79,-225.8 40.79,-412.9 30.8,-270.75 
					32.09,-446.11 19.96,-218.19 17.44,-330.39 11.65,-300.65 10.19,-347.88 1.17,-298.34 3.49,-378.2 				"/>
				<polyline class="st7" points="158.55,-294.22 150.14,-389.48 149.45,-246.65 146.82,-320.43 143.08,-286.82 140.16,-381.28 
					137.77,-260.05 132.52,-352.47 130.22,-272.61 125.88,-390.66 126.71,-264.62 121.93,-353.11 119.69,-226.96 115.61,-413.97 
					114.88,-272.11 111.85,-447.33 112.06,-219.82 108.93,-332 107.46,-302.4 106,-349.63 103.77,-300.31 103.01,-380.07 				"/>
			</g>
			<g>
				<polyline class="st5" points="343.91,-175.07 352.01,-79.78 353.16,-222.62 355.55,-148.82 359.4,-182.42 362.02,-87.95 
					364.79,-209.17 369.75,-116.74 372.31,-196.59 376.27,-78.52 375.84,-204.57 380.34,-116.07 382.98,-242.2 386.47,-55.18 
					387.65,-197.04 390.13,-21.81 390.63,-249.32 393.4,-137.13 394.97,-166.72 396.28,-119.49 398.67,-168.8 399.18,-89.04 				"/>
			</g>
			<g>
				<polyline class="st5" points="175.98,-171.2 186.32,-76.14 184.12,-218.96 188.24,-145.25 191.3,-178.93 196.14,-84.55 
					196.07,-205.8 203.19,-113.52 203.87,-193.41 210.6,-75.48 207.22,-201.48 213.8,-113.11 213.47,-239.28 221.35,-52.4 
					219.2,-194.24 225.78,-19.12 220.95,-246.58 226.36,-134.49 227.23,-164.11 229.65,-116.93 230.88,-166.28 233.26,-86.56 				
					"/>
				<polyline class="st5" points="281.47,-160.37 291.8,-65.31 289.61,-208.13 293.73,-134.42 296.78,-168.1 301.62,-73.73 
					301.55,-194.98 308.67,-102.7 309.36,-182.58 316.08,-64.65 312.7,-190.65 319.28,-102.28 318.96,-228.45 326.83,-41.57 
					324.68,-183.41 331.27,-8.29 326.44,-235.75 331.84,-123.66 332.71,-153.28 335.13,-106.1 336.36,-155.45 338.74,-75.73 				"/>
				<polyline class="st5" points="318.87,-163.33 329.2,-68.26 327,-211.08 331.12,-137.37 334.18,-171.05 339.02,-76.68 
					338.95,-197.93 346.07,-105.65 346.75,-185.54 353.48,-67.6 350.1,-193.6 356.68,-105.24 356.35,-231.4 364.23,-44.52 
					362.08,-186.36 368.67,-11.25 363.83,-238.71 369.24,-126.62 370.11,-156.24 372.53,-109.05 373.76,-158.41 376.14,-78.68 				
					"/>
				<polyline class="st5" points="118.05,-175.07 126.16,-79.78 127.31,-222.62 129.7,-148.82 133.54,-182.42 136.17,-87.95 
					138.94,-209.17 143.9,-116.74 146.45,-196.59 150.42,-78.52 149.98,-204.57 154.49,-116.07 157.13,-242.2 160.62,-55.18 
					161.79,-197.04 164.27,-21.81 164.78,-249.32 167.55,-137.13 169.12,-166.72 170.43,-119.49 172.81,-168.8 173.32,-89.04 				
					"/>
				<polyline class="st6" points="160.75,-154.65 176.1,-59.16 190.48,-201.91 191.44,-128.07 204.86,-161.54 204.86,-67.04 
					222.12,-188.12 228.84,-95.59 242.26,-175.33 244.18,-57.19 252.81,-183.2 258.56,-94.6 275.82,-220.61 271.03,-33.57 
					285.41,-175.33 278.7,-0.1 297.88,-227.5 296.92,-115.28 303.63,-144.81 303.63,-97.56 314.18,-146.78 309.39,-67.04 				"/>
				<polyline class="st6" points="294.31,-85.31 276.02,-180.25 266.06,-37.11 262.82,-110.88 250.43,-76.99 247.51,-171.44 
					234,-49.86 224.43,-142.13 213.48,-61.99 207.91,-180 203.18,-53.78 194.69,-142.14 181.34,-15.64 180.34,-202.74 
					170.35,-60.58 171.64,-235.94 159.51,-8.03 156.99,-120.23 151.2,-90.49 149.74,-137.72 140.72,-88.18 143.04,-168.04 				"/>
				<polyline class="st6" points="356.64,-87.28 338.35,-182.22 328.39,-39.08 325.15,-112.85 312.77,-78.95 309.84,-173.41 
					296.34,-51.82 286.76,-144.1 275.81,-63.96 270.24,-181.97 265.51,-55.74 257.02,-144.11 243.67,-17.6 242.67,-204.71 
					232.68,-62.55 233.97,-237.91 221.84,-10 219.32,-122.2 213.53,-92.46 212.07,-139.69 203.05,-90.15 205.37,-170.01 				"/>
			</g>
			<g>
				<polyline class="st5" points="93.01,-163.33 103.35,-68.26 101.15,-211.08 105.27,-137.37 108.32,-171.05 113.16,-76.68 
					113.09,-197.93 120.21,-105.65 120.9,-185.54 127.63,-67.6 124.24,-193.6 130.82,-105.24 130.5,-231.4 138.37,-44.52 
					136.23,-186.36 142.81,-11.25 137.98,-238.71 143.39,-126.62 144.26,-156.24 146.68,-109.05 147.9,-158.41 150.28,-78.68 				
					"/>
			</g>
		</g>
	</g>
</pattern>
<g id="Layer_1">
	<rect x="0.5" y="0.5" class="st8" width="609.43" height="270.35"/>
</g>
<g id="Layer_2">
	
		<pattern  id="SVGID_00000051367230253541567620000004000737821173789312_" xlink:href="#SVGID_1_" patternTransform="matrix(0.0734 0 0 -0.1512 -14512.8232 -3020.6687)">
	</pattern>
	
		<rect x="6.24" y="68.26" style="opacity:0.48;fill:url(#SVGID_00000051367230253541567620000004000737821173789312_);stroke:#000000;stroke-width:1.938;stroke-miterlimit:10;enable-background:new    ;" width="280.04" height="170.95"/>
	<text transform="matrix(1 0 0 1 127.8339 270.1025)" class="st10 st11">TSS</text>
	<g class="st12">
		<ellipse class="st13" cx="125.37" cy="154.77" rx="51.44" ry="50.34"/>
		
			<pattern  id="SVGID_00000056400892011679506100000005959433941765772418_" xlink:href="#SVGID_0000000742074596073275444" patternTransform="matrix(0.0667 0 0 -0.1403 -14523.4854 -2491.0806)"  class="st12">
		</pattern>
		
			<ellipse style="fill:url(#SVGID_00000056400892011679506100000005959433941765772418_);stroke:#000000;stroke-width:1.7539;stroke-miterlimit:10;" cx="125.37" cy="153.72" rx="51.44" ry="50.34"/>
	</g>
	<rect x="6.24" y="68.26" class="st15" width="280.04" height="170.95"/>
	<path class="st16" d="M261.78,109.53h-33.04c-9.16,0-16.59-7.43-16.59-16.59l0,0c0-9.16,7.43-16.59,16.59-16.59h33.04
		c9.16,0,16.59,7.43,16.59,16.59l0,0C278.37,102.1,270.95,109.53,261.78,109.53z"/>
	<path class="st16" d="M143.13,192.75h-33.04c-9.16,0-16.59-7.43-16.59-16.59l0,0c0-9.16,7.43-16.59,16.59-16.59h33.04
		c9.16,0,16.59,7.43,16.59,16.59l0,0C159.72,185.32,152.29,192.75,143.13,192.75z"/>
	<text transform="matrix(1 0 0 1 224.0444 102.2205)" class="st10 st11">SSW</text>
	<text transform="matrix(1 0 0 1 107.8784 185.4451)" class="st10 st11">SSB</text>
	
		<pattern  id="SVGID_00000102539594820767549400000009458464716573116807_" xlink:href="#SVGID_0000011479577108992985911" patternTransform="matrix(0.0734 0 0 -0.1512 -14485.6338 -3017.2678)">
	</pattern>
	
		<rect x="298.74" y="68.26" style="opacity:0.48;fill:url(#SVGID_00000102539594820767549400000009458464716573116807_);stroke:#000000;stroke-width:1.938;stroke-miterlimit:10;enable-background:new    ;" width="280.04" height="170.95"/>
	<text transform="matrix(1 0 0 1 415.9197 270.3508)" class="st10 st11">TSS</text>
	<g class="st12">
		<ellipse class="st13" cx="421.28" cy="155.03" rx="97.5" ry="79.18"/>
		
			<pattern  id="SVGID_00000103230887931837889680000012260869609397538689_" xlink:href="#SVGID_0000000742074596073275444" patternTransform="matrix(0.1265 0 0 -0.2207 -13615.9873 -3792.8992)"  class="st12">
		</pattern>
		
			<ellipse style="fill:url(#SVGID_00000103230887931837889680000012260869609397538689_);stroke:#000000;stroke-width:1.7539;stroke-miterlimit:10;" cx="421.28" cy="153.39" rx="97.5" ry="79.18"/>
	</g>
	<rect x="298.74" y="68.26" class="st15" width="280.04" height="170.95"/>
	<path class="st16" d="M554.28,109.53h-33.04c-9.16,0-16.59-7.43-16.59-16.59l0,0c0-9.16,7.43-16.59,16.59-16.59h33.04
		c9.16,0,16.59,7.43,16.59,16.59l0,0C570.87,102.1,563.45,109.53,554.28,109.53z"/>
	<path class="st16" d="M435.63,192.75h-33.04c-9.16,0-16.59-7.43-16.59-16.59l0,0c0-9.16,7.43-16.59,16.59-16.59h33.04
		c9.16,0,16.59,7.43,16.59,16.59l0,0C452.22,185.32,444.79,192.75,435.63,192.75z"/>
	<text transform="matrix(1 0 0 1 516.5444 102.2205)" class="st10 st11">SSW</text>
	<text transform="matrix(1 0 0 1 400.3784 185.4451)" class="st10 st11">SSB</text>
	<text transform="matrix(1 0 0 1 8.4736 60.048)" class="st10 st19">Factor with a less effect </text>
	<text transform="matrix(1 0 0 1 7.7194 25.4227)" class="st10 st20">Relationship between sum of squares in One way ANOVA </text>
	<text transform="matrix(1 0 0 1 300.2698 56.1553)" class="st10 st19">Factor with a large effect  </text>
</g>
</svg>
