<svg width="610" height="558" xmlns="http://www.w3.org/2000/svg" xmlns:xlink="http://www.w3.org/1999/xlink" xml:space="preserve" overflow="hidden"><defs><clipPath id="clip0"><rect x="376" y="26" width="610" height="558"/></clipPath><clipPath id="clip1"><rect x="376" y="27" width="610" height="556"/></clipPath><clipPath id="clip2"><rect x="376" y="27" width="611" height="556"/></clipPath><clipPath id="clip3"><rect x="376" y="27" width="611" height="556"/></clipPath><clipPath id="clip4"><rect x="376" y="25" width="611" height="557"/></clipPath><clipPath id="clip5"><rect x="376" y="26" width="611" height="556"/></clipPath><clipPath id="clip6"><rect x="376" y="25" width="611" height="557"/></clipPath><clipPath id="clip7"><rect x="376" y="26" width="611" height="556"/></clipPath><clipPath id="clip8"><rect x="376" y="25" width="611" height="557"/></clipPath><clipPath id="clip9"><rect x="463" y="75" width="412" height="456"/></clipPath><clipPath id="clip10"><rect x="376" y="25" width="611" height="557"/></clipPath><clipPath id="clip11"><rect x="463" y="75" width="412" height="456"/></clipPath><clipPath id="clip12"><rect x="376" y="25" width="611" height="557"/></clipPath><clipPath id="clip13"><rect x="376" y="26" width="611" height="556"/></clipPath><clipPath id="clip14"><rect x="376" y="25" width="611" height="557"/></clipPath><clipPath id="clip15"><rect x="376" y="26" width="611" height="556"/></clipPath><clipPath id="clip16"><rect x="376" y="25" width="611" height="557"/></clipPath><clipPath id="clip17"><rect x="376" y="26" width="611" height="556"/></clipPath><clipPath id="clip18"><rect x="376" y="25" width="611" height="557"/></clipPath><clipPath id="clip19"><rect x="376" y="26" width="611" height="556"/></clipPath><clipPath id="clip20"><rect x="376" y="25" width="611" height="557"/></clipPath><clipPath id="clip21"><rect x="376" y="26" width="611" height="556"/></clipPath><clipPath id="clip22"><rect x="376" y="25" width="611" height="557"/></clipPath><clipPath id="clip23"><rect x="376" y="26" width="611" height="556"/></clipPath><clipPath id="clip24"><rect x="376" y="25" width="611" height="557"/></clipPath><clipPath id="clip25"><rect x="376" y="26" width="611" height="556"/></clipPath><clipPath id="clip26"><rect x="376" y="25" width="611" height="557"/></clipPath><clipPath id="clip27"><rect x="376" y="26" width="611" height="556"/></clipPath><clipPath id="clip28"><rect x="376" y="25" width="611" height="557"/></clipPath><clipPath id="clip29"><rect x="376" y="26" width="611" height="556"/></clipPath><clipPath id="clip30"><rect x="376" y="25" width="611" height="557"/></clipPath><clipPath id="clip31"><rect x="376" y="26" width="611" height="556"/></clipPath><clipPath id="clip32"><rect x="376" y="25" width="611" height="557"/></clipPath><clipPath id="clip33"><rect x="376" y="26" width="611" height="556"/></clipPath><clipPath id="clip34"><rect x="376" y="25" width="611" height="557"/></clipPath><clipPath id="clip35"><rect x="376" y="26" width="611" height="556"/></clipPath><clipPath id="clip36"><rect x="376" y="25" width="611" height="557"/></clipPath><clipPath id="clip37"><rect x="376" y="26" width="611" height="556"/></clipPath><clipPath id="clip38"><rect x="376" y="25" width="611" height="557"/></clipPath><clipPath id="clip39"><rect x="376" y="26" width="611" height="556"/></clipPath><clipPath id="clip40"><rect x="376" y="25" width="611" height="557"/></clipPath><clipPath id="clip41"><rect x="376" y="26" width="611" height="556"/></clipPath><clipPath id="clip42"><rect x="376" y="25" width="611" height="557"/></clipPath><clipPath id="clip43"><rect x="376" y="26" width="611" height="556"/></clipPath><clipPath id="clip44"><rect x="376" y="25" width="611" height="557"/></clipPath><clipPath id="clip45"><rect x="376" y="26" width="611" height="556"/></clipPath><clipPath id="clip46"><rect x="376" y="25" width="611" height="557"/></clipPath><clipPath id="clip47"><rect x="376" y="26" width="611" height="556"/></clipPath><clipPath id="clip48"><rect x="376" y="25" width="611" height="557"/></clipPath><clipPath id="clip49"><rect x="376" y="26" width="611" height="556"/></clipPath><clipPath id="clip50"><rect x="376" y="25" width="611" height="557"/></clipPath><clipPath id="clip51"><rect x="376" y="26" width="611" height="556"/></clipPath><clipPath id="clip52"><rect x="376" y="25" width="611" height="557"/></clipPath><clipPath id="clip53"><rect x="376" y="26" width="611" height="556"/></clipPath><clipPath id="clip54"><rect x="376" y="25" width="611" height="557"/></clipPath><clipPath id="clip55"><rect x="376" y="26" width="611" height="556"/></clipPath><clipPath id="clip56"><rect x="376" y="25" width="611" height="557"/></clipPath><clipPath id="clip57"><rect x="376" y="26" width="611" height="556"/></clipPath><clipPath id="clip58"><rect x="376" y="25" width="611" height="557"/></clipPath><clipPath id="clip59"><rect x="376" y="26" width="611" height="556"/></clipPath><clipPath id="clip60"><rect x="376" y="25" width="611" height="557"/></clipPath><clipPath id="clip61"><rect x="376" y="26" width="611" height="556"/></clipPath><clipPath id="clip62"><rect x="376" y="25" width="611" height="557"/></clipPath><clipPath id="clip63"><rect x="376" y="26" width="611" height="556"/></clipPath><clipPath id="clip64"><rect x="376" y="25" width="611" height="557"/></clipPath><clipPath id="clip65"><rect x="376" y="26" width="611" height="556"/></clipPath><clipPath id="clip66"><rect x="376" y="25" width="611" height="557"/></clipPath><clipPath id="clip67"><rect x="376" y="26" width="611" height="556"/></clipPath><clipPath id="clip68"><rect x="376" y="25" width="611" height="557"/></clipPath><clipPath id="clip69"><rect x="376" y="26" width="611" height="556"/></clipPath><clipPath id="clip70"><rect x="376" y="25" width="611" height="557"/></clipPath><clipPath id="clip71"><rect x="376" y="26" width="611" height="556"/></clipPath><clipPath id="clip72"><rect x="376" y="25" width="611" height="557"/></clipPath><clipPath id="clip73"><rect x="376" y="26" width="611" height="556"/></clipPath><clipPath id="clip74"><rect x="376" y="25" width="611" height="557"/></clipPath><clipPath id="clip75"><rect x="376" y="26" width="611" height="556"/></clipPath><clipPath id="clip76"><rect x="376" y="25" width="611" height="557"/></clipPath><clipPath id="clip77"><rect x="376" y="26" width="611" height="556"/></clipPath><clipPath id="clip78"><rect x="376" y="25" width="611" height="557"/></clipPath><clipPath id="clip79"><rect x="376" y="26" width="611" height="556"/></clipPath><clipPath id="clip80"><rect x="376" y="25" width="611" height="557"/></clipPath><clipPath id="clip81"><rect x="376" y="26" width="611" height="556"/></clipPath><clipPath id="clip82"><rect x="376" y="25" width="611" height="557"/></clipPath><clipPath id="clip83"><rect x="498" y="25" width="611" height="555"/></clipPath><clipPath id="clip84"><rect x="376" y="25" width="611" height="557"/></clipPath><clipPath id="clip85"><rect x="504" y="19" width="611" height="556"/></clipPath></defs><g clip-path="url(#clip0)" transform="translate(-376 -26)"><g clip-path="url(#clip1)"><g clip-path="url(#clip2)"><g clip-path="url(#clip3)"><g clip-path="url(#clip4)"><g clip-path="url(#clip5)"><path d="M87.7238 149.708 497.179 149.708M87.7238 99.2152 497.179 99.2152M87.7238 451.823 497.179 451.823M87.7238 401.33 497.179 401.33M87.7238 351.127 497.179 351.127M87.7238 300.635 497.179 300.635M87.7238 250.403 497.179 250.403M87.7238 199.91 497.179 199.91M87.7238 49.0127 497.179 49.0127" stroke="#D9D9D9" stroke-width="0.997521" stroke-linecap="butt" stroke-linejoin="round" stroke-miterlimit="10" stroke-opacity="1" fill="none" fill-rule="nonzero" transform="matrix(1.00147 0 0 1 376 27)"/></g></g><g clip-path="url(#clip6)"><g clip-path="url(#clip7)"><path d="M87.7238 502.286 497.179 502.286" stroke="#D9D9D9" stroke-width="0.997521" stroke-linecap="butt" stroke-linejoin="round" stroke-miterlimit="10" stroke-opacity="1" fill="none" fill-rule="nonzero" transform="matrix(1.00147 0 0 1 376 27)"/></g></g><g clip-path="url(#clip8)"><g clip-path="url(#clip9)"><path d="M88.1591 502.141 97.7643 502.17 102.988 502.17 106.18 502.17 107.05 502.17 107.921 502.17 113.144 502.17 116.627 502.17 120.979 502.17 123.591 502.17 126.203 502.17 128.814 502.17 131.426 502.17 133.748 502.17 136.359 502.17 137.23 502.17 139.842 502.17 142.453 502.17 145.065 502.17 147.677 502.17 148.547 502.17 150.288 502.17 152.9 502.17 155.512 502.17 158.123 502.17 160.735 502.17 163.057 502.17 165.668 502.17 168.28 502.17 170.892 502.17 173.503 502.17 176.115 502.17 178.727 502.17 181.338 502.17 183.95 502.17 186.562 502.17 189.173 502.17 191.785 502.17 193.236 502.17 194.977 502.17 196.718 502.17 198.46 502.17 200.201 502.17 201.942 502.17 203.683 502.17 205.424 502.17 207.165 502.17 208.906 502.17 210.647 502.17 212.389 502.17 214.13 502.17 215.871 502.17 217.612 502.17 219.353 502.17 221.094 502.17 222.545 502.17 224.286 502.17 226.027 502.17 227.768 502.17 229.51 502.17 231.251 502.17 232.992 502.17 234.733 502.17 236.474 502.17 238.215 502.17 239.956 502.17 241.698 502.17 243.439 502.17 245.18 502.17 246.921 502.17 248.662 502.17 250.403 502.17 251.854 502.17 253.595 502.17 257.077 502.17 258.819 502.17 260.56 502.17 262.301 502.17 264.042 502.17 265.783 502.17 267.524 501.88 269.265 501.88 271.006 501.88 272.748 501.88 274.489 501.88 276.23 501.88 277.971 501.88 279.712 501.88 281.163 501.88 282.904 501.88 284.645 501.88 286.386 501.88 288.128 501.59 289.869 501.59 291.61 501.59 293.351 501.59 295.092 501.59 296.833 501.59 298.574 501.3 300.315 501.3 302.057 501.3 303.798 501.3 305.539 501.3 307.28 501.3 309.021 501.3 310.762 501.3 312.213 501.009 313.954 501.009 315.695 501.009 317.437 501.009 319.178 501.009 320.919 501.009 322.66 501.009 324.401 500.719 326.142 500.719 327.883 500.719 329.624 500.719 331.366 500.719 333.107 500.429 334.848 500.429 336.589 500.429 338.33 500.429 340.071 500.429 341.522 500.139 343.263 500.139 345.004 500.139 346.746 500.139 348.487 500.139 350.228 499.849 351.969 499.849 353.71 499.849 355.451 499.849 357.192 499.558 358.933 499.558 360.675 499.558 362.416 499.558 364.157 499.558 365.898 499.558 367.639 499.558 369.38 499.268 370.831 499.268 372.572 499.268 374.313 499.268 376.055 499.268 377.796 498.978 379.537 498.978 381.278 498.978 383.019 498.978 384.76 498.978 386.501 498.978 388.242 498.688 389.984 498.688 391.725 498.688 393.466 498.688 395.207 498.688 396.948 498.398 398.689 498.398 400.14 498.398 401.881 498.398 403.622 498.398 405.363 498.398 407.105 498.398 408.846 498.398 410.587 498.108 412.328 498.108 414.069 498.108 415.81 498.108 417.551 497.527 419.293 497.527 421.034 497.527 422.775 497.527 424.516 497.237 426.257 497.237 427.998 497.237 429.449 496.947 431.19 496.947 432.931 496.947 434.672 496.947 436.414 496.657 438.155 496.657 439.896 496.657 441.637 496.366 443.378 496.366 445.119 496.366 446.86 496.076 448.601 496.076 450.343 495.786 452.084 495.786 453.825 495.786 455.566 495.496 457.307 495.496 458.758 495.206 460.499 494.915 462.24 494.625 463.981 494.045 465.723 493.755 467.464 492.884 469.205 492.594 470.946 492.304 472.687 492.014 474.428 491.723 476.169 491.433 477.91 485.629 479.652 484.469 481.393 483.888 483.134 482.728 484.875 481.277 486.616 480.406 488.067 478.375 489.808 476.634 491.549 475.763 493.29 472.571 495.032 470.249 496.744 467.028" stroke="#4472C4" stroke-width="2.99256" stroke-linecap="round" stroke-linejoin="round" stroke-miterlimit="10" stroke-opacity="1" fill="none" fill-rule="nonzero" transform="matrix(1.00147 0 0 1 376 27)"/></g></g><g clip-path="url(#clip10)"><g clip-path="url(#clip11)"><path d="M288.099 502.141 289.869 502.17 291.61 502.17 293.351 502.17 295.092 501.88 296.833 501.88 298.574 501.88 300.315 501.88 302.057 501.88 303.798 501.88 305.539 501.88 307.28 501.59 309.021 501.59 310.762 501.59 312.213 501.59 313.954 501.3 315.695 501.3 317.437 501.3 319.178 501.3 320.919 501.009 322.66 500.719 324.401 500.719 326.142 500.719 327.883 500.719 329.624 500.429 331.366 500.139 333.107 500.139 334.848 500.139 336.589 500.139 338.33 500.139 340.071 499.849 341.522 499.849 343.263 499.558 345.004 499.558 346.746 499.558 348.487 499.558 350.228 499.268 351.969 499.268 353.71 499.268 355.451 498.688 357.192 498.688 358.933 498.688 360.675 498.688 362.416 498.398 364.157 498.398 365.898 498.398 367.639 498.108 369.38 498.108 370.831 498.108 372.572 498.108 374.313 497.817 376.055 497.817 377.796 497.817 379.537 497.527 381.278 497.237 383.019 497.237 384.76 496.947 386.501 496.657 388.242 496.076 389.984 495.496 391.725 495.206 393.466 494.915 395.207 494.335 396.948 493.755 398.689 493.174 400.14 492.304 401.881 491.723 403.622 490.853 405.363 489.692 407.105 488.822 408.846 488.241 410.587 487.371 412.328 486.5 414.069 484.178 415.81 482.728 417.551 481.857 419.293 480.696 421.034 480.116 422.775 477.794 424.516 476.053 426.257 472.861 427.998 471.41 429.449 469.379 431.19 467.057 432.931 465.606 434.672 462.995 436.414 460.963 438.155 460.093 439.896 456.32 441.637 454.579 443.378 450.807 445.119 447.615 446.86 445.874 448.601 443.842 450.343 440.07 452.084 436.588 453.825 431.945 455.566 428.172 457.307 421.498 458.758 415.404 460.499 410.181 462.24 397.412 463.981 390.738 465.723 380.001 467.464 361.429 469.205 351.563 470.946 344.018 472.687 326.606 474.428 306.003 476.169 297.878 477.91 279.596 479.652 270.02 481.393 204.147 483.134 193.12 484.875 181.513 486.616 163.811 488.067 152.494 489.808 134.502 491.549 126.377 493.29 113.609 495.032 97.358 496.744 81.3977" stroke="#ED7D31" stroke-width="2.99256" stroke-linecap="round" stroke-linejoin="round" stroke-miterlimit="10" stroke-opacity="1" fill="none" fill-rule="nonzero" transform="matrix(1.00147 0 0 1 376 27)"/></g></g><g clip-path="url(#clip12)"><g clip-path="url(#clip13)"><text fill="#595959" fill-opacity="1" font-family="Arial,Arial_MSFontService,sans-serif" font-style="normal" font-variant="normal" font-weight="400" font-stretch="normal" font-size="41" text-anchor="start" direction="ltr" writing-mode="lr-tb" unicode-bidi="normal" text-decoration="none" transform="matrix(0.290615 0 0 0.290188 446.687 532)">0</text></g></g><g clip-path="url(#clip14)"><g clip-path="url(#clip15)"><text fill="#595959" fill-opacity="1" font-family="Arial,Arial_MSFontService,sans-serif" font-style="normal" font-variant="normal" font-weight="400" font-stretch="normal" font-size="41" text-anchor="start" direction="ltr" writing-mode="lr-tb" unicode-bidi="normal" text-decoration="none" transform="matrix(0.290615 0 0 0.290188 445.36 481)">2 </text></g></g><g clip-path="url(#clip16)"><g clip-path="url(#clip17)"><text fill="#595959" fill-opacity="1" font-family="Arial,Arial_MSFontService,sans-serif" font-style="normal" font-variant="normal" font-weight="400" font-stretch="normal" font-size="41" text-anchor="start" direction="ltr" writing-mode="lr-tb" unicode-bidi="normal" text-decoration="none" transform="matrix(0.290615 0 0 0.290188 445.695 432)">4</text></g></g><g clip-path="url(#clip18)"><g clip-path="url(#clip19)"><text fill="#595959" fill-opacity="1" font-family="Arial,Arial_MSFontService,sans-serif" font-style="normal" font-variant="normal" font-weight="400" font-stretch="normal" font-size="41" text-anchor="start" direction="ltr" writing-mode="lr-tb" unicode-bidi="normal" text-decoration="none" transform="matrix(0.290615 0 0 0.290188 444.614 382)">6</text></g></g><g clip-path="url(#clip20)"><g clip-path="url(#clip21)"><text fill="#595959" fill-opacity="1" font-family="Arial,Arial_MSFontService,sans-serif" font-style="normal" font-variant="normal" font-weight="400" font-stretch="normal" font-size="41" text-anchor="start" direction="ltr" writing-mode="lr-tb" unicode-bidi="normal" text-decoration="none" transform="matrix(0.290615 0 0 0.290188 444.146 331)">8</text></g></g><g clip-path="url(#clip22)"><g clip-path="url(#clip23)"><text fill="#595959" fill-opacity="1" font-family="Arial,Arial_MSFontService,sans-serif" font-style="normal" font-variant="normal" font-weight="400" font-stretch="normal" font-size="41" text-anchor="start" direction="ltr" writing-mode="lr-tb" unicode-bidi="normal" text-decoration="none" transform="matrix(0.290615 0 0 0.290188 438.454 281)">10</text></g></g><g clip-path="url(#clip24)"><g clip-path="url(#clip25)"><text fill="#595959" fill-opacity="1" font-family="Arial,Arial_MSFontService,sans-serif" font-style="normal" font-variant="normal" font-weight="400" font-stretch="normal" font-size="41" text-anchor="start" direction="ltr" writing-mode="lr-tb" unicode-bidi="normal" text-decoration="none" transform="matrix(0.290615 0 0 0.290188 437.59 230)">12</text></g></g><g clip-path="url(#clip26)"><g clip-path="url(#clip27)"><text fill="#595959" fill-opacity="1" font-family="Arial,Arial_MSFontService,sans-serif" font-style="normal" font-variant="normal" font-weight="400" font-stretch="normal" font-size="41" text-anchor="start" direction="ltr" writing-mode="lr-tb" unicode-bidi="normal" text-decoration="none" transform="matrix(0.290615 0 0 0.290188 437.886 180)">14</text></g></g><g clip-path="url(#clip28)"><g clip-path="url(#clip29)"><text fill="#595959" fill-opacity="1" font-family="Arial,Arial_MSFontService,sans-serif" font-style="normal" font-variant="normal" font-weight="400" font-stretch="normal" font-size="41" text-anchor="start" direction="ltr" writing-mode="lr-tb" unicode-bidi="normal" text-decoration="none" transform="matrix(0.290615 0 0 0.290188 437.988 130)">16</text></g></g><g clip-path="url(#clip30)"><g clip-path="url(#clip31)"><text fill="#595959" fill-opacity="1" font-family="Arial,Arial_MSFontService,sans-serif" font-style="normal" font-variant="normal" font-weight="400" font-stretch="normal" font-size="41" text-anchor="start" direction="ltr" writing-mode="lr-tb" unicode-bidi="normal" text-decoration="none" transform="matrix(0.290615 0 0 0.290188 437.732 80)">18</text></g></g><g clip-path="url(#clip32)"><g clip-path="url(#clip33)"><text fill="#595959" fill-opacity="1" font-family="Arial,Arial_MSFontService,sans-serif" font-style="normal" font-variant="normal" font-weight="400" font-stretch="normal" font-size="41" text-anchor="start" direction="ltr" writing-mode="lr-tb" unicode-bidi="normal" text-decoration="none" transform="matrix(1.7795e-17 -0.290188 0.290615 1.77689e-17 468.329 571)">Dec-82</text></g></g><g clip-path="url(#clip34)"><g clip-path="url(#clip35)"><text fill="#595959" fill-opacity="1" font-family="Arial,Arial_MSFontService,sans-serif" font-style="normal" font-variant="normal" font-weight="400" font-stretch="normal" font-size="41" text-anchor="start" direction="ltr" writing-mode="lr-tb" unicode-bidi="normal" text-decoration="none" transform="matrix(1.7795e-17 -0.290188 0.290615 1.77689e-17 486.46 570)">Sep-84</text></g></g><g clip-path="url(#clip36)"><g clip-path="url(#clip37)"><text fill="#595959" fill-opacity="1" font-family="Arial,Arial_MSFontService,sans-serif" font-style="normal" font-variant="normal" font-weight="400" font-stretch="normal" font-size="41" text-anchor="start" direction="ltr" writing-mode="lr-tb" unicode-bidi="normal" text-decoration="none" transform="matrix(1.7795e-17 -0.290188 0.290615 1.77689e-17 504.592 569)">Jun-86</text></g></g><g clip-path="url(#clip38)"><g clip-path="url(#clip39)"><text fill="#595959" fill-opacity="1" font-family="Arial,Arial_MSFontService,sans-serif" font-style="normal" font-variant="normal" font-weight="400" font-stretch="normal" font-size="41" text-anchor="start" direction="ltr" writing-mode="lr-tb" unicode-bidi="normal" text-decoration="none" transform="matrix(1.7795e-17 -0.290188 0.290615 1.77689e-17 522.723 573)">Mar-88</text></g></g><g clip-path="url(#clip40)"><g clip-path="url(#clip41)"><text fill="#595959" fill-opacity="1" font-family="Arial,Arial_MSFontService,sans-serif" font-style="normal" font-variant="normal" font-weight="400" font-stretch="normal" font-size="41" text-anchor="start" direction="ltr" writing-mode="lr-tb" unicode-bidi="normal" text-decoration="none" transform="matrix(1.7795e-17 -0.290188 0.290615 1.77689e-17 540.854 571)">Dec-89</text></g></g><g clip-path="url(#clip42)"><g clip-path="url(#clip43)"><text fill="#595959" fill-opacity="1" font-family="Arial,Arial_MSFontService,sans-serif" font-style="normal" font-variant="normal" font-weight="400" font-stretch="normal" font-size="41" text-anchor="start" direction="ltr" writing-mode="lr-tb" unicode-bidi="normal" text-decoration="none" transform="matrix(1.7795e-17 -0.290188 0.290615 1.77689e-17 558.986 570)">Sep-91</text></g></g><g clip-path="url(#clip44)"><g clip-path="url(#clip45)"><text fill="#595959" fill-opacity="1" font-family="Arial,Arial_MSFontService,sans-serif" font-style="normal" font-variant="normal" font-weight="400" font-stretch="normal" font-size="41" text-anchor="start" direction="ltr" writing-mode="lr-tb" unicode-bidi="normal" text-decoration="none" transform="matrix(1.7795e-17 -0.290188 0.290615 1.77689e-17 577.117 569)">Jun-93</text></g></g><g clip-path="url(#clip46)"><g clip-path="url(#clip47)"><text fill="#595959" fill-opacity="1" font-family="Arial,Arial_MSFontService,sans-serif" font-style="normal" font-variant="normal" font-weight="400" font-stretch="normal" font-size="41" text-anchor="start" direction="ltr" writing-mode="lr-tb" unicode-bidi="normal" text-decoration="none" transform="matrix(1.7795e-17 -0.290188 0.290615 1.77689e-17 595.249 573)">Mar-95</text></g></g><g clip-path="url(#clip48)"><g clip-path="url(#clip49)"><text fill="#595959" fill-opacity="1" font-family="Arial,Arial_MSFontService,sans-serif" font-style="normal" font-variant="normal" font-weight="400" font-stretch="normal" font-size="41" text-anchor="start" direction="ltr" writing-mode="lr-tb" unicode-bidi="normal" text-decoration="none" transform="matrix(1.7795e-17 -0.290188 0.290615 1.77689e-17 613.38 571)">Dec-96</text></g></g><g clip-path="url(#clip50)"><g clip-path="url(#clip51)"><text fill="#595959" fill-opacity="1" font-family="Arial,Arial_MSFontService,sans-serif" font-style="normal" font-variant="normal" font-weight="400" font-stretch="normal" font-size="41" text-anchor="start" direction="ltr" writing-mode="lr-tb" unicode-bidi="normal" text-decoration="none" transform="matrix(1.7795e-17 -0.290188 0.290615 1.77689e-17 631.512 570)">Sep-98</text></g></g><g clip-path="url(#clip52)"><g clip-path="url(#clip53)"><text fill="#595959" fill-opacity="1" font-family="Arial,Arial_MSFontService,sans-serif" font-style="normal" font-variant="normal" font-weight="400" font-stretch="normal" font-size="41" text-anchor="start" direction="ltr" writing-mode="lr-tb" unicode-bidi="normal" text-decoration="none" transform="matrix(1.7795e-17 -0.290188 0.290615 1.77689e-17 649.643 569)">Jun-00</text></g></g><g clip-path="url(#clip54)"><g clip-path="url(#clip55)"><text fill="#595959" fill-opacity="1" font-family="Arial,Arial_MSFontService,sans-serif" font-style="normal" font-variant="normal" font-weight="400" font-stretch="normal" font-size="41" text-anchor="start" direction="ltr" writing-mode="lr-tb" unicode-bidi="normal" text-decoration="none" transform="matrix(1.7795e-17 -0.290188 0.290615 1.77689e-17 667.775 573)">Mar-02</text></g></g><g clip-path="url(#clip56)"><g clip-path="url(#clip57)"><text fill="#595959" fill-opacity="1" font-family="Arial,Arial_MSFontService,sans-serif" font-style="normal" font-variant="normal" font-weight="400" font-stretch="normal" font-size="41" text-anchor="start" direction="ltr" writing-mode="lr-tb" unicode-bidi="normal" text-decoration="none" transform="matrix(1.7795e-17 -0.290188 0.290615 1.77689e-17 685.906 571)">Dec-03</text></g></g><g clip-path="url(#clip58)"><g clip-path="url(#clip59)"><text fill="#595959" fill-opacity="1" font-family="Arial,Arial_MSFontService,sans-serif" font-style="normal" font-variant="normal" font-weight="400" font-stretch="normal" font-size="41" text-anchor="start" direction="ltr" writing-mode="lr-tb" unicode-bidi="normal" text-decoration="none" transform="matrix(1.7795e-17 -0.290188 0.290615 1.77689e-17 704.037 570)">Sep-05</text></g></g><g clip-path="url(#clip60)"><g clip-path="url(#clip61)"><text fill="#595959" fill-opacity="1" font-family="Arial,Arial_MSFontService,sans-serif" font-style="normal" font-variant="normal" font-weight="400" font-stretch="normal" font-size="41" text-anchor="start" direction="ltr" writing-mode="lr-tb" unicode-bidi="normal" text-decoration="none" transform="matrix(1.7795e-17 -0.290188 0.290615 1.77689e-17 722.169 569)">Jun-07</text></g></g><g clip-path="url(#clip62)"><g clip-path="url(#clip63)"><text fill="#595959" fill-opacity="1" font-family="Arial,Arial_MSFontService,sans-serif" font-style="normal" font-variant="normal" font-weight="400" font-stretch="normal" font-size="41" text-anchor="start" direction="ltr" writing-mode="lr-tb" unicode-bidi="normal" text-decoration="none" transform="matrix(1.7795e-17 -0.290188 0.290615 1.77689e-17 740.3 573)">Mar-09</text></g></g><g clip-path="url(#clip64)"><g clip-path="url(#clip65)"><text fill="#595959" fill-opacity="1" font-family="Arial,Arial_MSFontService,sans-serif" font-style="normal" font-variant="normal" font-weight="400" font-stretch="normal" font-size="41" text-anchor="start" direction="ltr" writing-mode="lr-tb" unicode-bidi="normal" text-decoration="none" transform="matrix(1.7795e-17 -0.290188 0.290615 1.77689e-17 758.432 571)">Dec-10</text></g></g><g clip-path="url(#clip66)"><g clip-path="url(#clip67)"><text fill="#595959" fill-opacity="1" font-family="Arial,Arial_MSFontService,sans-serif" font-style="normal" font-variant="normal" font-weight="400" font-stretch="normal" font-size="41" text-anchor="start" direction="ltr" writing-mode="lr-tb" unicode-bidi="normal" text-decoration="none" transform="matrix(1.7795e-17 -0.290188 0.290615 1.77689e-17 776.563 570)">Sep-12</text></g></g><g clip-path="url(#clip68)"><g clip-path="url(#clip69)"><text fill="#595959" fill-opacity="1" font-family="Arial,Arial_MSFontService,sans-serif" font-style="normal" font-variant="normal" font-weight="400" font-stretch="normal" font-size="41" text-anchor="start" direction="ltr" writing-mode="lr-tb" unicode-bidi="normal" text-decoration="none" transform="matrix(1.7795e-17 -0.290188 0.290615 1.77689e-17 794.695 569)">Jun-14</text></g></g><g clip-path="url(#clip70)"><g clip-path="url(#clip71)"><text fill="#595959" fill-opacity="1" font-family="Arial,Arial_MSFontService,sans-serif" font-style="normal" font-variant="normal" font-weight="400" font-stretch="normal" font-size="41" text-anchor="start" direction="ltr" writing-mode="lr-tb" unicode-bidi="normal" text-decoration="none" transform="matrix(1.7795e-17 -0.290188 0.290615 1.77689e-17 812.826 573)">Mar-16</text></g></g><g clip-path="url(#clip72)"><g clip-path="url(#clip73)"><text fill="#595959" fill-opacity="1" font-family="Arial,Arial_MSFontService,sans-serif" font-style="normal" font-variant="normal" font-weight="400" font-stretch="normal" font-size="41" text-anchor="start" direction="ltr" writing-mode="lr-tb" unicode-bidi="normal" text-decoration="none" transform="matrix(1.7795e-17 -0.290188 0.290615 1.77689e-17 830.958 571)">Dec-17</text></g></g><g clip-path="url(#clip74)"><g clip-path="url(#clip75)"><text fill="#595959" fill-opacity="1" font-family="Arial,Arial_MSFontService,sans-serif" font-style="normal" font-variant="normal" font-weight="400" font-stretch="normal" font-size="41" text-anchor="start" direction="ltr" writing-mode="lr-tb" unicode-bidi="normal" text-decoration="none" transform="matrix(1.7795e-17 -0.290188 0.290615 1.77689e-17 849.089 570)">Sep-19</text></g></g><g clip-path="url(#clip76)"><g clip-path="url(#clip77)"><text fill="#595959" fill-opacity="1" font-family="Arial,Arial_MSFontService,sans-serif" font-style="normal" font-variant="normal" font-weight="400" font-stretch="normal" font-size="41" text-anchor="start" direction="ltr" writing-mode="lr-tb" unicode-bidi="normal" text-decoration="none" transform="matrix(1.7795e-17 -0.290188 0.290615 1.77689e-17 867.22 569)">Jun-21</text></g></g><g clip-path="url(#clip78)"><g clip-path="url(#clip79)"><text fill="#595959" fill-opacity="1" font-family="Arial,Arial_MSFontService,sans-serif" font-style="normal" font-variant="normal" font-weight="400" font-stretch="normal" font-size="62" text-anchor="start" direction="ltr" writing-mode="lr-tb" unicode-bidi="normal" text-decoration="none" transform="matrix(1.7795e-17 -0.290188 0.290615 1.77689e-17 420.996 426)">Number of bases in Trillion</text></g></g><g clip-path="url(#clip80)"><g clip-path="url(#clip81)"><text fill="#595959" fill-opacity="1" font-family="Arial,Arial_MSFontService,sans-serif" font-style="normal" font-variant="normal" font-weight="400" font-stretch="normal" font-size="71" text-anchor="start" direction="ltr" writing-mode="lr-tb" unicode-bidi="normal" text-decoration="none" transform="matrix(0.290615 0 0 0.290188 428.17 58)"> Number of bases by release date of NCBI database</text></g></g><g clip-path="url(#clip82)"><g clip-path="url(#clip83)"><path d="" stroke="#4472C4" stroke-width="2.99256" stroke-linecap="round" stroke-linejoin="round" stroke-miterlimit="10" stroke-opacity="1" fill="none" fill-rule="nonzero" transform="matrix(1.00147 0 0 1 376 27)"/><path d="" stroke="#4472C4" stroke-width="2.99256" stroke-linecap="round" stroke-linejoin="round" stroke-miterlimit="10" stroke-opacity="1" fill="none" fill-rule="nonzero" transform="matrix(1.00147 0 0 1 376 27)"/></g></g><g clip-path="url(#clip84)"><g clip-path="url(#clip85)"><path d="" stroke="#ED7D31" stroke-width="2.99256" stroke-linecap="round" stroke-linejoin="round" stroke-miterlimit="10" stroke-opacity="1" fill="none" fill-rule="nonzero" transform="matrix(1.00147 0 0 1 376 27)"/><path d="" stroke="#ED7D31" stroke-width="2.99256" stroke-linecap="round" stroke-linejoin="round" stroke-miterlimit="10" stroke-opacity="1" fill="none" fill-rule="nonzero" transform="matrix(1.00147 0 0 1 376 27)"/></g></g><path d="M230.38 135.779 113.812 134.444 113.812 74.172 230.38 75.5069Z" stroke="#000000" stroke-width="0.290188" stroke-linecap="butt" stroke-linejoin="miter" stroke-miterlimit="10" stroke-opacity="1" fill="#FFFFFF" fill-rule="nonzero" fill-opacity="1" transform="matrix(1.00147 0 0 1 376 27)"/><path d="M123.417 122.256 148.953 122.256" stroke="#ED7D31" stroke-width="2.99256" stroke-linecap="round" stroke-linejoin="round" stroke-miterlimit="10" stroke-opacity="1" fill="none" fill-rule="nonzero" transform="matrix(1.00147 0 0 1 376 27)"/><path d="M122.546 95.6749 148.083 95.6749" stroke="#4472C4" stroke-width="2.99256" stroke-linecap="round" stroke-linejoin="round" stroke-miterlimit="10" stroke-opacity="1" fill="none" fill-rule="nonzero" transform="matrix(1.00147 0 0 1 376 27)"/><text fill="#595959" fill-opacity="1" font-family="Arial,Arial_MSFontService,sans-serif" font-style="normal" font-variant="normal" font-weight="400" font-stretch="normal" font-size="41" text-anchor="start" direction="ltr" writing-mode="lr-tb" unicode-bidi="normal" text-decoration="none" transform="matrix(0.290615 0 0 0.290188 545.829 125)">GeneBank<tspan fill="#595959" fill-opacity="1" font-family="Arial,Arial_MSFontService,sans-serif" font-style="normal" font-variant="normal" font-weight="400" font-stretch="normal" font-size="41" text-anchor="start" direction="ltr" writing-mode="lr-tb" unicode-bidi="normal" text-decoration="none" x="4.86535" y="89.5971">WGS</tspan></text></g></g></g></g></svg>