<?xml version="1.0" encoding="utf-8"?>
<!-- Generator: Adobe Illustrator 26.3.1, SVG Export Plug-In . SVG Version: 6.00 Build 0)  -->
<svg version="1.1" xmlns="http://www.w3.org/2000/svg" xmlns:xlink="http://www.w3.org/1999/xlink" x="0px" y="0px"
	 viewBox="0 0 504 360" style="enable-background:new 0 0 504 360;" xml:space="preserve">
<style type="text/css">
	.st0{fill:#021114;stroke:#000000;stroke-miterlimit:10;}
	.st1{fill:none;stroke:#000000;stroke-width:0.75;stroke-linecap:round;stroke-linejoin:round;stroke-miterlimit:10;}
	.st2{fill:none;stroke:#0000FF;stroke-width:0.75;stroke-linecap:round;stroke-linejoin:round;stroke-miterlimit:10;}
	.st3{fill:none;stroke:#FF0000;stroke-width:0.75;stroke-linecap:round;stroke-linejoin:round;stroke-miterlimit:10;}
	.st4{clip-path:url(#SVGID_00000059990287436693667620000013321990099380700072_);}
	.st5{fill:none;stroke:#006400;stroke-width:0.75;stroke-linecap:round;stroke-linejoin:round;stroke-miterlimit:10;}
</style>
<g id="Layer_1">
	<rect x="-0.4" y="-1.6" class="st0" width="509" height="361"/>
</g>
<g id="Layer_2">
	<path class="st1" d="M60.7,310.9h425.3"/>
	<path class="st2" d="M2.5,300.7h1.4v0L2.5,300.7L2.5,300.7z"/>
	<path class="st2" d="M3.9,300.7h1.4v0L3.9,300.7L3.9,300.7z"/>
	<path class="st2" d="M5.4,300.7h1.4v0L5.4,300.7L5.4,300.7z"/>
	<path class="st2" d="M6.8,300.7h1.4v0L6.8,300.7L6.8,300.7z"/>
	<path class="st2" d="M8.2,300.7h1.4v0L8.2,300.7L8.2,300.7z"/>
	<path class="st2" d="M9.6,300.7H11v0L9.6,300.7L9.6,300.7z"/>
	<path class="st2" d="M11,300.7h1.4v0L11,300.7L11,300.7z"/>
	<path class="st2" d="M12.5,300.7h1.4v0L12.5,300.7L12.5,300.7z"/>
	<path class="st2" d="M13.9,300.7h1.4v-0.1L13.9,300.7L13.9,300.7z"/>
	<path class="st2" d="M15.3,300.7h1.4v-0.1L15.3,300.7L15.3,300.7z"/>
	<path class="st2" d="M16.7,300.7h1.4v-0.1L16.7,300.7L16.7,300.7z"/>
	<path class="st2" d="M18.1,300.7h1.4v-0.1L18.1,300.7L18.1,300.7z"/>
	<path class="st2" d="M19.5,300.7H21v-0.1h-1.4V300.7z"/>
	<path class="st2" d="M21,300.7h1.4v-0.1H21V300.7z"/>
	<path class="st2" d="M22.4,300.7h1.4v-0.2h-1.4V300.7z"/>
	<path class="st2" d="M23.8,300.7h1.4v-0.2h-1.4V300.7z"/>
	<path class="st2" d="M25.2,300.7h1.4v-0.2h-1.4V300.7z"/>
	<path class="st2" d="M26.6,300.7H28v-0.3h-1.4V300.7z"/>
	<path class="st2" d="M28,300.7h1.4v-0.4H28V300.7z"/>
	<path class="st2" d="M29.5,300.7h1.4v-0.4h-1.4V300.7z"/>
	<path class="st2" d="M30.9,300.7h1.4v-0.5h-1.4V300.7z"/>
	<path class="st2" d="M32.3,300.7h1.4V300h-1.4V300.7z"/>
	<path class="st2" d="M33.7,300.7h1.4v-0.7h-1.4V300.7z"/>
	<path class="st2" d="M35.1,300.7h1.4v-0.9h-1.4V300.7z"/>
	<path class="st2" d="M36.6,300.7H38v-1h-1.4V300.7z"/>
	<path class="st2" d="M38,300.7h1.4v-1.2H38V300.7z"/>
	<path class="st2" d="M39.4,300.7h1.4v-1.4h-1.4V300.7z"/>
	<path class="st2" d="M40.8,300.7h1.4V299h-1.4V300.7z"/>
	<path class="st2" d="M42.2,300.7h1.4v-2h-1.4V300.7z"/>
	<path class="st2" d="M43.6,300.7h1.4v-2.3h-1.4V300.7z"/>
	<path class="st2" d="M45.1,300.7h1.4V298h-1.4V300.7z"/>
	<path class="st2" d="M46.5,300.7h1.4v-3.1h-1.4V300.7z"/>
	<path class="st2" d="M47.9,300.7h1.4v-3.6h-1.4V300.7z"/>
	<path class="st2" d="M49.3,300.7h1.4v-4.1h-1.4V300.7z"/>
	<path class="st2" d="M50.7,300.7h1.4v-4.7h-1.4V300.7z"/>
	<path class="st2" d="M52.1,300.7h1.4v-5.5h-1.4V300.7z"/>
	<path class="st2" d="M53.6,300.7H55v-6.3h-1.4V300.7z"/>
	<path class="st2" d="M55,300.7h1.4v-7.2H55V300.7z"/>
	<path class="st2" d="M56.4,300.7h1.4v-8.2h-1.4V300.7z"/>
	<path class="st2" d="M57.8,300.7h1.4v-9.4h-1.4V300.7z"/>
	<path class="st2" d="M59.2,300.7h1.4V290h-1.4V300.7z"/>
	<path class="st2" d="M60.7,300.7h1.4v-12h-1.4V300.7z"/>
	<path class="st2" d="M62.1,300.7h1.4v-13.6h-1.4V300.7z"/>
	<path class="st2" d="M63.5,300.7h1.4v-15.3h-1.4V300.7z"/>
	<path class="st2" d="M64.9,300.7h1.4v-17.2h-1.4V300.7z"/>
	<path class="st2" d="M66.3,300.7h1.4v-19.3h-1.4V300.7z"/>
	<path class="st2" d="M67.7,300.7h1.4V279h-1.4V300.7z"/>
	<path class="st2" d="M69.2,300.7h1.4v-24.2h-1.4V300.7z"/>
	<path class="st2" d="M70.6,300.7H72v-26.9h-1.4V300.7z"/>
	<path class="st2" d="M72,300.7h1.4v-29.9H72V300.7z"/>
	<path class="st2" d="M73.4,300.7h1.4v-33h-1.4V300.7z"/>
	<path class="st2" d="M74.8,300.7h1.4v-36.5h-1.4V300.7z"/>
	<path class="st2" d="M76.2,300.7h1.4v-40.3h-1.4V300.7z"/>
	<path class="st2" d="M77.7,300.7h1.4v-44.3h-1.4V300.7z"/>
	<path class="st2" d="M79.1,300.7h1.4v-48.6h-1.4V300.7z"/>
	<path class="st2" d="M80.5,300.7h1.4v-53.2h-1.4V300.7z"/>
	<path class="st2" d="M81.9,300.7h1.4v-58h-1.4V300.7z"/>
	<path class="st2" d="M83.3,300.7h1.4v-63.2h-1.4V300.7z"/>
	<path class="st2" d="M84.7,300.7h1.4v-68.6h-1.4V300.7z"/>
	<path class="st2" d="M86.2,300.7h1.4v-74.3h-1.4V300.7z"/>
	<path class="st2" d="M87.6,300.7H89v-80.3h-1.4V300.7z"/>
	<path class="st2" d="M89,300.7h1.4v-86.6H89V300.7z"/>
	<path class="st2" d="M90.4,300.7h1.4v-93.1h-1.4V300.7z"/>
	<path class="st2" d="M91.8,300.7h1.4v-99.8h-1.4V300.7z"/>
	<path class="st2" d="M93.3,300.7h1.4V193.9h-1.4V300.7z"/>
	<path class="st2" d="M94.7,300.7h1.4v-114h-1.4V300.7z"/>
	<path class="st2" d="M96.1,300.7h1.4V179.5h-1.4V300.7z"/>
	<path class="st2" d="M97.5,300.7h1.4V171.9h-1.4V300.7z"/>
	<path class="st2" d="M98.9,300.7h1.4V164.3h-1.4V300.7z"/>
	<path class="st2" d="M100.3,300.7h1.4V156.5h-1.4V300.7z"/>
	<path class="st2" d="M101.8,300.7h1.4V148.8h-1.4V300.7z"/>
	<path class="st2" d="M103.2,300.7h1.4V141h-1.4V300.7z"/>
	<path class="st2" d="M104.6,300.7h1.4V133.1h-1.4V300.7z"/>
	<path class="st2" d="M106,300.7h1.4V125.5H106V300.7z"/>
	<path class="st2" d="M107.4,300.7h1.4V117.9h-1.4V300.7z"/>
	<path class="st2" d="M108.8,300.7h1.4v-190h-1.4V300.7z"/>
	<path class="st2" d="M110.3,300.7h1.4V103.1h-1.4V300.7z"/>
	<path class="st2" d="M111.7,300.7h1.4V96.3h-1.4V300.7z"/>
	<path class="st2" d="M113.1,300.7h1.4V89.4h-1.4V300.7z"/>
	<path class="st2" d="M114.5,300.7h1.4V82.9h-1.4V300.7z"/>
	<path class="st2" d="M115.9,300.7h1.4V77.1h-1.4V300.7z"/>
	<path class="st2" d="M117.4,300.7h1.4V71.3h-1.4V300.7z"/>
	<path class="st2" d="M118.8,300.7h1.4V65.9h-1.4V300.7z"/>
	<path class="st2" d="M120.2,300.7h1.4V61.3h-1.4V300.7z"/>
	<path class="st2" d="M121.6,300.7h1.4V56.9h-1.4V300.7z"/>
	<path class="st2" d="M123,300.7h1.4V53.6H123V300.7z"/>
	<path class="st2" d="M124.4,300.7h1.4V50.3h-1.4V300.7z"/>
	<path class="st2" d="M125.9,300.7h1.4V47.7h-1.4V300.7z"/>
	<path class="st2" d="M127.3,300.7h1.4V45.9h-1.4V300.7z"/>
	<path class="st2" d="M128.7,300.7h1.4V44.5h-1.4V300.7z"/>
	<path class="st2" d="M130.1,300.7h1.4V44h-1.4V300.7z"/>
	<path class="st2" d="M131.5,300.7h1.4V44h-1.4V300.7z"/>
	<path class="st2" d="M133,300.7h1.4v-256H133V300.7z"/>
	<path class="st2" d="M134.4,300.7h1.4V45.9h-1.4V300.7z"/>
	<path class="st2" d="M135.8,300.7h1.4V47.9h-1.4V300.7z"/>
	<path class="st2" d="M137.2,300.7h1.4V50.4h-1.4V300.7z"/>
	<path class="st2" d="M138.6,300.7h1.4V53.5h-1.4V300.7z"/>
	<path class="st2" d="M140,300.7h1.4V57.1H140V300.7z"/>
	<path class="st2" d="M141.5,300.7h1.4V61.3h-1.4V300.7z"/>
	<path class="st2" d="M142.9,300.7h1.4V66.1h-1.4V300.7z"/>
	<path class="st2" d="M144.3,300.7h1.4V71.1h-1.4V300.7z"/>
	<path class="st2" d="M145.7,300.7h1.4V76.9h-1.4V300.7z"/>
	<path class="st2" d="M147.1,300.7h1.4V83.1h-1.4V300.7z"/>
	<path class="st2" d="M148.5,300.7h1.4V89.4h-1.4V300.7z"/>
	<path class="st2" d="M150,300.7h1.4V96.1H150V300.7z"/>
	<path class="st2" d="M151.4,300.7h1.4V103.1h-1.4V300.7z"/>
	<path class="st2" d="M152.8,300.7h1.4V110.5h-1.4V300.7z"/>
	<path class="st2" d="M154.2,300.7h1.4V117.9h-1.4V300.7z"/>
	<path class="st2" d="M155.6,300.7h1.4V125.5h-1.4V300.7z"/>
	<path class="st2" d="M157.1,300.7h1.4V133.2h-1.4V300.7z"/>
	<path class="st2" d="M158.5,300.7h1.4V141h-1.4V300.7z"/>
	<path class="st2" d="M159.9,300.7h1.4V148.8h-1.4V300.7z"/>
	<path class="st2" d="M161.3,300.7h1.4V156.6h-1.4V300.7z"/>
	<path class="st2" d="M162.7,300.7h1.4V164.2h-1.4V300.7z"/>
	<path class="st2" d="M164.1,300.7h1.4V171.9h-1.4V300.7z"/>
	<path class="st2" d="M165.6,300.7h1.4V179.3h-1.4V300.7z"/>
	<path class="st2" d="M167,300.7h1.4V186.8H167V300.7z"/>
	<path class="st2" d="M168.4,300.7h1.4V193.9h-1.4V300.7z"/>
	<path class="st2" d="M169.8,300.7h1.4v-99.8h-1.4V300.7z"/>
	<path class="st2" d="M171.2,300.7h1.4v-93h-1.4V300.7z"/>
	<path class="st2" d="M172.6,300.7h1.4v-86.6h-1.4V300.7z"/>
	<path class="st2" d="M174.1,300.7h1.4v-80.3h-1.4V300.7z"/>
	<path class="st2" d="M175.5,300.7h1.4v-74.3h-1.4V300.7z"/>
	<path class="st2" d="M176.9,300.7h1.4v-68.6h-1.4V300.7z"/>
	<path class="st2" d="M178.3,300.7h1.4v-63.1h-1.4V300.7z"/>
	<path class="st2" d="M179.7,300.7h1.4v-58.1h-1.4V300.7z"/>
	<path class="st2" d="M181.2,300.7h1.4v-53.2h-1.4V300.7z"/>
	<path class="st2" d="M182.6,300.7h1.4v-48.6h-1.4V300.7z"/>
	<path class="st2" d="M184,300.7h1.4v-44.2H184V300.7z"/>
	<path class="st2" d="M185.4,300.7h1.4v-40.3h-1.4V300.7z"/>
	<path class="st2" d="M186.8,300.7h1.4v-36.6h-1.4V300.7z"/>
	<path class="st2" d="M188.2,300.7h1.4v-33h-1.4V300.7z"/>
	<path class="st2" d="M189.7,300.7h1.4v-29.8h-1.4V300.7z"/>
	<path class="st2" d="M191.1,300.7h1.4v-26.9h-1.4V300.7z"/>
	<path class="st2" d="M192.5,300.7h1.4v-24.1h-1.4V300.7z"/>
	<path class="st2" d="M193.9,300.7h1.4V279h-1.4V300.7z"/>
	<path class="st2" d="M195.3,300.7h1.4v-19.3h-1.4V300.7z"/>
	<path class="st2" d="M196.7,300.7h1.4v-17.2h-1.4V300.7z"/>
	<path class="st2" d="M198.2,300.7h1.4v-15.3h-1.4V300.7z"/>
	<path class="st2" d="M199.6,300.7h1.4v-13.6h-1.4V300.7z"/>
	<path class="st2" d="M201,300.7h1.4v-12H201V300.7z"/>
	<path class="st2" d="M202.4,300.7h1.4V290h-1.4V300.7z"/>
	<path class="st2" d="M203.8,300.7h1.4v-9.3h-1.4V300.7z"/>
	<path class="st2" d="M205.3,300.7h1.4v-8.2h-1.4V300.7z"/>
	<path class="st2" d="M206.7,300.7h1.4v-7.2h-1.4V300.7z"/>
	<path class="st2" d="M208.1,300.7h1.4v-6.3h-1.4V300.7z"/>
	<path class="st2" d="M209.5,300.7h1.4v-5.5h-1.4V300.7z"/>
	<path class="st2" d="M210.9,300.7h1.4v-4.7h-1.4V300.7z"/>
	<path class="st2" d="M212.3,300.7h1.4v-4.1h-1.4V300.7z"/>
	<path class="st2" d="M213.8,300.7h1.4v-3.6h-1.4V300.7z"/>
	<path class="st2" d="M215.2,300.7h1.4v-3.1h-1.4V300.7z"/>
	<path class="st2" d="M216.6,300.7h1.4V298h-1.4V300.7z"/>
	<path class="st2" d="M218,300.7h1.4v-2.3H218V300.7z"/>
	<path class="st2" d="M219.4,300.7h1.4v-1.9h-1.4V300.7z"/>
	<path class="st2" d="M220.8,300.7h1.4V299h-1.4V300.7z"/>
	<path class="st2" d="M222.3,300.7h1.4v-1.4h-1.4V300.7z"/>
	<path class="st2" d="M223.7,300.7h1.4v-1.2h-1.4V300.7z"/>
	<path class="st2" d="M225.1,300.7h1.4v-1h-1.4V300.7z"/>
	<path class="st2" d="M226.5,300.7h1.4v-0.9h-1.4V300.7z"/>
	<path class="st2" d="M227.9,300.7h1.4v-0.7h-1.4V300.7z"/>
	<path class="st2" d="M229.3,300.7h1.4V300h-1.4V300.7z"/>
	<path class="st2" d="M230.8,300.7h1.4v-0.5h-1.4V300.7z"/>
	<path class="st2" d="M232.2,300.7h1.4v-0.4h-1.4V300.7z"/>
	<path class="st2" d="M233.6,300.7h1.4v-0.4h-1.4V300.7z"/>
	<path class="st2" d="M235,300.7h1.4v-0.3H235V300.7z"/>
	<path class="st2" d="M236.4,300.7h1.4v-0.2h-1.4V300.7z"/>
	<path class="st2" d="M237.9,300.7h1.4v-0.2h-1.4V300.7z"/>
	<path class="st2" d="M239.3,300.7h1.4v-0.2h-1.4V300.7z"/>
	<path class="st2" d="M240.7,300.7h1.4v-0.1h-1.4V300.7z"/>
	<path class="st2" d="M242.1,300.7h1.4v-0.1h-1.4V300.7z"/>
	<path class="st2" d="M243.5,300.7h1.4v-0.1L243.5,300.7L243.5,300.7z"/>
	<path class="st2" d="M244.9,300.7h1.4v-0.1L244.9,300.7L244.9,300.7z"/>
	<path class="st2" d="M246.4,300.7h1.4v-0.1L246.4,300.7L246.4,300.7z"/>
	<path class="st2" d="M247.8,300.7h1.4v-0.1L247.8,300.7L247.8,300.7z"/>
	<path class="st2" d="M249.2,300.7h1.4v0L249.2,300.7L249.2,300.7z"/>
	<path class="st2" d="M250.6,300.7h1.4v0L250.6,300.7L250.6,300.7z"/>
	<path class="st2" d="M252,300.7h1.4v0L252,300.7L252,300.7z"/>
	<path class="st2" d="M253.4,300.7h1.4v0L253.4,300.7L253.4,300.7z"/>
	<path class="st2" d="M254.9,300.7h1.4v0L254.9,300.7L254.9,300.7z"/>
	<path class="st2" d="M256.3,300.7h1.4v0L256.3,300.7L256.3,300.7z"/>
	<path class="st2" d="M257.7,300.7h1.4v0L257.7,300.7L257.7,300.7z"/>
	<path class="st2" d="M259.1,300.7h1.4v0L259.1,300.7L259.1,300.7z"/>
	<path class="st2" d="M260.5,300.7h1.4v0L260.5,300.7L260.5,300.7z"/>
	<path class="st2" d="M262,300.7h1.4v0L262,300.7L262,300.7z"/>
	<path class="st2" d="M263.4,300.7h1.4v0L263.4,300.7L263.4,300.7z"/>
	<path class="st2" d="M264.8,300.7h1.4v0L264.8,300.7L264.8,300.7z"/>
	<path class="st2" d="M266.2,300.7h1.4v0L266.2,300.7L266.2,300.7z"/>
	<path class="st2" d="M267.6,300.7h1.4H267.6z"/>
	<path class="st2" d="M269,300.7h1.4H269z"/>
	<path class="st2" d="M270.5,300.7h1.4H270.5z"/>
	<path class="st2" d="M271.9,300.7h1.4H271.9z"/>
	<path class="st2" d="M273.3,300.7h1.4H273.3z"/>
	<path class="st2" d="M274.7,300.7h1.4H274.7z"/>
	<path class="st2" d="M276.1,300.7h1.4H276.1z"/>
	<path class="st2" d="M277.5,300.7h1.4H277.5z"/>
	<path class="st2" d="M279,300.7h1.4H279z"/>
	<path class="st2" d="M280.4,300.7h1.4H280.4z"/>
	<path class="st2" d="M281.8,300.7h1.4H281.8z"/>
	<path class="st2" d="M283.2,300.7h1.4H283.2z"/>
	<path class="st2" d="M284.6,300.7h1.4H284.6z"/>
	<path class="st2" d="M286.1,300.7h1.4H286.1z"/>
	<path class="st2" d="M287.5,300.7h1.4H287.5z"/>
	<path class="st2" d="M288.9,300.7h1.4H288.9z"/>
	<path class="st2" d="M290.3,300.7h1.4H290.3z"/>
	<path class="st2" d="M291.7,300.7h1.4H291.7z"/>
	<path class="st2" d="M293.1,300.7h1.4H293.1z"/>
	<path class="st2" d="M294.6,300.7h1.4H294.6z"/>
	<path class="st2" d="M296,300.7h1.4H296z"/>
	<path class="st2" d="M297.4,300.7h1.4H297.4z"/>
	<path class="st2" d="M298.8,300.7h1.4H298.8z"/>
	<path class="st2" d="M300.2,300.7h1.4H300.2z"/>
	<path class="st2" d="M301.7,300.7h1.4H301.7z"/>
	<path class="st2" d="M303.1,300.7h1.4H303.1z"/>
	<path class="st2" d="M304.5,300.7h1.4H304.5z"/>
	<path class="st3" d="M3.9,300.7h2.8H3.9z"/>
	<path class="st3" d="M6.8,300.7h2.8H6.8z"/>
	<path class="st3" d="M9.6,300.7h2.8H9.6z"/>
	<path class="st3" d="M12.5,300.7h2.8H12.5z"/>
	<path class="st3" d="M15.3,300.7h2.8H15.3z"/>
	<path class="st3" d="M18.1,300.7H21H18.1z"/>
	<path class="st3" d="M21,300.7h2.8H21z"/>
	<path class="st3" d="M23.8,300.7h2.8H23.8z"/>
	<path class="st3" d="M26.6,300.7h2.8H26.6z"/>
	<path class="st3" d="M29.5,300.7h2.8H29.5z"/>
	<path class="st3" d="M32.3,300.7h2.8H32.3z"/>
	<path class="st3" d="M35.1,300.7H38H35.1z"/>
	<path class="st3" d="M38,300.7h2.8H38z"/>
	<path class="st3" d="M40.8,300.7h2.8H40.8z"/>
	<path class="st3" d="M43.6,300.7h2.8H43.6z"/>
	<path class="st3" d="M46.5,300.7h2.8H46.5z"/>
	<path class="st3" d="M49.3,300.7h2.8v0L49.3,300.7L49.3,300.7z"/>
	<path class="st3" d="M52.1,300.7H55v0L52.1,300.7L52.1,300.7z"/>
	<path class="st3" d="M55,300.7h2.8v0L55,300.7L55,300.7z"/>
	<path class="st3" d="M57.8,300.7h2.8v0L57.8,300.7L57.8,300.7z"/>
	<path class="st3" d="M60.7,300.7h2.8v0L60.7,300.7L60.7,300.7z"/>
	<path class="st3" d="M63.5,300.7h2.8v0L63.5,300.7L63.5,300.7z"/>
	<path class="st3" d="M66.3,300.7h2.8v0L66.3,300.7L66.3,300.7z"/>
	<path class="st3" d="M69.2,300.7H72v0L69.2,300.7L69.2,300.7z"/>
	<path class="st3" d="M72,300.7h2.8v0L72,300.7L72,300.7z"/>
	<path class="st3" d="M74.8,300.7h2.8v0L74.8,300.7L74.8,300.7z"/>
	<path class="st3" d="M77.7,300.7h2.8v0L77.7,300.7L77.7,300.7z"/>
	<path class="st3" d="M80.5,300.7h2.8v0L80.5,300.7L80.5,300.7z"/>
	<path class="st3" d="M83.3,300.7h2.8v0L83.3,300.7L83.3,300.7z"/>
	<path class="st3" d="M86.2,300.7H89v0L86.2,300.7L86.2,300.7z"/>
	<path class="st3" d="M89,300.7h2.8v0L89,300.7L89,300.7z"/>
	<path class="st3" d="M91.8,300.7h2.8v-0.1L91.8,300.7L91.8,300.7z"/>
	<path class="st3" d="M94.7,300.7h2.8v-0.1L94.7,300.7L94.7,300.7z"/>
	<path class="st3" d="M97.5,300.7h2.8v-0.1L97.5,300.7L97.5,300.7z"/>
	<path class="st3" d="M100.3,300.7h2.8v-0.1L100.3,300.7L100.3,300.7z"/>
	<path class="st3" d="M103.2,300.7h2.8v-0.1L103.2,300.7L103.2,300.7z"/>
	<path class="st3" d="M106,300.7h2.8v-0.1H106V300.7z"/>
	<path class="st3" d="M108.8,300.7h2.8v-0.1h-2.8V300.7z"/>
	<path class="st3" d="M111.7,300.7h2.8v-0.2h-2.8V300.7z"/>
	<path class="st3" d="M114.5,300.7h2.8v-0.2h-2.8V300.7z"/>
	<path class="st3" d="M117.4,300.7h2.8v-0.2h-2.8V300.7z"/>
	<path class="st3" d="M120.2,300.7h2.8v-0.3h-2.8V300.7z"/>
	<path class="st3" d="M123,300.7h2.8v-0.3H123V300.7z"/>
	<path class="st3" d="M125.9,300.7h2.8v-0.4h-2.8V300.7z"/>
	<path class="st3" d="M128.7,300.7h2.8v-0.4h-2.8V300.7z"/>
	<path class="st3" d="M131.5,300.7h2.8v-0.5h-2.8V300.7z"/>
	<path class="st3" d="M134.4,300.7h2.8v-0.6h-2.8V300.7z"/>
	<path class="st3" d="M137.2,300.7h2.8V300h-2.8V300.7z"/>
	<path class="st3" d="M140,300.7h2.8v-0.8H140V300.7z"/>
	<path class="st3" d="M142.9,300.7h2.8v-0.9h-2.8V300.7z"/>
	<path class="st3" d="M145.7,300.7h2.8v-1h-2.8V300.7z"/>
	<path class="st3" d="M148.5,300.7h2.8v-1.2h-2.8V300.7z"/>
	<path class="st3" d="M151.4,300.7h2.8v-1.4h-2.8V300.7z"/>
	<path class="st3" d="M154.2,300.7h2.8v-1.5h-2.8V300.7z"/>
	<path class="st3" d="M157.1,300.7h2.8v-1.8h-2.8V300.7z"/>
	<path class="st3" d="M159.9,300.7h2.8v-2h-2.8V300.7z"/>
	<path class="st3" d="M162.7,300.7h2.8v-2.2h-2.8V300.7z"/>
	<path class="st3" d="M165.6,300.7h2.8v-2.6h-2.8V300.7z"/>
	<path class="st3" d="M168.4,300.7h2.8v-2.9h-2.8V300.7z"/>
	<path class="st3" d="M171.2,300.7h2.8v-3.2h-2.8V300.7z"/>
	<path class="st3" d="M174.1,300.7h2.8v-3.6h-2.8V300.7z"/>
	<path class="st3" d="M176.9,300.7h2.8v-4h-2.8V300.7z"/>
	<path class="st3" d="M179.7,300.7h2.8v-4.5h-2.8V300.7z"/>
	<path class="st3" d="M182.6,300.7h2.8v-5h-2.8V300.7z"/>
	<path class="st3" d="M185.4,300.7h2.8v-5.5h-2.8V300.7z"/>
	<path class="st3" d="M188.2,300.7h2.8v-6.1h-2.8V300.7z"/>
	<path class="st3" d="M191.1,300.7h2.8v-6.7h-2.8V300.7z"/>
	<path class="st3" d="M193.9,300.7h2.8v-7.4h-2.8V300.7z"/>
	<path class="st3" d="M196.7,300.7h2.8v-8.1h-2.8V300.7z"/>
	<path class="st3" d="M199.6,300.7h2.8v-8.9h-2.8V300.7z"/>
	<path class="st3" d="M202.4,300.7h2.8V291h-2.8V300.7z"/>
	<path class="st3" d="M205.3,300.7h2.8v-10.6h-2.8V300.7z"/>
	<path class="st3" d="M208.1,300.7h2.8v-11.4h-2.8V300.7z"/>
	<path class="st3" d="M210.9,300.7h2.8v-12.4h-2.8V300.7z"/>
	<path class="st3" d="M213.8,300.7h2.8v-13.4h-2.8V300.7z"/>
	<path class="st3" d="M216.6,300.7h2.8v-14.4h-2.8V300.7z"/>
	<path class="st3" d="M219.4,300.7h2.8v-15.5h-2.8V300.7z"/>
	<path class="st3" d="M222.3,300.7h2.8V284h-2.8V300.7z"/>
	<path class="st3" d="M225.1,300.7h2.8v-17.8h-2.8V300.7z"/>
	<path class="st3" d="M227.9,300.7h2.8v-19h-2.8V300.7z"/>
	<path class="st3" d="M230.8,300.7h2.8v-20.2h-2.8V300.7z"/>
	<path class="st3" d="M233.6,300.7h2.8v-21.5h-2.8V300.7z"/>
	<path class="st3" d="M236.4,300.7h2.8v-22.7h-2.8V300.7z"/>
	<path class="st3" d="M239.3,300.7h2.8v-24h-2.8V300.7z"/>
	<path class="st3" d="M242.1,300.7h2.8v-25.4h-2.8V300.7z"/>
	<path class="st3" d="M244.9,300.7h2.8V274h-2.8V300.7z"/>
	<path class="st3" d="M247.8,300.7h2.8v-27.9h-2.8V300.7z"/>
	<path class="st3" d="M250.6,300.7h2.8v-29.2h-2.8V300.7z"/>
	<path class="st3" d="M253.4,300.7h2.8v-30.5h-2.8V300.7z"/>
	<path class="st3" d="M256.3,300.7h2.8V269h-2.8V300.7z"/>
	<path class="st3" d="M259.1,300.7h2.8v-32.9h-2.8V300.7z"/>
	<path class="st3" d="M262,300.7h2.8v-34.1H262V300.7z"/>
	<path class="st3" d="M264.8,300.7h2.8v-35.2h-2.8V300.7z"/>
	<path class="st3" d="M267.6,300.7h2.8v-36.3h-2.8V300.7z"/>
	<path class="st3" d="M270.5,300.7h2.8v-37.3h-2.8V300.7z"/>
	<path class="st3" d="M273.3,300.7h2.8v-38.2h-2.8V300.7z"/>
	<path class="st3" d="M276.1,300.7h2.8v-39.1h-2.8V300.7z"/>
	<path class="st3" d="M279,300.7h2.8v-39.9H279V300.7z"/>
	<path class="st3" d="M281.8,300.7h2.8V260h-2.8V300.7z"/>
	<path class="st3" d="M284.6,300.7h2.8v-41.2h-2.8V300.7z"/>
	<path class="st3" d="M287.5,300.7h2.8v-41.8h-2.8V300.7z"/>
	<path class="st3" d="M290.3,300.7h2.8v-42.2h-2.8V300.7z"/>
	<path class="st3" d="M293.1,300.7h2.8v-42.4h-2.8V300.7z"/>
	<path class="st3" d="M296,300.7h2.8V258H296V300.7z"/>
	<path class="st3" d="M298.8,300.7h2.8v-42.8h-2.8V300.7z"/>
	<path class="st3" d="M301.7,300.7h2.8v-42.8h-2.8V300.7z"/>
	<path class="st3" d="M304.5,300.7h2.8V258h-2.8V300.7z"/>
	<path class="st3" d="M307.3,300.7h2.8v-42.4h-2.8V300.7z"/>
	<path class="st3" d="M310.2,300.7h2.8v-42.1h-2.8V300.7z"/>
	<path class="st3" d="M313,300.7h2.8v-41.7H313V300.7z"/>
	<path class="st3" d="M315.8,300.7h2.8v-41.2h-2.8V300.7z"/>
	<path class="st3" d="M318.7,300.7h2.8V260h-2.8V300.7z"/>
	<path class="st3" d="M321.5,300.7h2.8v-39.9h-2.8V300.7z"/>
	<path class="st3" d="M324.3,300.7h2.8v-39.1h-2.8V300.7z"/>
	<path class="st3" d="M327.2,300.7h2.8v-38.2h-2.8V300.7z"/>
	<path class="st3" d="M330,300.7h2.8v-37.3H330V300.7z"/>
	<path class="st3" d="M332.8,300.7h2.8v-36.3h-2.8V300.7z"/>
	<path class="st3" d="M335.7,300.7h2.8v-35.2h-2.8V300.7z"/>
	<path class="st3" d="M338.5,300.7h2.8v-34h-2.8V300.7z"/>
	<path class="st3" d="M341.3,300.7h2.8v-33h-2.8V300.7z"/>
	<path class="st3" d="M344.2,300.7h2.8V269h-2.8V300.7z"/>
	<path class="st3" d="M347,300.7h2.8v-30.5H347V300.7z"/>
	<path class="st3" d="M349.9,300.7h2.8v-29.2h-2.8V300.7z"/>
	<path class="st3" d="M352.7,300.7h2.8v-27.9h-2.8V300.7z"/>
	<path class="st3" d="M355.5,300.7h2.8v-26.6h-2.8V300.7z"/>
	<path class="st3" d="M358.4,300.7h2.8v-25.3h-2.8V300.7z"/>
	<path class="st3" d="M361.2,300.7h2.8v-24.1h-2.8V300.7z"/>
	<path class="st3" d="M364,300.7h2.8v-22.8H364V300.7z"/>
	<path class="st3" d="M366.9,300.7h2.8v-21.4h-2.8V300.7z"/>
	<path class="st3" d="M369.7,300.7h2.8v-20.2h-2.8V300.7z"/>
	<path class="st3" d="M372.5,300.7h2.8v-19h-2.8V300.7z"/>
	<path class="st3" d="M375.4,300.7h2.8v-17.8h-2.8V300.7z"/>
	<path class="st3" d="M378.2,300.7h2.8V284h-2.8V300.7z"/>
	<path class="st3" d="M381,300.7h2.8v-15.5H381V300.7z"/>
	<path class="st3" d="M383.9,300.7h2.8v-14.4h-2.8V300.7z"/>
	<path class="st3" d="M386.7,300.7h2.8v-13.4h-2.8V300.7z"/>
	<path class="st3" d="M389.5,300.7h2.8v-12.4h-2.8V300.7z"/>
	<path class="st3" d="M392.4,300.7h2.8v-11.4h-2.8V300.7z"/>
	<path class="st3" d="M395.2,300.7h2.8v-10.6h-2.8V300.7z"/>
	<path class="st3" d="M398,300.7h2.8V291H398V300.7z"/>
	<path class="st3" d="M400.9,300.7h2.8v-8.9h-2.8V300.7z"/>
	<path class="st3" d="M403.7,300.7h2.8v-8.1h-2.8V300.7z"/>
	<path class="st3" d="M406.6,300.7h2.8v-7.4h-2.8V300.7z"/>
	<path class="st3" d="M409.4,300.7h2.8v-6.7h-2.8V300.7z"/>
	<path class="st3" d="M412.2,300.7h2.8v-6.1h-2.8V300.7z"/>
	<path class="st3" d="M415.1,300.7h2.8v-5.5h-2.8V300.7z"/>
	<path class="st3" d="M417.9,300.7h2.8v-5h-2.8V300.7z"/>
	<path class="st3" d="M420.7,300.7h2.8v-4.5h-2.8V300.7z"/>
	<path class="st3" d="M423.6,300.7h2.8v-4h-2.8V300.7z"/>
	<path class="st3" d="M426.4,300.7h2.8v-3.6h-2.8V300.7z"/>
	<path class="st3" d="M429.2,300.7h2.8v-3.2h-2.8V300.7z"/>
	<path class="st3" d="M432.1,300.7h2.8v-2.9h-2.8V300.7z"/>
	<path class="st3" d="M434.9,300.7h2.8v-2.5h-2.8V300.7z"/>
	<path class="st3" d="M437.7,300.7h2.8v-2.3h-2.8V300.7z"/>
	<path class="st3" d="M440.6,300.7h2.8v-2h-2.8V300.7z"/>
	<path class="st3" d="M443.4,300.7h2.8v-1.8h-2.8V300.7z"/>
	<path class="st3" d="M446.2,300.7h2.8v-1.6h-2.8V300.7z"/>
	<path class="st3" d="M449.1,300.7h2.8v-1.4h-2.8V300.7z"/>
	<path class="st3" d="M451.9,300.7h2.8v-1.2h-2.8V300.7z"/>
	<path class="st3" d="M454.8,300.7h2.8v-1h-2.8V300.7z"/>
	<path class="st3" d="M457.6,300.7h2.8v-0.9h-2.8V300.7z"/>
	<path class="st3" d="M460.4,300.7h2.8v-0.8h-2.8V300.7z"/>
	<path class="st3" d="M463.3,300.7h2.8V300h-2.8V300.7z"/>
	<path class="st3" d="M466.1,300.7h2.8v-0.6h-2.8V300.7z"/>
	<path class="st3" d="M468.9,300.7h2.8v-0.5h-2.8V300.7z"/>
	<path class="st3" d="M471.8,300.7h2.8v-0.4h-2.8V300.7z"/>
	<path class="st3" d="M474.6,300.7h2.8v-0.4h-2.8V300.7z"/>
	<path class="st3" d="M477.4,300.7h2.8v-0.3h-2.8V300.7z"/>
	<path class="st3" d="M480.3,300.7h2.8v-0.3h-2.8V300.7z"/>
	<path class="st3" d="M483.1,300.7h2.8v-0.2h-2.8V300.7z"/>
	<path class="st3" d="M485.9,300.7h2.8v-0.2h-2.8V300.7z"/>
	<path class="st3" d="M488.8,300.7h2.8v-0.2h-2.8V300.7z"/>
	<path class="st3" d="M491.6,300.7h2.8v-0.1h-2.8V300.7z"/>
	<path class="st3" d="M494.4,300.7h2.8v-0.1h-2.8V300.7z"/>
	<path class="st3" d="M497.3,300.7h2.8v-0.1h-2.8V300.7z"/>
	<path class="st3" d="M500.1,300.7h2.8v-0.1L500.1,300.7L500.1,300.7z"/>
	<g>
		<defs>
			<rect id="SVGID_1_" x="501.3" y="299.3" width="3.4" height="2.4"/>
		</defs>
		<clipPath id="SVGID_00000078046962789476622310000015705927646718458547_">
			<use xlink:href="#SVGID_1_"  style="overflow:visible;"/>
		</clipPath>
		<g style="clip-path:url(#SVGID_00000078046962789476622310000015705927646718458547_);">
			<path class="st3" d="M503,300.7h2.8v-0.1L503,300.7L503,300.7z"/>
		</g>
	</g>
	<path class="st5" d="M3.9,300.7h2.8H3.9z"/>
	<path class="st5" d="M6.8,300.7h2.8H6.8z"/>
	<path class="st5" d="M9.6,300.7h2.8H9.6z"/>
	<path class="st5" d="M12.5,300.7h2.8H12.5z"/>
	<path class="st5" d="M15.3,300.7h2.8H15.3z"/>
	<path class="st5" d="M18.1,300.7H21H18.1z"/>
	<path class="st5" d="M21,300.7h2.8H21z"/>
	<path class="st5" d="M23.8,300.7h2.8H23.8z"/>
	<path class="st5" d="M26.6,300.7h2.8H26.6z"/>
	<path class="st5" d="M29.5,300.7h2.8H29.5z"/>
	<path class="st5" d="M32.3,300.7h2.8H32.3z"/>
	<path class="st5" d="M35.1,300.7H38v0L35.1,300.7L35.1,300.7z"/>
	<path class="st5" d="M38,300.7h2.8v0L38,300.7L38,300.7z"/>
	<path class="st5" d="M40.8,300.7h2.8v0L40.8,300.7L40.8,300.7z"/>
	<path class="st5" d="M43.6,300.7h2.8v0L43.6,300.7L43.6,300.7z"/>
	<path class="st5" d="M46.5,300.7h2.8v0L46.5,300.7L46.5,300.7z"/>
	<path class="st5" d="M49.3,300.7h2.8v0L49.3,300.7L49.3,300.7z"/>
	<path class="st5" d="M52.1,300.7H55v0L52.1,300.7L52.1,300.7z"/>
	<path class="st5" d="M55,300.7h2.8v0L55,300.7L55,300.7z"/>
	<path class="st5" d="M57.8,300.7h2.8v0L57.8,300.7L57.8,300.7z"/>
	<path class="st5" d="M60.7,300.7h2.8v0L60.7,300.7L60.7,300.7z"/>
	<path class="st5" d="M63.5,300.7h2.8v0L63.5,300.7L63.5,300.7z"/>
	<path class="st5" d="M66.3,300.7h2.8v-0.1L66.3,300.7L66.3,300.7z"/>
	<path class="st5" d="M69.2,300.7H72v-0.1L69.2,300.7L69.2,300.7z"/>
	<path class="st5" d="M72,300.7h2.8v-0.1L72,300.7L72,300.7z"/>
	<path class="st5" d="M74.8,300.7h2.8v-0.1h-2.8V300.7z"/>
	<path class="st5" d="M77.7,300.7h2.8v-0.1h-2.8V300.7z"/>
	<path class="st5" d="M80.5,300.7h2.8v-0.2h-2.8V300.7z"/>
	<path class="st5" d="M83.3,300.7h2.8v-0.2h-2.8V300.7z"/>
	<path class="st5" d="M86.2,300.7H89v-0.3h-2.8V300.7z"/>
	<path class="st5" d="M89,300.7h2.8v-0.3H89V300.7z"/>
	<path class="st5" d="M91.8,300.7h2.8v-0.4h-2.8V300.7z"/>
	<path class="st5" d="M94.7,300.7h2.8v-0.5h-2.8V300.7z"/>
	<path class="st5" d="M97.5,300.7h2.8V300h-2.8V300.7z"/>
	<path class="st5" d="M100.3,300.7h2.8v-0.8h-2.8V300.7z"/>
	<path class="st5" d="M103.2,300.7h2.8v-1h-2.8V300.7z"/>
	<path class="st5" d="M106,300.7h2.8v-1.2H106V300.7z"/>
	<path class="st5" d="M108.8,300.7h2.8v-1.4h-2.8V300.7z"/>
	<path class="st5" d="M111.7,300.7h2.8v-1.8h-2.8V300.7z"/>
	<path class="st5" d="M114.5,300.7h2.8v-2.1h-2.8V300.7z"/>
	<path class="st5" d="M117.4,300.7h2.8v-2.5h-2.8V300.7z"/>
	<path class="st5" d="M120.2,300.7h2.8v-3h-2.8V300.7z"/>
	<path class="st5" d="M123,300.7h2.8v-3.5H123V300.7z"/>
	<path class="st5" d="M125.9,300.7h2.8v-4.1h-2.8V300.7z"/>
	<path class="st5" d="M128.7,300.7h2.8v-4.9h-2.8V300.7z"/>
	<path class="st5" d="M131.5,300.7h2.8V295h-2.8V300.7z"/>
	<path class="st5" d="M134.4,300.7h2.8v-6.6h-2.8V300.7z"/>
	<path class="st5" d="M137.2,300.7h2.8V293h-2.8V300.7z"/>
	<path class="st5" d="M140,300.7h2.8v-8.8H140V300.7z"/>
	<path class="st5" d="M142.9,300.7h2.8v-10.1h-2.8V300.7z"/>
	<path class="st5" d="M145.7,300.7h2.8v-11.5h-2.8V300.7z"/>
	<path class="st5" d="M148.5,300.7h2.8v-13.1h-2.8V300.7z"/>
	<path class="st5" d="M151.4,300.7h2.8v-14.9h-2.8V300.7z"/>
	<path class="st5" d="M154.2,300.7h2.8v-16.8h-2.8V300.7z"/>
	<path class="st5" d="M157.1,300.7h2.8v-18.8h-2.8V300.7z"/>
	<path class="st5" d="M159.9,300.7h2.8v-21.1h-2.8V300.7z"/>
	<path class="st5" d="M162.7,300.7h2.8v-23.4h-2.8V300.7z"/>
	<path class="st5" d="M165.6,300.7h2.8v-25.9h-2.8V300.7z"/>
	<path class="st5" d="M168.4,300.7h2.8V272h-2.8V300.7z"/>
	<path class="st5" d="M171.2,300.7h2.8v-31.4h-2.8V300.7z"/>
	<path class="st5" d="M174.1,300.7h2.8v-34.3h-2.8V300.7z"/>
	<path class="st5" d="M176.9,300.7h2.8v-37.3h-2.8V300.7z"/>
	<path class="st5" d="M179.7,300.7h2.8v-40.5h-2.8V300.7z"/>
	<path class="st5" d="M182.6,300.7h2.8v-43.6h-2.8V300.7z"/>
	<path class="st5" d="M185.4,300.7h2.8v-46.9h-2.8V300.7z"/>
	<path class="st5" d="M188.2,300.7h2.8v-50.1h-2.8V300.7z"/>
	<path class="st5" d="M191.1,300.7h2.8v-53.3h-2.8V300.7z"/>
	<path class="st5" d="M193.9,300.7h2.8v-56.5h-2.8V300.7z"/>
	<path class="st5" d="M196.7,300.7h2.8v-59.6h-2.8V300.7z"/>
	<path class="st5" d="M199.6,300.7h2.8v-62.5h-2.8V300.7z"/>
	<path class="st5" d="M202.4,300.7h2.8v-65.4h-2.8V300.7z"/>
	<path class="st5" d="M205.3,300.7h2.8v-68h-2.8V300.7z"/>
	<path class="st5" d="M208.1,300.7h2.8v-70.5h-2.8V300.7z"/>
	<path class="st5" d="M210.9,300.7h2.8V228h-2.8V300.7z"/>
	<path class="st5" d="M213.8,300.7h2.8V226h-2.8V300.7z"/>
	<path class="st5" d="M216.6,300.7h2.8v-76.3h-2.8V300.7z"/>
	<path class="st5" d="M219.4,300.7h2.8V223h-2.8V300.7z"/>
	<path class="st5" d="M222.3,300.7h2.8v-78.9h-2.8V300.7z"/>
	<path class="st5" d="M225.1,300.7h2.8v-79.4h-2.8V300.7z"/>
	<path class="st5" d="M227.9,300.7h2.8v-79.7h-2.8V300.7z"/>
	<path class="st5" d="M230.8,300.7h2.8v-79.8h-2.8V300.7z"/>
	<path class="st5" d="M233.6,300.7h2.8v-79.5h-2.8V300.7z"/>
	<path class="st5" d="M236.4,300.7h2.8v-78.8h-2.8V300.7z"/>
	<path class="st5" d="M239.3,300.7h2.8v-77.8h-2.8V300.7z"/>
	<path class="st5" d="M242.1,300.7h2.8v-76.4h-2.8V300.7z"/>
	<path class="st5" d="M244.9,300.7h2.8v-74.6h-2.8V300.7z"/>
	<path class="st5" d="M247.8,300.7h2.8v-72.8h-2.8V300.7z"/>
	<path class="st5" d="M250.6,300.7h2.8v-70.5h-2.8V300.7z"/>
	<path class="st5" d="M253.4,300.7h2.8v-68h-2.8V300.7z"/>
	<path class="st5" d="M256.3,300.7h2.8v-65.4h-2.8V300.7z"/>
	<path class="st5" d="M259.1,300.7h2.8v-62.6h-2.8V300.7z"/>
	<path class="st5" d="M262,300.7h2.8V241H262V300.7z"/>
	<path class="st5" d="M264.8,300.7h2.8v-56.5h-2.8V300.7z"/>
	<path class="st5" d="M267.6,300.7h2.8v-53.3h-2.8V300.7z"/>
	<path class="st5" d="M270.5,300.7h2.8v-50.1h-2.8V300.7z"/>
	<path class="st5" d="M273.3,300.7h2.8v-46.9h-2.8V300.7z"/>
	<path class="st5" d="M276.1,300.7h2.8V257h-2.8V300.7z"/>
	<path class="st5" d="M279,300.7h2.8v-40.5H279V300.7z"/>
	<path class="st5" d="M281.8,300.7h2.8v-37.3h-2.8V300.7z"/>
	<path class="st5" d="M284.6,300.7h2.8v-34.3h-2.8V300.7z"/>
	<path class="st5" d="M287.5,300.7h2.8v-31.4h-2.8V300.7z"/>
	<path class="st5" d="M290.3,300.7h2.8V272h-2.8V300.7z"/>
	<path class="st5" d="M293.1,300.7h2.8v-25.9h-2.8V300.7z"/>
	<path class="st5" d="M296,300.7h2.8v-23.4H296V300.7z"/>
	<path class="st5" d="M298.8,300.7h2.8v-21.1h-2.8V300.7z"/>
	<path class="st5" d="M301.7,300.7h2.8v-18.9h-2.8V300.7z"/>
	<path class="st5" d="M304.5,300.7h2.8v-16.8h-2.8V300.7z"/>
	<path class="st5" d="M307.3,300.7h2.8v-14.9h-2.8V300.7z"/>
	<path class="st5" d="M310.2,300.7h2.8v-13.1h-2.8V300.7z"/>
	<path class="st5" d="M313,300.7h2.8v-11.6H313V300.7z"/>
	<path class="st5" d="M315.8,300.7h2.8v-10.1h-2.8V300.7z"/>
	<path class="st5" d="M318.7,300.7h2.8v-8.8h-2.8V300.7z"/>
	<path class="st5" d="M321.5,300.7h2.8V293h-2.8V300.7z"/>
	<path class="st5" d="M324.3,300.7h2.8V294h-2.8V300.7z"/>
	<path class="st5" d="M327.2,300.7h2.8V295h-2.8V300.7z"/>
	<path class="st5" d="M330,300.7h2.8v-4.8H330V300.7z"/>
	<path class="st5" d="M332.8,300.7h2.8v-4.1h-2.8V300.7z"/>
	<path class="st5" d="M335.7,300.7h2.8v-3.5h-2.8V300.7z"/>
	<path class="st5" d="M338.5,300.7h2.8v-3h-2.8V300.7z"/>
	<path class="st5" d="M341.3,300.7h2.8v-2.5h-2.8V300.7z"/>
	<path class="st5" d="M344.2,300.7h2.8v-2.1h-2.8V300.7z"/>
	<path class="st5" d="M347,300.7h2.8v-1.7H347V300.7z"/>
	<path class="st5" d="M349.9,300.7h2.8v-1.4h-2.8V300.7z"/>
	<path class="st5" d="M352.7,300.7h2.8v-1.2h-2.8V300.7z"/>
	<path class="st5" d="M355.5,300.7h2.8v-1h-2.8V300.7z"/>
	<path class="st5" d="M358.4,300.7h2.8v-0.8h-2.8V300.7z"/>
	<path class="st5" d="M361.2,300.7h2.8V300h-2.8V300.7z"/>
	<path class="st5" d="M364,300.7h2.8v-0.5H364V300.7z"/>
	<path class="st5" d="M366.9,300.7h2.8v-0.4h-2.8V300.7z"/>
	<path class="st5" d="M369.7,300.7h2.8v-0.3h-2.8V300.7z"/>
	<path class="st5" d="M372.5,300.7h2.8v-0.3h-2.8V300.7z"/>
	<path class="st5" d="M375.4,300.7h2.8v-0.2h-2.8V300.7z"/>
	<path class="st5" d="M378.2,300.7h2.8v-0.2h-2.8V300.7z"/>
	<path class="st5" d="M381,300.7h2.8v-0.1H381V300.7z"/>
	<path class="st5" d="M383.9,300.7h2.8v-0.1h-2.8V300.7z"/>
	<path class="st5" d="M386.7,300.7h2.8v-0.1L386.7,300.7L386.7,300.7z"/>
	<path class="st5" d="M389.5,300.7h2.8v-0.1L389.5,300.7L389.5,300.7z"/>
	<path class="st5" d="M392.4,300.7h2.8v-0.1L392.4,300.7L392.4,300.7z"/>
	<path class="st5" d="M395.2,300.7h2.8v0L395.2,300.7L395.2,300.7z"/>
	<path class="st5" d="M398,300.7h2.8v0L398,300.7L398,300.7z"/>
	<path class="st5" d="M400.9,300.7h2.8v0L400.9,300.7L400.9,300.7z"/>
	<path class="st5" d="M403.7,300.7h2.8v0L403.7,300.7L403.7,300.7z"/>
	<path class="st5" d="M406.6,300.7h2.8v0L406.6,300.7L406.6,300.7z"/>
	<path class="st5" d="M409.4,300.7h2.8v0L409.4,300.7L409.4,300.7z"/>
	<path class="st5" d="M412.2,300.7h2.8v0L412.2,300.7L412.2,300.7z"/>
	<path class="st5" d="M415.1,300.7h2.8v0L415.1,300.7L415.1,300.7z"/>
	<path class="st5" d="M417.9,300.7h2.8v0L417.9,300.7L417.9,300.7z"/>
	<path class="st5" d="M420.7,300.7h2.8v0L420.7,300.7L420.7,300.7z"/>
	<path class="st5" d="M423.6,300.7h2.8H423.6z"/>
	<path class="st5" d="M426.4,300.7h2.8H426.4z"/>
	<path class="st5" d="M429.2,300.7h2.8H429.2z"/>
	<path class="st5" d="M432.1,300.7h2.8H432.1z"/>
	<path class="st5" d="M434.9,300.7h2.8H434.9z"/>
	<path class="st5" d="M437.7,300.7h2.8H437.7z"/>
	<path class="st5" d="M440.6,300.7h2.8H440.6z"/>
	<path class="st5" d="M443.4,300.7h2.8H443.4z"/>
	<path class="st5" d="M446.2,300.7h2.8H446.2z"/>
	<path class="st5" d="M449.1,300.7h2.8H449.1z"/>
	<path class="st5" d="M451.9,300.7h2.8H451.9z"/>
	<path class="st5" d="M454.8,300.7h2.8H454.8z"/>
	<path class="st5" d="M457.6,300.7h2.8H457.6z"/>
	<path class="st5" d="M460.4,300.7h2.8H460.4z"/>
	<path class="st5" d="M463.3,300.7h2.8H463.3z"/>
	<path class="st5" d="M466.1,300.7h2.8H466.1z"/>
	<path class="st5" d="M468.9,300.7h2.8H468.9z"/>
	<path class="st5" d="M471.8,300.7h2.8H471.8z"/>
	<path class="st5" d="M474.6,300.7h2.8H474.6z"/>
	<path class="st5" d="M477.4,300.7h2.8H477.4z"/>
	<path class="st5" d="M480.3,300.7h2.8H480.3z"/>
	<path class="st5" d="M483.1,300.7h2.8H483.1z"/>
	<path class="st5" d="M485.9,300.7h2.8H485.9z"/>
	<path class="st5" d="M488.8,300.7h2.8H488.8z"/>
	<path class="st5" d="M491.6,300.7h2.8H491.6z"/>
	<path class="st5" d="M494.4,300.7h2.8H494.4z"/>
</g>
</svg>
