<?xml version="1.0" encoding="utf-8"?>
<!-- Generator: Adobe Illustrator 26.3.1, SVG Export Plug-In . SVG Version: 6.00 Build 0)  -->
<svg version="1.1" id="Layer_1" xmlns="http://www.w3.org/2000/svg" xmlns:xlink="http://www.w3.org/1999/xlink" x="0px" y="0px"
	 viewBox="0 0 659.39 405.24" style="enable-background:new 0 0 659.39 405.24;" xml:space="preserve">
<style type="text/css">
	.st0{fill:none;}
	.st1{fill:none;stroke:#010101;stroke-width:0.75;stroke-linecap:round;stroke-linejoin:round;stroke-miterlimit:10;}
	.st2{fill:#010101;}
	.st3{font-family:'Helvetica';}
	.st4{font-size:12px;}
	.st5{fill:none;stroke:#010101;stroke-width:0.9357;stroke-linecap:round;stroke-linejoin:round;stroke-miterlimit:10;}
	.st6{font-family:'Helvetica-Bold';}
	.st7{font-size:15.9597px;}
	.st8{fill:none;stroke:#F3C3C2;stroke-width:1.5;stroke-linecap:round;stroke-linejoin:round;stroke-miterlimit:10;}
	.st9{fill:none;stroke:#ED2224;stroke-width:1.5;stroke-linecap:round;stroke-linejoin:round;stroke-miterlimit:10;}
	.st10{fill:none;stroke:#D4D1E9;stroke-width:1.5;stroke-linecap:round;stroke-linejoin:round;stroke-miterlimit:10;}
	.st11{fill:#7ACAB3;stroke:#8151A1;stroke-width:1.5;stroke-linecap:round;stroke-linejoin:round;stroke-miterlimit:10;}
	.st12{fill:none;stroke:#D4D1E9;stroke-width:0.75;stroke-linecap:round;stroke-linejoin:round;stroke-miterlimit:10;}
	.st13{fill:none;stroke:#F3C3C2;stroke-width:1.4771;stroke-linecap:round;stroke-linejoin:round;stroke-miterlimit:10;}
	.st14{fill:#7ACAB3;}
	.st15{fill:none;stroke:#010101;stroke-width:0.7388;stroke-linecap:round;stroke-linejoin:round;stroke-miterlimit:10;}
	.st16{clip-path:url(#SVGID_00000038375211463957075420000002812355957143011995_);}
	
		.st17{clip-path:url(#SVGID_00000115499357377056252320000005825097127510890917_);fill:none;stroke:#010101;stroke-width:0.4308;stroke-linecap:round;stroke-linejoin:round;stroke-miterlimit:10;}
	
		.st18{clip-path:url(#SVGID_00000008854095561118603130000004732739674308127646_);fill:none;stroke:#010101;stroke-width:0.4308;stroke-linecap:round;stroke-linejoin:round;stroke-miterlimit:10;}
	
		.st19{clip-path:url(#SVGID_00000142872859161849525000000016682784995242958524_);fill:none;stroke:#010101;stroke-width:0.4308;stroke-linecap:round;stroke-linejoin:round;stroke-miterlimit:10;}
	
		.st20{clip-path:url(#SVGID_00000019646115786043365930000004680487355877266562_);fill:none;stroke:#010101;stroke-width:0.4308;stroke-linecap:round;stroke-linejoin:round;stroke-miterlimit:10;}
	
		.st21{clip-path:url(#SVGID_00000151538035789948930250000018226742169653232290_);fill:none;stroke:#010101;stroke-width:0.4308;stroke-linecap:round;stroke-linejoin:round;stroke-miterlimit:10;}
	
		.st22{clip-path:url(#SVGID_00000131329473327854167490000005824856209265818509_);fill:none;stroke:#010101;stroke-width:0.4308;stroke-linecap:round;stroke-linejoin:round;stroke-miterlimit:10;}
	
		.st23{clip-path:url(#SVGID_00000131337025649671934840000010542634580790722465_);fill:none;stroke:#010101;stroke-width:0.4308;stroke-linecap:round;stroke-linejoin:round;stroke-miterlimit:10;}
	
		.st24{clip-path:url(#SVGID_00000068636468766976012210000009808690246661594015_);fill:none;stroke:#010101;stroke-width:0.4308;stroke-linecap:round;stroke-linejoin:round;stroke-miterlimit:10;}
	
		.st25{clip-path:url(#SVGID_00000132079762987846377910000001599074849755236005_);fill:none;stroke:#010101;stroke-width:0.4308;stroke-linecap:round;stroke-linejoin:round;stroke-miterlimit:10;}
	.st26{clip-path:url(#SVGID_00000103236065619210862400000012460016797914024592_);}
	.st27{font-size:6.8929px;}
	.st28{clip-path:url(#SVGID_00000133525007209924426680000007522124707921420189_);}
	.st29{clip-path:url(#SVGID_00000113316344024591274900000001685005926456786326_);}
	.st30{clip-path:url(#SVGID_00000078005376094181868330000000241182038121481358_);}
	.st31{clip-path:url(#SVGID_00000154420587939333703840000002001430971719820212_);}
	.st32{clip-path:url(#SVGID_00000131347253064851015950000003685845784295935420_);}
	.st33{clip-path:url(#SVGID_00000043421212837250170530000007493862898145115271_);}
	.st34{clip-path:url(#SVGID_00000129898343129044990350000013321443582302577316_);}
	.st35{clip-path:url(#SVGID_00000181068680875148853520000005979862211244374176_);}
	.st36{fill:none;stroke:#F3C3C2;stroke-width:0.8616;stroke-linecap:round;stroke-linejoin:round;stroke-miterlimit:10;}
	.st37{fill:none;stroke:#ED2224;stroke-width:0.8616;stroke-linecap:round;stroke-linejoin:round;stroke-miterlimit:10;}
	.st38{fill:none;stroke:#D4D1E9;stroke-width:0.8616;stroke-linecap:round;stroke-linejoin:round;stroke-miterlimit:10;}
	.st39{fill:none;stroke:#D4D1E9;stroke-width:0.4308;stroke-linecap:round;stroke-linejoin:round;stroke-miterlimit:10;}
	.st40{fill:none;stroke:#010101;stroke-width:0.4308;stroke-linecap:round;stroke-linejoin:round;stroke-miterlimit:10;}
	.st41{enable-background:new    ;}
	.st42{font-family:'ArialMT';}
	.st43{font-family:'MyriadPro-Regular';}
	.st44{fill:none;stroke:#010101;stroke-width:0.5;stroke-miterlimit:10;}
	.st45{fill:none;stroke:#010101;stroke-width:0.5219;stroke-miterlimit:10;}
	.st46{font-size:13.0761px;}
</style>
<rect x="244.2" y="2.03" class="st0" width="414.72" height="371.52"/>
<line class="st1" x1="259.56" y1="373.55" x2="643.56" y2="373.55"/>
<line class="st1" x1="259.56" y1="373.55" x2="259.56" y2="380.75"/>
<line class="st1" x1="323.56" y1="373.55" x2="323.56" y2="380.75"/>
<line class="st1" x1="387.56" y1="373.55" x2="387.56" y2="380.75"/>
<line class="st1" x1="451.56" y1="373.55" x2="451.56" y2="380.75"/>
<line class="st1" x1="515.56" y1="373.55" x2="515.56" y2="380.75"/>
<line class="st1" x1="579.56" y1="373.55" x2="579.56" y2="380.75"/>
<line class="st1" x1="643.56" y1="373.55" x2="643.56" y2="380.75"/>
<text transform="matrix(1 0 0 1 256.2226 399.4705)" class="st2 st3 st4">3</text>
<text transform="matrix(1 0 0 1 320.2226 399.4705)" class="st2 st3 st4">4</text>
<text transform="matrix(1 0 0 1 384.2226 399.4705)" class="st2 st3 st4">5</text>
<text transform="matrix(1 0 0 1 448.2226 399.4705)" class="st2 st3 st4">6</text>
<text transform="matrix(1 0 0 1 512.222 399.4705)" class="st2 st3 st4">7</text>
<text transform="matrix(1 0 0 1 576.222 399.4705)" class="st2 st3 st4">8</text>
<text transform="matrix(1 0 0 1 640.222 399.4705)" class="st2 st3 st4">9</text>
<rect x="13.41" y="2.03" class="st5" width="645.51" height="371.52"/>
<text transform="matrix(1 0 0 1 22.5113 25.6791)" class="st2 st6 st7">Distri</text>
<text transform="matrix(1 0 0 1 63.3113 25.6791)" class="st2 st6 st7">b</text>
<text transform="matrix(1 0 0 1 72.7513 25.6791)" class="st2 st6 st7">ution </text>
<text transform="matrix(1 0 0 1 116.1813 25.6791)" class="st2 st6 st7">n</text>
<text transform="matrix(1 0 0 1 125.7913 25.6791)" class="st2 st6 st7">ull  and alternative </text>
<text transform="matrix(1 0 0 1 270.3513 25.6791)" class="st2 st6 st7">h</text>
<text transform="matrix(1 0 0 1 279.8013 25.6791)" class="st2 st6 st7">ypothesis</text>
<polyline class="st8" points="259.56,359.79 263.4,359.79 267.24,359.79 271.08,359.79 274.92,359.79 278.76,359.79 282.6,359.79 
	286.44,359.79 290.28,359.79 294.12,359.79 297.96,359.79 301.8,359.79 305.64,359.79 309.48,359.79 313.32,359.79 317.16,359.79 
	321,359.79 324.84,359.79 328.68,359.79 332.52,359.79 336.36,359.79 340.2,359.79 344.04,359.78 347.88,359.78 351.72,359.77 
	355.56,359.75 359.4,359.71 363.24,359.65 367.08,359.54 370.92,359.35 374.76,359.04 378.6,358.54 382.44,357.74 386.28,356.51 
	390.12,354.67 393.96,351.97 397.8,348.11 401.64,342.73 405.48,335.43 409.32,325.78 413.16,313.36 417,297.82 420.84,278.91 
	424.68,256.58 428.52,231.03 432.36,202.71 436.2,172.44 440.04,141.3 443.88,110.65 447.72,82.03 451.56,57.01 455.4,37.08 
	459.24,23.49 463.08,17.12 466.92,18.41 470.76,27.25 474.6,43.07 478.44,64.85 482.28,91.25 486.12,120.72 489.96,151.7 
	493.8,182.69 497.64,212.41 501.48,239.88 505.32,264.4 509.16,285.59 513,303.36 516.84,317.83 520.68,329.28 524.52,338.1 
	528.36,344.72 532.2,349.55 536.04,352.98 539.88,355.37 543.72,356.98 547.56,358.05 551.4,358.73 555.24,359.16 559.08,359.42 
	562.92,359.58 566.76,359.67 570.6,359.73 574.44,359.76 578.28,359.77 582.12,359.78 585.96,359.79 589.8,359.79 593.64,359.79 
	597.48,359.79 601.32,359.79 605.16,359.79 609,359.79 612.84,359.79 616.68,359.79 620.52,359.79 624.36,359.79 628.2,359.79 
	632.04,359.79 635.88,359.79 639.72,359.79 643.56,359.79 "/>
<polyline class="st9" points="259.56,359.79 260.33,359.79 261.1,359.79 261.87,359.79 262.64,359.79 263.41,359.79 264.18,359.79 
	264.95,359.79 265.72,359.79 266.49,359.79 267.26,359.79 268.02,359.79 268.79,359.79 269.56,359.79 270.33,359.79 271.1,359.79 
	271.87,359.79 272.64,359.79 273.41,359.79 274.18,359.79 274.95,359.79 275.72,359.79 276.49,359.79 277.26,359.79 278.03,359.79 
	278.8,359.79 279.57,359.79 280.34,359.79 281.11,359.79 281.88,359.79 282.65,359.79 283.42,359.79 284.19,359.79 284.95,359.79 
	285.72,359.79 286.49,359.79 287.26,359.79 288.03,359.79 288.8,359.79 289.57,359.79 290.34,359.79 291.11,359.79 291.88,359.79 
	292.65,359.79 293.42,359.79 294.19,359.79 294.96,359.79 295.73,359.79 296.5,359.79 297.27,359.79 298.04,359.79 298.81,359.79 
	299.58,359.79 300.35,359.79 301.12,359.79 301.88,359.79 302.65,359.79 303.42,359.79 304.19,359.79 304.96,359.79 305.73,359.79 
	306.5,359.79 307.27,359.79 308.04,359.79 308.81,359.79 309.58,359.79 310.35,359.79 311.12,359.79 311.89,359.79 312.66,359.79 
	313.43,359.79 314.2,359.79 314.97,359.79 315.74,359.79 316.51,359.79 317.28,359.79 318.04,359.79 318.81,359.79 319.58,359.79 
	320.35,359.79 321.12,359.79 321.89,359.79 322.66,359.79 323.43,359.79 324.2,359.79 324.97,359.79 325.74,359.79 326.51,359.79 
	327.28,359.79 328.05,359.79 328.82,359.79 329.59,359.79 330.36,359.79 331.13,359.79 331.9,359.79 332.67,359.79 333.44,359.79 
	334.21,359.79 334.97,359.79 335.74,359.79 336.51,359.79 337.28,359.79 338.05,359.79 338.82,359.79 339.59,359.79 340.36,359.79 
	341.13,359.79 341.9,359.79 342.67,359.79 343.44,359.79 344.21,359.79 344.98,359.79 345.75,359.79 346.52,359.79 347.29,359.79 
	348.06,359.79 348.83,359.79 349.6,359.79 350.37,359.79 351.14,359.79 351.9,359.79 352.67,359.79 353.44,359.79 354.21,359.79 
	354.98,359.79 355.75,359.79 356.52,359.79 357.29,359.79 358.06,359.79 358.83,359.79 359.6,359.79 360.37,359.79 361.14,359.79 
	361.91,359.79 362.68,359.79 363.45,359.79 364.22,359.79 364.99,359.79 365.76,359.79 366.53,359.79 367.3,359.79 368.07,359.79 
	368.83,359.79 369.6,359.79 370.37,359.79 371.14,359.79 371.91,359.79 372.68,359.79 373.45,359.79 374.22,359.79 374.99,359.79 
	375.76,359.79 376.53,359.79 377.3,359.79 378.07,359.79 378.84,359.79 379.61,359.79 380.38,359.79 381.15,359.79 381.92,359.79 
	382.69,359.79 383.46,359.79 384.23,359.79 384.99,359.79 385.76,359.79 386.53,359.79 387.3,359.79 388.07,359.79 388.84,359.79 
	389.61,359.79 390.38,359.79 391.15,359.79 391.92,359.79 392.69,359.79 393.46,359.79 394.23,359.79 395,359.79 395.77,359.79 
	396.54,359.79 397.31,359.79 398.08,359.79 398.85,359.79 399.62,359.79 400.39,359.79 401.16,359.79 401.92,359.79 402.69,359.79 
	403.46,359.79 404.23,359.79 405,359.79 405.77,359.79 406.54,359.79 407.31,359.79 408.08,359.79 408.85,359.79 409.62,359.79 
	410.39,359.79 411.16,359.79 411.93,359.79 412.7,359.79 413.47,359.79 414.24,359.79 415.01,359.79 415.78,359.79 416.55,359.79 
	417.32,359.79 418.09,359.79 418.85,359.79 419.62,359.79 420.39,359.79 421.16,359.79 421.93,359.79 422.7,359.79 423.47,359.79 
	424.24,359.79 425.01,359.79 425.78,359.79 426.55,359.79 427.32,359.79 428.09,359.79 428.86,359.79 429.63,359.79 430.4,359.79 
	431.17,359.79 431.94,359.79 432.71,359.79 433.48,359.79 434.25,359.79 435.01,359.79 435.78,359.79 436.55,359.79 437.32,359.79 
	438.09,359.79 438.86,359.79 439.63,359.79 440.4,359.79 441.17,359.79 441.94,359.79 442.71,359.79 443.48,359.79 444.25,359.79 
	445.02,359.79 445.79,359.79 446.56,359.79 447.33,359.79 448.1,359.79 448.87,359.79 449.64,359.79 450.41,359.79 451.18,359.78 
	451.94,359.76 452.71,359.68 453.48,359.38 454.25,358.37 455.02,355.36 455.79,347.11 456.56,326.64 457.33,280.62 458.1,187.06 
	458.87,15.48 459.64,2.42 "/>
<polyline class="st9" points="470.41,2.42 471.18,261.45 471.95,317.6 472.72,343.26 473.49,353.87 474.26,357.85 475.03,359.21 
	475.8,359.63 476.57,359.75 477.34,359.78 478.11,359.79 478.88,359.79 479.65,359.79 480.42,359.79 481.19,359.79 481.96,359.79 
	482.73,359.79 483.5,359.79 484.27,359.79 485.03,359.79 485.8,359.79 486.57,359.79 487.34,359.79 488.11,359.79 488.88,359.79 
	489.65,359.79 490.42,359.79 491.19,359.79 491.96,359.79 492.73,359.79 493.5,359.79 494.27,359.79 495.04,359.79 495.81,359.79 
	496.58,359.79 497.35,359.79 498.12,359.79 498.89,359.79 499.66,359.79 500.43,359.79 501.2,359.79 501.96,359.79 502.73,359.79 
	503.5,359.79 504.27,359.79 505.04,359.79 505.81,359.79 506.58,359.79 507.35,359.79 508.12,359.79 508.89,359.79 509.66,359.79 
	510.43,359.79 511.2,359.79 511.97,359.79 512.74,359.79 513.51,359.79 514.28,359.79 515.05,359.79 515.82,359.79 516.59,359.79 
	517.36,359.79 518.13,359.79 518.89,359.79 519.66,359.79 520.43,359.79 521.2,359.79 521.97,359.79 522.74,359.79 523.51,359.79 
	524.28,359.79 525.05,359.79 525.82,359.79 526.59,359.79 527.36,359.79 528.13,359.79 528.9,359.79 529.67,359.79 530.44,359.79 
	531.21,359.79 531.98,359.79 532.75,359.79 533.52,359.79 534.29,359.79 535.05,359.79 535.82,359.79 536.59,359.79 537.36,359.79 
	538.13,359.79 538.9,359.79 539.67,359.79 540.44,359.79 541.21,359.79 541.98,359.79 542.75,359.79 543.52,359.79 544.29,359.79 
	545.06,359.79 545.83,359.79 546.6,359.79 547.37,359.79 548.14,359.79 548.91,359.79 549.68,359.79 550.45,359.79 551.22,359.79 
	551.98,359.79 552.75,359.79 553.52,359.79 554.29,359.79 555.06,359.79 555.83,359.79 556.6,359.79 557.37,359.79 558.14,359.79 
	558.91,359.79 559.68,359.79 560.45,359.79 561.22,359.79 561.99,359.79 562.76,359.79 563.53,359.79 564.3,359.79 565.07,359.79 
	565.84,359.79 566.61,359.79 567.38,359.79 568.15,359.79 568.91,359.79 569.68,359.79 570.45,359.79 571.22,359.79 571.99,359.79 
	572.76,359.79 573.53,359.79 574.3,359.79 575.07,359.79 575.84,359.79 576.61,359.79 577.38,359.79 578.15,359.79 578.92,359.79 
	579.69,359.79 580.46,359.79 581.23,359.79 582,359.79 582.77,359.79 583.54,359.79 584.31,359.79 585.08,359.79 585.84,359.79 
	586.61,359.79 587.38,359.79 588.15,359.79 588.92,359.79 589.69,359.79 590.46,359.79 591.23,359.79 592,359.79 592.77,359.79 
	593.54,359.79 594.31,359.79 595.08,359.79 595.85,359.79 596.62,359.79 597.39,359.79 598.16,359.79 598.93,359.79 599.7,359.79 
	600.47,359.79 601.24,359.79 602,359.79 602.77,359.79 603.54,359.79 604.31,359.79 605.08,359.79 605.85,359.79 606.62,359.79 
	607.39,359.79 608.16,359.79 608.93,359.79 609.7,359.79 610.47,359.79 611.24,359.79 612.01,359.79 612.78,359.79 613.55,359.79 
	614.32,359.79 615.09,359.79 615.86,359.79 616.63,359.79 617.4,359.79 618.17,359.79 618.93,359.79 619.7,359.79 620.47,359.79 
	621.24,359.79 622.01,359.79 622.78,359.79 623.55,359.79 624.32,359.79 625.09,359.79 625.86,359.79 626.63,359.79 627.4,359.79 
	628.17,359.79 628.94,359.79 629.71,359.79 630.48,359.79 631.25,359.79 632.02,359.79 632.79,359.79 633.56,359.79 634.33,359.79 
	635.1,359.79 635.86,359.79 636.63,359.79 637.4,359.79 638.17,359.79 638.94,359.79 639.71,359.79 640.48,359.79 641.25,359.79 
	642.02,359.79 642.79,359.79 643.56,359.79 "/>
<path class="st9" d="M468.87,4.92"/>
<polyline class="st10" points="259.56,359.79 263.4,359.79 267.24,359.79 271.08,359.79 274.92,359.79 278.76,359.79 282.6,359.79 
	286.44,359.79 290.28,359.79 294.12,359.79 297.96,359.79 301.8,359.79 305.64,359.78 309.48,359.77 313.32,359.75 317.16,359.71 
	321,359.65 324.84,359.54 328.68,359.34 332.52,359.01 336.36,358.46 340.2,357.59 344.04,356.24 347.88,354.19 351.72,351.16 
	355.56,346.82 359.4,340.73 363.24,332.46 367.08,321.51 370.92,307.44 374.76,289.87 378.6,268.61 382.44,243.67 386.28,215.39 
	390.12,184.44 393.96,151.86 397.8,119.02 401.64,87.54 405.48,59.18 409.32,35.67 413.16,18.54 417,8.94 420.84,7.54 424.68,14.45 
	428.52,29.19 432.36,50.73 436.2,77.65 440.04,108.29 443.88,140.86 447.72,173.7 451.56,205.33 455.4,234.59 459.24,260.7 
	463.08,283.2 466.92,301.99 470.76,317.19 474.6,329.13 478.44,338.24 482.28,345 486.12,349.88 489.96,353.31 493.8,355.65 
	497.64,357.2 501.48,358.21 505.32,358.85 509.16,359.25 513,359.48 516.84,359.62 520.68,359.7 524.52,359.74 528.36,359.76 
	532.2,359.78 536.04,359.78 539.88,359.79 543.72,359.79 547.56,359.79 551.4,359.79 555.24,359.79 559.08,359.79 562.92,359.79 
	566.76,359.79 570.6,359.79 574.44,359.79 578.28,359.79 582.12,359.79 585.96,359.79 589.8,359.79 593.64,359.79 597.48,359.79 
	601.32,359.79 605.16,359.79 609,359.79 612.84,359.79 616.68,359.79 620.52,359.79 624.36,359.79 628.2,359.79 632.04,359.79 
	635.88,359.79 639.72,359.79 643.56,359.79 "/>
<path class="st11" d="M259.56,359.79h0.77h0.77h0.77h0.77h0.77h0.77h0.77h0.77h0.77h0.77h0.76h0.77h0.77h0.77h0.77h0.77h0.77h0.77
	h0.77h0.77h0.77h0.77h0.77h0.77h0.77h0.77h0.77h0.77h0.77h0.77h0.77h0.77h0.76h0.77h0.77h0.77h0.77h0.77h0.77h0.77h0.77h0.77h0.77
	h0.77h0.77h0.77h0.77h0.77h0.77h0.77h0.77h0.77h0.77h0.77h0.76h0.77h0.77h0.77h0.77h0.77h0.77h0.77h0.77h0.77h0.77h0.77h0.77h0.77
	h0.77h0.77h0.77h0.77h0.77h0.77h0.77h0.76h0.77h0.77h0.77h0.77h0.77h0.77h0.77h0.77h0.77h0.77h0.77h0.77h0.77h0.77h0.77h0.77h0.77
	h0.77h0.77h0.77h0.77h0.76h0.77h0.77h0.77h0.77h0.77h0.77h0.77h0.77h0.77h0.77h0.77h0.77h0.77h0.77h0.77h0.77h0.77h0.77h0.77h0.77
	h0.77h0.76h0.77h0.77h0.77h0.77h0.77h0.77h0.77h0.77h0.77h0.77h0.77h0.77h0.77h0.77h0.77h0.77h0.77h0.77h0.77h0.77h0.77h0.76h0.77
	h0.77h0.77h0.77h0.77h0.77h0.77h0.77h0.77h0.77h0.77h0.77h0.77h0.77h0.77h0.77h0.77h0.77h0.77h0.77h0.76h0.77h0.77h0.77h0.77h0.77
	h0.77h0.77h0.77h0.77h0.77h0.77h0.77H395h0.77h0.77h0.77h0.77h0.77h0.77h0.77h0.77h0.76h0.77h0.77h0.77H405h0.77h0.77l0.77-0.02
	l0.77-0.07l0.77-0.25l0.77-0.88l0.77-2.78l0.77-7.91l0.77-20.31l0.77-46.96c1.37-92.44,2.75-184.88,4.12-277.32
	c2.5-0.04,5.01-0.08,7.51-0.13c0.23,11.77,0.45,23.54,0.68,35.32l0.77,165.57l0.77,87.13l0.77,41.14l0.77,17.47l0.77,6.69l0.77,2.32
	l0.77,0.72l0.77,0.2l0.77,0.05l0.77,0.02h0.77h0.77h0.76h0.77h0.77h0.77h0.77h0.77h0.77h0.77h0.77h0.77h0.77h0.77h0.77h0.77h0.77
	h0.77h0.77h0.77h0.77h0.77h0.77h0.77h0.76h0.77h0.77h0.77h0.77h0.77h0.77h0.77h0.77h0.77h0.77h0.77h0.77h0.77h0.77h0.77h0.77h0.77
	h0.77h0.77h0.77h0.77h0.76h0.77h0.77h0.77h0.77h0.77h0.77h0.77h0.77h0.77h0.77h0.77h0.77h0.77h0.77h0.77h0.77h0.77h0.77h0.77h0.77
	h0.76h0.77h0.77h0.77h0.77h0.77h0.77h0.77h0.77h0.77h0.77h0.77h0.77h0.77h0.77h0.77h0.77h0.77h0.77h0.77h0.77h0.77h0.76h0.77h0.77
	h0.77h0.77h0.77h0.77h0.77h0.77h0.77h0.77h0.77h0.77h0.77h0.77h0.77h0.77h0.77h0.77h0.77h0.77h0.77h0.76h0.77h0.77h0.77h0.77h0.77
	h0.77h0.77h0.77h0.77h0.77h0.77h0.77h0.77h0.77h0.77h0.77h0.77h0.77h0.77h0.77h0.76h0.77h0.77h0.77h0.77h0.77h0.77h0.77h0.77h0.77
	h0.77h0.77h0.77h0.77h0.77h0.77h0.77h0.77h0.77h0.77h0.77h0.77h0.76h0.77h0.77h0.77h0.77h0.77h0.77h0.77h0.77h0.77h0.77h0.77h0.77
	h0.77h0.77h0.77h0.77h0.77h0.77h0.77h0.77h0.77h0.76h0.77h0.77h0.77h0.77h0.77h0.77h0.77h0.77h0.77h0.77h0.77h0.77h0.77h0.77h0.77
	h0.77H582h0.77h0.77h0.77h0.77h0.76h0.77h0.77h0.77h0.77h0.77h0.77h0.77H592h0.77h0.77h0.77h0.77h0.77h0.77h0.77h0.77h0.77h0.77
	h0.77h0.77H602h0.77h0.77h0.77h0.77h0.77h0.77h0.77h0.77h0.77h0.77h0.77h0.77h0.77h0.77h0.77h0.77h0.77h0.77h0.77h0.77h0.77h0.76
	h0.77h0.77h0.77h0.77h0.77h0.77h0.77h0.77h0.77h0.77h0.77h0.77h0.77h0.77h0.77h0.77h0.77h0.77h0.77h0.77h0.77h0.76h0.77h0.77h0.77
	h0.77h0.77h0.77h0.77h0.77h0.77h0.77"/>
<path class="st12" d="M419.56,373.55c0.02-123.12,0.04-246.25,0.06-369.37"/>
<line class="st13" x1="464.36" y1="362.29" x2="464.36" y2="2.03"/>
<circle class="st14" cx="465.27" cy="359.74" r="3.18"/>
<line class="st15" x1="465.17" y1="362.58" x2="465.17" y2="2.03"/>
<rect x="30.08" y="2.03" class="st0" width="628.84" height="371.52"/>
<g>
	<g>
		<defs>
			<rect id="SVGID_1_" y="90.75" width="289.5" height="289.5"/>
		</defs>
		<clipPath id="SVGID_00000043418373337316661550000013620906554203251606_">
			<use xlink:href="#SVGID_1_"  style="overflow:visible;"/>
		</clipPath>
		<g style="clip-path:url(#SVGID_00000043418373337316661550000013620906554203251606_);">
			<g>
				<defs>
					<rect id="SVGID_00000057136305076201843030000007620615872581176246_" x="33.91" y="124.66" width="238.22" height="213.4"/>
				</defs>
				<clipPath id="SVGID_00000079466233703472108130000009939033558797401003_">
					<use xlink:href="#SVGID_00000057136305076201843030000007620615872581176246_"  style="overflow:visible;"/>
				</clipPath>
				
					<path style="clip-path:url(#SVGID_00000079466233703472108130000009939033558797401003_);fill:none;stroke:#010101;stroke-width:0.4308;stroke-linecap:round;stroke-linejoin:round;stroke-miterlimit:10;" d="
					M-69.1,330.16c0-0.85,0.7-1.55,1.55-1.55c0.85,0,1.55,0.7,1.55,1.55c0,0.86-0.7,1.55-1.55,1.55
					C-68.41,331.71-69.1,331.02-69.1,330.16"/>
			</g>
		</g>
	</g>
	<g>
		<defs>
			<rect id="SVGID_00000088125723745574828000000007134292347694143392_" y="90.75" width="289.5" height="289.5"/>
		</defs>
		<clipPath id="SVGID_00000170258039335223057450000005814055248011467652_">
			<use xlink:href="#SVGID_00000088125723745574828000000007134292347694143392_"  style="overflow:visible;"/>
		</clipPath>
		
			<line style="clip-path:url(#SVGID_00000170258039335223057450000005814055248011467652_);fill:none;stroke:#010101;stroke-width:0.4308;stroke-linecap:round;stroke-linejoin:round;stroke-miterlimit:10;" x1="42.74" y1="338.07" x2="263.31" y2="338.07"/>
	</g>
	<g>
		<defs>
			<rect id="SVGID_00000040536247385417653380000011154749712335744166_" y="90.75" width="289.5" height="289.5"/>
		</defs>
		<clipPath id="SVGID_00000104669938999461419390000001676685959456273289_">
			<use xlink:href="#SVGID_00000040536247385417653380000011154749712335744166_"  style="overflow:visible;"/>
		</clipPath>
		
			<line style="clip-path:url(#SVGID_00000104669938999461419390000001676685959456273289_);fill:none;stroke:#010101;stroke-width:0.4308;stroke-linecap:round;stroke-linejoin:round;stroke-miterlimit:10;" x1="42.74" y1="338.07" x2="42.74" y2="342.2"/>
	</g>
	<g>
		<defs>
			<rect id="SVGID_00000071530333301709857320000002680314559450471342_" y="90.75" width="289.5" height="289.5"/>
		</defs>
		<clipPath id="SVGID_00000165212021208118256230000003672079195969604793_">
			<use xlink:href="#SVGID_00000071530333301709857320000002680314559450471342_"  style="overflow:visible;"/>
		</clipPath>
		
			<line style="clip-path:url(#SVGID_00000165212021208118256230000003672079195969604793_);fill:none;stroke:#010101;stroke-width:0.4308;stroke-linecap:round;stroke-linejoin:round;stroke-miterlimit:10;" x1="79.5" y1="338.07" x2="79.5" y2="342.2"/>
	</g>
	<g>
		<defs>
			<rect id="SVGID_00000032622093652403987250000006655053046320223934_" y="90.75" width="289.5" height="289.5"/>
		</defs>
		<clipPath id="SVGID_00000093883582066693940170000010824777017697157510_">
			<use xlink:href="#SVGID_00000032622093652403987250000006655053046320223934_"  style="overflow:visible;"/>
		</clipPath>
		
			<line style="clip-path:url(#SVGID_00000093883582066693940170000010824777017697157510_);fill:none;stroke:#010101;stroke-width:0.4308;stroke-linecap:round;stroke-linejoin:round;stroke-miterlimit:10;" x1="116.26" y1="338.07" x2="116.26" y2="342.2"/>
	</g>
	<g>
		<defs>
			<rect id="SVGID_00000134247005858014411040000015077357239721576850_" y="90.75" width="289.5" height="289.5"/>
		</defs>
		<clipPath id="SVGID_00000098909872757563735990000014343636563577252287_">
			<use xlink:href="#SVGID_00000134247005858014411040000015077357239721576850_"  style="overflow:visible;"/>
		</clipPath>
		
			<line style="clip-path:url(#SVGID_00000098909872757563735990000014343636563577252287_);fill:none;stroke:#010101;stroke-width:0.4308;stroke-linecap:round;stroke-linejoin:round;stroke-miterlimit:10;" x1="153.02" y1="338.07" x2="153.02" y2="342.2"/>
	</g>
	<g>
		<defs>
			<rect id="SVGID_00000134217324277141920010000009521511868633229206_" y="90.75" width="289.5" height="289.5"/>
		</defs>
		<clipPath id="SVGID_00000114785419365618074860000008745688757353786276_">
			<use xlink:href="#SVGID_00000134217324277141920010000009521511868633229206_"  style="overflow:visible;"/>
		</clipPath>
		
			<line style="clip-path:url(#SVGID_00000114785419365618074860000008745688757353786276_);fill:none;stroke:#010101;stroke-width:0.4308;stroke-linecap:round;stroke-linejoin:round;stroke-miterlimit:10;" x1="189.78" y1="338.07" x2="189.78" y2="342.2"/>
	</g>
	<g>
		<defs>
			<rect id="SVGID_00000148649756319307429890000014553926383775042194_" y="90.75" width="289.5" height="289.5"/>
		</defs>
		<clipPath id="SVGID_00000147926992859324453040000004476216636975497134_">
			<use xlink:href="#SVGID_00000148649756319307429890000014553926383775042194_"  style="overflow:visible;"/>
		</clipPath>
		
			<line style="clip-path:url(#SVGID_00000147926992859324453040000004476216636975497134_);fill:none;stroke:#010101;stroke-width:0.4308;stroke-linecap:round;stroke-linejoin:round;stroke-miterlimit:10;" x1="226.55" y1="338.07" x2="226.55" y2="342.2"/>
	</g>
	<g>
		<defs>
			<rect id="SVGID_00000015316469247862868360000012146100464689101738_" y="90.75" width="289.5" height="289.5"/>
		</defs>
		<clipPath id="SVGID_00000158022211830650624120000000696296380828796054_">
			<use xlink:href="#SVGID_00000015316469247862868360000012146100464689101738_"  style="overflow:visible;"/>
		</clipPath>
		
			<line style="clip-path:url(#SVGID_00000158022211830650624120000000696296380828796054_);fill:none;stroke:#010101;stroke-width:0.4308;stroke-linecap:round;stroke-linejoin:round;stroke-miterlimit:10;" x1="263.31" y1="338.07" x2="263.31" y2="342.2"/>
	</g>
	<g>
		<defs>
			<rect id="SVGID_00000116920460795936051920000018275174670588246189_" y="90.75" width="289.5" height="289.5"/>
		</defs>
		<clipPath id="SVGID_00000080902009670715939090000011647575851954398125_">
			<use xlink:href="#SVGID_00000116920460795936051920000018275174670588246189_"  style="overflow:visible;"/>
		</clipPath>
		<g style="clip-path:url(#SVGID_00000080902009670715939090000011647575851954398125_);">
			<text transform="matrix(1 0 0 1 40.816 352.9535)" class="st2 st3 st27">3</text>
		</g>
	</g>
	<g>
		<defs>
			<rect id="SVGID_00000030486499580414306440000011721387276204812462_" y="90.75" width="289.5" height="289.5"/>
		</defs>
		<clipPath id="SVGID_00000132784089811861317620000008953068249831400078_">
			<use xlink:href="#SVGID_00000030486499580414306440000011721387276204812462_"  style="overflow:visible;"/>
		</clipPath>
		<g style="clip-path:url(#SVGID_00000132784089811861317620000008953068249831400078_);">
			<text transform="matrix(1 0 0 1 77.5787 352.9535)" class="st2 st3 st27">4</text>
		</g>
	</g>
	<g>
		<defs>
			<rect id="SVGID_00000052096066694966353450000014135898582998783891_" y="90.75" width="289.5" height="289.5"/>
		</defs>
		<clipPath id="SVGID_00000029047599320073383680000002214744907003506867_">
			<use xlink:href="#SVGID_00000052096066694966353450000014135898582998783891_"  style="overflow:visible;"/>
		</clipPath>
		<g style="clip-path:url(#SVGID_00000029047599320073383680000002214744907003506867_);">
			<text transform="matrix(1 0 0 1 114.3394 352.9535)" class="st2 st3 st27">5</text>
		</g>
	</g>
	<g>
		<defs>
			<rect id="SVGID_00000015343414871756233360000004850665276748366487_" y="90.75" width="289.5" height="289.5"/>
		</defs>
		<clipPath id="SVGID_00000169523450175831113260000004878249368175023761_">
			<use xlink:href="#SVGID_00000015343414871756233360000004850665276748366487_"  style="overflow:visible;"/>
		</clipPath>
		<g style="clip-path:url(#SVGID_00000169523450175831113260000004878249368175023761_);">
			<text transform="matrix(1 0 0 1 151.1021 352.9535)" class="st2 st3 st27">6</text>
		</g>
	</g>
	<g>
		<defs>
			<rect id="SVGID_00000165955134093654943550000016956585393825923969_" y="90.75" width="289.5" height="289.5"/>
		</defs>
		<clipPath id="SVGID_00000025433710386106063210000002401352168521344387_">
			<use xlink:href="#SVGID_00000165955134093654943550000016956585393825923969_"  style="overflow:visible;"/>
		</clipPath>
		<g style="clip-path:url(#SVGID_00000025433710386106063210000002401352168521344387_);">
			<text transform="matrix(1 0 0 1 187.8638 352.9535)" class="st2 st3 st27">7</text>
		</g>
	</g>
	<g>
		<defs>
			<rect id="SVGID_00000072266881583599498080000005055199269474481539_" y="90.75" width="289.5" height="289.5"/>
		</defs>
		<clipPath id="SVGID_00000000201188505824043390000002229228151731901854_">
			<use xlink:href="#SVGID_00000072266881583599498080000005055199269474481539_"  style="overflow:visible;"/>
		</clipPath>
		<g style="clip-path:url(#SVGID_00000000201188505824043390000002229228151731901854_);">
			<text transform="matrix(1 0 0 1 224.6255 352.9535)" class="st2 st3 st27">8</text>
		</g>
	</g>
	<g>
		<defs>
			<rect id="SVGID_00000140715305167841019030000002621227661251099541_" y="90.75" width="289.5" height="289.5"/>
		</defs>
		<clipPath id="SVGID_00000098913254354833637460000006127171198636175247_">
			<use xlink:href="#SVGID_00000140715305167841019030000002621227661251099541_"  style="overflow:visible;"/>
		</clipPath>
		<g style="clip-path:url(#SVGID_00000098913254354833637460000006127171198636175247_);">
			<text transform="matrix(1 0 0 1 261.3882 352.9535)" class="st2 st3 st27">9</text>
		</g>
	</g>
	<g>
		<defs>
			<rect id="SVGID_00000179614850284409470600000004908473241598524561_" y="90.75" width="289.5" height="289.5"/>
		</defs>
		<clipPath id="SVGID_00000018938327092422143250000004308137276003695285_">
			<use xlink:href="#SVGID_00000179614850284409470600000004908473241598524561_"  style="overflow:visible;"/>
		</clipPath>
		<g style="clip-path:url(#SVGID_00000018938327092422143250000004308137276003695285_);">
			<text transform="matrix(1 0 0 1 151.1021 369.4964)" class="st2 st3 st27">0</text>
		</g>
	</g>
	<g>
		<defs>
			<rect id="SVGID_00000070839010106343994780000003238014259620266649_" y="90.75" width="289.5" height="289.5"/>
		</defs>
		<clipPath id="SVGID_00000119083569368208301120000016376399289707231920_">
			<use xlink:href="#SVGID_00000070839010106343994780000003238014259620266649_"  style="overflow:visible;"/>
		</clipPath>
		<g style="clip-path:url(#SVGID_00000119083569368208301120000016376399289707231920_);">
			<polyline class="st36" points="42.74,330.16 44.94,330.16 47.15,330.16 49.35,330.16 51.56,330.16 53.76,330.16 55.97,330.16 
				58.18,330.16 60.38,330.16 62.59,330.16 64.79,330.16 67,330.16 69.2,330.16 71.41,330.16 73.62,330.16 75.82,330.16 
				78.03,330.16 80.23,330.16 82.44,330.16 84.64,330.16 86.85,330.16 89.06,330.16 91.26,330.16 93.47,330.16 95.67,330.16 
				97.88,330.16 100.08,330.16 102.29,330.16 104.5,330.15 106.7,330.14 108.91,330.12 111.11,330.1 113.32,330.05 115.52,329.99 
				117.73,329.89 119.94,329.75 122.14,329.55 124.35,329.27 126.55,328.89 128.76,328.39 130.96,327.74 133.17,326.93 
				135.38,325.94 137.58,324.77 139.79,323.44 141.99,321.96 144.2,320.38 146.4,318.75 148.61,317.15 150.82,315.66 153.02,314.35 
				155.23,313.31 157.43,312.6 159.64,312.27 161.84,312.34 164.05,312.8 166.26,313.62 168.46,314.76 170.67,316.14 172.87,317.68 
				175.08,319.29 177.28,320.91 179.49,322.46 181.7,323.9 183.9,325.18 186.11,326.28 188.31,327.22 190.52,327.97 192.72,328.57 
				194.93,329.03 197.14,329.37 199.34,329.63 201.55,329.81 203.75,329.93 205.96,330.01 208.16,330.07 210.37,330.1 
				212.58,330.13 214.78,330.14 216.99,330.15 219.19,330.16 221.4,330.16 223.6,330.16 225.81,330.16 228.02,330.16 230.22,330.16 
				232.43,330.16 234.63,330.16 236.84,330.16 239.04,330.16 241.25,330.16 243.46,330.16 245.66,330.16 247.87,330.16 
				250.07,330.16 252.28,330.16 254.48,330.16 256.69,330.16 258.9,330.16 261.1,330.16 263.31,330.16 			"/>
			<polyline class="st37" points="42.74,330.16 43.18,330.16 43.62,330.16 44.06,330.16 44.5,330.16 44.95,330.16 45.39,330.16 
				45.83,330.16 46.27,330.16 46.72,330.16 47.16,330.16 47.6,330.16 48.04,330.16 48.48,330.16 48.92,330.16 49.36,330.16 
				49.81,330.16 50.25,330.16 50.69,330.16 51.13,330.16 51.58,330.16 52.02,330.16 52.46,330.16 52.9,330.16 53.34,330.16 
				53.79,330.16 54.23,330.16 54.67,330.16 55.11,330.16 55.56,330.16 56,330.16 56.44,330.16 56.88,330.16 57.32,330.16 
				57.76,330.16 58.2,330.16 58.65,330.16 59.09,330.16 59.53,330.16 59.97,330.16 60.42,330.16 60.86,330.16 61.3,330.16 
				61.74,330.16 62.19,330.16 62.63,330.16 63.07,330.16 63.51,330.16 63.95,330.16 64.4,330.16 64.84,330.16 65.28,330.16 
				65.72,330.16 66.17,330.16 66.61,330.16 67.04,330.16 67.49,330.16 67.93,330.16 68.37,330.16 68.81,330.16 69.26,330.16 
				69.7,330.16 70.14,330.16 70.58,330.16 71.03,330.16 71.47,330.16 71.91,330.16 72.35,330.16 72.79,330.16 73.24,330.16 
				73.68,330.16 74.12,330.16 74.56,330.16 75.01,330.16 75.45,330.16 75.89,330.16 76.33,330.16 76.77,330.16 77.21,330.16 
				77.65,330.16 78.1,330.16 78.54,330.16 78.98,330.16 79.42,330.16 79.87,330.16 80.31,330.16 80.75,330.16 81.19,330.16 
				81.63,330.16 82.08,330.16 82.52,330.16 82.96,330.16 83.4,330.16 83.85,330.16 84.29,330.16 84.73,330.16 85.17,330.16 
				85.62,330.16 86.05,330.16 86.49,330.16 86.94,330.16 87.38,330.16 87.82,330.16 88.26,330.16 88.71,330.16 89.15,330.16 
				89.59,330.16 90.03,330.16 90.47,330.16 90.92,330.16 91.36,330.16 91.8,330.16 92.24,330.16 92.69,330.16 93.13,330.16 
				93.57,330.16 94.01,330.16 94.46,330.16 94.9,330.16 95.34,330.16 95.78,330.16 96.22,330.16 96.66,330.16 97.1,330.16 
				97.55,330.16 97.99,330.16 98.43,330.16 98.87,330.16 99.31,330.16 99.76,330.16 100.2,330.16 100.64,330.16 101.08,330.16 
				101.53,330.16 101.97,330.16 102.41,330.16 102.85,330.16 103.3,330.16 103.74,330.16 104.18,330.16 104.62,330.16 
				105.06,330.16 105.5,330.16 105.94,330.16 106.39,330.16 106.83,330.16 107.27,330.16 107.71,330.16 108.15,330.16 108.6,330.16 
				109.04,330.16 109.48,330.16 109.92,330.16 110.37,330.16 110.81,330.16 111.25,330.16 111.69,330.16 112.14,330.16 
				112.58,330.16 113.02,330.16 113.46,330.16 113.9,330.16 114.35,330.16 114.78,330.16 115.23,330.16 115.67,330.16 
				116.11,330.16 116.55,330.16 116.99,330.16 117.44,330.16 117.88,330.16 118.32,330.16 118.76,330.16 119.21,330.16 
				119.65,330.16 120.09,330.16 120.53,330.16 120.98,330.16 121.42,330.16 121.86,330.16 122.3,330.16 122.74,330.16 
				123.19,330.16 123.63,330.16 124.07,330.16 124.51,330.16 124.95,330.16 125.39,330.16 125.83,330.16 126.28,330.16 
				126.72,330.16 127.16,330.16 127.6,330.16 128.05,330.16 128.49,330.16 128.93,330.16 129.37,330.16 129.82,330.16 
				130.26,330.16 130.7,330.16 131.14,330.16 131.58,330.16 132.03,330.16 132.47,330.16 132.91,330.16 133.35,330.16 133.8,330.16 
				134.23,330.16 134.67,330.16 135.12,330.16 135.56,330.16 136,330.16 136.44,330.16 136.89,330.16 137.33,330.16 137.77,330.16 
				138.21,330.16 138.66,330.16 139.1,330.16 139.54,330.16 139.98,330.16 140.42,330.16 140.87,330.16 141.31,330.16 
				141.75,330.16 142.19,330.16 142.64,330.16 143.08,330.16 143.52,330.16 143.96,330.16 144.4,330.16 144.84,330.16 
				145.28,330.16 145.73,330.16 146.17,330.16 146.61,330.16 147.05,330.16 147.5,330.16 147.94,330.16 148.38,330.16 
				148.82,330.16 149.26,330.16 149.71,330.16 150.15,330.16 150.59,330.16 151.03,330.16 151.48,330.16 151.92,330.16 
				152.36,330.16 152.8,330.16 153.24,330.16 153.68,330.16 154.12,330.14 154.57,330.09 155.01,329.93 155.45,329.5 155.89,328.43 
				156.34,326.03 156.78,321.14 157.22,312.18 157.66,297.42 158.1,275.69 158.55,247.37 158.99,215.19 159.43,184.3 159.87,161.1 
				160.32,151.14 160.76,156.98 161.2,177.1 161.64,206.57 162.09,238.99 162.53,268.72 162.96,292.33 163.41,308.88 163.85,319.23 
				164.29,325.03 164.73,327.96 165.18,329.3 165.62,329.85 166.06,330.06 166.5,330.13 166.95,330.16 167.39,330.16 167.83,330.16 
				168.27,330.16 168.71,330.16 169.16,330.16 169.6,330.16 170.04,330.16 170.48,330.16 170.93,330.16 171.37,330.16 
				171.81,330.16 172.25,330.16 172.69,330.16 173.13,330.16 173.57,330.16 174.02,330.16 174.46,330.16 174.9,330.16 
				175.34,330.16 175.79,330.16 176.23,330.16 176.67,330.16 177.11,330.16 177.55,330.16 178,330.16 178.44,330.16 178.88,330.16 
				179.32,330.16 179.77,330.16 180.21,330.16 180.65,330.16 181.09,330.16 181.53,330.16 181.97,330.16 182.41,330.16 
				182.86,330.16 183.3,330.16 183.74,330.16 184.18,330.16 184.63,330.16 185.07,330.16 185.51,330.16 185.95,330.16 
				186.39,330.16 186.84,330.16 187.28,330.16 187.72,330.16 188.16,330.16 188.61,330.16 189.05,330.16 189.49,330.16 
				189.93,330.16 190.37,330.16 190.82,330.16 191.26,330.16 191.7,330.16 192.14,330.16 192.58,330.16 193.02,330.16 
				193.47,330.16 193.91,330.16 194.35,330.16 194.79,330.16 195.23,330.16 195.68,330.16 196.12,330.16 196.56,330.16 197,330.16 
				197.45,330.16 197.89,330.16 198.33,330.16 198.77,330.16 199.22,330.16 199.66,330.16 200.1,330.16 200.54,330.16 
				200.98,330.16 201.42,330.16 201.86,330.16 202.31,330.16 202.75,330.16 203.19,330.16 203.63,330.16 204.07,330.16 
				204.52,330.16 204.96,330.16 205.4,330.16 205.84,330.16 206.29,330.16 206.73,330.16 207.17,330.16 207.61,330.16 
				208.06,330.16 208.5,330.16 208.94,330.16 209.38,330.16 209.82,330.16 210.27,330.16 210.7,330.16 211.15,330.16 211.59,330.16 
				212.03,330.16 212.47,330.16 212.91,330.16 213.36,330.16 213.8,330.16 214.24,330.16 214.68,330.16 215.13,330.16 
				215.57,330.16 216.01,330.16 216.45,330.16 216.9,330.16 217.34,330.16 217.78,330.16 218.22,330.16 218.66,330.16 
				219.11,330.16 219.55,330.16 219.99,330.16 220.43,330.16 220.87,330.16 221.31,330.16 221.75,330.16 222.2,330.16 
				222.64,330.16 223.08,330.16 223.52,330.16 223.97,330.16 224.41,330.16 224.85,330.16 225.29,330.16 225.74,330.16 
				226.18,330.16 226.62,330.16 227.06,330.16 227.5,330.16 227.95,330.16 228.39,330.16 228.83,330.16 229.27,330.16 
				229.72,330.16 230.15,330.16 230.59,330.16 231.04,330.16 231.48,330.16 231.92,330.16 232.36,330.16 232.81,330.16 
				233.25,330.16 233.69,330.16 234.13,330.16 234.58,330.16 235.02,330.16 235.46,330.16 235.9,330.16 236.34,330.16 
				236.79,330.16 237.23,330.16 237.67,330.16 238.11,330.16 238.56,330.16 239,330.16 239.43,330.16 239.88,330.16 240.32,330.16 
				240.76,330.16 241.2,330.16 241.65,330.16 242.09,330.16 242.53,330.16 242.97,330.16 243.42,330.16 243.86,330.16 244.3,330.16 
				244.74,330.16 245.18,330.16 245.63,330.16 246.07,330.16 246.51,330.16 246.95,330.16 247.4,330.16 247.84,330.16 
				248.28,330.16 248.72,330.16 249.16,330.16 249.6,330.16 250.04,330.16 250.49,330.16 250.93,330.16 251.37,330.16 
				251.81,330.16 252.26,330.16 252.7,330.16 253.14,330.16 253.58,330.16 254.02,330.16 254.47,330.16 254.91,330.16 
				255.35,330.16 255.79,330.16 256.24,330.16 256.68,330.16 257.12,330.16 257.56,330.16 258.01,330.16 258.45,330.16 
				258.88,330.16 259.33,330.16 259.77,330.16 260.21,330.16 260.65,330.16 261.1,330.16 261.54,330.16 261.98,330.16 
				262.42,330.16 262.86,330.16 263.31,330.16 			"/>
			<polyline class="st38" points="42.74,330.16 44.94,330.16 47.15,330.16 49.35,330.16 51.56,330.16 53.76,330.16 55.97,330.16 
				58.18,330.16 60.38,330.16 62.59,330.16 64.79,330.16 67,330.16 69.2,330.16 71.41,330.16 73.62,330.16 75.82,330.16 
				78.03,330.16 80.23,330.15 82.44,330.14 84.64,330.12 86.85,330.09 89.06,330.05 91.26,329.98 93.47,329.87 95.67,329.71 
				97.88,329.48 100.08,329.17 102.29,328.74 104.5,328.16 106.7,327.43 108.91,326.51 111.11,325.4 113.32,324.1 115.52,322.62 
				117.73,321.01 119.94,319.31 122.14,317.59 124.35,315.95 126.55,314.46 128.76,313.23 130.96,312.34 133.17,311.84 
				135.38,311.77 137.58,312.13 139.79,312.9 141.99,314.02 144.2,315.43 146.4,317.03 148.61,318.73 150.82,320.44 153.02,322.1 
				155.23,323.63 157.43,324.99 159.64,326.16 161.84,327.15 164.05,327.94 166.26,328.56 168.46,329.04 170.67,329.39 
				172.87,329.64 175.08,329.82 177.28,329.94 179.49,330.02 181.7,330.08 183.9,330.11 186.11,330.13 188.31,330.14 190.52,330.15 
				192.72,330.16 194.93,330.16 197.14,330.16 199.34,330.16 201.55,330.16 203.75,330.16 205.96,330.16 208.16,330.16 
				210.37,330.16 212.58,330.16 214.78,330.16 216.99,330.16 219.19,330.16 221.4,330.16 223.6,330.16 225.81,330.16 228.02,330.16 
				230.22,330.16 232.43,330.16 234.63,330.16 236.84,330.16 239.04,330.16 241.25,330.16 243.46,330.16 245.66,330.16 
				247.87,330.16 250.07,330.16 252.28,330.16 254.48,330.16 256.69,330.16 258.9,330.16 261.1,330.16 263.31,330.16 			"/>
			<polyline class="st14" points="42.74,330.16 43.18,330.16 43.62,330.16 44.06,330.16 44.5,330.16 44.95,330.16 45.39,330.16 
				45.83,330.16 46.27,330.16 46.72,330.16 47.16,330.16 47.6,330.16 48.04,330.16 48.48,330.16 48.92,330.16 49.36,330.16 
				49.81,330.16 50.25,330.16 50.69,330.16 51.13,330.16 51.58,330.16 52.02,330.16 52.46,330.16 52.9,330.16 53.34,330.16 
				53.79,330.16 54.23,330.16 54.67,330.16 55.11,330.16 55.56,330.16 56,330.16 56.44,330.16 56.88,330.16 57.32,330.16 
				57.76,330.16 58.2,330.16 58.65,330.16 59.09,330.16 59.53,330.16 59.97,330.16 60.42,330.16 60.86,330.16 61.3,330.16 
				61.74,330.16 62.19,330.16 62.63,330.16 63.07,330.16 63.51,330.16 63.95,330.16 64.4,330.16 64.84,330.16 65.28,330.16 
				65.72,330.16 66.17,330.16 66.61,330.16 67.04,330.16 67.49,330.16 67.93,330.16 68.37,330.16 68.81,330.16 69.26,330.16 
				69.7,330.16 70.14,330.16 70.58,330.16 71.03,330.16 71.47,330.16 71.91,330.16 72.35,330.16 72.79,330.16 73.24,330.16 
				73.68,330.16 74.12,330.16 74.56,330.16 75.01,330.16 75.45,330.16 75.89,330.16 76.33,330.16 76.77,330.16 77.21,330.16 
				77.65,330.16 78.1,330.16 78.54,330.16 78.98,330.16 79.42,330.16 79.87,330.16 80.31,330.16 80.75,330.16 81.19,330.16 
				81.63,330.16 82.08,330.16 82.52,330.16 82.96,330.16 83.4,330.16 83.85,330.16 84.29,330.16 84.73,330.16 85.17,330.16 
				85.62,330.16 86.05,330.16 86.49,330.16 86.94,330.16 87.38,330.16 87.82,330.16 88.26,330.16 88.71,330.16 89.15,330.16 
				89.59,330.16 90.03,330.16 90.47,330.16 90.92,330.16 91.36,330.16 91.8,330.16 92.24,330.16 92.69,330.16 93.13,330.16 
				93.57,330.16 94.01,330.16 94.46,330.16 94.9,330.16 95.34,330.16 95.78,330.16 96.22,330.16 96.66,330.16 97.1,330.16 
				97.55,330.16 97.99,330.16 98.43,330.16 98.87,330.16 99.31,330.16 99.76,330.16 100.2,330.16 100.64,330.16 101.08,330.16 
				101.53,330.16 101.97,330.16 102.41,330.16 102.85,330.16 103.3,330.16 103.74,330.16 104.18,330.16 104.62,330.16 
				105.06,330.16 105.5,330.16 105.94,330.16 106.39,330.16 106.83,330.16 107.27,330.16 107.71,330.16 108.15,330.16 108.6,330.16 
				109.04,330.16 109.48,330.16 109.92,330.16 110.37,330.16 110.81,330.16 111.25,330.16 111.69,330.16 112.14,330.16 
				112.58,330.16 113.02,330.16 113.46,330.16 113.9,330.16 114.35,330.16 114.78,330.16 115.23,330.16 115.67,330.16 
				116.11,330.16 116.55,330.16 116.99,330.16 117.44,330.16 117.88,330.16 118.32,330.16 118.76,330.16 119.21,330.16 
				119.65,330.16 120.09,330.16 120.53,330.16 120.98,330.16 121.42,330.16 121.86,330.16 122.3,330.16 122.74,330.16 
				123.19,330.16 123.63,330.16 124.07,330.16 124.51,330.16 124.95,330.16 125.39,330.16 125.83,330.16 126.28,330.16 
				126.72,330.16 127.16,330.16 127.6,330.16 128.05,330.16 128.49,330.14 128.93,330.1 129.37,329.96 129.82,329.54 130.26,328.48 
				130.7,326.03 131.14,320.93 131.58,311.41 132.03,295.55 132.47,272.1 132.91,241.62 133.35,207.46 133.8,175.61 134.23,153.22 
				134.67,146.04 135.12,156.02 135.56,180.45 136,213.18 136.44,247.09 136.89,276.54 137.33,298.7 137.77,313.38 138.21,322.03 
				138.66,326.58 139.1,328.73 139.54,329.64 139.98,329.99 140.42,330.11 140.87,330.15 141.31,330.16 141.75,330.16 
				142.19,330.16 142.64,330.16 143.08,330.16 143.52,330.16 143.96,330.16 144.4,330.16 144.84,330.16 145.28,330.16 
				145.73,330.16 146.17,330.16 146.61,330.16 147.05,330.16 147.5,330.16 147.94,330.16 148.38,330.16 148.82,330.16 
				149.26,330.16 149.71,330.16 150.15,330.16 150.59,330.16 151.03,330.16 151.48,330.16 151.92,330.16 152.36,330.16 
				152.8,330.16 153.24,330.16 153.68,330.16 154.12,330.16 154.57,330.16 155.01,330.16 155.45,330.16 155.89,330.16 
				156.34,330.16 156.78,330.16 157.22,330.16 157.66,330.16 158.1,330.16 158.55,330.16 158.99,330.16 159.43,330.16 
				159.87,330.16 160.32,330.16 160.76,330.16 161.2,330.16 161.64,330.16 162.09,330.16 162.53,330.16 162.96,330.16 
				163.41,330.16 163.85,330.16 164.29,330.16 164.73,330.16 165.18,330.16 165.62,330.16 166.06,330.16 166.5,330.16 
				166.95,330.16 167.39,330.16 167.83,330.16 168.27,330.16 168.71,330.16 169.16,330.16 169.6,330.16 170.04,330.16 
				170.48,330.16 170.93,330.16 171.37,330.16 171.81,330.16 172.25,330.16 172.69,330.16 173.13,330.16 173.57,330.16 
				174.02,330.16 174.46,330.16 174.9,330.16 175.34,330.16 175.79,330.16 176.23,330.16 176.67,330.16 177.11,330.16 
				177.55,330.16 178,330.16 178.44,330.16 178.88,330.16 179.32,330.16 179.77,330.16 180.21,330.16 180.65,330.16 181.09,330.16 
				181.53,330.16 181.97,330.16 182.41,330.16 182.86,330.16 183.3,330.16 183.74,330.16 184.18,330.16 184.63,330.16 
				185.07,330.16 185.51,330.16 185.95,330.16 186.39,330.16 186.84,330.16 187.28,330.16 187.72,330.16 188.16,330.16 
				188.61,330.16 189.05,330.16 189.49,330.16 189.93,330.16 190.37,330.16 190.82,330.16 191.26,330.16 191.7,330.16 
				192.14,330.16 192.58,330.16 193.02,330.16 193.47,330.16 193.91,330.16 194.35,330.16 194.79,330.16 195.23,330.16 
				195.68,330.16 196.12,330.16 196.56,330.16 197,330.16 197.45,330.16 197.89,330.16 198.33,330.16 198.77,330.16 199.22,330.16 
				199.66,330.16 200.1,330.16 200.54,330.16 200.98,330.16 201.42,330.16 201.86,330.16 202.31,330.16 202.75,330.16 
				203.19,330.16 203.63,330.16 204.07,330.16 204.52,330.16 204.96,330.16 205.4,330.16 205.84,330.16 206.29,330.16 
				206.73,330.16 207.17,330.16 207.61,330.16 208.06,330.16 208.5,330.16 208.94,330.16 209.38,330.16 209.82,330.16 
				210.27,330.16 210.7,330.16 211.15,330.16 211.59,330.16 212.03,330.16 212.47,330.16 212.91,330.16 213.36,330.16 213.8,330.16 
				214.24,330.16 214.68,330.16 215.13,330.16 215.57,330.16 216.01,330.16 216.45,330.16 216.9,330.16 217.34,330.16 
				217.78,330.16 218.22,330.16 218.66,330.16 219.11,330.16 219.55,330.16 219.99,330.16 220.43,330.16 220.87,330.16 
				221.31,330.16 221.75,330.16 222.2,330.16 222.64,330.16 223.08,330.16 223.52,330.16 223.97,330.16 224.41,330.16 
				224.85,330.16 225.29,330.16 225.74,330.16 226.18,330.16 226.62,330.16 227.06,330.16 227.5,330.16 227.95,330.16 
				228.39,330.16 228.83,330.16 229.27,330.16 229.72,330.16 230.15,330.16 230.59,330.16 231.04,330.16 231.48,330.16 
				231.92,330.16 232.36,330.16 232.81,330.16 233.25,330.16 233.69,330.16 234.13,330.16 234.58,330.16 235.02,330.16 
				235.46,330.16 235.9,330.16 236.34,330.16 236.79,330.16 237.23,330.16 237.67,330.16 238.11,330.16 238.56,330.16 239,330.16 
				239.43,330.16 239.88,330.16 240.32,330.16 240.76,330.16 241.2,330.16 241.65,330.16 242.09,330.16 242.53,330.16 
				242.97,330.16 243.42,330.16 243.86,330.16 244.3,330.16 244.74,330.16 245.18,330.16 245.63,330.16 246.07,330.16 
				246.51,330.16 246.95,330.16 247.4,330.16 247.84,330.16 248.28,330.16 248.72,330.16 249.16,330.16 249.6,330.16 250.04,330.16 
				250.49,330.16 250.93,330.16 251.37,330.16 251.81,330.16 252.26,330.16 252.7,330.16 253.14,330.16 253.58,330.16 
				254.02,330.16 254.47,330.16 254.91,330.16 255.35,330.16 255.79,330.16 256.24,330.16 256.68,330.16 257.12,330.16 
				257.56,330.16 258.01,330.16 258.45,330.16 258.88,330.16 259.33,330.16 259.77,330.16 260.21,330.16 260.65,330.16 
				261.1,330.16 261.54,330.16 261.98,330.16 262.42,330.16 262.86,330.16 263.31,330.16 			"/>
			<line class="st39" x1="134.64" y1="338.07" x2="134.64" y2="124.66"/>
			<line class="st36" x1="160.37" y1="338.07" x2="160.37" y2="124.66"/>
			<line class="st40" x1="160.84" y1="338.07" x2="160.84" y2="124.66"/>
		</g>
	</g>
</g>
<text transform="matrix(1 0 0 1 190.2696 120.8481)" class="st41"><tspan x="0" y="0" class="st42 st4">Distribution of Sample means (H</tspan><tspan x="172.73" y="0" class="st43 st4">₀</tspan><tspan x="176.77" y="0" class="st42 st4">)</tspan></text>
<text transform="matrix(1 0 0 1 189.8764 145.3456)" class="st41"><tspan x="0" y="0" class="st42 st4">Distribution of Sample means (H</tspan><tspan x="172.73" y="0" class="st43 st4">₁</tspan><tspan x="175.66" y="0" class="st42 st4">)</tspan></text>
<text transform="matrix(1 0 0 1 192.9975 182.0396)" class="st41"><tspan x="0" y="0" class="st42 st4">Distribution of population (H</tspan><tspan x="148.08" y="0" class="st43 st4">₀</tspan><tspan x="152.11" y="0" class="st42 st4">)</tspan></text>
<text transform="matrix(1 0 0 1 194.9068 219.4607)" class="st41"><tspan x="0" y="0" class="st42 st4">Distribution of population (H</tspan><tspan x="148.08" y="0" class="st43 st4">₁</tspan><tspan x="151.01" y="0" class="st42 st4">)</tspan></text>
<g>
	<line class="st0" x1="185.45" y1="117.99" x2="136.19" y2="166.49"/>
	<g>
		<line class="st44" x1="185.45" y1="117.99" x2="138.34" y2="164.37"/>
		<g>
			<path class="st2" d="M136.19,166.49c0.64-1.37,1.27-3.25,1.38-4.69l1.06,2.3l2.28,1.09
				C139.46,165.27,137.58,165.87,136.19,166.49z"/>
		</g>
	</g>
</g>
<g>
	<line class="st0" x1="189.65" y1="143.2" x2="162.54" y2="178.71"/>
	<g>
		<line class="st44" x1="189.65" y1="143.2" x2="164.37" y2="176.31"/>
		<g>
			<path class="st2" d="M162.54,178.71c0.44-1.45,0.8-3.39,0.7-4.84l1.37,2.13l2.41,0.76C165.61,177.04,163.82,177.9,162.54,178.71z
				"/>
		</g>
	</g>
</g>
<g>
	<line class="st0" x1="192.71" y1="179.85" x2="142.3" y2="311.97"/>
	<g>
		<line class="st44" x1="192.71" y1="179.85" x2="143.38" y2="309.15"/>
		<g>
			<path class="st2" d="M142.3,311.97c0.01-1.51-0.2-3.48-0.7-4.84l1.92,1.65l2.53,0.04C144.77,309.51,143.3,310.83,142.3,311.97z"
				/>
		</g>
	</g>
</g>
<g>
	<line class="st0" x1="193.47" y1="220.71" x2="170.67" y2="316.14"/>
	<g>
		<line class="st44" x1="193.47" y1="220.71" x2="171.37" y2="313.21"/>
		<g>
			<path class="st2" d="M170.67,316.14c-0.18-1.5-0.65-3.43-1.32-4.71l2.11,1.39l2.51-0.28
				C172.79,313.38,171.51,314.88,170.67,316.14z"/>
		</g>
	</g>
</g>
<g>
	<line class="st0" x1="346.59" y1="218.04" x2="433.27" y2="182.53"/>
	<g>
		<line class="st44" x1="346.59" y1="218.04" x2="430.48" y2="183.67"/>
		<g>
			<path class="st2" d="M433.27,182.53c-1.11,1.03-2.4,2.53-3.05,3.82l-0.11-2.53l-1.7-1.87
				C429.79,182.41,431.76,182.58,433.27,182.53z"/>
		</g>
	</g>
</g>
<g>
	<line class="st0" x1="347.74" y1="179.09" x2="390.89" y2="163.43"/>
	<g>
		<line class="st44" x1="347.74" y1="179.09" x2="388.05" y2="164.46"/>
		<g>
			<path class="st2" d="M390.89,163.43c-1.16,0.98-2.5,2.43-3.21,3.69v-2.53l-1.62-1.94C387.41,163.18,389.37,163.42,390.89,163.43z
				"/>
		</g>
	</g>
</g>
<g>
	<line class="st0" x1="369.1" y1="142.23" x2="455.8" y2="123.31"/>
	<g>
		<line class="st45" x1="369.1" y1="142.23" x2="453.11" y2="123.89"/>
		<g>
			<path class="st2" d="M455.8,123.31c-1.19,0.91-2.62,2.32-3.46,3.66l0.42-3.01l-1.11-2.67
				C452.76,122.22,454.47,122.96,455.8,123.31z"/>
		</g>
	</g>
</g>
<g>
	<line class="st0" x1="503.53" y1="75.23" x2="420.29" y2="85.54"/>
	<g>
		<line class="st44" x1="503.53" y1="75.23" x2="423.29" y2="85.17"/>
		<g>
			<path class="st2" d="M420.29,85.54c1.34-0.7,2.98-1.81,3.95-2.89l-0.56,2.47l1.15,2.25C423.62,86.56,421.76,85.88,420.29,85.54z"
				/>
		</g>
	</g>
</g>
<g>
	<line class="st0" x1="504.04" y1="102.72" x2="464.2" y2="105.39"/>
	<g>
		<line class="st44" x1="504.04" y1="102.72" x2="467.21" y2="105.19"/>
		<g>
			<path class="st2" d="M464.2,105.39c1.38-0.62,3.08-1.64,4.1-2.66l-0.7,2.43l1.02,2.31C467.47,106.6,465.66,105.82,464.2,105.39z"
				/>
		</g>
	</g>
</g>
<g>
	<line class="st0" x1="507.1" y1="145.74" x2="465.73" y2="148.92"/>
	<g>
		<line class="st44" x1="507.1" y1="145.74" x2="468.74" y2="148.69"/>
		<g>
			<path class="st2" d="M465.73,148.92c1.38-0.63,3.06-1.67,4.08-2.7l-0.68,2.44l1.04,2.3C469.01,150.1,467.19,149.34,465.73,148.92
				z"/>
		</g>
	</g>
</g>
<g>
	<line class="st0" x1="362.63" y1="116.47" x2="413.42" y2="101.57"/>
	<g>
		<line class="st44" x1="362.63" y1="116.47" x2="410.52" y2="102.42"/>
		<g>
			<path class="st2" d="M413.42,101.57c-1.21,0.91-2.65,2.26-3.43,3.48l0.16-2.52l-1.49-2.04
				C409.96,101.1,411.91,101.47,413.42,101.57z"/>
		</g>
	</g>
</g>
<text transform="matrix(1 0 0 1 500.1212 71.7062)" class="st41"><tspan x="0" y="0" class="st42 st4">Population mean for H</tspan><tspan x="119.4" y="0" class="st43 st4">₀</tspan></text>
<text transform="matrix(1 0 0 1 500.1212 100.5062)" class="st41"><tspan x="0" y="0" class="st42 st4">Population mean for H</tspan><tspan x="119.4" y="0" class="st43 st4">₁</tspan></text>
<text transform="matrix(1 0 0 1 500.1212 114.9061)" class="st42 st4">(pink line)</text>
<text transform="matrix(1 0 0 1 500.1212 143.7062)" class="st42 st4">Sample mean in this example</text>
<text transform="matrix(1 0 0 1 500.1212 158.1061)" class="st42 st4">(black line)</text>
<rect x="29.05" y="52.23" class="st14" width="20.87" height="17.31"/>
<text transform="matrix(1 0 0 1 56.3115 64.998)" class="st43 st46">Distribution on which t-test was actually performed </text>
</svg>
